<svg xmlns="http://www.w3.org/2000/svg" viewBox="0 0 247.42 372.96"><defs><style>.cls-1{fill:#a9adb0;}.cls-2{fill:#b3b4b6;}.cls-3{fill:#c4bbb3;}.cls-4{fill:#c6b9ac;}.cls-5{fill:#969fa9;}.cls-6{fill:#c7b9ab;}.cls-7{fill:#848282;}.cls-8{fill:#97a0a9;}.cls-9{fill:#928e8a;}.cls-10{fill:#adb5bd;}.cls-11{fill:#86888d;}.cls-12{fill:#9a938e;}.cls-13{fill:#898d93;}.cls-14{fill:#fdf5ea;}.cls-15{fill:#82807e;}.cls-16{fill:#ada299;}.cls-17{fill:#e7ecf2;}.cls-18{fill:#ccc0b4;}.cls-19{fill:#b0bbc6;}.cls-20{fill:#a09892;}.cls-21{fill:#959ea8;}.cls-22{fill:#a69d95;}.cls-23{fill:#91979e;}.cls-24{fill:#b5c0cb;}.cls-25{fill:#b6aa9e;}.cls-26{fill:#a3aeb9;}.cls-27{fill:#fbeee0;}.cls-28{fill:#a9b4bf;}.cls-29{fill:#f0e2d3;}.cls-30{fill:#fefbf3;}.cls-31{fill:#8c939b;}.cls-32{fill:#9ba6b1;}.cls-33{fill:#dbe4ec;}.cls-34{fill:#959392;}.cls-35{fill:#817f7e;}.cls-36{fill:#beb2a5;}.cls-37{fill:#c5d2de;}.cls-38{fill:#8e8a88;}.cls-39{fill:#becbd7;}.cls-40{fill:#d9cbbb;}.cls-41{fill:#817e7d;}.cls-42{fill:#b9c6d3;}.cls-43{fill:#e0d0c0;}.cls-44{fill:#e6d6c7;}.cls-45{fill:#c6b7a8;}.cls-46{fill:#d4c5b5;}.cls-47{fill:#cfc0b1;}.cls-48{fill:#eedecc;}.cls-49{fill:#c9d1da;}.cls-50{fill:#f4f8fb;}.cls-51{fill:#a1a6ad;}.cls-52{fill:#92908f;}.cls-53{fill:#8a8684;}.cls-54{fill:#dbddde;}.cls-55{fill:#cfddea;}.cls-56{fill:#e3e5e7;}.cls-57{fill:#ebecee;}.cls-58{fill:#d1d4d7;}.cls-59{fill:#9e9b99;}.cls-60{fill:#dcdcdb;}.cls-61{fill:#e4e4e3;}.cls-62{fill:#b1afad;}.cls-63{fill:#edeff0;}.cls-64{fill:#878583;}.cls-65{fill:#f8f4ef;}.cls-66{fill:#b3aaa2;}.cls-67{fill:#faf5f0;}.cls-68{fill:#dcd2c8;}.cls-69{fill:#dcd1c5;}.cls-70{fill:#f4ede5;}.cls-71{fill:#f4e8db;}.cls-72{fill:#ede3d7;}.cls-73{fill:#b5bcc4;}.cls-74{fill:#bec7d1;}.cls-75{fill:#e8dccf;}.cls-76{fill:#f3e7db;}.cls-77{fill:#c3bbb4;}.cls-78{fill:#b8b9ba;}.cls-79{fill:#c2bebc;}.cls-80{fill:#8b8885;}.cls-81{fill:#b4b5b6;}.cls-82{fill:#bcbcbd;}.cls-83{fill:#84817f;}.cls-84{fill:#888582;}.cls-85{fill:#b1b3b5;}.cls-86{fill:#acafb2;}.cls-87{fill:#c3bbb3;}.cls-88{fill:#807e7d;}.cls-89{fill:#838487;}.cls-90{fill:#a1a6ac;}.cls-91{fill:#8e8d8c;}.cls-92{fill:#94918f;}.cls-93{fill:#9aa2aa;}.cls-94{fill:#a7aaaf;}.cls-95{fill:#969494;}.cls-96{fill:#9a9795;}.cls-97{fill:#929191;}.cls-98{fill:#909397;}.cls-99{fill:#f8f5f1;}.cls-100{fill:#f6eee6;}.cls-101{fill:#a3a2a1;}.cls-102{fill:#ada7a2;}.cls-103{fill:#eceff2;}.cls-104{fill:#e8e9eb;}.cls-105{fill:#edeceb;}.cls-106{fill:#e1e7ed;}.cls-107{fill:#b8bcc1;}.cls-108{fill:#b1b6bd;}.cls-109{fill:#9f9c9b;}.cls-110{fill:#a0a3a8;}.cls-111{fill:#9d9fa3;}.cls-112{fill:#989b9f;}.cls-113{fill:#999;}.cls-114{fill:#bcc3ca;}.cls-115{fill:#b6aea7;}.cls-116{fill:#abb1b7;}.cls-117{fill:#a2a9b0;}.cls-118{fill:#a9acb0;}.cls-119{fill:#e4dcd5;}.cls-120{fill:#eae3dc;}.cls-121{fill:#dce1e5;}.cls-122{fill:#d5dde4;}.cls-123{fill:#bfb7ae;}.cls-124{fill:#cfd5db;}.cls-125{fill:#c6ced6;}.cls-126{fill:#ced8e2;}.cls-127{fill:#c0c8d0;}.cls-128{fill:#d1c8bf;}.cls-129{fill:#d8cec3;}.cls-130{fill:#dfd4c9;}.cls-131{fill:#e6dace;}.cls-132{fill:#c7bdb2;}.cls-133{fill:#cbc3ba;}.cls-134{fill:#c2c2c2;}.cls-135{fill:#f3f3f3;}.cls-136{fill:#cacac9;}.cls-137{fill:#a3a2a3;}.cls-138{fill:#aeafb3;}.cls-139{fill:#a8abb0;}.cls-140{fill:#c2c2c1;}.cls-141{fill:#bdbdbe;}.cls-142{fill:#c2c0be;}.cls-143{fill:#bebebf;}.cls-144{fill:#bdbdbd;}.cls-145{fill:#c2c1c1;}.cls-146{fill:#b9b9ba;}.cls-147{fill:#c2bdb8;}.cls-148{fill:#f1f0ee;}.cls-149{fill:#ede8e3;}.cls-150{fill:#a8a7a6;}.cls-151{fill:#adacab;}.cls-152{fill:#e4e6e7;}.cls-153{fill:#bcbcbc;}.cls-154{fill:#c1c1c1;}.cls-155{fill:#b7b7b7;}.cls-156{fill:#b6b5b4;}.cls-157{fill:#c4c7cb;}.cls-158{fill:#b2b2b1;}.cls-159{fill:#aeafb0;}.cls-160{fill:#dddede;}.cls-161{fill:#dadada;}.cls-162{fill:#dbd5d0;}.cls-163{fill:#e2e3e3;}.cls-164{fill:#d5d8db;}.cls-165{fill:#bdb9b5;}.cls-166{fill:#d5d5d5;}.cls-167{fill:#d1d2d3;}.cls-168{fill:#cbd0d4;}.cls-169{fill:#c8cbce;}.cls-170{fill:#c5c5c4;}.cls-171{fill:#c9c9c9;}.cls-172{fill:#d1ccc7;}.cls-173{fill:#d7d1cc;}.cls-174{fill:#c3bfbb;}.cls-175{fill:#c1bfbd;}.cls-176{fill:#cfcfce;}</style></defs><g id="레이어_2" data-name="레이어 2"><g id="레이어_1-2" data-name="레이어 1"><path class="cls-1" d="M204.68,19.63c.92,1.62.69,3.4.69,5.14q0,165.14,0,330.28c0,1.47.37,3-.61,4.36-1-.82-.86-1.94-.86-3.08q.09-163.81,0-327.63a10.35,10.35,0,0,1,.13-2.94,22.86,22.86,0,0,0-.13,4.65q0,159.32.16,318.63c0,10.27-3.22,12.25-13.87,14.36-3-.17-6,.37-8.81-1-1-.5-2.87-.71-1.89-2.72a5.12,5.12,0,0,1,4-.24,12,12,0,0,0,5.2.08c11.19-2.28,9.46-2.61,9.47-11.17q.06-158.66,0-317.31a36.87,36.87,0,0,1,.24-6.73C199.09,20.88,201.27,19.28,204.68,19.63Z"/><path class="cls-2" d="M204.68,19.63c-3.93.82-5.32,3.18-5.32,7.23q.12,162.72.17,325.46c0,4.22-1.61,5.94-5.27,7.14-5,1.65-10,1.29-15.06.6-2,.43-3.73,0-4.66-2.07a1.63,1.63,0,0,1,.9-.79,5.42,5.42,0,0,1,3.26.15,28.86,28.86,0,0,0,13.33.18c2.3-.57,3.5-1.65,3.3-4.13-.12-1.36,0-2.74,0-4.11q0-160.37,0-320.72c0-3.15-.27-6.35,3-8.27,1.9-1.36,3.78-2.81,6.3-1.39A1.59,1.59,0,0,1,204.68,19.63Z"/><path class="cls-3" d="M48.82,181.6l-.82-.68a14.48,14.48,0,0,1-.08-1.47c0-.53,0-1,0-1.58a8.7,8.7,0,0,1,1.25-4.43c1.7-1.31,3.29-3.38,5.58-.84.78,2.31.51,4.7.51,7.05q0,84.2,0,168.38a31.05,31.05,0,0,0,.5,7.45,2.7,2.7,0,0,1,0,1.41A3,3,0,0,1,53.35,358a5.08,5.08,0,0,1-3.84-.94h0c-.61-1.44-.3-3-.3-4.43q0-83.32,0-166.65C49.17,184.55,49.55,183,48.82,181.6Z"/><path class="cls-4" d="M215.12,360.16c-1.08-1.29-.74-2.86-.74-4.32q0-166.57,0-333.17c0-1,.07-2,.11-3a1.4,1.4,0,0,1,1.41.08,4.52,4.52,0,0,1,1.79,3.92c.07,1.75,0,3.5,0,5.25q0,159.47,0,318.94c0,2.5,0,5,.06,7.48a4.22,4.22,0,0,1,0,1.28c-.27,1-1.22,1.47-1.65,2.34A2.71,2.71,0,0,1,215.12,360.16Z"/><path class="cls-5" d="M189.69,362.31c4,.31,7.23-1.63,10.47-3.48,2.35-1.34,3.09-3.34,3.09-6.19q-.13-163.06-.05-326.14c0-1.54-.55-3.23.91-5,.93,1.48.53,2.94.53,4.26q0,158.57,0,317.14c0,5.5.05,11,.08,16.49l-.06-.09a26.91,26.91,0,0,1-24.78,5.37,33.29,33.29,0,0,0-5.84-.91,1.19,1.19,0,0,1-.15-.64c.47-2.6,1.9-3.35,5-2a20.21,20.21,0,0,0,9.41,1.56A2.35,2.35,0,0,0,189.69,362.31Z"/><path class="cls-6" d="M173.1,361c-.91-1.07-.68-2.37-.68-3.59q0-167.55,0-335.09c0-.38,0-.75.06-1.13a1.41,1.41,0,0,1,1.42-.07c1,.92,1.11,2.18,1.21,3.43s.06,2.25.06,3.37q0,163.13,0,326.25a7.27,7.27,0,0,1-.51,3.66v0C174,358.77,174.35,360.28,173.1,361Z"/><path class="cls-7" d="M102.05,166.71a48.14,48.14,0,0,1-19.49,13.56c-2.28-1.37-1.84-3.44-1.41-5.5,1.63-.42,1.63-.42,2.68,2,6.52-2.74,11.77-7.14,16.37-12.4,4.83-5.66,5.38-11.08,1.91-17.15-1.26-2.2-2.86-3-5.26-2.2a29.28,29.28,0,0,0-3.87,1.4c-9.28,4.61-19.34,6.49-29.37,8.46-5.06,1-10.1,2-13.19,6.82a2.11,2.11,0,0,1-2.49,1.2c-.19-3.77,2.1-7.1,6.31-9.05a34.11,34.11,0,0,1,7.48-2.32,125.55,125.55,0,0,0,38.79-14.93c5.34-1.73,8.63-.18,10.56,5,2.11,5.64.1,10.71-2.15,15.75C107.43,161,104.23,163.49,102.05,166.71Z"/><path class="cls-8" d="M81.82,174.12c0,2.07-.35,4.2.74,6.15-.94,1.48-.62,3.15-.62,4.75q0,84.53,0,169c0,2.08.45,4.26-.75,6.21a12,12,0,0,1-2.45-2.43,2.17,2.17,0,0,1,.06-1.91c.69-2.07.44-4.21.44-6.32q0-85.17,0-170.33c0-2-.26-4,.4-5.94C81,171.75,81.57,172.49,81.82,174.12Z"/><path class="cls-9" d="M48.81,180.1l-.81.82a44.82,44.82,0,0,1-12.75-7.31c-3.38-3.52-7.19-6.65-9.82-10.85a11.87,11.87,0,0,1-1.66-3.68,27.72,27.72,0,0,1-2.22-12.75c.28-4.37,1.84-6.1,6.2-6.27,5.5-.21,10.92.88,16.32,1.66,5.22.76,10.4,0,15.58.46-.18,2-.4,2.38-2.6,2.67-3.32.44-6.62,1.2-10,1a87.82,87.82,0,0,0-11.12.68c-4.69.37-6.76,4.07-6,10.37,2.39,9.54,8.49,16.2,16.54,21.34A12,12,0,0,1,48.81,180.1Z"/><path class="cls-10" d="M246.69,18.84c1,1.32.66,2.88.66,4.34q0,165.57,0,331.14c0,1.45.4,3-.64,4.34a3,3,0,0,1-1-2,31.09,31.09,0,0,1-.12-3.74V24.49c0-1,0-2,.05-3a4.64,4.64,0,0,1,.54-2.13Z"/><path class="cls-11" d="M102.05,166.71c1.21-3.55,4.7-5.59,6-9.1,3-6.25,6.36-12.38,7-19.5.52-5.52-1.54-7.4-7-6.09a12.62,12.62,0,0,1-3.65.75,3.66,3.66,0,0,1-2.5-1.26c-.11-2.49,2.21-3.06,3.55-4.36a32.73,32.73,0,0,1,4.39-3.43,28.19,28.19,0,0,1,5.83-2.49c3.79-1.17,6,.21,6,4.14a37.22,37.22,0,0,1-2.84,13.77,25.42,25.42,0,0,0-1.72,5.23c-2.14,7.23-6.83,12.91-11.38,18.66A12.5,12.5,0,0,1,102.05,166.71Z"/><path class="cls-12" d="M24.83,159.86a43.6,43.6,0,0,0,8,10.6c.94.94,2.18,1.68,2.47,3.15a43.43,43.43,0,0,1-10.48-9.85,50.14,50.14,0,0,1-9.43-19.94c-1.42-5.79-.06-9.67,4.19-11.62a27.29,27.29,0,0,1,9.35,2c.88,1.35,3.6.9,3.34,3.38-1.12.82-2.38.41-3.59.43-4.66,0-6.49,1.76-6.79,6.43A27.56,27.56,0,0,0,24.83,159.86Z"/><path class="cls-13" d="M117.1,144.37c-.07-5.16,2.79-9.71,3.11-14.8.06-.85.45-1.68.51-2.53.38-5.21-1.11-6.25-6-4.32-1.72.68-3.49,1.27-5.23,1.9a2,2,0,0,1-1.33-2.18c.71-2.62,3.09-3.9,4.67-5.83,1.36-1.27,3-2.25,4.26-3.57,1.72-1.34,3.62-2.76,5.75-1.39s2.57,3.75,2.28,6.32a85.29,85.29,0,0,1-5.9,22.27Z"/><path class="cls-14" d="M18.08,26.38c2.23-4.36,5.67-7.75,9-11.24a47.7,47.7,0,0,1,9.61-6.81c4.16-2.1,8.5-3.35,13-.86,1,3.92-.9,7-2.92,10-3.12.25-5.81-1.81-8.91-1.63-4.09-1.49-7.22.45-10.21,2.86-2.13,1.72-3.9,3.83-5.92,5.67C20.72,25.32,19.91,26.82,18.08,26.38Z"/><path class="cls-15" d="M245.09,362.86c-4.3,9.31-15.71,12-24,5.72-1.68-3-1.26-3.91,2-4.28a22.59,22.59,0,0,1,4.11-.07,27.1,27.1,0,0,0,14.43-3.13C244.46,359.63,245.11,360.14,245.09,362.86Z"/><path class="cls-16" d="M14.3,148.71A38.43,38.43,0,0,1,9,137.51a94.79,94.79,0,0,1-3.78-14.64c-.89-5.45.13-8,3.92-10,4.63.27,8.29,2.47,11.41,5.75a2.69,2.69,0,0,1-1.08,2.68c-1.49.79-3.13.63-4.72.62-2.7,0-4.11,1.18-4.3,4C10,132.3,12,138.27,14,144.24,14.53,145.72,15.68,147.14,14.3,148.71Z"/><path class="cls-17" d="M89.27,4.64c2.89,1.81,6.12,3.15,8.25,6-2.88.84-4.66-1.67-7-2.31-4.38-2-7.71-.66-9.19,3.84-.73,2.21-1,4.56-2,6.7C77.53,21.43,75.77,24,73,25.64c-.82.49-1.57,1.34-2.69.66a2.27,2.27,0,0,1-.26-1.14c1.73-4.93,3.15-9.94,4.44-15C76,4.1,78.26,2.63,84.73,3.08A21.57,21.57,0,0,1,89.27,4.64Z"/><path class="cls-18" d="M48.82,181.6c1,.86.74,2.05.73,3.14q0,86.17,0,172.36c-1.1-1.45-.59-3.14-.59-4.71q0-83,0-165.92C48.89,184.85,48.84,183.22,48.82,181.6Z"/><path class="cls-19" d="M123.82,53.36a19.74,19.74,0,0,1,2.12,7.51,1.29,1.29,0,0,1-1.31-.36c-3.9-3.16-3.93-3.15-8-.26-1.63,1.12-3.43,2-5.08,3-1,.62-2.08,1.56-3.25.2a11.93,11.93,0,0,1-.35-5.93c.81-2.89,2.81-5,4.92-6.92,3.69-3.43,6.65-3.13,9.74.88A12.25,12.25,0,0,0,123.82,53.36Z"/><path class="cls-20" d="M19.58,132.86c-3.7,2.37-4.69,5.74-3.26,10.76,1.91,6.73,3.95,13.39,8.31,19,.2.25.1.72.14,1.1a28.12,28.12,0,0,1-6-7.59c-3.33-5.58-5.24-11.7-6.82-17.94a25.38,25.38,0,0,1-.65-2.9c-.92-7.05,1.49-9.68,8.62-9.35,2.4.8,5.19.93,6.55,3.63C24.76,131.87,21.77,131.51,19.58,132.86Z"/><path class="cls-21" d="M129,98.5a44.52,44.52,0,0,1-1.49,13.5c-1.9-2.26-.75-5-1-7.45a20.37,20.37,0,0,1,0-2.21c-.09-5.83-.68-6.18-5.75-3.39a4.26,4.26,0,0,1-3.62-.23c-1.42-1.53-.43-3.14-.19-4.73,1.1-2.4,2.4-4.68,3.73-7a8.72,8.72,0,0,1,2.45-2.24c2.91-1.69,5.46-.62,6,2.7A36.61,36.61,0,0,1,129,98.5Z"/><path class="cls-22" d="M20.33,126.87c-6.55-.67-9.65,1.17-7.71,10.09,1.31,6,2.59,12.07,6,17.4.3.46.16,1.2.22,1.81-1.78-2.32-3.59-4.62-4.51-7.46-1.73-6.05-3.83-12-5-18.22-.47-2.57.42-4.88.46-7.32,0-1.26,1.71-2.33,3.44-2.31,2.12,0,4.24,0,6.36,0,1.62.38,3,1.08,3.3,2.9A3.83,3.83,0,0,1,20.33,126.87Z"/><path class="cls-23" d="M120.75,98.37c1.27-1.51,2.7-3.32,4.81-2.65,2.37.74,1.92,3.15,1.93,5.12l.06,11.16a48.58,48.58,0,0,1-3,13.52c-1.13-1.08-.49-2.4-.3-3.53.71-4.28.93-8.62,1.39-12.93.16-1.55.62-3.61-1-4.46-1.91-1-2.69,1.19-3.82,2.22-.55.5-1,1.08-1.59,1.58-2.91,2-5.72,4.33-9.53,4.47-.86-.88-.28-1.72.06-2.58C113.51,106.41,116.65,102,120.75,98.37Z"/><path class="cls-24" d="M123.82,53.36c-7.62-5.68-8.69-5.47-14.47,2.83-.22.3-.4.63-.59.94-1.39,1.13-2.49,2.9-4.73,2.1a57,57,0,0,1,6.64-16.67c3.21-1.84,5.39-1.68,7.92.71A19.21,19.21,0,0,1,123,50.38,5.26,5.26,0,0,1,123.82,53.36Z"/><path class="cls-25" d="M9.84,113.37c-3.79,2.11-4.63,4.59-3.52,10.09.94,4.67,1.81,9.36,2.71,14A43,43,0,0,1,4.56,124c-1.12-4.06-1.29-8.28-2.1-12.39-.77-3.92.86-6.55,4.35-7.93,3.5.7,5.9,2.91,7.86,5.74C14.12,112,11.76,112.41,9.84,113.37Z"/><path class="cls-26" d="M127.53,69.12a31.8,31.8,0,0,1,1.38,10.48c-1.64,0-1.35-1.45-1.73-2.33-.66-1.52-1.58-2.44-3.35-2-3.29.92-5,4.46-8.5,5.07a2.72,2.72,0,0,1-2.13-.55c-.57-2.68,1.42-4.5,2.32-6.68.6-1.45,1.16-2.93,1.86-4.34a16.24,16.24,0,0,1,1.07-1.5c1.37-1.94,3.06-3.1,5.59-2.69S126.88,67.22,127.53,69.12Z"/><path class="cls-27" d="M18.08,26.38c4.47-3.29,7.57-8.15,12.57-10.9,2.39-1.31,4.54-1.58,6.92-.34,1,3.1-1.63,4.72-2.77,7a2.6,2.6,0,0,1-1.73.61c-6.63-.58-10.56,3.57-14.28,8.08a54.27,54.27,0,0,0-6,8.14A3.28,3.28,0,0,1,11.61,40a1.18,1.18,0,0,1-1-.15A47.3,47.3,0,0,1,18.08,26.38Z"/><path class="cls-28" d="M127.53,69.12c-1.22-1.7-1.78-3.89-4.74-3.83s-2.91,3.2-5,3.84a4.31,4.31,0,0,1-5.35,1.67c-.94-4.56,2-7.81,3.85-11.42,4.62-3.53,5.9-3.34,9.69,1.49A24.23,24.23,0,0,1,127.53,69.12Z"/><path class="cls-29" d="M11.34,39.89l.75-.76A41.24,41.24,0,0,1,19.68,30c3.24-3.18,7.21-2.58,9.67,1.21a9.82,9.82,0,0,1-1.28,6.57,5,5,0,0,1-4.06.65c-4-1.84-6.92-.42-9.48,2.73a51.2,51.2,0,0,0-4.48,6C9.34,48.3,8.78,50,6.8,49.62c.09-2.25,1.27-4.09,2.28-6C10.15,42.57,10.25,40.93,11.34,39.89Z"/><path class="cls-30" d="M49.56,7.64c-7.86-1.9-14,1.74-20,6.14-.79.58-1.43,1.39-2.53,1.36C33.46,7.87,41.48,3.9,51,2.25c4.07-.71,8.09.66,12-.6.65.82.26,1.5-.3,2.16C59.81,6.24,56,6.76,52.66,8.27A2.79,2.79,0,0,1,49.56,7.64Z"/><path class="cls-31" d="M118.5,108.12c1.06-1.35,2.17-2.67,3.16-4.07A3,3,0,0,1,125,103c1.57.27,1.75,1.49,1.79,2.81.2,5.33-1.07,10.5-1.88,15.71a19.5,19.5,0,0,0-.3,4,45.79,45.79,0,0,1-5.32,14.72c1.16-5.44,3.3-10.63,4.15-16.18.37-2.44.17-4.93.93-7.37a4.08,4.08,0,0,0-2-4.5c-2.09-1.1-3.61,1-5.3,1.93C115.77,111.68,117.47,110,118.5,108.12Z"/><path class="cls-32" d="M123.74,74.38c2.71-1.42,3.48.76,4.37,2.46.43.83-.14,2,.8,2.76.69,6.3,1.42,12.59.13,18.9,0-2.62,0-5.24-.07-7.85-.06-2.11,0-4.51-2.2-5.55s-3.68.74-5.09,2.17a4.49,4.49,0,0,1-.93.6,2.36,2.36,0,0,1-2.84.35,1.28,1.28,0,0,1-.58-1.27C118.74,82.39,120.16,77.83,123.74,74.38Z"/><path class="cls-33" d="M90.77,7.64l6.75,3c2,2,4.8,3.19,6,6-1.69.52-2.66-.87-3.9-1.51-1.94-1-3.79-2.3-6.16-1.55-2,.8-2.79,2.67-3.88,4.28A73,73,0,0,0,85,24.5c-.6.88-1.12,2.78-2.91,1.26.44-5.14.56-10.34,2.82-15.13C86.08,8.18,87.78,6.6,90.77,7.64Z"/><path class="cls-34" d="M245.09,362.86c.13-1.88-.71-2.26-2.18-1.29-5.9,3.93-12.53,4.08-19.23,3.71-2.6-.14-3.88.51-2.63,3.3-3-1.44-4.23-4.38-5.75-7.05.62-2.87,2.5-2.15,4.32-1.5,7.26,2.61,14.36,2.55,21.25-1.22,2-.33,3.28-2.89,5.71-1.7,0,.51.08,1,.13,1.55C246.49,360.18,246.37,361.74,245.09,362.86Z"/><path class="cls-35" d="M78.89,364.83c-4.19,6.3-10.88,8.42-18.92,6-1.35-2.52-1-4.13,1.55-4.65,5.18-1.07,10.34-2,15.29-4.06C79.08,361.17,79.56,362.85,78.89,364.83Z"/><path class="cls-36" d="M7.6,104.37c-3.44.77-4.95,3.84-4.3,7.92.61,3.86.85,7.77,1.26,11.67A29.92,29.92,0,0,1,2.3,113.49a68,68,0,0,1-.77-12.26,6.16,6.16,0,0,1,5.18-6.41c3.74,1.27,7.78,2.12,9.28,6.57C13.57,103.42,10.28,103.06,7.6,104.37Z"/><path class="cls-37" d="M111.74,27.14c1.42,3.21,4.76,5.27,5.3,9-1.93.49-2.46-1.2-3.38-2.22-2.07-2.26-4-4.71-7.37-5-2.21-.19-3.91.85-5.57,2.16-.79.63-1.38,2.3-2.9,1-1-2.62.34-5.14.35-7.71,2.07-4.87,4.28-5.27,9.55-1.73A23.49,23.49,0,0,1,111.74,27.14Z"/><path class="cls-38" d="M174.07,363.78c.76-.75,1.3-1.78,2.75-1.18,9.35,3.92,18.07,2.11,26.44-2.93a5,5,0,0,1,1.43-.35c-.51,1.51-.48,3.2-1.49,4.55-1.84-1.24-2.94.4-4.29,1.11a6.09,6.09,0,0,1-1,.47,34.09,34.09,0,0,1-13.42,2.34,4.78,4.78,0,0,0-4.66,2.35A12.62,12.62,0,0,1,174.07,363.78Z"/><path class="cls-39" d="M106.51,27.89c3.73.34,5.82,3.08,8,5.62.8.94,1.33,2.1,2.55,2.62a14.69,14.69,0,0,1,3,6.75c-2.31,0-2.73-2.14-3.91-3.4-2-2.11-3.83-4.3-7.19-3.17-2.26.33-3.93,2.73-6.52,1.87C102.12,34.08,102.77,30.38,106.51,27.89Z"/><path class="cls-40" d="M.2,82.6c-.47-2.57.67-5,.71-7.49,1.08-4,1.83-8.26,5.52-11,1.22-.91,2.33-1.91,4-1.45,1.82,1,3.83,1.83,4.33,4.2-.72,2.57-2.95,3.68-4.89,5.07a9.8,9.8,0,0,0-7.78,8C1.86,80.91,2,82.49.2,82.6Z"/><path class="cls-41" d="M201.75,366.23a12.77,12.77,0,0,1-8.82,5.92c-2.08.57-4.2.25-6.3.23-1.49,0-3.21-.3-3.38-2.18-.18-2.09,1.53-2.81,3.2-2.89a31.08,31.08,0,0,0,12.23-2.75h0c.95-.43,1.8-1.65,3-.72C202.44,364.47,202.15,365.41,201.75,366.23Z"/><path class="cls-42" d="M108.76,35.39c3.5-1.6,5.56.84,7.63,2.89a45.77,45.77,0,0,1,3.68,4.6,18,18,0,0,1,2.91,7.5l-4.23-5.53c-2.06-2.7-4.59-3.56-7.75-2a3,3,0,0,1-3.69.29C106,40.25,107,37.75,108.76,35.39Z"/><path class="cls-43" d="M10.59,63.13c-4.34.74-6.13,4.16-7.88,7.58C2,72.12,2,73.85.9,75.11a34.89,34.89,0,0,1,1.43-8.23A20.59,20.59,0,0,1,8.78,55.61a5.57,5.57,0,0,1,3.94-1.79c1.63.86,3.42,1.57,3.53,3.83A12.71,12.71,0,0,1,10.59,63.13Z"/><path class="cls-44" d="M12.84,54.13C7.16,56.59,5,61.91,2.33,66.88a17.77,17.77,0,0,1,1.53-7.5c1.71-5,4.1-9.46,8.2-12.9,2.72-1,5.39-1.55,7.64,1A19.15,19.15,0,0,1,12.84,54.13Z"/><path class="cls-45" d="M7.59,95.37c-3.78.78-5.23,3.33-5.24,7s0,7.44-.05,11.16A30.73,30.73,0,0,1,.8,102.22C.58,97.74-.56,93.15,2.31,89c2.95-1.93,5.28-1,7.28,1.57C10.08,92.66,9.66,94.36,7.59,95.37Z"/><path class="cls-46" d="M.2,82.6c.5-1.5,1.07-3,1.49-4.5,1.13-4.19,3.79-6.48,8.15-6.72a3.61,3.61,0,0,1,2.82,3.83A7.48,7.48,0,0,1,9,79.41c-4.25.78-6.64,3.28-7.19,7.62-.11,1,0,2.37-1.65,2.33C.15,87.11.18,84.85.2,82.6Z"/><path class="cls-47" d="M.13,89.36c1.39-1.27.56-3.07,1.08-4.6,1.4-4.13,3.43-5.79,7.88-5.88a3.33,3.33,0,0,1,2.44,3.79C8.8,85,5.39,86.48,3.1,89.37.73,91.76.85,94.82.85,97.84c0,1.46,0,2.92,0,4.38C-.64,98,.35,93.65.13,89.36Z"/><path class="cls-48" d="M12.09,47.38c-3.41,3.54-5.68,7.87-8.23,12a33.69,33.69,0,0,1,2.95-9.76c2.53-3.28,5-6.59,7.61-9.85s5.45-3.86,8.91-2.13l-.18.49A53.3,53.3,0,0,0,12.09,47.38Z"/><path class="cls-49" d="M200.19,11.37a6,6,0,0,1,2.89,3.81,3.67,3.67,0,0,1-1.37,1.13c-4.23,3.37-9.2,4.68-14.46,5.05-1.84.12-3.75.15-5.28-1.22-.53-.66-1-1.32-.47-2.21,1.67-1.13,3.59-.82,5.41-.78,4.18.12,7.81-.92,10.49-4.38C198.07,11.9,198.85,11,200.19,11.37Z"/><path class="cls-50" d="M62.29,3.15a1.57,1.57,0,0,0,.76-1.5c4.21.09,8.08-1.9,12.42-1.62a26,26,0,0,1,13.8,4.61l-4.5-.75c-3-1-6-.38-9.07-.43-4-.52-7.72,2.07-11.78,1.32C63.11,4.51,62.19,4.33,62.29,3.15Z"/><path class="cls-51" d="M241.39,359.3c-7.14,4.87-14.69,4.28-22.31,1.52-1.6-.58-2.78-.95-3.78.71l-.18-1.37c0-.53,0-1.06.08-1.59,1.12-.91,2.38-.64,3.56-.28,8.21,2.52,16.11,2.25,23.54-2.53A2.6,2.6,0,0,1,244,356C245,358.59,242.15,358.11,241.39,359.3Z"/><path class="cls-52" d="M79.53,357.82c1.67.07,1.43,1.41,1.63,2.45a2.64,2.64,0,0,1-.83,2.14c-1.44-1.05-2.75-.52-4.14.21a30.66,30.66,0,0,1-17.63,3.27,3.83,3.83,0,0,0-3.77,1.71c-1.32-1-2.75-1.87-3-3.7-.54-3.07,1.75-2.4,3.27-2.28,2.21.18,4.31,1,6.56,1.19a23.91,23.91,0,0,0,14.61-3.36A13.91,13.91,0,0,1,79.53,357.82Z"/><path class="cls-53" d="M54.79,367.6c-.83-2.68.49-3.47,2.82-2.93,7.11,1.66,13.66.15,20-3.22,1.14-.61,2.81-2.12,2.76,1a3.49,3.49,0,0,1-1.44,2.41c-.15-1.37-.07-3-2.27-1.8-4.39,2.39-9.19,3.27-14.09,3.8-2.47.27-3.55,1.49-2.56,4A10.45,10.45,0,0,1,54.79,367.6Z"/><path class="cls-54" d="M200.19,11.37C197.63,12.65,197,15.78,194,17c-4.2,1.68-8.35.78-12.5,1.15-1.18.82-1.94.15-2.63-.75a2.27,2.27,0,0,1,.25-2.35c2.43-.64,4.89-.12,7.32-.1,3.63,0,6.8-.66,9.13-3.73.56-.74,1.2-1.62,2.41-1.33A2.34,2.34,0,0,1,200.19,11.37Z"/><path class="cls-55" d="M111.74,27.14A11.85,11.85,0,0,1,108,23.39c-3.85-3.05-7.7-6.12-13.08-5.64-1.66-1.22-2.89-2.6-1.9-4.86,2.5-1.76,4.45.23,6.47,1.09a25.2,25.2,0,0,1,4,2.66A26.62,26.62,0,0,1,111.74,27.14Z"/><path class="cls-56" d="M238.4,7.63c1.58.2,2.64,1.25,3.72,2.27-3.29,2.33-6.12,5.41-10.47,5.91-2.85.32-5.67.79-8.29-.89-.62-.6-1.12-1.24-.73-2.18a5.67,5.67,0,0,1,3.45-.9c3.5-.52,7-.89,9.66-3.77A2,2,0,0,1,238.4,7.63Z"/><path class="cls-57" d="M193.42,7.63a4.54,4.54,0,0,1,3.78,1.49,13.86,13.86,0,0,1-11.48,6,5.94,5.94,0,0,1-4.52-1.38,2.27,2.27,0,0,1,0-2.37C185.52,11,189,7.59,193.42,7.63Z"/><path class="cls-58" d="M242.82,10.65l.77,1.52a8.19,8.19,0,0,1-2.24,3.24,19.13,19.13,0,0,1-18.7,3.13c-.66-.57-1.23-1.17-.66-2.12,1.94-1.34,4.08-.39,6.12-.49,4.38-.21,8.58-.58,11.43-4.63A2.31,2.31,0,0,1,242.82,10.65Z"/><path class="cls-59" d="M79.53,357.82c-5.88,6.05-13.2,6.72-21,5.59-1.34-.2-2.63-.75-4-1s-2.58-.33-2.82,1.48a4.53,4.53,0,0,1-1.45-3.1,1.26,1.26,0,0,1,0-1.65c1.72-.52,3.13.48,4.66.92,7.76,2.23,15.26,2.11,22.19-2.66a1.69,1.69,0,0,1,1.65-.35Z"/><path class="cls-60" d="M242.82,10.65c-.87,0-1.87-.1-2.38.73-3,5-7.88,5.37-13,5.27-1.85,0-3.71,0-5.57,0s-3.44-.05-2.74-2.62a3.8,3.8,0,0,1,4.24.37c5.81,1.32,11.29,1.34,15.55-3.78.83-1,2.06-.66,3.16-.71Z"/><path class="cls-61" d="M181.44,13.64c5.38,1,10.35.77,14-4.14.27-.36,1.16-.26,1.76-.38.24.26.49.51.73.76-5,6.21-10.91,7.87-18.73,5.26-.83.11-1-.32-.81-1C179.26,13,180.26,12.73,181.44,13.64Z"/><path class="cls-62" d="M50.34,359.33l0,1.47c-1.12-1.05-.72-2.43-.8-3.71l3.8,0c6.18,1.17,12.36,1.7,18.53,0a2.81,2.81,0,0,1,1.78.62,1.74,1.74,0,0,1,.22,1.22c-4.88,3.9-10.49,2.73-16,2.31C55.24,361,53.05,359.07,50.34,359.33Z"/><path class="cls-63" d="M238.4,7.63c-.36.07-.88,0-1.05.24-2.83,3.5-6.77,4.51-10.95,5a3,3,0,0,1-.92-3,38.25,38.25,0,0,0,6.17-3.71C234,6.11,236.4,6,238.4,7.63Z"/><path class="cls-64" d="M198.68,364.56c-2.62,2.51-6.06,2.44-9.3,3a19.67,19.67,0,0,0-2.58.15c-1.26.39-3,.71-2.91,2.39s1.76,1.86,3.1,1.94c2,.12,4,.09,5.94.13a13.8,13.8,0,0,1-13.06-2c-.45-1.8-.32-3.45,2-3.28C187.68,367.27,193.17,365.91,198.68,364.56Z"/><path class="cls-65" d="M193.42,7.63c-.85,0-1.82-.1-2.39.64-2.5,3.24-6,3.35-9.58,3.12a3.24,3.24,0,0,1-3.75-.75A18.36,18.36,0,0,1,193.42,7.63Z"/><path class="cls-66" d="M173.1,361c.32-1.16-.5-2.9,1.6-3.15,1.12,1.5,3.07,1.34,4.5,2.24,3.06,2.76,6.84,2.2,10.49,2.25-3.38,1.53-6.69.7-10.06-.15-2-.5-4.27-2-5.71,1A2.72,2.72,0,0,1,173.1,361Z"/><path class="cls-67" d="M231.65,6.15c-1.48,2.09-2.78,4.46-6,3.74a5.26,5.26,0,0,1-5.26-.75C223.68,6.36,227.62,6.08,231.65,6.15Z"/><path class="cls-68" d="M218.91,14.4c.55,1.35,1.91,1.62,3,2.24l.75,1.5c-1.84,1.69-4.47.44-6.41,1.73a1.3,1.3,0,0,1-1.07-.2h-.35l-.35,0c-.29-1.76.76-3.08,1.43-4.53C216.69,14,217.58,13.32,218.91,14.4Z"/><path class="cls-69" d="M179.19,17.38l2.26.76c.25.5.49,1,.74,1.51-2.23,1.79-4.92.6-7.35,1.11a4.46,4.46,0,0,0-1.64.38,5.61,5.61,0,0,0-.71,0,4.53,4.53,0,0,1,.69-3C175.77,15.17,176.53,15.08,179.19,17.38Z"/><path class="cls-70" d="M220.4,9.14c1.78.06,3.62-.29,5.26.75a5.11,5.11,0,0,1,.74,3h-3.74a6.65,6.65,0,0,1-4.49-1.49A4.62,4.62,0,0,1,220.4,9.14Z"/><path class="cls-71" d="M177.7,10.64a6.29,6.29,0,0,1,3.75.75c0,.75,0,1.5,0,2.25a5.07,5.07,0,0,0-3,.75c-1.54.41-2.75,1.79-4.51,1.5C174.32,13.52,176.58,12.49,177.7,10.64Z"/><path class="cls-72" d="M218.17,11.4c1.68-.07,3.31,0,4.49,1.49l.75,1.5h-4.5a5,5,0,0,0-3,.75C216.07,13.54,217.18,12.5,218.17,11.4Z"/><path class="cls-73" d="M201.67,15.16l1.41,0c.64,1.19,1.59,2.25,1.55,3.73-1.88,0-3.52.8-5.2,1.48a1.17,1.17,0,0,1-1.47.18C197.84,17.84,200.85,17.25,201.67,15.16Z"/><path class="cls-74" d="M241.39,14.4a4.63,4.63,0,0,1,2.2-2.23c1,1.07,2.34,2,2.21,3.75a3.85,3.85,0,0,1-.8.59c-1.29.34-2.47,1-3.8,1.2a1.24,1.24,0,0,1-.86-.5C239.91,16,240.92,15.29,241.39,14.4Z"/><path class="cls-75" d="M173.94,15.89c1.49-.54,2.3-3.11,4.51-1.5l.75.75c0,.75,0,1.5,0,2.24-2.2-1.32-4.17-.78-6,.76Z"/><path class="cls-10" d="M245.13,15.91c.22,0,.45,0,.67,0,.3,1,.59,2,.89,2.92l-.13.13a6.41,6.41,0,0,1-3,1.88,2,2,0,0,1-1.53-.31,2.34,2.34,0,0,1-.43-1C241.57,17.18,243.82,17,245.13,15.91Z"/><path class="cls-64" d="M201.75,366.23c.23-2.86-1.58-2-3.07-1.67.59-1.39,1.94-1.77,3.14-2.27,1.83-.77,1.16.83,1.38,1.58A3.49,3.49,0,0,1,201.75,366.23Z"/><path class="cls-76" d="M11.34,39.89c-.26,1.54-.73,3-2.26,3.74a7.8,7.8,0,0,1,1.5-3.75Z"/><path class="cls-77" d="M173.2,21.14l.77-.75a2.07,2.07,0,0,1,1.45,0c3,.55,4.05,2.61,4.19,5.38.08,1.63.07,3.25.07,4.87q0,159.59,0,319.17c0,2.24.23,4.5-.39,6.71-.3.72-.65,1.37-1.58,1.3h-3c-1.07-1.71-.74-3.63-.74-5.48q0-163.27,0-326.54C173.92,24.23,174.54,22.51,173.2,21.14Z"/><path class="cls-78" d="M177.7,357.81l.74-.75a2.33,2.33,0,0,1,1.75-.54c3.06.48,6.14.19,9.2.25a3.46,3.46,0,0,0,3.12-1.61c1-1.9.59-3.94.59-5.91q0-159.42,0-318.85c0-3.1-.31-6.28,1.57-9.07.9-.93,1.83-1.76,3.24-.94h1.5c-2.89,1.84-3.06,4.59-3.06,7.72q.1,162.07.06,324.13c0,5.36,0,5.3-5.3,6.48A21.74,21.74,0,0,1,177.7,357.81Z"/><path class="cls-79" d="M55.55,356.31c-2.46-.61-1.45-2.62-1.45-4q-.1-33.3-.05-66.61,0-56.88,0-113.75c1.06-1.37,2.28-1.78,3.75-.59,1.72,2.32,1.19,5,1.19,7.6q.06,84.44,0,168.85c0,2.74.4,5.49-.19,8.21C57.85,357.29,56.72,357.08,55.55,356.31Z"/><path class="cls-80" d="M102,131.36l2.25.75c0,2.94-2.69,3.34-4.38,4.68-14,9.1-29.71,13.24-46.15,15-1.74.19-3.46.53-5.19.76-6.61.88-10.06,5.66-9,12.44a15.12,15.12,0,0,0,4.92,9c1.54,1.43,3.31,2.69,4.35,4.6v1.5c-10.08-4.39-16.64-11.83-19.49-22.49-1.21-7.74,1.42-10.93,9-11.28,8.44-.38,16.89-.32,25.31-1.26,12.29-1.37,23.2-6.26,33.62-12.59C98.67,131.63,100.08,130.2,102,131.36Z"/><path class="cls-81" d="M72,357.81c-6.33,1.87-12.6,2.29-18.73-.75h2.24c1.9-.77,3.88-.31,5.79-.24a21.28,21.28,0,0,0,10-1.87c1.8-1.31,1-3.23,1-4.86q.08-86.91.05-173.81c0-2-.41-4,.81-5.83,1.29-.95,2.33-.7,3.16.63a14.23,14.23,0,0,1,.44,5.19q0,86.72,0,173.43c0,.5,0,1,0,1.5C76.77,356,76.45,356.44,72,357.81Z"/><path class="cls-82" d="M71.29,356.31c-5.16,2.16-10.44,1.63-15.74.75v-.75h3c1.39-1.42,3.24-1.26,4.94-1.2,3.29.13,4.49-1.46,4.32-4.56-.07-1.49,0-3,0-4.49q0-84.35,0-168.68c0-2.34-.42-4.77.92-6.95a2.09,2.09,0,0,1,2.78-.08c1.08,1.41.87,3.07.87,4.68q0,88.16,0,176.31C72.4,353.07,72.61,354.87,71.29,356.31Z"/><path class="cls-83" d="M57.08,171.19l-3,.74a8.22,8.22,0,0,0-4.56,2.17c-1.4.82-2-.25-2.66-1.15-2-2.87-1.47-7.29,1.22-10.09,4.12-6.42,10.5-8.12,17.57-9.38,9.59-1.7,19.05-4.06,28-8.35,6.73-3.23,7.89-2.37,10.8,4.59a13.8,13.8,0,0,1-3.91,15.39c-1.13-2.21.72-3.7,1.32-5.49.64-2,2.32-4.11.23-5.82-2.46-2-4.38-5.78-8.4-4.48C85.4,152,76.94,154.21,69.09,158c-4,1.91-6.66,5.49-9.34,8.94a3.15,3.15,0,0,0-.29,3.79C58.85,171.87,58,171.67,57.08,171.19Z"/><path class="cls-84" d="M48.06,162.86c-2.3,6.56-2,8.62,1.44,11.24l-.69,4.5c-9.38-5.07-12.84-14.18-8.68-22.45a7.88,7.88,0,0,1,6.4-4.51C58.17,150,70,149.12,81.13,145a119,119,0,0,0,18.63-9.12,1.65,1.65,0,0,1,.75,1.5,90.24,90.24,0,0,1-24.9,11.41c-6.33,1.69-12.67,3.37-19,5.16A11.5,11.5,0,0,0,48.06,162.86Z"/><path class="cls-85" d="M242.14,19.64v.75a7.21,7.21,0,0,1,.32,3.32q0,162.49,0,325c0,8.06-.66,9.11-8.51,10.89a28.73,28.73,0,0,1-16.54-1.38,1,1,0,0,1-.73-1.13l.74,0a3,3,0,0,1,2.76-.61c4.43.57,8.78,1.51,13.33.37,3-.76,4.57-2.12,4.4-5.33-.08-1.74,0-3.5,0-5.24V29.76c0-1.87,0-3.74.09-5.62s.75-3.66,2.71-4.55A1.52,1.52,0,0,1,242.14,19.64Z"/><path class="cls-86" d="M216.67,357.07c7.58,3.46,15.14,3.13,22.7-.11a2.86,2.86,0,0,0,2-3.16,30,30,0,0,1,0-3q0-162.46,0-324.93c0-1.85-.33-3.76.74-5.48h1.5c.58,1.06.31,2.2.31,3.31q0,162.87,0,325.74c0,2.31.62,4.78-1,6.87-7.72,5.72-16.14,5.33-24.81,2.88-.94-.26-1.92-.41-2.88-.62A2.31,2.31,0,0,1,216.67,357.07Z"/><path class="cls-87" d="M219.66,357.06h-2.25c-1.07-1.71-.74-3.63-.74-5.48q0-163,0-325.95c0-2.13.19-4.27-1.49-6l.75,0a2.16,2.16,0,0,1,2,.55,4.1,4.1,0,0,1,.84,1.18c.82,2,.52,4.2.52,6.31q0,161.25,0,322.51c0,1.82-.57,3.77.74,5.43C220.24,356.17,221,356.91,219.66,357.06Z"/><path class="cls-88" d="M59.37,170.39c-3.53-.11-1.53-2.28-.9-3.17,3.33-4.71,7-9.25,12.6-11.3,7.24-2.66,14.64-4.87,21.89-7.47,2.67-.95,4.52-.15,6.39,1.6,5.58,5.2,5.6,5.17,2.19,12.27-.43.89-.69,1.86-1,2.79-4.52,6-10.53,10-17.32,13-1.38-1.13.08-3.08-1.37-4l-1.52-1.56a4,4,0,0,1-1.76-.12c-.58-.16-1.14-.36-1.69-.57a2.29,2.29,0,0,1-1-.84c-.62-.76-1.46-.66-2.29-.58a1.7,1.7,0,0,1-2.24-.07H69A9.91,9.91,0,0,1,59.37,170.39Z"/><path class="cls-89" d="M100.51,137.36a1.56,1.56,0,0,1-.75-1.5c1.54-1.2,3.57-1.82,4.5-3.75,2.2-.3,4.14-1.57,6.46-1.53,3.79.06,5.73,1.91,5.51,5.73a31.24,31.24,0,0,1-4.82,15.74c-1.21,1.82-1.1,4.44-3.4,5.56.9-2.82,1.87-5.62,2.67-8.46a11.65,11.65,0,0,0-1.66-9.61C107,136.27,103.84,136.19,100.51,137.36Z"/><path class="cls-90" d="M78.78,171.84a1.6,1.6,0,0,1,1.52.72q0,89.74,0,179.49c0,1.76.77,3.86-1.47,5l-.75.75a1.17,1.17,0,0,1-1.65-.05,2.57,2.57,0,0,1,.39-1.85c.24-.39.47-.78.67-1.19a22.36,22.36,0,0,0,.27-5.6q0-85.59,0-171.18C77.75,175.88,77.18,173.65,78.78,171.84Z"/><path class="cls-91" d="M102,131.36c-5.61,2.13-10.41,5.79-15.81,8.35-8.56,4-17.55,5.89-26.93,6.77-6.48.6-12.92.57-19.39.61-8.66.07-10.51,1.86-10.56,10.52-2.28-6.46,1.77-12.58,8.11-12.3s12.84-.73,19.25-1.3a5,5,0,0,0,3.37-1.4c3.26-2,7.11-1.46,10.6-2.45a60.82,60.82,0,0,0,18.07-6.87c5.33-2.95,10.42-6.34,15.59-9.57,1.33-.83,2.63-2,4.45-1.35l.75,2.25C107.54,127.46,104.12,128.68,102,131.36Z"/><path class="cls-92" d="M71.29,141.11c-3.76.44-7.41,1.67-11.24,1.5-9.45,1.83-18.71-.1-28-1.39a39,39,0,0,0-4.84-.1c-3.06,0-4.39,1.49-4.67,4.54-.46,5,1,9.55,2.3,14.2-2.84-3.11-3.11-7.11-3.72-11a24.4,24.4,0,0,1,0-3.73c0-7,2.54-9.08,9.38-7.86a11.53,11.53,0,0,0,1.86.06,3,3,0,0,1,2.84-.32c8.64,2,17.33,3,26.18,1.51a18.49,18.49,0,0,1,3.72,0C67.17,139.31,70,138.27,71.29,141.11Z"/><path class="cls-93" d="M241.39,359.3l3-3c-.06-.24-.11-.48-.17-.73a36.66,36.66,0,0,1-.14-5.24q0-161.38,0-322.78a24.87,24.87,0,0,1,.28-6c.43-1,.91-1.85,2.21-1.17,0,1.75.06,3.5.06,5.25V352.24c0,1.62,0,3.24,0,4.87C244.59,357.24,243.46,359.38,241.39,359.3Z"/><path class="cls-94" d="M246.57,20.42a1.42,1.42,0,0,0-1.43.72c-.75,1.42-.37,2.95-.37,4.41q0,163.17,0,326.34c0,1.47.37,3-.34,4.42h-1.5q0-165.23,0-330.44c0-1.85-.33-3.76.74-5.48A3.67,3.67,0,0,1,246.56,19C246.56,19.45,246.57,19.94,246.57,20.42Z"/><path class="cls-95" d="M65.29,139.61c-3.6-.3-7.13.55-10.69.71-7.58.33-15-1-22.28-3-1-1.19-2.9-.82-3.74-2.25,2.31-1.84,4.74-.83,7.08-.17,12.43,3.5,24.72,2.26,37-.94,11.3-4,21.35-10.28,31-17.33.87-.64,1.72-1.49,3-1.15.89,2.76-1.41,4.1-2.63,5.92C92.33,130.21,80.76,139.06,65.29,139.61Z"/><path class="cls-96" d="M73.54,134.36c-3,2.48-6.77,2.4-10.16,2.79-9.92,1.13-20,2.11-29.64-1.68-1.67-.66-3.44-.25-5.16-.36-2.82-1.47-6.06-1.24-9-2.25,1.66-2.34,4.23-2.61,6.75-3,4.16-1.48,7.54,1.09,11.21,2.15,9,3.66,18.37,3.11,27.77,2.42C68,134.23,70.78,132.41,73.54,134.36Z"/><path class="cls-97" d="M65.29,139.61c4.28-1.55,8.91-1.72,13.16-3.54,9.09-3.88,17.19-9.34,25.06-15.2,2-1.58,4.07-3.17,6.64-3.87,1.07-.3,2.1-.82,3.1.12l-4.49,5.25c-6.65,4-13.19,8.22-20,12a64.57,64.57,0,0,1-17.5,6.74C69.45,140,67.32,140,65.29,139.61Z"/><path class="cls-98" d="M113.25,117.12c-3.56.43-6.35,2.87-9.74,3.75.92-1.8,2.65-3.13,3-5.25a4.25,4.25,0,0,1,3-3c3.23-1,6-2.91,9-4.5l-1.5,6C116.18,115.66,114.49,116.1,113.25,117.12Z"/><path class="cls-99" d="M62.29,3.15a1.58,1.58,0,0,0,1.51.75c-2.19,6.35-4.63,12.57-10,17.05a9.13,9.13,0,0,1-7.38-1.86,1.4,1.4,0,0,1,.15-1.7c.85-3.3,2.78-6.26,3-9.75C54.21,7.3,58.24,5.18,62.29,3.15Z"/><path class="cls-100" d="M46.56,17.39v1.5c1,2.89.21,5.76-.1,8.63a4.17,4.17,0,0,1-3.24,2.58c-3.51,0-5.34-2.58-7.51-4.69-.72-1.06-1.74-2-1.14-3.52.14-2.63,2.86-4.12,3-6.75A13.34,13.34,0,0,1,46.56,17.39Z"/><path class="cls-101" d="M22.58,123.87l-3-3,.75-2.25c2.2-1.74,4.39-.35,6.59,0,3,.67,5.84,2.12,8.81,3,21.08,6.48,39.8,1.72,56.71-11.79a19.61,19.61,0,0,1,4.65-3.09c1.33-.32,2.63-.92,4-.4,1.35,1.7-.06,2.76-1,3.78-2.24,2.46-4.71,4.71-7,7.16C82.6,125.56,71,130.42,57.24,131.11c-11.87.59-22.62-2.67-33.46-6.38A2.72,2.72,0,0,1,22.58,123.87Z"/><path class="cls-102" d="M27.08,119.37l-6.75-.75c-3.46-1.81-6.61-4.26-10.49-5.25l4.5-3.75c2.86-1.87,5.41-.1,8,.67,3,2.12,7.08,2.57,9.39,5.84C30.58,117.76,29.44,119.44,27.08,119.37Z"/><path class="cls-103" d="M75.78,2.4c3.09-.07,6.15.07,9,1.49-7,0-8,.73-9.64,7.62C74,16.34,73,21.23,70.54,25.64c-2.2,3.21-4.52,4.1-8.33,3.22-1.45-3.16,1.31-5.57,1.52-8.43a125.67,125.67,0,0,0,5.7-12.57C70.58,4.91,72.4,2.75,75.78,2.4Z"/><path class="cls-104" d="M70.54,26.39c3.35-1.83,5.52-5,8.24-7.5,1.24,3.12-.54,5.94-.85,8.91-5.25,9.62-13,15-24.31,14.58-1.61-.07-3.26-.06-4.37-1.56a2.65,2.65,0,0,1-.08-2.33,4,4,0,0,1,3.2-1.65c7-.37,12.14-3.89,16.51-9A4.7,4.7,0,0,1,70.54,26.39Z"/><path class="cls-105" d="M70.54,26.39a20.92,20.92,0,0,1-17,11.26c-1.34.14-2.65.49-4,.74-4.42-1.43-7.15-5.08-6.75-9,1.31.11,2-1.08,3-1.5a1.85,1.85,0,0,1,1.78.15c3.95,2.25,8,2.2,12.19.71a2.93,2.93,0,0,1,2.52-.11c3.14.1,5.78-1.21,8.24-3Z"/><path class="cls-106" d="M77.28,27.89c-.11-3.1.89-6,1.5-9,.59-2.66,1-5.38,1.82-8,1.45-4.41,6.21-5.86,10.17-3.3-5.12.33-6.07,4.59-6.52,8.16s-1.28,7-1.72,10.59l-.33.41C80.65,27.57,79.14,28.5,77.28,27.89Z"/><path class="cls-107" d="M104.26,59.38c1.46-.84,2.67-2.16,4.5-2.25v6.75c.43,2.16-1.25,3.41-2.24,4.87a90.51,90.51,0,0,1-7.13,9.09,6.81,6.81,0,0,1-3.5,1.67c-2-.17-3.71-.72-4.72-2.6.18-2.67,2.35-4.17,3.66-6.17s2.93-4.22,4.16-6.48C100.61,62.49,101.53,60,104.26,59.38Z"/><path class="cls-108" d="M99,77.38l9.75-13.5,7.49-4.5L112.5,70.63c-3,5.47-7.44,9.63-12.47,13.2a2.36,2.36,0,0,1-1-.15C96.91,81.57,97.93,79.47,99,77.38Z"/><path class="cls-109" d="M22.58,123.87c5.48.21,10.14,3.26,15.34,4.44,20.21,4.55,38.69,1.1,55.1-11.94,2-1.21,3.59-2.92,5.68-3.94,1.06-.52,2-1.43,3.37-.66.35,2-1.16,3.2-2.09,4.64-14.24,12.78-30.74,19.67-50,18.57-4.38-.25-8.88-.6-13.12-2.12a40.76,40.76,0,0,0-10.49-3c-1.62-1.76-4-2-6-3Z"/><path class="cls-110" d="M101.26,106.62l-3.74.75c-.39-2.18,1.2-3.44,2.43-4.73a54.38,54.38,0,0,0,5.23-6.31c3.09-2.45,6.31-4.75,9.26-7.4.89-.81,1.9-1.67,3.31-1.06h3c-.37,2.32-1.79,4.11-3,6A40,40,0,0,1,101.26,106.62Z"/><path class="cls-111" d="M101.26,106.62a188.22,188.22,0,0,0,16.49-12.75l-.75,4.5c-2.33,4.3-6.25,7.11-9.78,10.24-1.5,1.34-2.82,3.23-5.21,3.26-3.32.85-5.57,3.85-9,4.5,2-2.15,4.06-4.29,6.07-6.46C100,108.94,101.26,108.2,101.26,106.62Z"/><path class="cls-112" d="M102,111.87c5.42-4,9.92-9.08,15-13.5h3.75a48.18,48.18,0,0,1-10.5,12c-3.08,2.57-6.1,5.28-10.49,5.25Z"/><path class="cls-113" d="M99.76,115.62l10.49-5.25c-.25.75-.5,1.5-.74,2.25a7.72,7.72,0,0,1-3,3,150.77,150.77,0,0,1-25.67,16.16,62.49,62.49,0,0,1-7.3,2.58c-7.43,1.13-14.89,2-22.42,1.49-4.9-.32-9.78-.83-14.3-3,4.43.49,8.85,1.11,13.29,1.43a59.17,59.17,0,0,0,21.32-2.69A77.27,77.27,0,0,0,99.76,115.62Z"/><path class="cls-114" d="M104.26,59.38l-4.5,5.25c-1.83,1.3-3.47,3.08-6.09,2.34-.81-1.34.1-2.38.67-3.45,2.11-4,4.34-7.85,6.09-12,1.32-2,2.3-4.14,3.6-6.11.76-1.15,1.27-2.82,3.23-2.54H111Z"/><path class="cls-115" d="M22.58,111.12c-2.74-.53-5.36-1.76-8.24-1.5L7.6,104.37c2-3,5.44-2.14,8.24-3,1.35-1.21,2.69-.31,4,0a4.94,4.94,0,0,1,.95.47,59.09,59.09,0,0,1,5.48,4.22c.93.74,2,1.45,1.6,3A7.17,7.17,0,0,1,22.58,111.12Z"/><path class="cls-116" d="M99.77,83.38c4.79-3.7,8.41-8.58,12.73-12.75l5.25-1.5c-.42,4-3.1,7-4.5,10.5a14.4,14.4,0,0,1-7.43,6.83c-2.11.46-3.91,2.42-6.34,1.32a3.9,3.9,0,0,1-.54-2.84A3.2,3.2,0,0,1,99.77,83.38Z"/><path class="cls-117" d="M117.75,87.87c-4.44,2.41-7.62,6.5-12,9a1.84,1.84,0,0,1-2.09.27,1,1,0,0,1-.2-1.32c4-5.39,7.42-11.24,12-16.19,3.15-1.12,4.81-4.57,8.24-5.25C121.66,78.84,119.26,83.16,117.75,87.87Z"/><path class="cls-118" d="M115.5,79.63c-3.21,6.29-7.75,11.66-12,17.24-1.38,1.75-2.87,3.33-5.36,3.25a3.26,3.26,0,0,1-2-3.13c2.55-4.34,6-7.9,9.59-11.36,3.21-1.11,4.73-4.33,7.49-6Z"/><path class="cls-76" d="M34.57,21.89l1.5,3a6.27,6.27,0,0,1-2.56,6.59c-1.73.55-3.42.65-4.93-.59C25.32,28.13,23,28,20.25,30.64s-5.45,5.65-8.16,8.49A37.92,37.92,0,0,1,26.86,22.48C29.16,21.07,32,22.12,34.57,21.89Z"/><path class="cls-119" d="M23.33,37.64h4.5c3.48,1.29,5,4.89,8,6.78a7,7,0,0,1,3.25,3.92c.23,1.69,1.1,3.36.21,5.09a6.18,6.18,0,0,1-3.84,1.27,21,21,0,0,1-9.58-5.15c-1.26-3.88-2.84-7.7-2.56-11.91Z"/><path class="cls-120" d="M38.32,48.13C35,44.42,30.75,41.71,27.83,37.64l.75-6.75h5.24a112.47,112.47,0,0,1,9.44,11.87,8.69,8.69,0,0,1-3.95,5.59A1,1,0,0,1,38.32,48.13Z"/><path class="cls-121" d="M82.53,26.39c2.77-2.61,3.36-6.85,6.74-9,1.15,1.16.68,2.53.51,3.85a49.59,49.59,0,0,1-4.25,15.3,38.23,38.23,0,0,1-8.68,8.54c-1,.71-1.93,1.67-3.33,1-.7-1.68.51-2.81,1.25-4a36.53,36.53,0,0,0,3.86-8.4c1.27-2.42,1.47-5.42,3.9-7.21Z"/><path class="cls-122" d="M84.78,36.89c1.55-5.48,3.66-10.81,4.14-16.55.09-1,.23-2,.35-2.95A6.07,6.07,0,0,1,93,12.89a8.29,8.29,0,0,0,2.25,4.5c-.52,4.37-2,8.52-3,12.76-1.44,2.59-2.5,5.4-4.31,7.77-.83,1.08-1.53,2.69-3.45,1.77A2.47,2.47,0,0,1,84.78,36.89Z"/><path class="cls-123" d="M20.33,102.12l-4.49-.75c-1.89-3.18-5.7-3.72-8.25-6,.65-1.45,1.7-2.77,1.5-4.5,2.57-1.86,5.12-.69,7.67,0,2.49,2.44,5.15,4.72,7.52,7.29C24.11,100.65,22.18,101.34,20.33,102.12Z"/><path class="cls-124" d="M99,24.14q-.37,4.13-.74,8.25c1.14,2-.56,3.48-.93,5.2-1.94,3.9-3.92,7.78-6.87,11-1.29,1-2.25,2.82-4.37,1.83a2.51,2.51,0,0,1-.46-1.63c1.87-5.7,4.86-11,6.57-16.71a29.14,29.14,0,0,1,3.53-6.55C96.52,24.56,97.26,23.1,99,24.14Z"/><path class="cls-125" d="M96.77,37.64c-.31-2,1.39-3.39,1.5-5.25,2.13-2.63,4.41-5,8.24-4.5-2.43,3.08-3.17,6.76-3.75,10.5,0,3.65-1.94,6.31-4.37,8.74a3.13,3.13,0,0,1-2.84.46C94.34,44.07,96,40.9,96.77,37.64Z"/><path class="cls-126" d="M99,24.14c-3.6,1.58-4.22,5.33-6,8.25-1.69,0-2.16-.73-1.5-2.25,1.11-4.29,1.16-8.9,3.75-12.75,6-1.64,9.32,2.24,12.73,6-1.09,0-1.76-.77-2.6-1.27C102.55,20.44,100.25,20.65,99,24.14Z"/><path class="cls-127" d="M98.27,46.63q2.24-4.12,4.49-8.24a20.47,20.47,0,0,1,6-3l-1.5,7.49c-3,2.32-3.71,6.2-6,9a3.19,3.19,0,0,1-3.73.27C96.44,50.13,97.07,48.35,98.27,46.63Z"/><path class="cls-128" d="M12.09,75.13c.07-1.75-1.72-2.37-2.25-3.75l4.5-4.5c2.17-1.16,4,.17,5.95.79,3.17,2.23,6.56,4.19,8.87,7.46a3.08,3.08,0,0,1-.1,1.75,3.62,3.62,0,0,1-3,1.71C21.35,77.51,16.42,77.54,12.09,75.13Z"/><path class="cls-129" d="M20.33,68.38l-6-1.5c-.61-1.89-3-2-3.75-3.75a21.81,21.81,0,0,1,5.25-5.25c1.7-1.36,3.34-.53,5,.11,2,1.93,4.19,3.69,5,6.52A9.84,9.84,0,0,1,20.33,68.38Z"/><path class="cls-130" d="M21.08,58.63l-5.24-.75c-.17-1.92-2.57-2.05-3-3.75,2-2.24,3.4-5.23,6.74-6,2.3-1.57,4-.3,5.63,1.21a11.33,11.33,0,0,1,1.44,7.72A5.15,5.15,0,0,1,21.08,58.63Z"/><path class="cls-131" d="M24.83,49.63c-1.65-.86-3.27-1.78-5.25-1.5-2.3-2.17-4.86-1.82-7.49-.75a20.26,20.26,0,0,1,11.24-9.74,53.87,53.87,0,0,1,3,12A1,1,0,0,1,24.83,49.63Z"/><path class="cls-132" d="M17.34,91.62c-2.78,0-5.43-1.21-8.25-.75-1.78-1.37-3.5-3-6-1.5,1.43-3.86,4.69-5.48,8.24-6.74,2.57-1.4,4.48.08,6.41,1.48,1.21,1.87,3.2,3.37,2.93,6C19.89,91.31,18.93,92.16,17.34,91.62Z"/><path class="cls-133" d="M17.34,84.88c-1.68-1.61-3.81-2-6-2.25L9.09,78.88l3-3.75a61.43,61.43,0,0,1,14.24,3c2.05,1.28,3.15,3,2.3,5.46C24.93,84.54,21.21,85.43,17.34,84.88Z"/><path class="cls-134" d="M197.93,20.39l-2.25.75a19.83,19.83,0,0,1-3.33,2.17c-1.21,1.11-.78,2.57-.78,3.89q0,104.67,0,209.35c.07,38.07,0,76.15.07,114.22a2.29,2.29,0,0,1,0,.37c-.06,6.29-.14,6.37-6.55,6.28a5.94,5.94,0,0,1-2.22-.22c-1.48-1.68-1.15-3.76-1.16-5.72,0-13.86,0-27.72,0-41.58V30.81c0-7.48-.17-7.72-7-10.41H174c2.62-1.6,5.49-.36,8.22-.74,7.31,2.05,13.6-.34,19.48-4.49C201.17,17.44,199.64,19,197.93,20.39Z"/><path class="cls-135" d="M75.78,2.4c-5.42,2-5.88,7.54-8,11.8a51.35,51.35,0,0,1-3.25,6.19c-4.56,3.05-7.49,3.05-10.49,0C58.28,15.47,60.28,9.23,63.8,3.9,67.92,4.42,71.66,1.87,75.78,2.4Z"/><path class="cls-136" d="M217.42,20.38l-1.49-.76c1.76-2.69,4.48-1,6.73-1.48,3.38-.06,6.66,1.14,10.17.1,3.08-.9,6.17-1.49,8.56-3.84l-.75,3c-2.62,3.45-6.61,3.53-10.34,4C226,21.94,221.72,20.63,217.42,20.38Z"/><path class="cls-137" d="M76.53,357.81H78c-7.24,5.65-15.26,5.51-23.56,3.16a41.72,41.72,0,0,1-4.13-1.64c1.44-1.66,2.81-.1,4.06.24,6.52,1.78,12.91,2.18,19.14-1C74.4,357.77,75.22,356.81,76.53,357.81Z"/><path class="cls-138" d="M75.82,171l1.46.11c1,1.46.74,3.13.74,4.73q0,88,0,176.11c0,1.47.3,3-.74,4.33h0c-1.19.64-2.2,1.74-3.74,1.5H72c3.42-1.42,3.82-4.11,3.82-7.51Q75.72,260.66,75.82,171Z"/><path class="cls-139" d="M73.54,357.81l3.74-1.5-.75,1.5-3,.75Z"/><path class="cls-140" d="M217.42,20.38c1.36-1.33,3.15-1,4.58-.63a27,27,0,0,0,18.64-2.36h.75c0,2.66-2.49,2.67-4,3.77l-1.22.51c-1.77,1.13-1.16,2.92-1.16,4.45Q235,58.54,235,91q0,129.48,0,259c0,2.09.43,4.27-.72,6.24a2.77,2.77,0,0,1-2,.89c-8.58,1.09-9.35.43-9.35-8.1q0-158.88,0-317.76c0-1.75,0-3.5-.06-5.25-.08-2-.74-3.66-2.86-4.33a9.6,9.6,0,0,1-2.59-1.22Z"/><path class="cls-141" d="M237.64,20.39c.94-1.39,3.1-1.25,3.75-3a4.26,4.26,0,0,1,3.74-1.48c-.44,1.69-2.83,1.82-3,3.73h-.75C240.2,20.21,239.18,21.58,237.64,20.39Z"/><path class="cls-142" d="M174.7,20.4,181.2,22a2.23,2.23,0,0,1,1.73,2.52c0,1.12,0,2.25,0,3.37V357.06a3,3,0,0,1-3,0h-1.5q0-164.56.07-329.13C178.52,24.53,178.15,21.82,174.7,20.4Z"/><path class="cls-143" d="M179.94,357.06h3c7.49,0,7.49,0,7.49-7.46q0-161.64.06-323.29c0-1.63-1.35-4.37,2.19-4.42,1,1,.76,2.3.76,3.54,0,69.47-.29,138.94.1,208.41.22,39.72,0,79.45.24,119.17,0,1.35.34,2.75-.35,4.05C188.94,358,184.44,358.49,179.94,357.06Z"/><path class="cls-144" d="M193.43,357.06c0-111.72-1.29-223.44-.75-335.17l3-.75a16.5,16.5,0,0,0-1.53,7.6q.06,161.85,0,323.68C194.15,354,194.78,355.69,193.43,357.06Z"/><path class="cls-145" d="M59.37,170.39l9.67,0V350.08c0,6.23,0,6.23-6.37,6.23H58.55c-1-1.59-.75-3.37-.75-5.1q0-87.46,0-174.92c0-1.73.3-3.51-.71-5.1C57.87,171,58.78,171.15,59.37,170.39Z"/><path class="cls-146" d="M71.29,170.38l2.24.07q0,90.59,0,181.17c0,1.81.88,4.25-2.22,4.69Z"/><path class="cls-146" d="M237.64,20.39l3.75-.75c-2.19,1.56-2.29,3.79-2.28,6.24q.06,161.45,0,322.89c0,7.38,1.5,7.59-7.5,9.43-4.12.84-8,0-12-1.14l.75-.75.47-.42c3,0,5.93,1.37,9,.82.83-.15,1.74.24,2.5-.4h1.5c1.75-1.61,1.1-3.74,1.1-5.66q0-146.46,0-292.92,0-16.11,0-32.21c0-2.16-.1-4.36,2.61-5.13Z"/><path class="cls-147" d="M217.41,20.39h2.25a4.4,4.4,0,0,1,1.91,3.85c.1,1.5.08,3,.08,4.5q0,160,0,320c0,2.56.61,5.29-1.21,7.59h0c-1.54.1-2.35-.53-2.26-2.17.06-1.12,0-2.25,0-3.38q0-162.43,0-324.88C218.15,24,218.48,22.11,217.41,20.39Z"/><path class="cls-139" d="M77.28,356.31V171.14l1.5.7q0,90,0,180.07C78.73,353.4,79.89,355.56,77.28,356.31Z"/><path class="cls-51" d="M244.39,356.31q0-165.27,0-330.53c0-1.55-.63-3.27.72-4.64q0,165.27,0,330.53C245.11,353.22,245.74,354.94,244.39,356.31Z"/><path class="cls-148" d="M54.05,20.39c3.5,2.68,7,.43,10.49,0,.15,3-2.24,5.3-2.24,8.25-5.64,2.9-11.17,3.37-16.49-.75,0-3-.32-6.07.75-9C49.07,19.33,51.43,20.51,54.05,20.39Z"/><path class="cls-149" d="M42.81,42.88c-3.16-3.87-7.08-7.18-9-12l2.25-6c2.36,1.34,3.63,4.29,6.74,4.5.76,4.12,3.77,6.54,6.75,9v2.25c-.57,2.44-2.85,2.24-4.55,3A2.57,2.57,0,0,1,42.81,42.88Z"/><path class="cls-150" d="M98.26,99.87c2.06-.46,3.07-2.76,5.25-3h2.25c-2.08,4-6.17,6.47-8.24,10.5-5.68,4-11.08,8.46-17.31,11.66-16.32,8.37-32.93,8.42-49.73,1.62-1.13-.45-2.56-.11-3.4-1.28,1.71-.68,2.36-3,4.49-3,1.12-1,2.36-.61,3.54-.23,21,6.78,39.54,1.78,56.27-11.88C93.48,102.54,95.55,100.68,98.26,99.87Z"/><path class="cls-151" d="M98.26,99.87c-5.59,5.32-12,9.51-18.6,13.42-6.38,3.79-13.28,5.37-20.71,6.34-9.62,1.25-18.42-.82-27.38-3.26l-9-5.25a17.09,17.09,0,0,1,5.25-2.25c1.16-1,2.28-.48,3.41.07a57.94,57.94,0,0,0,27.62,4.63c12.6-.78,22.2-7.44,32-14.07,1.79-1.21,3.27-3.23,5.89-2.63C96.66,98.18,97.84,98.83,98.26,99.87Z"/><path class="cls-152" d="M45.06,42.89l4.5-2.25c10.3,2.79,19-1.59,25.34-9.49.83-1,1.59-2.17,2.38-3.26a13.61,13.61,0,0,1,5.25-1.5l-3,7.5A30.85,30.85,0,0,1,68.14,44.35a22.21,22.21,0,0,1-19.68,1.78C46.93,45.56,44.93,45.28,45.06,42.89Z"/><path class="cls-153" d="M91.52,76.63A8.36,8.36,0,0,0,96,78.88c.4,1.53-.77,2.25-1.65,3.05A100.59,100.59,0,0,1,75.21,96,42.08,42.08,0,0,1,45,100.15a32.46,32.46,0,0,1-12.66-5c-1-.72-2.94-1.16-1.94-3.22,3.93-1.18,7.86-.76,11.82-.08,1.82.32,3.62,1,5.53.71,9,.66,17.9.86,26.05-4.11,4.79-2.93,9.14-6.43,13.61-9.79C88.61,77.78,89.59,76.21,91.52,76.63Z"/><path class="cls-154" d="M91.52,76.63C86.2,80.85,81,85.22,75.19,88.8,66.75,94,57.64,95.08,48.06,93.12A25,25,0,0,1,32,86.83c-.81-.7-1.69-1.53-1.15-2.86,2.52-.77,4.88.2,7.3.64,6.35,1.17,12.57,2.94,19.12,3.07,9.87.19,17.23-5.12,24.39-10.79a78.88,78.88,0,0,0,11-10,.89.89,0,0,1,1.09,0l6-2.25C97.53,69,94.38,72.71,91.52,76.63Z"/><path class="cls-155" d="M45.06,99.12C61.32,103,74.67,97,86.87,86.93,90,84.35,93.34,82,96,78.88l3-1.5c.29,2-1,4,0,6A3.88,3.88,0,0,1,97.1,86c-7.34,4.9-14,10.82-21.94,14.8-13.67,6.88-27.62,6-41.56.67-.8-.3-1.66-.71-1.34-1.88,2.91-2.81,6.19-1.15,9.35-.74C42.76,99,43.83,100,45.06,99.12Z"/><path class="cls-156" d="M32.32,99.87c14.4,6,28.9,7.14,43.05-.31C83.83,95.11,91.17,88.83,99,83.38h.76c0,.5,0,1,0,1.5C97.07,89.22,92.8,92,88.94,95a115,115,0,0,1-13.07,8.64c-9.41,5.53-19.68,6.43-30,5.2a90.83,90.83,0,0,1-25.52-6.73h0c.61-1.89,3-2,3.75-3.75A9.74,9.74,0,0,1,32.32,99.87Z"/><path class="cls-157" d="M93.77,66.88H93c-3.4,3.28-6.89,6.4-11.87,7-.85-1.5.45-2.26,1.18-3.13,1.5-1.81,2.91-3.69,4.25-5.61,3.35-3.71,6.8-7.32,9-11.91.35-.72.78-1.65,2-1.32h3.74Z"/><path class="cls-158" d="M20.34,102.12c4.21,1,8.52,1.6,12.62,2.94a62,62,0,0,0,31.19,2.13c7.27-1.39,13.48-5.54,19.62-9.63,5.7-3.79,10.42-8.76,16-12.68v3a3.93,3.93,0,0,1-1.59,3.22c-7.7,7.32-16,14-25.6,18.49-7.33,3.43-15.35,3.82-23.35,3.91-6.44.08-12.38-2-18.39-3.88a5,5,0,0,0-3-.75C25.86,106,22.44,104.81,20.34,102.12Z"/><path class="cls-159" d="M30.83,109.62c2.16-.14,4.16.65,6.18,1.21,11.09,3.1,22.15,2.18,32.84-1.28,7.84-2.54,14.53-7.63,20.71-13,3.15-2.75,6.67-5.2,9.2-8.64l6-2.25c-2.2,4.38-6,7.46-9,11.24-7,4-13.18,9.28-20.45,12.92-10.7,5.37-21.84,6-33.33,4A34.86,34.86,0,0,1,30.83,109.62Z"/><path class="cls-160" d="M84.78,36.89v3c1,3.5-1.92,5.13-3.5,7.4-3.92,3.23-7.76,6.53-12.25,9-8.94,5-23,3.68-30-2.94l-.75-5.25h.75c1.41-1,2.65-.12,3.84.45,9.67,4.63,19,4.42,27.9-1.86.79-.56,1.61-1.26,2.73-.84C78.33,44.19,80.86,39.68,84.78,36.89Z"/><path class="cls-161" d="M39.07,53.38c4,1.61,7.83,3.51,12.07,4.53,8.28,2,15.25-.76,22-5.17C76,50.9,77.75,47.82,81,46.63c1.06,1.66-.15,2.82-.94,4-2.19,3.36-5.18,6-8,8.86-5.54,4.43-11.66,6.37-18.76,4.7-4.09-.95-8.42-.92-12.2-3.06a23.71,23.71,0,0,1-4.92-3.88c-.85-.83-1.93-1.71-.94-3.14A6.2,6.2,0,0,1,39.07,53.38Z"/><path class="cls-162" d="M35.32,54.13c.9,3.1,3.78,4.22,6,6,.19,2.31-1.55,3.16-3.1,4.16-5.15-.41-8.34-4.08-11.89-7.16l-1.5-7.5h1.5Z"/><path class="cls-163" d="M73.54,45.88C63.69,54,53.1,54.78,41.83,49.15a28.38,28.38,0,0,0-2.76-1l3.74-5.25h2.25c5.56,5,15.85,4.85,23.33.29,4.2-2.57,7.37-6.27,11.14-9.29C78.34,38.29,75.78,42,73.54,45.88Z"/><path class="cls-164" d="M72,58.63c2.14-3,5.3-5.17,7.28-8.37A8.56,8.56,0,0,0,81,46.63c1.22-2.26,3.35-4,3.75-6.74,3.62-2.3,4.15-6.74,6.74-9.75A2.27,2.27,0,0,0,93,32.39c-1.64,5.75-4.25,11.1-6.74,16.49-3.17,4.41-7.5,7.39-12.17,9.94A1.7,1.7,0,0,1,72,58.63Z"/><path class="cls-165" d="M32.32,99.87a37.25,37.25,0,0,1-8.24-1.5c-2.6-1.89-5.73-3.26-6.74-6.75l3-1.5c3.72-1.29,6.83.06,9.74,2.25a30.78,30.78,0,0,0,15,6.75c-1.19,1.35-2.44.26-3.71.19C38.33,99.14,35.25,98.51,32.32,99.87Z"/><path class="cls-166" d="M72,58.63c5.76-1.76,9.42-6.6,14.24-9.75v1.5c.94,1.41,0,2.39-.84,3.29A60.31,60.31,0,0,1,66.88,67.9,10.61,10.61,0,0,1,63,69.15c-8.14.5-16.18.16-23.82-3.15-.65-.56-1.17-1.17-.84-2.12l3-3.75C51.76,63.75,62.16,66.53,72,58.63Z"/><path class="cls-167" d="M39.07,65.38a72.1,72.1,0,0,0,19.7,3.05,18.45,18.45,0,0,0,9.62-2.34,67.33,67.33,0,0,0,17.23-14,5.42,5.42,0,0,0,.66-1.69c1.74.08,2.36-1.72,3.74-2.25C91,51.61,88.44,53.86,87,56.4c-.92,1.57-2.2,3-3.24,4.5-2.61,2.32-5.42,4.37-8.24,6.42-11.16,8.09-22.84,7-34.75,2a4.1,4.1,0,0,1-2-1.6A2,2,0,0,1,39.07,65.38Z"/><path class="cls-168" d="M83.28,60.13c2.32-4,5.72-7.31,6.74-12l6.75-10.49c.56,3.31-1,6.46-.75,9.74.63,2-.63,3.33-1.63,4.68C92,55.3,89.94,58.94,86,60.75A2.67,2.67,0,0,1,83.28,60.13Z"/><path class="cls-169" d="M86.28,60.13A43.66,43.66,0,0,0,96,47.38l2.25-.75a14.17,14.17,0,0,1-.75,5.25c-3,4.85-5.67,10-10.5,13.5-7.15,6.7-15,12.1-24.85,14.11-1.43.29-3,.64-3.92-1.11,0-1.56,1.23-1.74,2.29-2,9.58-2,16.72-7.85,23.38-14.5A19.28,19.28,0,0,1,86.28,60.13Z"/><path class="cls-170" d="M81,73.63c4.51-1.34,7.85-4.76,12-6.75a3.12,3.12,0,0,1-1.14,2.27c-6.39,6.3-13.25,12-21.15,16.34C64.37,89,57.49,89.4,50.46,88c-6.55-1.28-13.09-2.6-19.63-3.9-1.1.78-1.75.25-2.25-.75-.25-2-1.54-3.49-2.25-5.25l2.25-1.5c4.32.5,8.34,2.2,12.52,3.29,3.25.85,6.54,1.5,9.8,2.29,8.57,2.08,16.19-.29,23.43-4.78C76.51,76.08,78.19,73.82,81,73.63Z"/><path class="cls-171" d="M81,73.63C74.57,79.34,67.25,84,58.56,83.92c-10.39-.08-20.43-3-30-7.29v-1.5c3.46-1.87,7.22-1.82,11-1.75,6.31,1.61,12.83,2.43,19,4.75,5.2,1.34,9.64-1.07,13.84-3.34,5.09-2.74,9.78-6.24,14.63-9.41C86,68.83,82.93,70.81,81,73.63Z"/><path class="cls-172" d="M39.82,74.38c-3.8-.49-7.46,1.12-11.24.75l-8.25-6.75a13,13,0,0,1,5.25-3.75c3.52-.86,5.74,1.81,8.46,3.13C35.73,70.16,39.13,71.08,39.82,74.38Z"/><path class="cls-173" d="M33.82,68.38c-2.78-1.18-5.24-3.06-8.24-3.75-1.28-2.16-3.73-3.45-4.5-6l5.25-1.5c3.32.64,5,3.92,7.92,5.1l4.07,1.65.75,1.5v2.25C37.48,69,35.67,68.86,33.82,68.38Z"/><path class="cls-174" d="M28.58,83.38l2.25.75c4.44,5.49,10.72,7.46,17.23,9a1.89,1.89,0,0,1-2.32.6C40.62,92,35.33,92.39,30.07,92.37c-3.3-.5-6.34-2.16-9.74-2.25-.34-2.12-2.08-3.45-3-5.24A35.35,35.35,0,0,1,28.58,83.38Z"/><path class="cls-175" d="M220.41,356.31q0-165.23,0-330.44c0-1.85.33-3.76-.74-5.48,3.81.31,4.58,2.49,4.57,6.08q-.14,161.57-.08,323.12c0,6.72,0,6.72,6.75,6.72h1.5C228.4,358.2,224.41,356.49,220.41,356.31Z"/><path class="cls-141" d="M237.64,20.39c-1.89,1.28-1.49,3.25-1.49,5.08q0,72.9,0,145.78,0,90.33,0,180.64c0,1.63,1.35,4.37-2.19,4.42q0-165.41,0-330.82C233.89,22.83,233.4,19.88,237.64,20.39Z"/><path class="cls-176" d="M33.82,68.38c1.64-1,3.47-.7,5.25-.75A52.92,52.92,0,0,0,57,72.19c8.31.5,14.83-3.24,21.08-8,1.78-1.33,3.5-2.74,5.25-4.11h3C79.38,68.85,71,75.32,59.81,77.43a4.78,4.78,0,0,0-1.26.7c-6.49,0-12.5-2.45-18.73-3.75C38,72.19,35.21,71,33.82,68.38Z"/></g></g></svg>