<svg xmlns="http://www.w3.org/2000/svg" viewBox="0 0 684.3 660.35"><defs><style>.cls-1{fill:#ef7d1c;}.cls-2{fill:#e42921;}.cls-3{fill:#fe941c;}.cls-4{fill:#ec2921;}.cls-5{fill:#ea2820;}.cls-6{fill:#ed2b20;}.cls-7{fill:#f52921;}.cls-8{fill:#fa841b;}.cls-9{fill:#fe2921;}.cls-10{fill:#fd2921;}.cls-11{fill:#fe3121;}.cls-12{fill:#fd941c;}.cls-13{fill:#f32720;}.cls-14{fill:#f58f1b;}.cls-15{fill:#fe8d1c;}.cls-16{fill:#fb2921;}.cls-17{fill:#e9281f;}.cls-18{fill:#f82820;}.cls-19{fill:#fe2f21;}.cls-20{fill:#f4851b;}.cls-21{fill:#f62921;}.cls-22{fill:#f42a21;}.cls-23{fill:#ec891a;}.cls-24{fill:#f12820;}.cls-25{fill:#fe871c;}.cls-26{fill:#f22820;}.cls-27{fill:#fd901c;}.cls-28{fill:#f42820;}.cls-29{fill:#ef291f;}.cls-30{fill:#ec271f;}.cls-31{fill:#ed271f;}.cls-32{fill:#f0821a;}.cls-33{fill:#fe3021;}.cls-34{fill:#f62820;}.cls-35{fill:#f32920;}.cls-36{fill:#ef271f;}.cls-37{fill:#e6261e;}.cls-38{fill:#f92c21;}.cls-39{fill:#fa2921;}.cls-40{fill:#fd3121;}.cls-41{fill:#ec281f;}.cls-42{fill:#f12720;}.cls-43{fill:#fb2821;}.cls-44{fill:#ef2820;}.cls-45{fill:#f92820;}.cls-46{fill:#eb291f;}.cls-47{fill:#eb271f;}.cls-48{fill:#f52820;}.cls-49{fill:#e8261f;}.cls-50{fill:#fd3021;}.cls-51{fill:#ea261f;}.cls-52{fill:#e9261f;}.cls-53{fill:#ed281f;}.cls-54{fill:#f42920;}.cls-55{fill:#f0271f;}.cls-56{fill:#ef281f;}.cls-57{fill:#fe2a21;}.cls-58{fill:#ee271f;}.cls-59{fill:#ec2820;}.cls-60{fill:#e7271f;}.cls-61{fill:#f02720;}.cls-62{fill:#f82a21;}.cls-63{fill:#f0281f;}.cls-64{fill:#ee2820;}.cls-65{fill:#f02820;}.cls-66{fill:#fe8f1c;}.cls-67{fill:#f32820;}.cls-68{fill:#f0841a;}.cls-69{fill:#f02920;}.cls-70{fill:#fd2a21;}.cls-71{fill:#fd8f1c;}.cls-72{fill:#fd8e1c;}.cls-73{fill:#ed2820;}.cls-74{fill:#e9271f;}.cls-75{fill:#f42821;}.cls-76{fill:#f72921;}.cls-77{fill:#fd8d1c;}.cls-78{fill:#fe8e1c;}.cls-79{fill:#f82921;}.cls-80{fill:#f52920;}.cls-81{fill:#f52a21;}.cls-82{fill:#ef821a;}.cls-83{fill:#ef831a;}.cls-84{fill:#f92921;}.cls-85{fill:#f62a20;}.cls-86{fill:#fc8e1c;}.cls-87{fill:#fb8d1c;}.cls-88{fill:#ed821a;}.cls-89{fill:#fefdfc;}.cls-90{fill:#e11912;}.cls-91{fill:#e02018;}.cls-92{fill:#e2241d;}.cls-93{fill:#e4150c;}.cls-94{fill:#e41008;}.cls-95{fill:#e01c14;}.cls-96{fill:#e40400;}.cls-97{fill:#e21f17;}.cls-98{fill:#df2119;}.cls-99{fill:#de1f18;}.cls-100{fill:#e4140c;}.cls-101{fill:#df231d;}.cls-102{fill:#e11f17;}.cls-103{fill:#e11710;}.cls-104{fill:#e41108;}</style></defs><g id="레이어_2" data-name="레이어 2"><g id="레이어_1-2" data-name="레이어 1"><path class="cls-1" d="M435.59,4.47c29.62,3.41,58.85,8.79,87.45,17.16,26.8,7.84,52.78,17.62,77,31.34s45.66,30.62,62.22,52.87c11.35,15.26,19.12,32.06,22,50.83a30.59,30.59,0,0,0,0,7.22c-.75,6.4-4.29,9.9-12.5,10a12.77,12.77,0,0,0-3.7-.17H20.27a9.84,9.84,0,0,0-3.11.17C9.09,172.39,3.87,168.05,2.32,160a20.78,20.78,0,0,0,0-6.1C7.07,136,15.77,120,27.16,105.28,43.7,84,64.92,68,88.33,54.49c26.91-15.5,55.94-25.95,86-34q24.72-6.59,50-10.94c16-2.74,32.09-5.06,48.31-6.38,1-.08,2.07-.26,3.11-.39,1.71.13,3.43.53,5.1-.2,2.83-.89,5.8-.39,8.67-.88,1.69.1,3.39.43,5.07-.17a6.74,6.74,0,0,1,3.5-.45,24.35,24.35,0,0,0,7.9-.15C312.26.08,318.64.3,325,0c7.11.42,14.22.15,21.33.16,6.44,0,12.89.26,19.33-.16,6.92.31,13.87.06,20.76,1,3,.66,6,.35,9,.17a7.25,7.25,0,0,1,3.54.4c1.66.65,3.36.33,5.05.16A4.29,4.29,0,0,1,406.6,2c1.8.77,3.65.34,5.48.24a2,2,0,0,1,1.83.37c1.66.66,3.36.32,5,.16,4.26.52,8.58.55,12.79,1.47C433,5,434.3,4.6,435.59,4.47Z"/><path class="cls-1" d="M200.59,655.24c-30.16-3-60.11-7.21-89.4-15-25.17-6.69-49.1-16.17-70-31.73a110.09,110.09,0,0,1-40-55.78c-3.23-10,.6-18.67,9.72-22.26,10.11-2,20.31-1.15,30.49-.93.85,0,1.71,0,2.57,0H666.35a12,12,0,0,0,3.69-.19c9.26.61,13.39,5.22,12.52,14.19-1.83,18.84-9.46,35.26-22.12,49.54-15.43,17.4-35.07,28.76-56.72,37.14-22.27,8.62-45.45,14.13-69,18.36-4.94.89-9.93,1.48-14.9,2.2-3.63-.53-7.13.59-10.65,1-9.38,1.18-18.8,2-28.18,3.14-1.55.41-3.22-.35-4.72.49l.11,0c-1.33.53-2.79-.17-4.11.43l-4,.51a6.9,6.9,0,0,0-4,.12,5.3,5.3,0,0,1-2.89.43c-2.07-.19-4.14-.49-6.19.15-3.61.95-7.36.44-11,.93-2.07-.13-4.14-.46-6.19.17a9.4,9.4,0,0,1-4.11.43,31.41,31.41,0,0,0-9,.16c-6.32.86-12.71.61-19.06,1-4-.19-8-.52-12,.18a50.89,50.89,0,0,1-9.79.39,4.71,4.71,0,0,0-2-.19H313.77a5.05,5.05,0,0,0-2,.18,87.05,87.05,0,0,1-12.61-.41c-4.57-.75-9.18-.13-13.76-.33-8-.45-16-.79-24-.89a67.38,67.38,0,0,0-11.54,0,9.41,9.41,0,0,1-4-.37c-2.26-.72-4.55-.37-6.84-.19-4-.47-8.14-.06-12.13-1a13,13,0,0,0-5.65-.13,5.34,5.34,0,0,1-2.9-.39c-3.61-.36-7.18-1.32-10.86-.73a3,3,0,0,1-2.35-.44A9.34,9.34,0,0,0,200.59,655.24Z"/><path class="cls-2" d="M287.23,349.13c.84-10.07,7.11-16.81,17.21-18.46l2.78-.45c2.84.42,5.59-.49,8.44-.42a36.84,36.84,0,0,1,12.77,2.14,1.4,1.4,0,0,0,1.1,0,31.74,31.74,0,0,1,13.62,9.77c17.89,21.37,36.79,41.89,55.44,62.62,1.06,1.19,2.05,2.44,3.11,3.63.55.62,1.12,1.49,2.06,1.26s.82-1.31.89-2.12c0-.37.06-.74.1-1.11a3.84,3.84,0,0,0,.18-1.65q0-25.65,0-51.31a3.57,3.57,0,0,0-.2-1.65c.07-9.59,4.74-16.52,13.13-19.46a64.34,64.34,0,0,1,18.45-2.1c2.06.07,4.05,1.07,6.15.42,11.93,2.11,17.87,8.42,18.85,20a7.34,7.34,0,0,0-.19,2.76q0,68.33,0,136.66a7.14,7.14,0,0,0,.19,2.76c-1,10.07-6.4,17.7-20,19.45a7.92,7.92,0,0,0-3.9.11c-3.49.65-6.93.09-10.38-.29-3.63-.45-6.86-2.15-10.32-3.12a17.36,17.36,0,0,1-5.79-3.83,26.61,26.61,0,0,0-5.71-5.55Q390.44,482.58,375.68,466t-29.6-32.86c-.56-.62-.88-1.92-2.27-1.41a4,4,0,0,0-.21,1.91V490a4.47,4.47,0,0,0,.19,1.92,2.43,2.43,0,0,1-.39,1.85.58.58,0,0,1-.28-.81,6.46,6.46,0,0,0,.08,2.86c-1.77,9-8,13.59-16.64,15.65-.91.21-1.84.31-2.77.47-1.82-.7-3.49.44-5.29.41a81.74,81.74,0,0,1-10.73-.61c-2.53-.25-4.85-1.47-7.43-1.52-8.16-3-12.42-8.8-13.11-17.2.42-7.47.07-14.94.19-22.41q0-59.07,0-118.13A10,10,0,0,0,287.23,349.13Z"/><path class="cls-2" d="M562.31,513.57c-6.47-.7-12.91-1.54-19.07-3.73-2.18-.82-4.3-1.87-6.72-1.87-26.62-9.41-45.64-26.53-56.09-52.35.19-1.83-.91-3.32-1.45-4.95-1.31-4-2.07-8.13-3.34-12.14-.73-1.67-.66-3.48-1-5.22.29-3.78-.56-7.5-.62-11.26-.12-5.54.43-11.05.81-16.57.45-3.17,1.55-6.25,1.52-9.5a16.22,16.22,0,0,1,1.51-5.22c1.23-3,2.62-6,3.14-9.27q18.93-42.78,65.23-54.6a62.21,62.21,0,0,0,9.6-1.48c4.52-.4,9-.72,13.58-1.11,4.38,0,8.76,0,13.15,0,5.68.31,11.32,1.07,17,1.66,2.3.19,4.47,1.28,6.84.91,14.36,2.5,27.59,7.45,38.74,16.9,4.28,3.61,8.28,7.4,9.34,13.17-.33,2.95-.12,5.94-.57,8.88-3.09,8.44-7.84,15.4-17.14,18.33a6.27,6.27,0,0,0-2.76,0A23.53,23.53,0,0,1,623.76,383a4.5,4.5,0,0,0-3-.57L606.9,376.5a12.37,12.37,0,0,0-6.18-1.83l-8.69-2.1a71.43,71.43,0,0,0-21.34-1.05,52.9,52.9,0,0,0-5.62.54,24,24,0,0,0-6.79,1.59c-7.5,2.45-14.16,6.14-19,12.42a48.78,48.78,0,0,0-8.5,18.82,8.19,8.19,0,0,1-.51,1.23c-2.49,8.71-2.1,17.44-.14,26.17a2,2,0,0,0,.75,1.43c2,5.48,4.21,10.87,7.91,15.57,7.46,9.48,17.4,14.67,29.4,16.4.55.08,1.16,0,1.58.46a37.74,37.74,0,0,0,12,0l5.76-1.17c6.15-1.3,10.76-4.34,12.51-10.57a15.84,15.84,0,0,0,0-7.56c-1.91-1.51-4.34-.27-6.36-1.17,1.61-.7,3.25-.16,4.89-.34-5.22.17-10.42-.15-15.63-.36-9.32-1.43-15.33-6.3-17.13-15.56a2.44,2.44,0,0,0,.18-1.63,27.25,27.25,0,0,1,.56-12.31,1.57,1.57,0,0,0-.17-1.08c2.34-8.08,8.46-11.79,16.37-13.41,1.19-.24,2.43-.31,3.64-.45a10,10,0,0,0,3.13.17H634.8a10,10,0,0,0,3.13-.17c7.76.86,13.89,3.92,16.58,11.63,1.73,6.37.85,12.94,1.5,19.39,0,13.34,0,26.68,0,40a9.08,9.08,0,0,0,.18,3c0,1.72.46,3.48-.44,5.12a1.56,1.56,0,0,1-.27-1.43c.57,2-.83,4.39-1,6.91-3.45,8.25-10.16,13.48-17.63,18a55.68,55.68,0,0,1-14.4,5.92c-5.05.66-10,1.65-15.05,2.61-2.84.41-5.73.49-8.54,1.1-1,.09-2,0-3,.08a133.36,133.36,0,0,1-29.55.62A12,12,0,0,0,562.31,513.57Z"/><path class="cls-2" d="M93.28,488c.28,11.43-4.35,19.33-13.68,22.27-3.08.34-6,1.29-9.13,1.63a38.76,38.76,0,0,1-11-.06,5.39,5.39,0,0,0-2.79.09c-8.91-1.26-16-4.85-18.83-13.9.3-1.2-.5-2.2-.68-3.31a1.78,1.78,0,0,1-.47-1.71,10.57,10.57,0,0,0,.17-3.32q0-69,0-137.93c.22-3.56,1.36-6.95,2.11-10.42A15.74,15.74,0,0,1,47,333a61.66,61.66,0,0,1,9.23-2.58c6.08-1,12.16-.47,18.24-.17,7.2,1.4,13.38,4.31,16.64,11.19,2.16,4.56,2.52,9.44,2.21,14.4a52.38,52.38,0,0,0-.18,8q0,16.8,0,33.6c0,1-.37,2,.36,3,1.46,1.17,2.46,1,3.32-.79a10,10,0,0,1,3.45-4.25,19.11,19.11,0,0,0,5.12-5.14c7.22-7.46,14.41-14.94,21.65-22.38,3.06-3.15,6.22-6.21,9.33-9.31a19.83,19.83,0,0,0,5.71-5.83c5.8-6.1,11.49-12.32,18.1-17.64a23.76,23.76,0,0,1,10.07-4.83c1.73.54,3.33-.37,5-.46,3.36-.16,6.53.89,9.82,1a21.89,21.89,0,0,1,8.69,4.88,14.08,14.08,0,0,0,4,3.93,16.86,16.86,0,0,1,3.28,5.07,1.7,1.7,0,0,0,.14,1.32,16.21,16.21,0,0,1-.45,14.34,1.71,1.71,0,0,0-.24,1.56c-1.95,4.21-5,7.64-8.21,10.95-7.11,7.38-14.29,14.69-21.44,22a13.52,13.52,0,0,0-4.55,4.66q-8.67,9.07-17.35,18.14c-2.68,2.8-2.64,3.13.14,6q14.82,15.31,29.6,30.68a8.93,8.93,0,0,1,.78,1.12,8.6,8.6,0,0,0,3.42,3.45c5.75,5.78,11.73,11.35,16.27,18.15a22.37,22.37,0,0,1,3.08,6.49c-.58,1.51.36,2.88.47,4.34.2,2.73-.76,5.25-1,7.87a30.53,30.53,0,0,1-18.26,15.56,44.78,44.78,0,0,1-14.29,0c-6.41-1.95-11.19-6.11-15.55-10.85a17.29,17.29,0,0,0-5.13-5.16q-12.1-12.24-24.19-24.47c-2.11-2.14-4.14-4.35-6.21-6.53a10,10,0,0,0-4-4.14c-6.08-6.18-12.66-11.92-17.84-18.9-.93-1.24-1.36-1.1-2.16.06s-.47,2.13-.7,3.19a70.31,70.31,0,0,0-.18,9.18c0,10.41,0,20.82,0,31.23A8.66,8.66,0,0,0,93.28,488Z"/><path class="cls-2" d="M352.57,238.12c4.08-25.34,18.12-42.7,43.34-51a53.06,53.06,0,0,1,13.36-2.48c4.32.44,8.65,0,13,.21A134.84,134.84,0,0,1,438,186.67l-.1-.1c2.07.51,4.05,1.45,6.25,1.44a48.25,48.25,0,0,1,18.09,10.12,15.08,15.08,0,0,1,4.77,7.08,20.43,20.43,0,0,1-.59,10c-2,4.06-4.74,7.47-9.1,9.38a21.6,21.6,0,0,1-10.26-.52c-5.86-2.48-11.63-5.18-18-6.29-1.09-.19-2.17-.46-3.26-.7-1.26-.87-2.62-.4-4-.27a43.24,43.24,0,0,0-13.05.4c-8.93,1.74-14.75,6.94-18.12,15.18a41.89,41.89,0,0,0-2.76,24.14,15.45,15.45,0,0,0,3,8.23c.84,1.21,1.69,2.42,2.52,3.64,4.58,6.77,11.11,10.55,19.23,11.91a14.76,14.76,0,0,0,7.38.16c.92-.68,2-.42,3-.6,3.78-.64,7.17-1.91,9.05-5.51,1.31-2.32,1-4.76.55-7.2l-1.27-.52c-1.9-.78-3.88-.23-5.83-.36-3.35-.23-6.39-1.51-9.47-2.64-3.57-2.11-4.78-5.46-5.33-9.25a21.33,21.33,0,0,1,1.2-11.13c1.84-4.59,5.67-6.38,10.43-6.75,2.77.63,5.47-.3,8.2-.44a197.14,197.14,0,0,1,27.6.66c1.88.16,3.6,1,5.44,1.45a5.9,5.9,0,0,1,2.72,2.75c1.76,3.89,1.25,8.17,2.16,12.21,0,5.1.67,10.17.62,15.28-.06,6.31-.53,12.58-1.19,18.84a23.54,23.54,0,0,0,.17,4.36c-1.15,5.54-4.87,9.24-9.43,12.27a49.74,49.74,0,0,1-14.56,6.62c-1.64-.47-3.1.39-4.59.73-1.84.42-3.75.55-5.55,1.11-2.64,1-5.45.86-8.15.91-16,.28-31.2-2.81-45.12-10.74-14.09-8-22.2-20.4-26.42-35.45-.22-4-1.43-7.8-1.77-11.77a61.63,61.63,0,0,1,.09-14.43A5.57,5.57,0,0,0,352.57,238.12Z"/><path class="cls-2" d="M261.89,333c5.53,2.62,8.19,7.28,9.65,12.79-.66,2.16.59,4.16.52,6.31,0,1.36.16,2.77.16,4.16q0,55.76,0,111.53c0,10.09.74,20.22-1.23,30.24A17.58,17.58,0,0,1,259,510.25c-3.16.5-6.28,1.17-9.46,1.61a49.18,49.18,0,0,1-14.64-.59,4.44,4.44,0,0,0-2.23.06c-12.26-2.85-16.85-10.45-17.13-22.8a6.3,6.3,0,0,0,.19-2.48v-130a6.71,6.71,0,0,0-.18-2.48c.29-10.81,4-19,14.26-22.22,4.86-.67,9.66-1.57,14.63-1.6A51,51,0,0,1,261.89,333Z"/><path class="cls-2" d="M126.54,222.46c-1,8.45-5.57,15-12.06,20.3-1.65,1.36-1.43,1.85.14,3.07,7.29,5.67,13.61,12.08,15.92,21.3.15,3.72.83,7.42.43,11.18-.22,2.08-.82,4.12-.76,6.23l.1-.09c-1.11,3.5-2.12,7-3.25,10.52-4.52,9.18-12.51,13.68-22.35,15.66-1.1.22-2.22.3-3.34.45-3.6-.69-7.11.64-10.72.41-7.08-.45-14.17.64-21.26,0-5.7,0-11.4-.09-17.1.05-2.19.05-4.27-1-6.47-.41-7-1.42-10-4.48-11.41-11.65-.18-5,.09-10-.26-15,0-.65-.1-1.3-.1-1.95,0-21.56,0-43.12,0-64.68.52-5.87.1-11.76.34-17.63,1.45-8,6-11.67,15.48-12.24,1.88-.11,3.78,0,5.67,0q14.31.48,28.61,0c8.62-.43,17.13.09,25.32,3,9.65,3.47,15,10.35,16.61,20.12l.42,2.44A40.56,40.56,0,0,0,126.54,222.46Z"/><path class="cls-2" d="M656.78,240.31a29.12,29.12,0,0,1-6.21,10.61,19.55,19.55,0,0,0-4.54,4.49,1.88,1.88,0,0,1-.14.24c-1.32,1.52-4.34,2-4.23,4,.09,1.63,2.12,3.16,3.31,4.72,4.53,6,9.09,11.89,13.59,17.88,2.13,2.83,4.12,5.76,4.54,9.4a31.12,31.12,0,0,1-1,6.42c-3.24,7.77-12.31,13.76-20.58,13.49a10.88,10.88,0,0,1-7.77-3.65c-4.43-4.75-8-10.15-11.9-15.27-6.15-8-12.24-16.1-18.38-24.13-.73-1-1.58-2.49-2.72-.27-.64,1-.31,2.16-.3,3.23.06,8.19-.22,16.39.13,24.58l-.4,1.15c-.44,1.91-1.46,3.63-1.81,5.56a15.71,15.71,0,0,1-10.29,8.84,41.92,41.92,0,0,1-11.41,0c-5.92-1.71-10.59-4.7-11.93-11.08.15-1.11.45-2.23-.22-3.28s-.43-2.16-.43-3.24q0-44,0-88c0-1.09-.27-2.23.42-3.25.87,1.35.12,2.84.48,4.48a33.54,33.54,0,0,1,.83-11c1.61-4.52,5.16-6.72,9.73-7.7,2.09.12,4.19.56,6.24-.22,2.28-.73,4.61-.38,6.93-.37,7.72.45,15.45.05,23.17.21,4.13.7,8.32.38,12.46.4a41,41,0,0,1,15.11,3.16c8.12,4,13.3,10.5,16.77,18.48.35,2.88,1.67,5.5,2.33,8.31.38,1.64-.18,3.37.71,4.9a4.88,4.88,0,0,1,0,4.25C658.93,232,657.61,236.1,656.78,240.31Z"/><path class="cls-2" d="M261.93,312.21c-4.22-.76-8.15-2.16-11.31-5.09a9.68,9.68,0,0,1-3-4.89c-1.36-32.2-.36-64.42-.67-96.63,0-3.16,1.06-6.18,1.27-9.31,3.09-7.34,9.68-8.08,16.54-8.3,6.87.42,13.74.16,20.61.16s13.74.26,20.6-.17c14.92.29,28.29,9,33.74,25,0,2.85,1.31,5.45,1.62,8.28.39,3.56-.17,7.11.13,10.65a36.67,36.67,0,0,1-15.81,25.68c-1.75,1.21-2.13,2-.65,3.81,5.59,7,11,14.23,16.38,21.41a18.28,18.28,0,0,1,3.52,6.59,16.45,16.45,0,0,1-1,9.72,21.91,21.91,0,0,1-16.15,11.92c-2.65-.18-5.34.05-8-.58-2.75-1.13-4.57-3.28-6.27-5.51q-14.47-19-28.91-38c-.37-.48-.44-1.61-1.59-1-.52,4.13-.21,8.27-.21,12.4,0,5.89-.25,11.79.15,17.68-.95,6.25-3.64,11.39-9.66,14.43A36.54,36.54,0,0,1,261.93,312.21Z"/><path class="cls-2" d="M190.17,283.79c3.8-1.23,7.8-2.16,9.82-6.1,1.15-2.23,1.15-4.65,1.15-7.05,0-20.26,0-40.52,0-60.78,0-3.44.78-6.8.72-10.22,1.49-5.13,4.2-9.25,9.66-11.1,6.63-1.34,13-.28,19.21,2.07a10.36,10.36,0,0,1,5.9,7.91,8.8,8.8,0,0,0-.18,2.88c-.14-.2-.06-.55.36-.84a4.24,4.24,0,0,1,.38,2.43,5.44,5.44,0,0,0-.18,2.2q0,32.25,0,64.51a3.85,3.85,0,0,0,.3,2.43,12.87,12.87,0,0,1,0,5.56,56.86,56.86,0,0,0-.7,7.24c-2.29,11.33-9.87,18.12-20.4,22.24-3.4,1.34-7,2.24-10.49,3.35-1.46-.57-2.82.19-4.14.47a46,46,0,0,1-11.74,1c.73.12,1.34-.14,1.75.4a12.65,12.65,0,0,1-7.06,0c-1.68-.74-3.4-.33-5.11-.21A71.44,71.44,0,0,1,154,304c-9.27-5.2-14-13.18-14.63-23.53a5.12,5.12,0,0,0,.2-2.2V204.63a5.34,5.34,0,0,0-.19-2.21c.43-8,4-12.1,12.06-13.93,1.1-.24,2.23-.34,3.35-.51a25.2,25.2,0,0,0,6.83,0c5.2,1,9.88,2.81,12.53,7.74,2,7.84,1.17,15.83,1.22,23.76.1,16.45,0,32.9,0,49.35a12.1,12.1,0,0,0,.59,4.92c1.5,5,4.41,8.66,9.8,10A6.21,6.21,0,0,0,190.17,283.79Z"/><path class="cls-2" d="M542.2,282.82c4.75.65,9.13,1.91,11.37,6.63,1.32,3.42.77,7,1.19,10.55-.59,5.34-2.77,9.52-8.56,11.07-2.67-.43-5.26.43-7.92.42q-19-.12-38,0c-3.41,0-6.78-.94-10.21-.38a1.11,1.11,0,0,1-1.24-.43,10.12,10.12,0,0,0-2.76-.72c-4.59-1.83-6.53-5.51-7.37-10a6.17,6.17,0,0,0,.17-2.22V202.4a5.34,5.34,0,0,0-.19-2.21A1,1,0,0,1,479,199a6.08,6.08,0,0,0,.83-2.74c1.63-4.74,5.4-7,10.1-7.8a47.52,47.52,0,0,1,11.62-.51c6,.43,12,.16,18,.17,5.63,0,11.26.25,16.89-.16a51.23,51.23,0,0,1,7.92.25c5.38.71,8.48,3.62,9.77,8.61-.34,2.36.15,4.72.16,7.09,0,2.82-1.05,5.33-1.81,7.93-1.88,3.29-5.1,4.33-8.6,4.93-9.54-.23-19.09-.43-28.62.11,0,5.19,0,10.39-.13,15.58,0,1.81.5,2.38,2.39,2.34,5.72-.11,11.44-.05,17.16,0,1,0,2.11-.22,3,.45-5.65.76-11.34.13-17,.3-.67,0-1.5.4-1.91-.16,8,.85,16.39-.86,24.53,1.11,6.73,3.07,9.76,9.48,7.94,16.86s-6.36,10.9-14.27,10.85a197.07,197.07,0,0,0-21.74.12v18.33c.66.56,1.45.33,2.19.32C525.72,282.89,534,283.24,542.2,282.82Z"/><path class="cls-3" d="M670,529.37c-.91.73-2,.47-3,.47H133.51c-.23-.11-.31-.21-.23-.32s.15-.15.23-.15c1.05,0,2.1-.08,3.15-.08H666.9C668,529.29,669,529.34,670,529.37Z"/><path class="cls-3" d="M306.05,173.4H668.7a5,5,0,0,1,3.06.46c-1.15,0-2.29.09-3.44.09H309.2c-1.05,0-2.1-.05-3.15-.09C305.66,173.71,305.65,173.55,306.05,173.4Z"/><path class="cls-4" d="M271,498a1.73,1.73,0,0,1-.34-1.58c1.48-4.72,1-9.57,1-14.37q0-64.45.09-128.92c0-2.46-1.36-4.89-.19-7.37,1.31,6.2,1.22,12.49,1.22,18.77q0,59.88,0,119.76C272.73,489,272.49,493.57,271,498Z"/><path class="cls-5" d="M248.27,196.29a1.72,1.72,0,0,1,.33,1.58c-1.45,4.62-1,9.37-1,14.08,0,27.92,0,55.83-.08,83.75,0,2.18,1.3,4.34.16,6.53-1.36-5.86-.92-11.84-1-17.75-.2-22.59-.15-45.18-.15-67.77a121.22,121.22,0,0,1,.39-14.76A26.51,26.51,0,0,1,248.27,196.29Z"/><path class="cls-6" d="M175.94,273.76c0,.08-.06.23-.11.24a.86.86,0,0,1-.41,0,34.73,34.73,0,0,1-.67-5.5c0-21.63,0-43.25.1-64.88,0-2.69-1.32-5.19-.75-7.88a26,26,0,0,1,1.83,10.3Q175.91,239.9,175.94,273.76Z"/><path class="cls-7" d="M201.83,199.64c1.21,2.38-.2,4.71-.19,7.09.13,21.24.09,42.48.06,63.72,0,2.52,0,5.09-1.71,7.24a33.71,33.71,0,0,0,.74-8.26q0-29.25,0-58.48A46.18,46.18,0,0,1,201.83,199.64Z"/><path class="cls-8" d="M133.51,529.37v.47q-57.13,0-114.27-.07c-2.87,0-5.53,1.31-8.39.71a18.35,18.35,0,0,1,8.54-1.59q56.49.14,113,.36C132.75,529.26,133.13,529.33,133.51,529.37Z"/><path class="cls-9" d="M37.21,350.78q0,69.2,0,138.41c0,1.27.33,2.61-.45,3.8,0-1.2-.12-2.41-.12-3.62q0-68.44,0-136.9c0-.74.06-1.48.09-2.22C37.18,350.16,37.49,350.21,37.21,350.78Z"/><path class="cls-10" d="M461.31,492.44c-.72-1-.48-2.15-.48-3.24q0-67.84,0-135.7c0-1.09-.24-2.24.48-3.24,0,.65.09,1.29.09,1.94V490.5C461.4,491.15,461.34,491.8,461.31,492.44Z"/><path class="cls-11" d="M215.58,353.6c.7,1,.47,2.15.47,3.25q0,64.22,0,128.43c0,1.1.24,2.25-.48,3.25,0-.65-.09-1.29-.09-1.94v-131C215.48,354.9,215.55,354.25,215.58,353.6Z"/><path class="cls-7" d="M287.23,349.13c.71,1,.47,2.15.47,3.25q0,59.17,0,118.34-.24.57-.48,0c-.06-15.9-.15-31.79-.16-47.69q0-35.7.07-71.39C287.13,350.8,287.19,350,287.23,349.13Z"/><path class="cls-12" d="M62.42,173.4H170.77c.39.17.39.32,0,.47-10.1,0-20.2.09-30.3.08q-39,0-78-.07C62,173.71,62,173.55,62.42,173.4Z"/><path class="cls-10" d="M478.69,200.19c.71,1,.47,2.15.47,3.25q0,46.63,0,93.28c0,1.1.23,2.24-.45,3.26,0-.1,0-.19,0-.28C478.37,266.53,478.32,233.36,478.69,200.19Z"/><path class="cls-13" d="M34.33,217.46c0,21.16-.14,42.32.1,63.47.06,5.17.47,10.36.47,15.54,0,1,.19,2.06-.49,3l-.13-2.06c-.62-4.12.1-8.28-.38-12.4,0-6.85-.14-13.7-.13-20.55,0-15.66.07-31.31.1-47l.23-.18Z"/><path class="cls-14" d="M306.05,173.4v.45q-19.56.06-39.13.09-22.28,0-44.56-.08c-.4-.15-.4-.31,0-.46Z"/><path class="cls-11" d="M139.33,202.42c.71,1,.47,2.15.48,3.25q0,35.78,0,71.55c0,1.1.24,2.24-.49,3.24q0-35.11-.08-70.24C139.24,207.62,139.3,205,139.33,202.42Z"/><path class="cls-15" d="M311.8,660.28a5.2,5.2,0,0,1,3.06-.46q33,0,66.08,0a4.94,4.94,0,0,1,3.05.47Z"/><path class="cls-16" d="M237.28,272.13c-.84-.95-.58-2.11-.59-3.2q0-31.49,0-63a4.71,4.71,0,0,1,.47-3q.06,22.44.12,44.89Q237.3,260,237.28,272.13Z"/><path class="cls-17" d="M463.68,238.18c-3.17-.26-6.2-1.19-9.43-1.37a199,199,0,0,0-27.63.09c-1.39.12-2.85.4-4.18-.39,11.91-1.77,23.83-1.37,35.75-.09A10.22,10.22,0,0,1,463.68,238.18Z"/><path class="cls-18" d="M490.08,311.09c1.92-.91,4-.56,5.92-.41,14.39,1.11,28.79.21,43.19.46,2.33,0,4.66-1.17,7-.07a34.53,34.53,0,0,1-4.51.57q-22.53,0-45.07,0C494.44,311.6,492.26,311.27,490.08,311.09Z"/><path class="cls-10" d="M343.79,491.89c-.66-.91-.47-2-.47-3q0-27.14,0-54.27c0-1-.2-2.06.49-3Q343.81,461.79,343.79,491.89Z"/><path class="cls-19" d="M404.73,351.36a4,4,0,0,1,.49,2.68q0,24.63,0,49.24a4.14,4.14,0,0,1-.47,2.69Z"/><path class="cls-20" d="M480.88,654.78c4.32-1,8.77-1,13.15-1.62,7.31-1,14.64-1.72,22-2.6,1.33-.16,2.62-.5,3.87.24-11.65,1.67-23.33,3.16-35.08,4-1.12.08-2.14.83-3.32.43A.75.75,0,0,1,480.88,654.78Z"/><path class="cls-21" d="M637.93,400.53a4.58,4.58,0,0,1-2.77.46h-46a4.54,4.54,0,0,1-2.76-.46C603.58,400.27,620.75,400.22,637.93,400.53Z"/><path class="cls-22" d="M656.2,474.59c-.73-1.09-.47-2.33-.47-3.51q0-20,0-40c-.59-2.09-.16-4.23-.24-6.34.1-.4.34-.51.73-.35C656.55,441.15,656.45,457.87,656.2,474.59Z"/><path class="cls-23" d="M222.35,173.4c0,.15,0,.3,0,.46h-51.6c0-.16,0-.31,0-.47Z"/><path class="cls-24" d="M467.71,287.75c.29-6.45,1.1-12.88,1.17-19.35.06-5.28-1-10.51-.61-15.79-.18-.15-.23-.3-.16-.43s.13-.2.19-.2c1.16,3.26,1,6.69,1.08,10a183.06,183.06,0,0,1-.53,22c-.11,1.26-.39,2.5-.59,3.76C468.08,288.12,467.9,288.12,467.71,287.75Z"/><path class="cls-11" d="M93.47,400.41c-.87-.82-.67-1.89-.67-2.89q0-19.5,0-39a4.21,4.21,0,0,1,.48-2.69q0,19.77.1,39.56C93.38,397.07,93.44,398.74,93.47,400.41Z"/><path class="cls-25" d="M62.42,173.4v.47c-15.09.07-30.18.58-45.26,0a5.07,5.07,0,0,1,3-.45Q41.32,173.39,62.42,173.4Z"/><path class="cls-11" d="M93.28,488a4.27,4.27,0,0,1-.48-2.69V447.21a4.12,4.12,0,0,1,.48-2.68Z"/><path class="cls-26" d="M261.89,333c-.66.51-1.24.11-1.85-.13-8.79-3.44-17.8-3.32-26.92-1.6-1.08.21-2.16.91-3.28.11C240.7,328.7,251.44,328.14,261.89,333Z"/><path class="cls-11" d="M306,188a4,4,0,0,1-2.47.48H267.28a4.07,4.07,0,0,1-2.47-.46Z"/><path class="cls-27" d="M365.65,0a4.18,4.18,0,0,1-2.48.46h-35.7A4.12,4.12,0,0,1,325,0Z"/><path class="cls-28" d="M562.31,513.57a3.91,3.91,0,0,1,2.77-.44,144.46,144.46,0,0,0,31-.57c.38.16.38.32,0,.48-3.17,1.17-6.55,1-9.81,1.1C578.31,514.35,570.29,514.65,562.31,513.57Z"/><path class="cls-29" d="M530.87,433.72c-1,.28-.85-.59-.94-1a52.57,52.57,0,0,1-.45-25.45c.1-.42-.21-1.24.78-1.16-.12,3.5-1.14,6.89-1.24,10.42A62.54,62.54,0,0,0,530.87,433.72Z"/><path class="cls-30" d="M564.58,372c6.55-1.41,13.19-1.34,19.82-.87,2.56.18,5.09.58,7.64.89.09,0,.22,0,.27.06.31.37-.06.41-.28.52-7.46-.54-14.9-1.47-22.39-.58-1.31.16-2.64.26-3.95.38C565.34,372.18,564.83,372.4,564.58,372Z"/><path class="cls-24" d="M352.57,238.12a4.1,4.1,0,0,1,.44,3.23c-1.28,7.89-.09,15.62,1.59,23.31a2.88,2.88,0,0,1-.26,2.41A70.07,70.07,0,0,1,352.57,238.12Z"/><path class="cls-31" d="M232.7,511.33c2.74-1.08,5.49,0,8.12.3,5.33.61,10.39-.38,15.51-1.28.9-.15,1.76-.85,2.7-.1-8,2.79-16.14,2.86-24.38,1.42Z"/><path class="cls-32" d="M261.33,658.15c8,.28,16.08.31,24.09,1.11.39.16.39.31,0,.47l-20.67-.58c-1.1-.4-2.28,0-3.39-.29a.45.45,0,0,1-.17-.47C261.23,658.23,261.28,658.15,261.33,658.15Z"/><path class="cls-33" d="M536.47,188a4.18,4.18,0,0,1-2.48.47H504a4,4,0,0,1-2.47-.48Z"/><path class="cls-34" d="M69.3,311.19c7,0,14.07-.1,21.1,0,2.59.05,5.08-.62,7.64-.58,1.13,0,2.3-.24,3.33.45-7.37,1-14.78.61-22.17.71a28.7,28.7,0,0,1-7.8,0,3.15,3.15,0,0,1-2.1-.05C68.92,311.56,68.92,311.37,69.3,311.19Z"/><path class="cls-35" d="M639.43,191.75a3.16,3.16,0,0,1-1.12-.06c-7.51-3.49-15.53-2.61-23.44-2.68a4,4,0,0,1-2.71-.55c2.05-.73,4.22.09,6.29-.47h.61c1.57.48,3.24-.12,4.81.38C629.37,188.12,634.66,188.79,639.43,191.75Z"/><path class="cls-7" d="M283,296.09a184.21,184.21,0,0,1,.06-30.08C283.28,276,283.36,286.06,283,296.09Z"/><path class="cls-26" d="M442.46,330.22a3.5,3.5,0,0,1-2.74.42,44,44,0,0,0-20,1.39,1.86,1.86,0,0,1-1.88-.13C425.88,328.84,434.13,328.92,442.46,330.22Z"/><path class="cls-36" d="M56.71,511.91a4.3,4.3,0,0,1,3.31-.43c6.14,1.12,12.07-.05,18-1.47a1.74,1.74,0,0,1,1.61.24C72.13,512.87,64.47,513.11,56.71,511.91Z"/><path class="cls-37" d="M341.51,232c-.86-1.36-.48-2.88-.47-4.32,0-4.23.12-8.46-1.48-12.51a2,2,0,0,1,.2-2.1A35.94,35.94,0,0,1,341.51,232Z"/><path class="cls-38" d="M618.45,188c-2,.92-4.2.26-6.29.47-6.72,0-13.44,0-20.16,0-1.12,0-2.29.22-3.31-.47Z"/><path class="cls-39" d="M600.56,296.08a4.57,4.57,0,0,1-.44-2.69c0-7.67,0-15.33,0-23,0-.7-.56-1.67.58-2.13Q600.64,282.18,600.56,296.08Z"/><path class="cls-16" d="M515.29,216.91a3.08,3.08,0,0,1,2.15-.57c8.18,0,16.37,0,24.56,0a8.76,8.76,0,0,1,1.91.43Z"/><path class="cls-40" d="M84.18,188a6.48,6.48,0,0,1-1.62.43q-12.69,0-25.37,0a6.11,6.11,0,0,1-1.62-.44Z"/><path class="cls-37" d="M230.7,190.61a17,17,0,0,1-2.78-.47,27.91,27.91,0,0,0-14.82-1.24,1.94,1.94,0,0,1-1.61-.36C218.2,186.5,224.57,187.54,230.7,190.61Z"/><path class="cls-41" d="M543.36,236.51c-2.75.54-5.27-.88-8.06-.73a110.4,110.4,0,0,1-17.33-.52h19.78A10.41,10.41,0,0,1,543.36,236.51Z"/><path class="cls-42" d="M329.53,331.92c-2.92.56-5.45-1.1-8.25-1.39a38,38,0,0,0-10.75,0,4.26,4.26,0,0,1-3.31-.35,46.35,46.35,0,0,1,18.62.4C327.14,330.94,328.23,331.7,329.53,331.92Z"/><path class="cls-43" d="M542.2,282.82a4.47,4.47,0,0,1-2.76.46q-10.59,0-21.16,0c-1,0-2.12.19-3-.61Z"/><path class="cls-44" d="M475.64,438.53c0-.09.06-.18.1-.26a1.84,1.84,0,0,1,.17-.22q2.34,8.67,4.67,17.34c0,.06-.1.15-.15.23A74.77,74.77,0,0,1,475.64,438.53Z"/><path class="cls-45" d="M69.3,311.19v.56c-7.83-.22-15.68.61-23.48-.66,2.24-1.26,4.44.16,6.68.12C58.1,311.1,63.7,311.18,69.3,311.19Z"/><path class="cls-46" d="M552.51,211.87c1.64-4.89.72-10.05,1.65-15C555.18,202,555.47,207.12,552.51,211.87Z"/><path class="cls-24" d="M200.44,361.91c-.91-1.71.64-2.93,1-4.37.86-3.36,1.17-6.65-.14-10-.35-.89-1-1.83-.31-2.87C203.91,350.52,203.44,356.25,200.44,361.91Z"/><path class="cls-30" d="M191.57,312.37h-4.24c3.72-.62,7.46-.7,11.18-1.17,2.38-.3,4.67-1.75,7.19-.68C201.05,311.54,196.4,312.65,191.57,312.37Z"/><path class="cls-11" d="M287.22,470.72h.48q0,9.66,0,19.33c0,1,.19,2-.47,2.94Q287.23,481.86,287.22,470.72Z"/><path class="cls-47" d="M130.21,284.54c-.22-4,.68-8,.5-12.06-.08-1.77-1.34-3.55-.17-5.35A33.6,33.6,0,0,1,130.21,284.54Z"/><path class="cls-30" d="M620.79,382.45c.44-.12,1-.46,1.32-.32,4.39,1.8,9,1.6,13.63,1.64a3.28,3.28,0,0,1,1,.38l-3.44.56a6.6,6.6,0,0,0-3.39,0C626.71,384.7,623.78,383.46,620.79,382.45Z"/><path class="cls-48" d="M74.43,330.25c-2.06,1.15-4.09,0-6.12-.13-4.28-.2-8.51.38-12.77.58-.17-.1-.23-.21-.17-.31s.12-.16.17-.16A57.3,57.3,0,0,1,74.43,330.25Z"/><path class="cls-49" d="M169.06,511.33c2.82,0,5.65-.11,8.43.16,2,.2,3.9-1.1,5.86-.14A23,23,0,0,1,169.06,511.33Z"/><path class="cls-50" d="M515.29,264.34a3,3,0,0,1,2.14-.58c5.9,0,11.8,0,17.7,0a8.7,8.7,0,0,1,1.9.44Z"/><path class="cls-44" d="M655.73,424.42c0,2.23,0,4.46,0,6.69-1-1.42-.48-3-.55-4.56-.21-4.38.54-8.81-.95-13.12-.12-.35.19-.84.29-1.27a14,14,0,0,1,1.28,7.06A11.28,11.28,0,0,1,655.73,424.42Z"/><path class="cls-51" d="M600.12,326.25l-17.2-1.67c.45-.56,1.21-.09,1.7-.49l.62,0c.93.44,2-.13,2.94.42,4.24-.32,8.3,1.14,12.5,1.24C600.75,326.22,600.71,326.53,600.12,326.25Z"/><path class="cls-52" d="M566.39,414.39c.15.52.51,1.08.41,1.54a29.68,29.68,0,0,0-.51,11.38,2.66,2.66,0,0,1-.47,2.1A30.57,30.57,0,0,1,566.39,414.39Z"/><path class="cls-31" d="M475.16,404.89c-.16,5.77-.9,11.51-.58,17.29a.51.51,0,0,1-.81-.27c0-1.86-.28-3.72.18-5.56a80.22,80.22,0,0,1,.72-12C475.14,404.28,475.46,404.32,475.16,404.89Z"/><path class="cls-31" d="M416.14,263.64c2.31-.33,3.94,1.6,6.13,1.76,2.46.18,4.88.76,7.38.62.59,0,1.55-.53,1.79.62-3.68-.19-7.41.24-11-.92A12.44,12.44,0,0,1,416.14,263.64Z"/><path class="cls-34" d="M307.19,511.43c5,.24,10,1.16,15,.06.48-.11,1.07.27,1.6.42a46.47,46.47,0,0,1-16.59,0c-.13-.11-.18-.21-.13-.32S307.15,511.43,307.19,511.43Z"/><path class="cls-53" d="M607.57,511.43c4.92-1,9.76-2.51,14.87-2.35A66.81,66.81,0,0,1,609,511.5,1.44,1.44,0,0,1,607.57,511.43Z"/><path class="cls-54" d="M438,186.67l-15.62-1.56c.46-.54,1.21-.08,1.71-.47h.61c.93.46,2-.11,2.94.43A26.45,26.45,0,0,1,438,186.67Z"/><path class="cls-44" d="M659.24,223.44a3.16,3.16,0,0,1-.09.55c-.07.22-.44.54-.43.23.17-4.73-1.74-9-2.77-13.5,0-.14.16-.32.25-.49C658,214.46,659.51,218.76,659.24,223.44Z"/><path class="cls-55" d="M426.43,511.43c4.14.22,8.27.92,12.41,0a3.14,3.14,0,0,1,2.46.43,39.35,39.35,0,0,1-14.87,0c-.13-.11-.17-.21-.13-.32S426.39,511.43,426.43,511.43Z"/><path class="cls-55" d="M185.07,330.81c-.44.13-.93.43-1.32.34a26.75,26.75,0,0,0-12.23-.52c-.38.09-.86-.25-1.3-.39A26.89,26.89,0,0,1,185.07,330.81Z"/><path class="cls-13" d="M583,445a4.47,4.47,0,0,1,3.56-.37c3.8.91,7.69.11,11.52.87l-4.34.2C590.09,445.65,586.49,445.79,583,445Z"/><path class="cls-7" d="M34.42,200.19a57.47,57.47,0,0,1-.09,17.27h0a92,92,0,0,1-.06-15.21Z"/><path class="cls-56" d="M656.78,240.31c-.88-1.94.62-3.51.92-5.27a34,34,0,0,0,.91-7.65c0-.21.17-.43.26-.65l.39.95A30.48,30.48,0,0,1,656.78,240.31Z"/><path class="cls-57" d="M584.62,324.09a2.44,2.44,0,0,1-1.7.49H569.17c-.68.23-1.45.76-1.7-.47Z"/><path class="cls-58" d="M567.47,324.1a2.51,2.51,0,0,0,1.7.47c-4.55.86-9.17.82-13.76,1.11-.17-.1-.23-.21-.17-.31s.11-.16.17-.16a49.38,49.38,0,0,1,8.41-.7c1-.48,2.07,0,3-.41Z"/><path class="cls-59" d="M565.79,196.27c0,4.18-1.17,8.27-.55,12.49h-.76v-6A12.4,12.4,0,0,1,565.79,196.27Z"/><path class="cls-60" d="M127.06,295c.26-3.74,1.75-7.13,3.25-10.52A28.77,28.77,0,0,1,127.06,295Z"/><path class="cls-61" d="M201.61,495.79c-.71-2.61,1.15-5,.74-7.63-.23-1.48-1.25-3-.17-4.58A17.2,17.2,0,0,1,201.61,495.79Z"/><path class="cls-2" d="M34.27,202.25l.06,15.21h-.46C34,212.39,33.35,207.3,34.27,202.25Z"/><path class="cls-30" d="M434,312.35a3.43,3.43,0,0,1-.56-.07c-.22-.07-.53-.43-.26-.41,3.75.22,7.15-2.16,11-1.36C440.82,311.3,437.54,312.45,434,312.35Z"/><path class="cls-62" d="M424.12,184.64l-1.71.47c-4.38-.28-8.8.55-13.14-.47A147.11,147.11,0,0,1,424.12,184.64Z"/><path class="cls-53" d="M481,381.49a15.3,15.3,0,0,1-3.14,9.27C478.45,387.51,479.85,384.53,481,381.49Z"/><path class="cls-30" d="M37.21,350.78l-.49-.53a23.74,23.74,0,0,1,2.3-8.93C39.24,344.62,37.7,347.6,37.21,350.78Z"/><path class="cls-63" d="M261.93,312.21l11.42-1.69C269.78,312.61,265.87,312.53,261.93,312.21Z"/><path class="cls-35" d="M576.65,311.61c1.59-1,3.16,0,4.7.17,2.27.25,4.46-.94,6.71-.15A20.23,20.23,0,0,1,576.65,311.61Z"/><path class="cls-64" d="M468.3,252l0,.63c-1.24-2.57-.13-5.44-1.14-8.08-.42-1.11-1.59-2.2-.73-3.6C468.62,244.35,468.48,248.16,468.3,252Z"/><path class="cls-65" d="M426.43,511.43v.48a26.59,26.59,0,0,1-9.73-3.32c1.45-.73,2.45.52,3.66.83C422.42,510,424.41,510.75,426.43,511.43Z"/><path class="cls-47" d="M391,264.76c-2.11-1.65-3.59-5.72-3-8.23C388.94,259.27,390,262,391,264.76Z"/><path class="cls-66" d="M285.42,659.73v-.47c3.6,0,7.2,0,10.8,0,1,0,2.11-.17,3,.6Z"/><path class="cls-67" d="M474.15,422.2l.43,0a44.1,44.1,0,0,0,.54,8.2,3.76,3.76,0,0,1-.44,2.93,55,55,0,0,1-.71-10.49C473.68,422.52,473.74,422.31,474.15,422.2Z"/><path class="cls-65" d="M554.76,300c-.4-3.52-.79-7-1.19-10.55C555.44,292.81,555.1,296.41,554.76,300Z"/><path class="cls-30" d="M466.45,215.21c-.1-.43-.42-1-.25-1.27,1.67-2.8.2-5.86.84-8.73A12.33,12.33,0,0,1,466.45,215.21Z"/><path class="cls-67" d="M447.09,224.07a1.6,1.6,0,0,1,1.83-.13c2.72,1.38,5.63.38,8.43.65A12.78,12.78,0,0,1,447.09,224.07Z"/><path class="cls-54" d="M344,299.16a46.69,46.69,0,0,0,1-9.72C346.12,292.83,346.08,296.09,344,299.16Z"/><path class="cls-64" d="M555.41,325.21v.47c-3,.64-5.92,2-9.14,1.21Z"/><path class="cls-2" d="M33.9,285c.91,4.11.3,8.27.38,12.4C33.38,293.27,33.92,289.12,33.9,285Z"/><path class="cls-65" d="M475.16,404.89l-.49-.54,1.72-8.37C477.26,399.12,475.81,402,475.16,404.89Z"/><path class="cls-68" d="M207.46,655.82c3.71-1,7.29-.22,10.86.73Z"/><path class="cls-69" d="M55.54,330.23v.47c-2.89.65-5.54,2.16-8.58,2.3A22,22,0,0,1,55.54,330.23Z"/><path class="cls-21" d="M405.2,499.21a10.3,10.3,0,0,1,5.71,5.55A30.64,30.64,0,0,1,405.2,499.21Z"/><path class="cls-41" d="M607.57,511.43l1.47.07c-3.09,1-6.34,1-9.51,1.52a.78.78,0,0,1-.56-.48A37.27,37.27,0,0,1,607.57,511.43Z"/><path class="cls-70" d="M581.76,466.14a22.73,22.73,0,0,1-12,0Z"/><path class="cls-71" d="M393.78,659.9c4-1.16,8-.81,12-.18Z"/><path class="cls-21" d="M142.05,352.71a9.68,9.68,0,0,1-5.71,5.83Q139.2,355.63,142.05,352.71Z"/><path class="cls-72" d="M261.33,658.15l-.06.46c-.15.35-.37.41-.66.16l-10.72-.16C253.67,657.62,257.52,658.4,261.33,658.15Z"/><path class="cls-73" d="M536.52,508a8.64,8.64,0,0,1,6.72,1.87C540.85,509.73,538.76,508.6,536.52,508Z"/><path class="cls-21" d="M148.38,495.32a8.06,8.06,0,0,1,5.13,5.16Z"/><path class="cls-24" d="M653.92,365.82a29.78,29.78,0,0,1,.57-8.88A18,18,0,0,1,653.92,365.82Z"/><path class="cls-74" d="M600.72,374.67a6.69,6.69,0,0,1,6.18,1.83Z"/><path class="cls-53" d="M307.19,511.43c0,.16,0,.32,0,.48a29.48,29.48,0,0,1-6.86-1.72C302.86,509.37,304.92,511,307.19,511.43Z"/><path class="cls-75" d="M105.36,390.23a8.32,8.32,0,0,1-5.12,5.14Z"/><path class="cls-76" d="M319.84,310.5a27.64,27.64,0,0,1,8,.58C325.1,311.54,322.4,311.88,319.84,310.5Z"/><path class="cls-77" d="M395.46,1.13c-3,.59-6.06,1-9-.17Z"/><path class="cls-26" d="M432.71,267.16c.86,2.47,1.39,4.92-.55,7.2A23.89,23.89,0,0,0,432.71,267.16Z"/><path class="cls-21" d="M646,255.41a7.31,7.31,0,0,1,4.54-4.49A19.16,19.16,0,0,1,646,255.41Z"/><path class="cls-78" d="M424.83,658.77c3-1.16,6-.79,9-.16Z"/><path class="cls-79" d="M126.54,222.46a17.47,17.47,0,0,1,0-8.88A37.68,37.68,0,0,1,126.54,222.46Z"/><path class="cls-22" d="M654.47,485.19c-.75-2.42,1.45-4.49.58-7.06,1,.48.52,1.12.71,1.58A10.49,10.49,0,0,1,654.47,485.19Z"/><path class="cls-80" d="M564.58,372l1.11.4-7.41,1.28C560.08,372,562.38,372.17,564.58,372Z"/><path class="cls-80" d="M166.24,399.55a6.53,6.53,0,0,1,4.55-4.66Z"/><path class="cls-81" d="M600.05,446.84a9.15,9.15,0,0,1,0,7.56Z"/><path class="cls-7" d="M197.71,339.62a5.5,5.5,0,0,1-4-3.93A15.7,15.7,0,0,1,197.71,339.62Z"/><path class="cls-74" d="M600.12,326.25l.56-.48,5.73,1.1C604.2,327.8,602.18,326.8,600.12,326.25Z"/><path class="cls-15" d="M305.94,1c-2.61,1.14-5.25.78-7.9.15Z"/><path class="cls-16" d="M236.59,284.93c-.74-2.5,0-4.87.7-7.24A23.55,23.55,0,0,1,236.59,284.93Z"/><path class="cls-74" d="M444.18,188c-2.38.73-4.31-.38-6.25-1.44C440.13,186.56,442.13,187.39,444.18,188Z"/><path class="cls-10" d="M420.08,280.47a9,9,0,0,1-7.38-.16Z"/><path class="cls-79" d="M114,460.18a5.19,5.19,0,0,1,4,4.14Z"/><path class="cls-82" d="M412.08,2.27c-2,.83-4.1.29-6.15.38-.33,0-.48-.23-.15-.44A2.72,2.72,0,0,1,406.6,2Z"/><path class="cls-39" d="M598.35,302.79c-.22-2.1.87-3.8,1.81-5.56A11.63,11.63,0,0,1,598.35,302.79Z"/><path class="cls-83" d="M684.26,163.89a12,12,0,0,1,0-7.22C684.29,159.08,684.27,161.48,684.26,163.89Z"/><path class="cls-2" d="M71.4,311.8h7.8A23.47,23.47,0,0,1,71.4,311.8Z"/><path class="cls-84" d="M161.57,188a10.92,10.92,0,0,1-6.83,0A29.44,29.44,0,0,1,161.57,188Z"/><path class="cls-85" d="M662.08,298.1a24.94,24.94,0,0,1,1-6.42C663.31,293.9,663.39,296.1,662.08,298.1Z"/><path class="cls-21" d="M182.83,458.94c-2.07-.27-2.92-1.7-3.42-3.45Z"/><path class="cls-86" d="M438,658.18c2-1.19,4.11-.61,6.19-.17Z"/><path class="cls-87" d="M239,658.05c2.3-.64,4.59-.9,6.84.19Z"/><path class="cls-78" d="M455.18,657.08c2-1.19,4.11-.69,6.19-.15Z"/><path class="cls-72" d="M221.22,656.94c1.9-.6,3.79-1,5.65.13Z"/><path class="cls-2" d="M474.15,422.2l-.18.62a14,14,0,0,1,0-6.47Q474.05,419.28,474.15,422.2Z"/><path class="cls-10" d="M581.76,188.35c-2,1.13-4.13.82-6.24.22Z"/><path class="cls-78" d="M2.34,153.88a8.66,8.66,0,0,1,0,6.1Z"/><path class="cls-77" d="M419,2.8c-1.7.48-3.41,1.06-5-.16Z"/><path class="cls-86" d="M404.05,1.69c-1.7.49-3.4,1.05-5.05-.16Z"/><path class="cls-10" d="M190.17,283.79a3.65,3.65,0,0,1-4.43,0Z"/><path class="cls-86" d="M294.54,1.56c-1.66,1.14-3.37.6-5.07.17Z"/><path class="cls-2" d="M655.73,424.42l.06-5.2c.85,1.68.43,3.46.42,5.2Z"/><path class="cls-72" d="M200.59,655.24c1.53-.5,3-.92,4.52.14Z"/><path class="cls-72" d="M280.8,2.61c-1.66,1.05-3.37.81-5.1.2Z"/><path class="cls-70" d="M179.4,312.17c1.73-.6,3.45-.85,5.11.21Z"/><path class="cls-78" d="M480.88,654.78l.57.48-5.15.2C477.68,654.3,479.35,655,480.88,654.78Z"/><path class="cls-2" d="M623.87,188.37c-1.61,0-3.27.44-4.81-.38C620.67,188,622.32,187.6,623.87,188.37Z"/><path class="cls-15" d="M435.59,4.47c-1.31.39-2.63,1.16-3.84-.2Z"/><path class="cls-9" d="M37.2,494.7a2.71,2.71,0,0,1,.68,3.31A7.26,7.26,0,0,1,37.2,494.7Z"/><path class="cls-70" d="M421.87,216.81c1.37-.63,2.72-.85,4,.27Z"/><path class="cls-88" d="M472.3,655.87c1.29-.85,2.72-.43,4.11-.43C475.12,656.29,473.68,655.84,472.3,655.87Z"/><path class="cls-88" d="M464.26,656.5a3.75,3.75,0,0,1,4-.12Z"/><path class="cls-16" d="M236.78,200.56a2,2,0,0,1-.21.79c-.3.4-.4,0-.41-.19a3.64,3.64,0,0,1,.44-2.64Z"/><path class="cls-70" d="M467.71,287.75h.55c0,1.29-.07,2.58-.1,3.87C467.39,290.4,467.82,289,467.71,287.75Z"/><path class="cls-1" d="M260.61,658.77l.66-.15c1.16.21,2.41-.18,3.48.53C263.36,659.15,261.93,659.52,260.61,658.77Z"/><path class="cls-18" d="M486.08,309.94c1.06-.28,2.06-.32,2.76.72A4.55,4.55,0,0,1,486.08,309.94Z"/><path class="cls-10" d="M343.2,495.79a2.3,2.3,0,0,1-.37-2.26c.27-.73.39.06.57.21Z"/><path class="cls-70" d="M599,512.54l.56.48-3.42,0c0-.16,0-.32,0-.48Z"/><path class="cls-70" d="M564.5,297.25a2.62,2.62,0,0,1,.22,3.28C564.64,299.43,564.57,298.34,564.5,297.25Z"/><path class="cls-40" d="M630,384.72a3.17,3.17,0,0,1,3.39,0Z"/><path class="cls-10" d="M479.84,196.29c.55,1.14,0,2-.83,2.74C479.29,198.11,479.56,197.2,479.84,196.29Z"/><path class="cls-2" d="M588.18,324.53c-1,0-2,.21-2.94-.42A5.3,5.3,0,0,1,588.18,324.53Z"/><path class="cls-2" d="M566.86,324.1a4.57,4.57,0,0,1-3,.41A5.76,5.76,0,0,1,566.86,324.1Z"/><path class="cls-2" d="M427.67,185.07a4.34,4.34,0,0,1-2.94-.43A4.23,4.23,0,0,1,427.67,185.07Z"/><path class="cls-89" d="M71.06,286.6c0-8.32,0-16.65-.1-25,0-1.47.4-1.9,1.91-1.83a20.09,20.09,0,0,0,6.23-.4,13.09,13.09,0,0,1,16,9.75,15,15,0,0,1-3.8,14.42c-3.54,3.41-8,3.71-12.61,3.58C76.17,286.47,73.55,287.41,71.06,286.6Z"/><path class="cls-89" d="M71.21,236.83c-.64-7.48-.09-15-.3-22.47,0-1.44.88-1.33,1.87-1.33,3.61,0,7.22,0,10.83-.06,3.87,0,5.82,2.64,7.63,5.41a13.77,13.77,0,0,1,1.53,3.87c0,1.64,0,3.29,0,4.94a16.3,16.3,0,0,1-3.4,6.72c-2.41,2.94-5.84,3.41-9.31,3.3C77.11,237.12,74.15,237.1,71.21,236.83Z"/><path class="cls-90" d="M91,283.18c4.31-5.13,5.34-10.68,2.4-16.81s-8.33-7.05-14.34-7H71.44v-.56c4.59,0,9.25-.51,13.74.12,7.57,1.07,11.45,9,10.92,15.19a14.61,14.61,0,0,1-4.44,9.7C91,284,90.86,283.74,91,283.18Z"/><path class="cls-91" d="M92.28,221.94c-1.42-4.34-3.92-7.68-8.67-9-2.75-1.15-5.63-.3-8.44-.52a16.26,16.26,0,0,1-3.1-.29c4.05-.16,8.15-.83,12.14.08,5.07,1.16,7.89,4.84,8.9,9.54s.1,9-3.74,12.43a.38.38,0,0,1-.06-.68c1-2,2-4,3-6A12.83,12.83,0,0,0,92.28,221.94Z"/><path class="cls-92" d="M89.31,233.53l.06.68a5.77,5.77,0,0,1-4.05,2.84,41.23,41.23,0,0,1-14.9-.1h0l.78-.12c2.45-.56,4.91-.2,7.36-.06C82.57,237,86.31,236.44,89.31,233.53Z"/><ellipse class="cls-93" cx="70.13" cy="273.29" rx="0.14" ry="17.52"/><path class="cls-94" d="M70.42,237a2.63,2.63,0,0,1-.54-1.83c0-7,0-14,.55-21.07V237Z"/><path class="cls-95" d="M91,283.18l.62.67c-4,3.53-8.61,4.47-13.78,3.37.24-.47.82-.21,1.14-.51C83.38,286.67,87.68,286.45,91,283.18Z"/><path class="cls-96" d="M79,286.71l-1.14.51c-2.26-.34-4.64.59-6.82-.62Z"/><path class="cls-89" d="M622.35,215.86l2.33,2.3a5.61,5.61,0,0,1,1.7,2.46c1.47,5.21,1.51,10.31-1.31,15.17A12.57,12.57,0,0,1,613.86,241c-3.61,0-7.22-.08-10.83,0-1.32,0-1.84-.41-1.82-1.76.1-8.69.12-17.39.18-26.08,4.28-1.18,8.63-.82,12.92-.25C617.18,213.19,620.22,213.47,622.35,215.86Z"/><ellipse class="cls-4" cx="564.89" cy="266.49" rx="0.14" ry="39.61"/><path class="cls-97" d="M622.35,215.86c-5.57-3.21-11.72-3-17.85-2.86l-3.11.07c0-1.29,1.09-1.12,1.81-1.14,5.31-.15,10.66-.37,15.78,1.37C620.32,213.76,622.23,213.77,622.35,215.86Z"/><path class="cls-98" d="M613.86,241c4.16-.66,8-1.95,10.84-5.23a.43.43,0,0,1,.11.72c-1.13,2.71-3.71,3.54-6.19,4.41-5.34,1.85-10.87,1-16.34,1C606.09,240.91,610.07,242.21,613.86,241Z"/><path class="cls-99" d="M624.81,236.44c0-.24-.08-.48-.11-.72,2.86-5,2.38-10.17,1.19-15.43a.83.83,0,0,1,0-1.17C628.91,223.75,628.34,232.62,624.81,236.44Z"/><ellipse class="cls-100" cx="600.37" cy="227" rx="0.13" ry="17.52"/><path class="cls-101" d="M625.93,219.12c0,.39,0,.78,0,1.17l-1.21-2.13C625.8,217.6,625.73,218.53,625.93,219.12Z"/><path class="cls-89" d="M307.67,234.61c-3.6,5.32-9,6.75-15.13,6.6-2.48-.06-5-.13-7.43,0-1.14,0-1.53-.15-1.52-1.27q0-12.83,0-25.63c0-1.46.84-1.34,1.84-1.34,4,0,8,0,12,0,5-.09,8.19,2.63,10.75,6.39a17.22,17.22,0,0,1,1.07,12.41C309,232.79,308.79,234,307.67,234.61Z"/><path class="cls-102" d="M307.72,219.23A15.89,15.89,0,0,0,297.43,213c-3.14-1.1-6.4-.29-9.6-.5-1.21-.08-2.44,0-4.44,0,4.74-1.12,14.87-.66,18.23.71a15.87,15.87,0,0,1,6.72,5.43C308.16,218.82,308.1,219.16,307.72,219.23Z"/><path class="cls-103" d="M307.72,219.23l.62-.65c2.46,4.57,2.54,9.35,1.11,14.2-.23.77-.14,2.2-1.78,1.83A17.86,17.86,0,0,0,307.72,219.23Z"/><path class="cls-104" d="M282.69,240.4V213.92h.25v26.53Z"/><path class="cls-2" d="M92.28,221.94a6.43,6.43,0,0,1,0,5.55C92.26,225.64,92.27,223.79,92.28,221.94Z"/></g></g></svg>