<svg id="레이어_5" data-name="레이어 5" xmlns="http://www.w3.org/2000/svg" viewBox="0 0 146.582 253"><defs><style>.cls-1{fill:#005d80;}.cls-2{fill:#00758e;}.cls-3{fill:#b81f54;}.cls-4{fill:#713a63;}.cls-5{fill:#023f64;}.cls-6{fill:#005d73;}.cls-7{fill:#921041;}.cls-8{fill:#da1451;}</style></defs><polygon class="cls-1" points="29.756 253 0 239.568 0 200.247 29.756 213.679 29.756 253"/><polygon class="cls-2" points="29.756 207.561 0 194.129 0 154.808 29.756 168.241 29.756 207.561"/><polygon class="cls-3" points="146.582 56.11 108.91 39.321 108.91 0 146.582 16.789 146.582 56.11"/><polygon class="cls-4" points="29.756 162.123 0 148.69 0 95.342 29.756 108.775 29.756 162.123"/><polyline class="cls-5" points="29.756 253 59.512 239.568 59.512 200.247 29.756 213.679"/><polyline class="cls-6" points="29.756 207.561 146.582 154.852 146.582 115.532 29.756 168.241"/><polyline class="cls-7" points="0 88.523 108.91 39.321 108.91 0 0 49.202"/><polyline class="cls-8" points="0 49.202 146.582 115.532 146.582 154.852 0 88.523"/></svg>