<svg xmlns="http://www.w3.org/2000/svg" viewBox="0 0 655.14 213.25"><defs><style>.cls-1{fill:#52b0e4;}.cls-2{fill:#231815;}.cls-3{fill:#b4d463;}.cls-4{fill:#e94d4c;}.cls-5{fill:#f6e565;}.cls-6{fill:#fff;}</style></defs><g id="레이어_2" data-name="레이어 2"><g id="레이어_6" data-name="레이어 6"><path class="cls-1" d="M23.12,172.2c-6.48-51.76,12.81-115.45,29-133.12l4.42,4.05C43,57.88,22.35,117.81,29.08,171.46Z"/><path class="cls-1" d="M63,180.26,58.81,176c5.61-5.52,15.41-26.44,22.54-54.37C85.93,103.67,92.57,70,85.5,46l5.75-1.7c7.48,25.33.65,60.24-4.09,78.79C80.56,149,70.41,173,63,180.26Z"/><path class="cls-2" d="M164.16,128.32c-10.28-3.8-36.13-9.48-56.79-11.55l.6-6c21.11,2.12,47.65,8,58.27,11.89Z"/><path class="cls-3" d="M173.69,111c-12.23-26.09-41.94-58.94-80.75-73.51l2.11-5.62c40.39,15.16,71.33,49.39,84.07,76.59Z"/><path class="cls-4" d="M62.46,190.06v-6c38.37,0,77.43-16.38,104.48-43.81l4.27,4.21C143.06,173,102.41,190.06,62.46,190.06Z"/><path class="cls-2" d="M95.9,213.25a95.9,95.9,0,1,1,95.89-95.9A96,96,0,0,1,95.9,213.25Zm0-186.79a90.9,90.9,0,1,0,90.89,90.89A91,91,0,0,0,95.9,26.46Z"/><circle class="cls-4" cx="72.9" cy="30.14" r="21.58"/><path class="cls-2" d="M72.9,53.72A23.58,23.58,0,1,1,96.48,30.14,23.6,23.6,0,0,1,72.9,53.72Zm0-43.16A19.58,19.58,0,1,0,92.48,30.14,19.6,19.6,0,0,0,72.9,10.56Z"/><circle class="cls-5" cx="86.2" cy="111.65" r="21.58"/><path class="cls-2" d="M86.2,135.24a23.59,23.59,0,1,1,23.58-23.59A23.61,23.61,0,0,1,86.2,135.24Zm0-43.17a19.59,19.59,0,1,0,19.58,19.58A19.61,19.61,0,0,0,86.2,92.07Z"/><circle class="cls-1" cx="186.78" cy="128.66" r="21.58"/><path class="cls-2" d="M186.78,152.24a23.58,23.58,0,1,1,23.58-23.58A23.61,23.61,0,0,1,186.78,152.24Zm0-43.16a19.58,19.58,0,1,0,19.58,19.58A19.6,19.6,0,0,0,186.78,109.08Z"/><circle class="cls-3" cx="40.89" cy="186.19" r="21.58"/><path class="cls-2" d="M40.89,209.77a23.58,23.58,0,1,1,23.59-23.58A23.61,23.61,0,0,1,40.89,209.77Zm0-43.16a19.58,19.58,0,1,0,19.59,19.58A19.6,19.6,0,0,0,40.89,166.61Z"/><path class="cls-2" d="M311,105.92a24.76,24.76,0,0,1-1.36,8.18,18.51,18.51,0,0,1-4.24,6.92,20.64,20.64,0,0,1-7.27,4.75,28,28,0,0,1-10.46,1.77h-20.4v29.89H259.5V84.11h28.18a27.15,27.15,0,0,1,10.46,1.82,20.81,20.81,0,0,1,7.27,4.84,19.11,19.11,0,0,1,4.24,7A24.85,24.85,0,0,1,311,105.92Zm-7.77,0a21.34,21.34,0,0,0-.71-5.35A12.68,12.68,0,0,0,300,95.62,13.46,13.46,0,0,0,295.06,92a19.26,19.26,0,0,0-7.88-1.41h-19.9v30.5h19.9a19.75,19.75,0,0,0,7.93-1.36,13.21,13.21,0,0,0,4.89-3.54,12.25,12.25,0,0,0,2.53-4.84A21.21,21.21,0,0,0,303.24,105.92Z"/><path class="cls-2" d="M442.51,157.43h-8.28l-6.06-16.86H393.33l-6.27,16.86H379l28.39-73.32h6.76ZM425.75,134.1,410.8,93.6,396,134.1Z"/><path class="cls-2" d="M493.42,131.58A42.91,42.91,0,0,1,491.7,144a20.09,20.09,0,0,1-5.76,9.34,15.91,15.91,0,0,1-7,3.84,27.41,27.41,0,0,1-6.36.91,22,22,0,0,1-8.28-1.62,15.42,15.42,0,0,1-6.87-5.55V173.8h-7.68V106.73h7.68v5.46a15.75,15.75,0,0,1,6.16-5.21,21.89,21.89,0,0,1,17.12-.25,17.14,17.14,0,0,1,6,4,18.32,18.32,0,0,1,3.23,4.39,25.49,25.49,0,0,1,2.07,5.21,33.37,33.37,0,0,1,1.06,5.6A54.22,54.22,0,0,1,493.42,131.58Zm-7.58,0a35.22,35.22,0,0,0-1-9.19,16.25,16.25,0,0,0-3.48-7.07Q478,111.59,471,111.58a11.66,11.66,0,0,0-4.49.86,12.8,12.8,0,0,0-3.69,2.32,14.49,14.49,0,0,0-2.72,3.33,16.43,16.43,0,0,0-1.72,4,24.37,24.37,0,0,0-.76,4.7c-.1,1.58-.15,3.22-.15,4.9a51.24,51.24,0,0,0,.4,6.76,17.92,17.92,0,0,0,1.72,5.66,15.59,15.59,0,0,0,4.29,5.15,11,11,0,0,0,7.12,2.32,19.75,19.75,0,0,0,5.66-.8,10.7,10.7,0,0,0,4.75-2.93,16.85,16.85,0,0,0,3.18-6.11A38.15,38.15,0,0,0,485.84,131.58Z"/><path class="cls-2" d="M549.17,131.58A42.91,42.91,0,0,1,547.45,144a20.09,20.09,0,0,1-5.76,9.34,15.91,15.91,0,0,1-7,3.84,27.41,27.41,0,0,1-6.36.91,22,22,0,0,1-8.28-1.62,15.42,15.42,0,0,1-6.87-5.55V173.8h-7.68V106.73h7.68v5.46a15.75,15.75,0,0,1,6.16-5.21,21.89,21.89,0,0,1,17.12-.25,17,17,0,0,1,6,4,18.32,18.32,0,0,1,3.23,4.39,25.49,25.49,0,0,1,2.07,5.21,33.37,33.37,0,0,1,1.06,5.6A51.57,51.57,0,0,1,549.17,131.58Zm-7.58,0a35.22,35.22,0,0,0-1-9.19,16.25,16.25,0,0,0-3.48-7.07q-3.43-3.73-10.41-3.74a11.66,11.66,0,0,0-4.49.86,12.8,12.8,0,0,0-3.69,2.32,14.75,14.75,0,0,0-2.72,3.33,16.43,16.43,0,0,0-1.72,4,25.16,25.16,0,0,0-.76,4.7c-.1,1.58-.15,3.22-.15,4.9a51.24,51.24,0,0,0,.4,6.76,17.92,17.92,0,0,0,1.72,5.66,15.71,15.71,0,0,0,4.29,5.15,11,11,0,0,0,7.12,2.32,19.75,19.75,0,0,0,5.66-.8,10.7,10.7,0,0,0,4.75-2.93,16.85,16.85,0,0,0,3.18-6.11A38.15,38.15,0,0,0,541.59,131.58Z"/><path class="cls-2" d="M569.57,134.3a28.05,28.05,0,0,0,1.26,8.19,13.62,13.62,0,0,0,3.18,5.58q4.35,4.41,11.51,4.52,8.28.09,14.15-6.87l5.35,4.54a30,30,0,0,1-8.89,6.77,23.08,23.08,0,0,1-10.81,2,30.65,30.65,0,0,1-9.59-1.72,20.7,20.7,0,0,1-7-4.24,19.53,19.53,0,0,1-5.4-8.94A43.57,43.57,0,0,1,561.59,132a38.71,38.71,0,0,1,1.82-12.78,19.6,19.6,0,0,1,6.26-9.34,22.64,22.64,0,0,1,6.16-3.53,23.47,23.47,0,0,1,8.18-1.22,27.36,27.36,0,0,1,7.78,1,17,17,0,0,1,6.36,3.53,19,19,0,0,1,4.09,4.7,22.48,22.48,0,0,1,2.42,5.6,32.3,32.3,0,0,1,1.12,6.62q.24,3.58.15,7.72Zm28.78-6.06a26.85,26.85,0,0,0-1.06-7.22,12.86,12.86,0,0,0-4.09-6.43,13.91,13.91,0,0,0-9.19-3,15,15,0,0,0-5.25.8,12.09,12.09,0,0,0-3.64,2.11,14.26,14.26,0,0,0-4,5.72,22.69,22.69,0,0,0-1.51,8Z"/><path class="cls-2" d="M649.05,115.92a14.1,14.1,0,0,0-4-3.13,10.93,10.93,0,0,0-5.15-1.21,9.39,9.39,0,0,0-4.34,1.16,14.11,14.11,0,0,0-4,3.23,17.08,17.08,0,0,0-3,5,16.34,16.34,0,0,0-1.16,6.21v30.3h-7.78v-50.7h7.78V112q4.14-6.87,13.53-6.87a15.74,15.74,0,0,1,4.29.56,19.4,19.4,0,0,1,3.64,1.41,27,27,0,0,1,3,1.82c.91.64,1.73,1.27,2.47,1.87Z"/><path class="cls-4" d="M343.83,106.14a20.35,20.35,0,1,0,20.35,20.35A20.35,20.35,0,0,0,343.83,106.14Zm0,31.8a11.45,11.45,0,1,1,11.45-11.45A11.45,11.45,0,0,1,343.83,137.94Z"/><path class="cls-4" d="M353.89,108.81c1.44-18,11.58-62.29,8.19-85.75C358.57-1.23,340.65,0,338.75,0c-3,0-23.39,2.23-23.59,22.24C315,39.37,325.74,47.4,332.38,58.31c7.79,12.8,13,23,14.24,48"/><circle class="cls-6" cx="355.52" cy="34.56" r="2.75"/><ellipse class="cls-6" cx="348.93" cy="16.63" rx="7.1" ry="9.77" transform="translate(47.94 193.92) rotate(-33.23)"/><g id="_1" data-name="1"><polygon class="cls-4" points="448.72 86 448.72 93.6 520.42 93.6 528.01 86 448.72 86"/></g><g id="_3" data-name="3"><polygon class="cls-3" points="587.06 86 579.47 93.6 623.08 93.6 630.68 86 587.06 86"/></g><g id="_2" data-name="2"><polygon class="cls-5" points="528.01 86 520.42 93.6 579.77 93.6 587.37 86 528.01 86"/></g><polygon class="cls-1" points="630.25 86 622.66 93.6 655.14 93.6 655.14 86 630.25 86"/></g></g></svg>