<svg xmlns="http://www.w3.org/2000/svg" viewBox="0 0 210.37 206.69"><defs><style>.cls-1{fill:#52b0e4;}.cls-2{fill:#231815;}.cls-3{fill:#b4d463;}.cls-4{fill:#e94d4c;}.cls-5{fill:#f6e565;}.cls-6{fill:#fff;}</style></defs><g id="레이어_2" data-name="레이어 2"><g id="레이어_1-2" data-name="레이어 1"><g id="레이어_6" data-name="레이어 6"><path class="cls-1" d="M23.13,165.64c-6.48-51.76,12.81-115.45,29-133.12l4.42,4C43,51.32,22.36,111.25,29.09,164.9Z"/><path class="cls-1" d="M63,173.7l-4.19-4.26c5.61-5.52,15.41-26.44,22.54-54.37,4.58-18,11.22-51.63,4.15-75.63l5.75-1.7c7.48,25.33.65,60.24-4.09,78.79C80.57,142.44,70.42,166.44,63,173.7Z"/><path class="cls-2" d="M164.17,121.76c-10.28-3.8-36.13-9.48-56.79-11.55l.6-6c21.11,2.12,47.65,8,58.27,11.89Z"/><path class="cls-3" d="M173.7,104.44C161.47,78.35,131.76,45.5,93,30.93l2.11-5.62c40.39,15.16,71.33,49.39,84.07,76.59Z"/><path class="cls-4" d="M62.47,183.5v-6c38.37,0,77.43-16.38,104.48-43.81l4.27,4.21C143.07,166.44,102.42,183.5,62.47,183.5Z"/><path class="cls-2" d="M95.91,206.69a95.9,95.9,0,1,1,95.89-95.91h0A96,96,0,0,1,95.91,206.69Zm0-186.79a90.9,90.9,0,1,0,90.89,90.91v0A91,91,0,0,0,95.91,19.9Z"/><circle class="cls-4" cx="72.91" cy="23.58" r="21.58"/><path class="cls-2" d="M72.91,47.16A23.58,23.58,0,1,1,96.49,23.58,23.58,23.58,0,0,1,72.91,47.16ZM72.91,4A19.58,19.58,0,1,0,92.49,23.58h0A19.6,19.6,0,0,0,72.91,4Z"/><circle class="cls-5" cx="86.21" cy="105.09" r="21.58"/><path class="cls-2" d="M86.21,128.68a23.59,23.59,0,1,1,23.58-23.6h0A23.61,23.61,0,0,1,86.21,128.68Zm0-43.17a19.59,19.59,0,1,0,19.58,19.6v0A19.61,19.61,0,0,0,86.21,85.51Z"/><circle class="cls-1" cx="186.79" cy="122.1" r="21.58"/><path class="cls-2" d="M186.79,145.68a23.58,23.58,0,1,1,23.58-23.58A23.58,23.58,0,0,1,186.79,145.68Zm0-43.16a19.58,19.58,0,1,0,19.58,19.58A19.58,19.58,0,0,0,186.79,102.52Z"/><circle class="cls-3" cx="40.9" cy="179.63" r="21.58"/><path class="cls-2" d="M40.9,203.21a23.58,23.58,0,1,1,23.59-23.58A23.58,23.58,0,0,1,40.9,203.21Zm0-43.16a19.58,19.58,0,1,0,19.59,19.58A19.58,19.58,0,0,0,40.9,160.05Z"/><circle class="cls-6" cx="155.71" cy="30.82" r="2.75"/></g></g></g></svg>