<svg xmlns="http://www.w3.org/2000/svg" viewBox="0 0 552.4 552.21"><defs><style>.cls-1{fill:#040000;}.cls-2{fill:#185e7a;}.cls-3{fill:#175e7a;}</style></defs><g id="레이어_2" data-name="레이어 2"><g id="레이어_1-2" data-name="레이어 1"><path class="cls-1" d="M552.4,276.24c-.53,152.72-123.39,276.37-277,276C122.33,551.82-.18,428,0,275.65.18,125.27,121.25-.12,276.61,0,429,.11,551.9,122.94,552.4,276.24Z"/><path class="cls-2" d="M286.8,15.33c61,1,123.34,25.72,174.1,76.69,50,50.27,75.69,111.78,75.93,182.68.24,72.57-25.52,135.39-77.29,186.61-50.65,50.12-112.26,75.35-183.4,75.42A259.9,259.9,0,0,1,15.39,275.16C15.86,131,132.12,15.55,286.8,15.33Z"/><path class="cls-1" d="M187.63,279.17c-4.72-.52-9.45.25-14.14-.69-2.24-.45-2.79,0-3.14,2.22-.77,4.75-1.52,9.5-2.06,14.28a244.75,244.75,0,0,0-1.47,27.87c0,2.72-.41,5.45-.49,8.19-.14,4.64-3.46,8-7.53,8a8,8,0,0,1-7.57-8.68c.42-4.06.27-8.1.44-12.14.26-5.91.32-11.83.84-17.72a191,191,0,0,1,5.81-34.57c4.36-15.66,9.42-31,17.45-45.27,1.72-3.05,3.26-6.26,5.88-8.68a27.49,27.49,0,0,0,5.2-5.7c1.78-2.91,5.62-3.75,9.22-1,2.4,1.81,4,4.34,5.77,6.7,6.74,8.93,11.24,19,15.34,29.34,4.89,12.31,10,24.51,14.09,37.16A408,408,0,0,1,242.15,322c.46,2.26.83,4.54,1.48,6.74,1.15,3.88-2,8.52-5.67,9.46-3.85,1-8-1.76-9-6.18-1.45-6.29-2.71-12.62-4.05-18.94A236.86,236.86,0,0,0,216.53,282c-.56-1.57-1.19-2.41-3-2.32C204.89,280.13,196.27,278.54,187.63,279.17Z"/><path class="cls-1" d="M354.83,316.64c8.31-.86,16.64-.66,25-.65,4.28,0,8.57,0,12.84.13a130,130,0,0,0,15.41-.83c4.42-.37,7.8,2,8.56,5.92s-1.65,7.33-6.13,8.75a25.2,25.2,0,0,1-5.17.79c-4.65.47-9.3,1.73-14,.45a5.18,5.18,0,0,0-1.31-.05c-6.26,0-12.52-.12-18.77,0-8,.18-16,.72-24,.64a12.47,12.47,0,0,1-5.76-1,11.59,11.59,0,0,1-6.44-8.61,183.82,183.82,0,0,1-3.58-29c-.31-9.31.1-18.6.38-27.88.28-9,.84-17.92,1.29-26.88.51-10.37,1.73-20.69,3-31,.29-2.38.17-4.81.88-7.15,1.05-3.46,4.32-5.9,7.31-5.4a6.72,6.72,0,0,1,5.72,7.31c-.9,7.86-.24,15.74-.93,23.62-.59,6.63-.82,13.33-1.08,20-.22,5.44-.09,10.94-1,16.36a30.63,30.63,0,0,0-.15,4.6c0,7.68-.91,15.33-.59,23a189,189,0,0,0,2.56,24.78c.26,1.46.83,2.16,2.35,2.07C352.41,316.58,353.62,316.64,354.83,316.64Z"/><path class="cls-1" d="M300.85,335c-4.94,0-9.88.17-14.81,0q-9.66-.4-19.29-1.32c-5.38-.5-9.13-3.31-10.88-8.59a40.48,40.48,0,0,1-1.85-9c-.78-8.59-1.75-17.17-2.31-25.8s-.23-17.32-.6-26c-.24-5.58-.63-11.16-.43-16.75.36-9.95.71-19.91,1.39-29.84.25-3.8.68-7.62,1.05-11.42.31-3.23,2.34-5.8,5.26-6.27a6.66,6.66,0,0,1,7.38,4.18,9.2,9.2,0,0,1,.67,3.53c0,8.34.38,16.71-.12,25-.75,12.28-.46,24.56-.29,36.83.1,7.09.35,14.2.9,21.3.47,6,1.07,12,1.53,18,.19,2.51.49,5,.79,7.5a2.33,2.33,0,0,0,2.49,2.4c9.18.5,18.34,1.47,27.53,1.09,4.48-.18,8.95-.38,13.44-.49a25.41,25.41,0,0,1,6.17.73c4.09.88,6.56,4,6.32,7.64-.21,3.4-2.62,5.38-5.67,6.55A11.88,11.88,0,0,1,315,335C310.29,334.94,305.57,335,300.85,335Z"/><path class="cls-3" d="M174.52,264.34a101.82,101.82,0,0,1,3.6-11.72c3.32-9.38,6.67-18.76,11-27.72.54-1.11.7-3,2.17-3s1.65,1.84,2.24,3c4.53,8.64,7.9,17.78,11.6,26.79,1.41,3.43,2.89,6.85,4.31,10.28a3.44,3.44,0,0,1,.52,2.36Z"/></g></g></svg>