<svg xmlns="http://www.w3.org/2000/svg" viewBox="0 0 887.1 489.24"><defs><style>.cls-1{fill:#8f610a;}.cls-2{fill:#4f872f;}.cls-3{fill:#ffeabc;}.cls-4{fill:#8d8d8d;}.cls-5{fill:#cdb17a;}.cls-6{fill:#fff;}.cls-7{fill:#786959;}.cls-8{fill:#75877d;}.cls-9{fill:#827668;}.cls-10{fill:#feeb80;}.cls-11{fill:#d6fd7d;}.cls-12{fill:#8c4646;}.cls-13{fill:#7a5103;}.cls-14{fill:#7d403e;}.cls-15{fill:#7d3f3e;}.cls-16{fill:#7d403f;}.cls-17{fill:#996054;}.cls-18{fill:#985f53;}.cls-19{fill:#93504d;}.cls-20{fill:#7b5204;}.cls-21{fill:#7b5104;}.cls-22{fill:#975e52;}.cls-23{fill:#ece4d2;}.cls-24{fill:#fef9da;}.cls-25{fill:#d5fc7d;}.cls-26{fill:#d6fc7d;}.cls-27{fill:#fdf8d9;}.cls-28{fill:#90630c;}.cls-29{fill:#fdeb80;}.cls-30{fill:#91630d;}.cls-31{fill:#efde78;}.cls-32{fill:#a07d32;}.cls-33{fill:#866b19;}.cls-34{fill:#7ba648;}.cls-35{fill:#924f4e;}.cls-36{fill:#d0977d;}.cls-37{fill:#956714;}.cls-38{fill:#90620c;}.cls-39{fill:#91640e;}.cls-40{fill:#926611;}.cls-41{fill:#926713;}.cls-42{fill:#9c884e;}.cls-43{fill:#fef9d9;}.cls-44{fill:#f2efdf;}.cls-45{fill:#faf4d3;}.cls-46{fill:#7b5203;}.cls-47{fill:#f2eeda;}.cls-48{fill:#ad924c;}.cls-49{fill:#e9dcb4;}.cls-50{fill:#fff6e3;}.cls-51{fill:#e1d7c1;}.cls-52{fill:#9c6f1d;}.cls-53{fill:#9c8250;}.cls-54{fill:#876d3d;}.cls-55{fill:#816637;}.cls-56{fill:#897443;}.cls-57{fill:#ad8239;}.cls-58{fill:#846b3b;}.cls-59{fill:#9e8250;}.cls-60{fill:#826b3b;}.cls-61{fill:#796233;}.cls-62{fill:#9b7f4d;}.cls-63{fill:#957e4c;}.cls-64{fill:#7e6637;}.cls-65{fill:#99804e;}.cls-66{fill:#ce9379;}.cls-67{fill:#cf957b;}.cls-68{fill:#cb9177;}.cls-69{fill:#f3e17b;}.cls-70{fill:#934f4e;}.cls-71{fill:#e3cd58;}.cls-72{fill:#f3e17a;}.cls-73{fill:#e4ce59;}.cls-74{fill:#e6d05c;}.cls-75{fill:#e6d05b;}.cls-76{fill:#e7d25e;}.cls-77{fill:#cf9479;}.cls-78{fill:#b57765;}.cls-79{fill:#b67a66;}.cls-80{fill:#8d5e0c;}.cls-81{fill:#9a5f54;}.cls-82{fill:#ce9479;}.cls-83{fill:#914e4e;}.cls-84{fill:#ae7160;}.cls-85{fill:#e7d15c;}.cls-86{fill:#936612;}.cls-87{fill:#956814;}.cls-88{fill:#a67e34;}.cls-89{fill:#f6f0d8;}.cls-90{fill:#a37829;}.cls-91{fill:#b3904e;}.cls-92{fill:#b28e4b;}.cls-93{fill:#b4904c;}.cls-94{fill:#f6eecb;}.cls-95{fill:#bd9c5e;}.cls-96{fill:#e3d8b3;}.cls-97{fill:#e8dfb6;}.cls-98{fill:#c5ac72;}.cls-99{fill:#b7995f;}.cls-100{fill:#d0ba86;}.cls-101{fill:#e5ddd2;}.cls-102{fill:#b87f6a;}.cls-103{fill:#934f4f;}.cls-104{fill:#936611;}.cls-105{fill:#956915;}.cls-106{fill:#f3efda;}.cls-107{fill:#9f7426;}.cls-108{fill:#aa8135;}.cls-109{fill:#97702e;}.cls-110{fill:#eddfb6;}.cls-111{fill:#aa843a;}.cls-112{fill:#f3e7c1;}.cls-113{fill:#a6864b;}.cls-114{fill:#d4b982;}.cls-115{fill:#946713;}.cls-116{fill:#966a16;}.cls-117{fill:#815a0f;}.cls-118{fill:#9b7020;}.cls-119{fill:#865d14;}.cls-120{fill:#997430;}.cls-121{fill:#f9f2d0;}.cls-122{fill:#f1e6c2;}.cls-123{fill:#b59767;}.cls-124{fill:#ad9358;}.cls-125{fill:#996d1b;}.cls-126{fill:#efe6c8;}.cls-127{fill:#b0853c;}.cls-128{fill:#b78f4a;}.cls-129{fill:#e1d2aa;}.cls-130{fill:#d7c18f;}.cls-131{fill:#f3f0db;}.cls-132{fill:#a87f34;}.cls-133{fill:#b08840;}.cls-134{fill:#a27627;}.cls-135{fill:#bfa060;}.cls-136{fill:#dfc796;}.cls-137{fill:#cdbb85;}.cls-138{fill:#b49251;}.cls-139{fill:#be9e62;}.cls-140{fill:#b79858;}.cls-141{fill:#ece2c6;}.cls-142{fill:#d5c196;}.cls-143{fill:#e9debb;}.cls-144{fill:#a77f34;}.cls-145{fill:#cf947a;}.cls-146{fill:#8c4746;}.cls-147{fill:#93504f;}.cls-148{fill:#924f4f;}.cls-149{fill:#cf977d;}.cls-150{fill:#ac6f5e;}.cls-151{fill:#924e4e;}.cls-152{fill:#b57a67;}.cls-153{fill:#b07362;}.cls-154{fill:#b37664;}.cls-155{fill:#b97e6b;}.cls-156{fill:#9a5c50;}.cls-157{fill:#b47764;}.cls-158{fill:#ac6b5c;}.cls-159{fill:#b17563;}.cls-160{fill:#b57966;}.cls-161{fill:#b97d68;}.cls-162{fill:#a76557;}.cls-163{fill:#aa6c5c;}.cls-164{fill:#aa6859;}.cls-165{fill:#a96758;}.cls-166{fill:#a86758;}.cls-167{fill:#b37966;}.cls-168{fill:#93514f;}.cls-169{fill:#bb806a;}.cls-170{fill:#ce9378;}.cls-171{fill:#b47865;}.cls-172{fill:#a16558;}.cls-173{fill:#b27764;}.cls-174{fill:#b37864;}.cls-175{fill:#a06058;}.cls-176{fill:#b27865;}.cls-177{fill:#b67966;}.cls-178{fill:#c88e75;}.cls-179{fill:#ab6b5b;}.cls-180{fill:#b27966;}.cls-181{fill:#965350;}.cls-182{fill:#b57965;}.cls-183{fill:#b77966;}.cls-184{fill:#c1856f;}.cls-185{fill:#b27563;}.cls-186{fill:#b47a66;}.cls-187{fill:#b37663;}.cls-188{fill:#b57764;}.cls-189{fill:#b57c68;}.cls-190{fill:#b47966;}.cls-191{fill:#b77a67;}.cls-192{fill:#b77c67;}.cls-193{fill:#a96a5b;}.cls-194{fill:#a5685a;}.cls-195{fill:#b77765;}.cls-196{fill:#ba7f6a;}.cls-197{fill:#b87c68;}.cls-198{fill:#bf9f64;}.cls-199{fill:#b5883f;}.cls-200{fill:#c98e75;}.cls-201{fill:#ae7563;}.cls-202{fill:#b17664;}.cls-203{fill:#a96f5f;}.cls-204{fill:#a06154;}</style></defs><g id="레이어_2" data-name="레이어 2"><g id="레이어_1-2" data-name="레이어 1"><path d="M439.77,489.07c-21.07.77-45.28-1.14-69.47-4.18-28.9-3.64-57-10.53-84.72-19.29-35-11.08-67.83-26.55-97.4-48.53C169.28,403,153,386.26,137.38,368.7a204.15,204.15,0,0,1-39.13-66.1,143.27,143.27,0,0,0-5.69-13.53,237.67,237.67,0,0,1-14.71-39.15c-.87-3.08-2.15-3.8-5.24-3.73-12.14.28-24.28,1.91-36.44.31-3.24-.43-6.52-.66-9.7-1.36-9-2-15.8-7-20-15.34A62.25,62.25,0,0,1,0,202.48C-.26,180.34,3.08,158.81,11,138c5.28-13.86,14.7-21.85,29.18-24.66,16.47-3.2,33.12-4.07,49.79-5.08a10,10,0,0,1,3.79.16c6.49,2.25,10.48-1,14.88-5.4,18.92-18.94,41.3-33,65.09-45,34.52-17.36,71-29.32,108.46-38.2A738.89,738.89,0,0,1,401.05,2a799.09,799.09,0,0,1,102.88-.72C561,4.68,617.14,13.55,671.57,31.66c28.14,9.36,55.18,21.12,80.2,37.21a198.28,198.28,0,0,1,26.46,20c2.1,1.91,3.79,2.34,6.66,1.56,12.23-3.35,24.42-7,37.17-8A81.94,81.94,0,0,1,861.38,89c7.33,3.19,12.32,8.77,15.83,15.83,4.43,8.91,6.5,18.49,7.45,28.26a433.28,433.28,0,0,1,2.3,54.39,90.61,90.61,0,0,1-1.81,17.85c-2.88,12.6-10.76,20.8-22.92,24.66-9.6,3.05-19.65,3.18-29.64,3.36-3.07.06-6.75-1.33-9,.39s-1.71,5.64-2.31,8.61c-4.8,23.92-14.26,46-26.41,67a285.54,285.54,0,0,1-37.09,50.26c-19.83,21.64-41.07,41.68-64.81,58.86A338.21,338.21,0,0,1,578.87,472c-32.94,8.58-66.46,13.38-100.41,15.57C466.67,488.28,454.87,488.37,439.77,489.07Z"/><path class="cls-1" d="M688.63,279.23c-28,10.88-56.4,20.76-85.77,27.48q-31.8,7.28-64.12,11.79c-20.85,2.93-41.78,5-62.77,6-18.12.88-36.28,1.75-54.44,1.16-15-.5-30.11-.94-45.12-2.11Q343.35,321,310.6,315.5A584.1,584.1,0,0,1,246,300.83c-33.46-9.62-65.58-22.44-94.82-41.63-16.35-10.73-31-23.39-41.93-39.88.33-1.69-.76-3-1.26-4.44-4.83-9.7-4-19.68-.87-29.48,3-9.48,7.91-18.18,13.22-26.59.9-1.43,1.69-3.35,4-2.9,1.55,2.28.31,4.54-.1,6.8-2,10.87-4.16,21.7-2,32.85,1.07,5.53,4.41,9.45,8.41,12.92,2.92,2.53,6.41,2,9.8.83a20.92,20.92,0,0,1,4.4-.36c4.66.2,9.13-2,13.85-1.2,2.8,3.51,2.17,7.88,2.74,11.88.9,6.35,4.78,10.37,9.64,13.74,2.84,1.95,5.9,1.11,8.84-.07a19.83,19.83,0,0,1,4.35-.37c5.34.21,10.5-2.09,15.9-1.17,2.14,1.76,1.77,4.28,1.66,6.54-.33,7.27,3.66,12.31,8.52,16.84,2.91,2.71,6.45,1.61,9.83.95a31.19,31.19,0,0,1,4.42-.32c18-1.73,35.43-6.6,53.2-9.53,2.13-.35,4.22-1.05,6.41-.68,3.28,2.16.16,3.14-1,4.12-3.19,2.83-7.07,4.88-9.42,8.61-1.45,1.77,2.8,3.85-.26,5.55-9.62,2.72-19.52,4-29.31,5.85-3.7.7-7.52,1-11,3.05,16.71,4.09,33.93,5.37,50.52,9.8a10.32,10.32,0,0,1,1.57.28,24,24,0,0,0,5.77,2c2.71.94,5.41,1.91,8.15,2.72,6.3,1.87,7.34,1,6.4-5.52,1.62-3.37,5.31-3.39,8.06-4.9A108.22,108.22,0,0,1,326,271.75c3.18-.39,4.13,1.36,3.84,4.14s-.3,5.31,1.51,7.57c3.32,3.07,7,1.46,10.69,1,4.93-.61,9-4.69,14.33-3.52,2.5,6.63,8.28,7.49,14.23,8.2,1.93.24,3.88.46,5.81.77a10.7,10.7,0,0,1,3,1.17,15,15,0,0,0,3.61,1.37c4,.72,8.15.92,12.18,1.91,6.06,1.5,6.54,1,7.28-5.28,2.57-3.68,6.8-4.54,10.54-6.22,2.47-1.11,4.88-2.34,7.31-3.56,2.34-.95,4.58-2.28,7.28-1.83,3.61,2.19,3.2,5.71,2.8,9.08-.36,3.06-.88,6.05,1.1,8.76,3,3.16,6.71,2.06,10.14,1.25,10.76-2.56,20.45-7.88,30.55-12.15,5.28-1.76,9.44-6.44,15.58-5.95,3.21,1.67,2.75,4.76,3,7.61.25,3.36-.82,6.93,1.5,10,4.73,2.47,9.52,1.42,14.14-.07,9-2.9,17.38-7.06,25.86-11.1a139.5,139.5,0,0,0,16.82-7.83c9.63-5.26,20.09-8.42,30.42-11.9a87.33,87.33,0,0,0,13.53-4.7c5.82-2.68,10.68-7,16.62-9.51,8.41,2.2,16.34,5.77,24.52,8.65,17.23,6.06,34.3,12.6,51.77,18A4.35,4.35,0,0,1,688.63,279.23Z"/><path class="cls-2" d="M179.36,234.49c-3.65,2.44-7.44,1.82-11-1-7.09-5.49-8.88-13.09-9.25-21.38-.05-1.25,0-2.52,0-3.77-2.51-3.64-.59-7.53-.13-11.07,2.74-21.11,8.79-40.78,25.73-55.42a106.43,106.43,0,0,1,29.89-18.57c.77-.36,1.55-.69,2.33-1a13,13,0,0,1,1.6-.63c11.86-4,24.09-4.83,37.5-4-11.75-5.3-23-6.61-34.92-6.21-18.14.62-34.48,6.11-49.73,15.46C159.67,134,151.26,143.77,146.9,157c-4.22,12.81-8.09,25.57-7.15,39.29a41.93,41.93,0,0,0,1.12,9.13c.5,1.69,1.2,3.54-.62,5-5,2.41-8.14,1.72-12.06-1.87-8.9-8.16-8.89-18.59-8-29.38.65-7.89,2.44-15.57,3.93-23.31-1-1.15-.5-2.36-.16-3.57a70.58,70.58,0,0,1,27.64-39.81c11.11-7.93,22.88-14.69,36.42-17.69,2.55-.61,6.18,1.09,6.94-3.3a100.74,100.74,0,0,1,10.86-19.86c5.07-2.92,8.52-7.73,13.15-11.18,13.33-9.91,27.44-17.91,44.32-20.2a117.56,117.56,0,0,1,36.64.8,41,41,0,0,0,4.85.3c1.29.2,2.59.12,3.89.29,8.92,2,15.75,7.45,22.29,13.42,4.31,6.28,10.11,9.76,17.74,11.15,9.7,1.78,16.81,8.38,23.42,15.16a18.28,18.28,0,0,0,10.71,5.72c8.35,1.36,16.17,4.15,22.63,9.91a36.42,36.42,0,0,0,4.47,3.94c1.42,1.59,3.27,2.76,4.6,4.45a43.55,43.55,0,0,0,3.33,4.44,16.9,16.9,0,0,0,3.3,3.51,44.6,44.6,0,0,1,5.1,7.32c.77,1.65,2.37,3.18.74,5.17a3.71,3.71,0,0,1-3.23.22,21.85,21.85,0,0,1-6.74-6.23C408.57,108.41,396.46,104,383.1,103c-27-1.91-51.19,5.52-72.21,22.78a29.43,29.43,0,0,0-4.57,4.63c-4.55,5.87-3.88,8.06,3.42,10.95,9.9,1.68,19.34,4.48,27.13,11.23,6.74,6.9,13.79,13.55,18.93,21.83a27.2,27.2,0,0,0,1.39,3,10.35,10.35,0,0,1,.61,1c.27.5.51,1,.78,1.53l.63.92a6.86,6.86,0,0,1,.67.93,3.07,3.07,0,0,1,.31,1.11,2,2,0,0,1-.79,1.5,1.78,1.78,0,0,1-1.16.05,5.14,5.14,0,0,1-1-.67l-.45-.4c-.31-.27-.6-.56-.89-.85l-.44-.45a11,11,0,0,1-.85-1c-.29-.35-.54-.72-.8-1.09a14.69,14.69,0,0,0-4.76-4.21c-10.3-13-24.61-17.91-40.27-18.11-17.9-.24-35.25,3.35-51.18,12.27-9.91,5.55-19.35,11.74-25,21.86-6.45,11.47-10,24-12.14,37-1.25,7.74-1.83,15.47.54,23.14a5.34,5.34,0,0,1-.73,5.18c-6.24,2.36-8.39,1.11-12.84-2.87-7-6.26-7.18-14.1-7.15-22.29-2.75-5.13-.81-10.38,0-15.43,3.1-19.92,9.29-38.46,25.22-52.25,8.85-7.66,18.89-13.43,29.38-18.48,10.92-4.2,22.32-6,33.89-7-31.68-7.77-60.47-1.88-86.35,18.2-7,5.42-11.63,12.45-14.78,20.47-5.69,14.45-9.65,29.28-8.57,45.05a41.91,41.91,0,0,0,1.13,7C180.55,231.29,181.44,233.16,179.36,234.49Z"/><path class="cls-3" d="M688.63,279.23c-4.45-.07-8.46-1.84-12.55-3.27-22.42-7.85-44.85-15.66-67-24.14-1.42-2.41.87-4,1.32-6,1.77-7,.11-13.13-4.65-18.48-2.89-2.76-6.45-2.9-10.16-2.76-8.56.33-16.91,2.07-25.28,3.69-2.9.58-5.77,1.36-8.76.72a10.12,10.12,0,0,1-4.54-2.79c-3.42-4.35-3.8-7.51-.27-11,13-12.9,25.87-25.94,43.61-32.76,30.81-11.86,58.89-6.79,84.44,13.17,7.41,5.8,16,10.14,22.25,17.4,2.1,2.42,3.93,4.79,3.78,8.14-.58,13,3,25.55,3.8,38.4.18,2.9.13,5.37-2,7.52C705,271.89,696.83,275.57,688.63,279.23Z"/><path class="cls-4" d="M330.08,55.69a22.42,22.42,0,0,1-2.15-1.58A50.11,50.11,0,0,0,308.3,42.62c-.65-1.26.51-1.58,1.14-2.18,9.47-2.5,19.17-3.83,28.82-5.41,50.88-8.3,102.13-10.4,153.55-8.47a687.8,687.8,0,0,1,94.58,10.3c34.37,6.11,68,14.8,100.45,27.79,25.21,10.09,49.19,22.44,70.23,39.89,12.83,10.64,24,22.73,31.13,38,8.27,17.74,8.73,35.68.71,53.68-2.64-.18-2.08-2.35-2.46-3.94.56-15.4-1.69-30-11.38-42.73-4.93-6.46-11.48-11-17.57-16.17-10-8.42-19.35-17.53-29.61-25.64a180.9,180.9,0,0,0-75.18-35.34c-9.94-2.12-20-3.6-29.9-5.88a11,11,0,0,0-5.9-.49,13.63,13.63,0,0,1-4.58-.53c-8.5-2.25-17.29-2.68-25.89-4.24a139.36,139.36,0,0,1-17.07-4.55A15.43,15.43,0,0,1,566,54.2c-2.8-2.34-5.56-4.39-8.09.35-.22.41-1,.3-1.47,0-4.7-3.65-10.23-3.84-15.82-3.74a5.73,5.73,0,0,1-3-1.14c-3.16-2-6-3-7.4,1.89a1.24,1.24,0,0,1-2.12.64c-1.18-5.07-6-3.17-9-4.67-1.45-1.28-.26-2.67-.13-4,.3-3.15-1.94-4.39-4.14-5.68s-3.63-.18-4.76,1.78a4.63,4.63,0,0,1-3,2.15c-6.44,1.43-12.38,4.91-19.24,4.69a523.59,523.59,0,0,0-65.68-.85c-28,1.28-55.82,5.41-83.5,10.1C335.76,56.22,332.9,57.24,330.08,55.69Z"/><path class="cls-1" d="M622.22,65.37C643.7,68.74,665.06,72.69,685.3,81c17.07,7,32.43,16.8,46.77,28.38,12.13,9.8,23.27,20.7,35.43,30.48A52.12,52.12,0,0,1,787,175.09a137,137,0,0,1,.74,16.8c-1.26,2.78.85,5.91-.89,8.64-1.47,4.35-4.09,8.07-6.72,11.73-10.88,15.19-24.06,28-40.25,37.48-1.93-2.81-.59-5.66.2-8.31,3-10.06,3.27-20.27,2.16-30.58a25.94,25.94,0,0,1,0-6.47c1.49-10.75-.54-20.17-10.29-26.59a5.46,5.46,0,0,1-2.09-2.44,149.64,149.64,0,0,0,5.58-18.1c1.16-4.73-.36-8.15-4.19-10.81a22.52,22.52,0,0,0-6.71-3.57,19,19,0,0,1-12.92-10.74,4.57,4.57,0,0,0-2.77-2.7c-1.32,1.21-.43,2.61-.14,3.84,1.58,6.53,3.27,13,4.83,19.56.49,2.07,1.54,4.15.41,6.35-6.35-.81-11.41-5.45-12.37-11.33.43-2.8.37-5.25-2.81-6.7-4.26-2-4.72,2.79-7.25,3.85-3.16.69-6.33,1.4-6.95-3.29,1.49-4.05,1.88-8.42,4.4-12.19,1.87-2.8.57-5.76-1.8-7.76-2.73-2.3-4.42,0-6.33,1.82-5.83,5.64-19.33,6.55-25.15,1.87,3-4.48,11.32-7,16.85-5.06,3.83.19,3.59-2.72,3.72-5.11.11-2.15-.78-3.93-3.11-4.5-2.51-.6-4.22.31-5.06,2.81-1.27,3.79-4.69,4.62-7.86,4.66-4.25.06-3.8-4.62-5.74-7a3.16,3.16,0,0,1,1.34-2.76c6.62-3.15,13.94-3.75,20.89-5.7,4.51-1.27,5.79,2.4,7.68,5.69a11.51,11.51,0,0,0,2.62-8.42c-.12-2.62-1.87-4.27-4.24-5.13s-3.66.65-4.6,2.61a5.17,5.17,0,0,1-3.32,2.63c-4.32,1.35-8.77,2.2-13.17,3.23-2.05.48-4.65-.08-3.89-2.85,1.13-4.16-2.05-4.85-4.2-6.51.77-3.59,4.18-5.23,8.49-4,1.74.5,3.64,2.69,5-.23,1-2,0-3.9-1.66-5.27-2-1.61-3.63-1.34-5.68.47-4.3,3.79-9.87,3.94-15.27,4.37-4-1.18-2.27-5.25-3.83-7.67-4.39-4.86-5.12-4.87-9.35.16a5.86,5.86,0,0,1-3.61,2.23c-4.49.72-8.66,2.72-13.23,3.11a2.92,2.92,0,0,1-2.6-1.71c.09-2.87.31-5.58-3-7.34-2.27-1.21-1.62-3.16.69-3.86,2.89-.87,6-2.06,8.67.59,4.26.76,3.55-2.11,3.16-4.5-.24-1.54-2.13-2.47-1.83-4.32A1.69,1.69,0,0,1,622.22,65.37Z"/><path class="cls-5" d="M685.46,141.82c-.09,2.1,1.26,2.63,3,2.59,1.18,0,2.36-.27,3.54-.41,3.13,2.74,6.43,4.87,10.86,3.21-.19,3.15.83,5.45,3.85,7a64.85,64.85,0,0,1,7.08,4.91c5.85,4.72,12.38,8.7,16.44,15.33,1.51,1.87,3.75,2.76,5.54,4.26a22.63,22.63,0,0,1,8.39,18.58c-.09,6.29-.63,12.56-.11,18.88a79.6,79.6,0,0,1-3.77,30.89,18.08,18.08,0,0,0-.39,2.67c-3.12,2.38-6.08,5-9.7,6.63-.18-.32-.43-.7-.33-1,4.53-14.06,1.64-28-.73-41.91-.73-4.33-.42-8.69-.46-13,0-3.47-.91-6.67-3.7-8.71-13.73-10-26.26-21.93-42.16-28.67-19.27-8.18-38.85-7.69-58.43-.89-3.75,1.3-7.39,2.9-9.46,3.87,30.88-7.2,61-5.31,85.57,20.85a60,60,0,0,0,10.61,9.33c11.21,7.38,14.75,17.78,14,30.92-.63,10.78-.5,21.66-.16,32.5l-12.25,7.46c1.9-5.21-.09-10.37-.36-15.52-.55-10.07-3.91-19.9-2.84-30.14.29-2.76-.93-4.69-2.69-6.76-4.56-5.37-10.82-8.46-16.18-12.72-7.95-6.32-15.89-12.6-25.23-16.84a78.38,78.38,0,0,0-44.44-6.54c-20,2.82-36.65,11.8-50.93,25.74-3.63,3.54-7,7.36-11,10.54-4.21,3.35-4.47,6.59-1.1,10.85-3.65,1.48-4.53-2-6.43-3.61a2.18,2.18,0,0,1-.39-1.35,5.84,5.84,0,0,1,1.69-2.13,6.88,6.88,0,0,0,1.33-2.22c.37-1.07.53-2.19.84-3.28a21.53,21.53,0,0,1,1.06-2.65c.19-.46.42-.9.65-1.34,4.61-9.83,12.08-17.3,20.13-24.29,3.45-2.84,5.81-6.66,8.72-10,5.48-7.85,13-13.23,21.18-17.94a14.57,14.57,0,0,1,1.33-.75,25.21,25.21,0,0,0,2.6-1.64A124.09,124.09,0,0,1,645.33,141c5.17,1.48,10-1.28,15.09-1.17,3.66.92,7.46.07,11.13.84a14.18,14.18,0,0,0,7.08.49C680.9,141.46,683.26,140.85,685.46,141.82Z"/><path class="cls-6" d="M799.9,111.4c5.12-1.86,10.52-2.34,15.84-2.89,10.72-1.1,21.35-.77,31.75,2.64a11.51,11.51,0,0,1,7.56,7.14c3,7.36,3.86,15.11,4.45,22.87,1.29,16.83,2.29,33.68,1.36,50.57a53.85,53.85,0,0,1-.53,6c-.93,5.4-3,7.44-8.47,8.36a135.65,135.65,0,0,1-22.79,1.36c-2.64,0-3.62-.95-3.3-3.51a23.79,23.79,0,0,0,0-3.27c-.31-20.09-4.19-39.59-10.11-58.7a97.87,97.87,0,0,0-13.2-26.12C801.56,114.49,800.28,113.36,799.9,111.4Z"/><path class="cls-6" d="M84.85,132.41c-7.53,14.28-12.83,28.05-14.62,43-1.77,14.75-3.84,29.49.46,44.28-3.8,1.47-7.27.88-10.62,1.17a120.23,120.23,0,0,1-25.51-.46c-3.34-.42-5.26-1.91-6.29-5a36.7,36.7,0,0,1-2.16-10.05c-.83-20.34,1.75-40.11,9.51-59.09,1.59-3.89,3.88-6.35,8-7.2C56.92,136.3,70.37,134.64,84.85,132.41Z"/><path class="cls-4" d="M188.19,96c-12.59,3.24-23.91,9.19-34.45,16.64-13.38,9.46-23.13,21.63-27.6,37.67-.52,1.9-1.33,3.72-2,5.58a109.55,109.55,0,0,0-15.8,30.19c-2.83,8.46-3.54,17.33-.24,26a34.64,34.64,0,0,1,1,3.67c.39,1.12-.13,1.36-1.11,1.14q-20-31.5-3.89-65.17c7-14.65,17.56-26.55,29.74-37.07,21.48-18.56,46-32.06,72.05-43a1.61,1.61,0,0,1,.07,2.4c-4.38,5.17-6.53,11.6-9.83,17.37C194.23,94.3,191.08,94.92,188.19,96Z"/><path class="cls-3" d="M724.88,259.63c-1.33-.29-2.57-.85-2.31-2.46,1.52-9.34.8-18.7.54-28.09a74.69,74.69,0,0,1,.4-7.56c.71-9.59-3.39-17-11-22.34-5.84-4.11-10.79-9.09-15.87-14-10.67-10.29-22.95-17.88-37.79-19.91a102.39,102.39,0,0,0-21-1,183.61,183.61,0,0,0-28.84,4.47c4.29-4.4,9.91-6.39,15.4-8.21,25.3-8.37,49.54-6.6,72.24,8.32,5.91,3.89,11.29,8.46,17,12.65,3.92,2.89,8.21,5.24,11.85,8.58,3.31,3,5,6.38,4.64,11a58,58,0,0,0,1.61,17.76c1.27,5.59.86,11.54,1.78,17.23.77,4.78-.24,9.28-.79,13.91a10.55,10.55,0,0,1-7.88,9.66Z"/><path class="cls-7" d="M786.83,200.53c.23-2.89-.83-5.9.89-8.64.44,1.44-.43,3.24,1.19,4.36A6.22,6.22,0,0,1,786.83,200.53Z"/><path class="cls-8" d="M309.44,40.44l-1.14,2.18c-1.34.06-2.64,0-3.51-1.25l.15,0a6.15,6.15,0,0,0,1-.48Z"/><path class="cls-9" d="M107.93,216.92l1.11-1.14c1.19,1.13,1.32,2.31.15,3.54Z"/><path class="cls-2" d="M306,40.84a.81.81,0,0,1-1,.48A.8.8,0,0,1,306,40.84Z"/><path class="cls-10" d="M285.48,246.42c-12,2.34-24,4.75-36,7-7.43,1.38-14.9,2.52-22.37,3.71a12.7,12.7,0,0,1-2.67-.14,5,5,0,0,1-1.38-4c-.27-16,1.91-31.58,8.76-46.1,7.07-15,18.07-26,34-31.88a134.28,134.28,0,0,1,35.91-8.41c22.6-1.79,41.19,6.23,55.35,24.13.79,1,1.73,1.86,2.54,2.83,1,4.48-1.44,8.31-2.36,12.43-.69,3.1-2.62,5.95-1.79,9.35-4.29,3.81-10.07,3.77-15,5.86-9.42,3.76-18.91,7.32-27.89,12.07-2.94,1.45-6,2.73-8.91,4.2A40.76,40.76,0,0,1,298,241c-3.25,1.65-6.21,3.86-9.69,5.06C287.38,246.44,286.5,247,285.48,246.42Z"/><path class="cls-11" d="M359.35,194.13c-2.06-.19-3-1.76-4.13-3.19-9.31-11.44-20.74-19.3-35.59-22-13-2.38-25.54-.33-38.09,2.65-9.37,2.23-18.72,5-26.69,10.36-13.23,8.91-21.92,21.39-26.06,36.93A129.32,129.32,0,0,0,224.4,257a10,10,0,0,1-4.17.24,13.83,13.83,0,0,0-.27-3.78c-3.31-9.27-2.13-18.69-.49-27.94a141.68,141.68,0,0,1,8.07-27c4.59-11.69,13.12-19.79,23.42-26.29a100.9,100.9,0,0,1,38.92-14.54c12.8-2,25.61-2,38.18,1.81a40.17,40.17,0,0,1,18.81,12.34c1.2,1.35,2.5,2.61,3.75,3.91,1.64,1.65,3.1,3.45,4.65,5.19l.05.07a5.13,5.13,0,0,0,1,1.12l0,0a8.41,8.41,0,0,1,1,1.15h0a2.29,2.29,0,0,1,1,1.14v.07A9.29,9.29,0,0,1,361.9,187a3.48,3.48,0,0,1,.54,1.39C362.23,190.71,361.54,192.82,359.35,194.13Z"/><path class="cls-12" d="M379.2,292.17l-2.07-1.12c-2.84-3.45-1.34-7.52-1.67-11.32.56-3.44-.6-5.52-4.39-5.53-2.8-1.63-5.41-1.14-8.17.34a117.37,117.37,0,0,1-23.86,10c-3,.82-5.92,1.61-8.88,0a9.14,9.14,0,0,1-1.58-9c.93-2.66-.69-3.07-2.78-3a1.34,1.34,0,0,1-.15-1.35c1.59-1.48,1.88-3,.08-4.55-2.34-2-6-1.34-8-4a3.45,3.45,0,0,1,1.54-4.26c5.85-3.86,11.29-8.47,18.15-10.61,3.75.57,6.42,3.13,9.23,5.28,6.12,4.69,12.66,8.84,18.3,14.15a4.42,4.42,0,0,1,.45,1.43c.05-.5.12-1,.2-1.5a4.31,4.31,0,0,1,1-1.2c4.7-3.7,10.27-6,15.08-9.58a6.5,6.5,0,0,1,5.15-1.19c4.8,1.84,8.53,5.34,12.63,8.27,1.91,1.37,3.74,2.84,6,3.53a9.23,9.23,0,0,1,3.77,2.43,14.28,14.28,0,0,0,5.6,5.41,4,4,0,0,1,1.82,2.46,2.31,2.31,0,0,1-.65,1.47C404.56,285.55,393.11,292.25,379.2,292.17Z"/><path class="cls-11" d="M140.25,210.44c-1.28-6.93-2.54-13.82-2.15-21,.84-15.13,5.33-29.24,11.64-42.79,4.27-9.15,11.91-15.52,20.31-20.75,15.84-9.87,32.95-15.62,51.85-16.09a88.43,88.43,0,0,1,24.73,2.57,32.28,32.28,0,0,1,12.6,6.08c-7.67.17-14.42.07-21.12.54-6.88.49-13.53,2.39-20.2,4.08-14.78,2.1-29.27,5.41-42.17,13.22-12.67,7.66-20.49,19.37-24.82,33.33-3.3,10.61-5.27,21.49-4.68,32.72.14,2.62.73,5.5-1.45,7.77Z"/><path class="cls-10" d="M255,147.1c-5.66,3.23-11.44,6.3-17,9.74-16.21,10.06-27.35,23.91-32.46,42.6-2.93,10.73-5.12,21.48-5.29,32.62A57.47,57.47,0,0,1,184,234.32c-2.85-6.44-1.86-13.33-1.09-19.78,2.06-17.08,6.3-33.48,18.77-46.56,5.21-5.46,10.85-10.15,17.7-13.26a121.42,121.42,0,0,1,30.12-9.05C251.42,145.35,253.83,144,255,147.1Z"/><path class="cls-11" d="M255,147.1a2.11,2.11,0,0,0-1.92-.8c-9.84,2.17-19.62,4.42-29.12,8.06-10.72,4.11-18.71,11.21-25.63,20-6.69,8.49-9.38,18.54-12.08,28.71-2.74,10.34-1.9,20.82-2.2,31.26a12.54,12.54,0,0,1-4.65.17,9.74,9.74,0,0,0,0-2.7c-3.78-12.46-2.11-24.76,1.16-37,1.36-5.07,3-10.07,4.62-15.08,4.33-13.46,13.38-23.06,25.2-30.28A103.23,103.23,0,0,1,269.44,134a76.62,76.62,0,0,1,19.71,3.69c1.47.45,3.23.63,4.65,3A119.53,119.53,0,0,0,255,147.1Z"/><path class="cls-10" d="M144.79,210.15c0-5.8-.36-11.63.14-17.39,1.2-13.77,4.27-27.07,11.56-39.07,8.75-14.42,22.13-22.44,37.86-27,5.19-1.52,10.5-2.59,15.76-3.88,2.64-.66,5.27-1.31,7.8.35l-1,.31c-.34.17-.67.34-1,.53a127.8,127.8,0,0,0-19.93,11c-15.87,10.42-26.78,24.37-31.69,43.05a192.17,192.17,0,0,0-5.2,30.41C154.32,209.08,149.67,210.53,144.79,210.15Z"/><path class="cls-12" d="M285.36,283.5h-1c-3-1.61-2.75-4.55-2.48-7.1.65-6.3-.92-11.19-7.23-13.7-.79-.6-1.61-1.16-2.35-1.83-.9-.81-1-1.68.08-2.47,6.61-3.94,12.49-9.09,19.85-11.77,1.77-.1,3.05.94,4.39,1.87,8.06,5.52,15.67,11.64,23.57,17.38,1.25.9,2.93,1.71,2.31,3.83-1.48,2.43-3.92,3.68-6.34,4.81-7.64,3.57-15.3,7.15-23.5,9.32C290.16,284.5,287.72,285,285.36,283.5Z"/><path class="cls-12" d="M430.42,296.54a9.92,9.92,0,0,1-1.62-9.06c.89-3.3,1.24-6.77-1.71-9.5-2.75-.66-5.67-.7-8.17-2.29a3.47,3.47,0,0,1-1-1.23,3.36,3.36,0,0,1,1.46-3.8c6-3.94,11.48-8.77,18.59-10.8,4.67,1.23,7.92,4.76,11.79,7.28,5,3.22,9.27,7.34,14.47,10.24,2,1.09,4,2.59,3.44,5.49-1.66,2.86-4.7,3.79-7.38,5.19a111.14,111.14,0,0,1-21,8.52C436.36,297.42,433.37,298.15,430.42,296.54Z"/><path class="cls-12" d="M491.46,297.62c-2-.88-2.25-2.59-2.23-4.48,0-3.05,0-6.1,0-9.15,0-2,0-4-2.26-5s-4.81-1.1-7-2.29a3.48,3.48,0,0,1-2-2.26,3.75,3.75,0,0,1,1.81-3.13c6.07-4,11.64-8.91,19-10.55,2.5.31,4.38,1.76,6.19,3.34,4.64,3.72,9.64,7,14.34,10.62A17.59,17.59,0,0,1,521,276a16.17,16.17,0,0,0,1.6,1.1c.19.1.37.22.55.32l.54.36a11.58,11.58,0,0,1,1,.83c.51.44,1,.87,1.56,1.28,1.13.88,2.59,1.47,2.69,3.21a3.08,3.08,0,0,1-.77,1.36C516.7,291.07,505.26,297.64,491.46,297.62Z"/><path class="cls-13" d="M556.56,281.71c.27,4.85.58,9.47,1.25,14.06.5,3.36.27,6.77,1,10.19,1.2,5.66-.46,7.47-6.21,6.83-4.66-.52-9.29-.91-14-1.08-3.68-.13-7.07,1.52-10.72,1.19a41.58,41.58,0,0,1-4.33-.14A6,6,0,0,1,519,308.6c-.72-2.12,1.14-3.22,2.63-4.24,9.07-6.2,18.12-12.45,27.3-18.5C551.09,284.41,552.68,281.86,556.56,281.71Z"/><path class="cls-13" d="M274.63,262.7c7.14.6,8.58,2.22,8.7,9.21.06,3.87-.91,7.87,1,11.59-5,.64-9.36-2-14.16-2.52-5-.58-9.88-2.09-15-1.9a6.89,6.89,0,0,1-2.69-.28c-5.81-2.27-11.76-3.6-18.05-3a3.8,3.8,0,0,1-3-1.14c-.81-.76-1.6-1.58-1.4-2.78.23-1.4,1.45-1.32,2.53-1.51,9.75-1.79,19.49-3.62,29.23-5.42C266.11,264.17,270.37,263.45,274.63,262.7Z"/><path class="cls-13" d="M377,278l.15,13c-4.72.26-9.22-1.11-13.82-1.77-4.84-.7-6.83-3.46-7-8,2.79-4.41,7.39-5.33,12-6.24C371.28,275.73,374.59,275.53,377,278Z"/><path class="cls-14" d="M430.42,296.54c3.65.23,7.05-.85,10.47-1.92a113.43,113.43,0,0,0,26.71-12.34l.65-.32c.24,0,.48.06.72.07a8.25,8.25,0,0,1,1.36.51c1.07.81,2.93,1,2.54,3-10.46,4.64-20.65,10-31.88,12.66C437.38,299.07,433.51,299.8,430.42,296.54Z"/><path class="cls-15" d="M368.26,275.83c-4.28,1.18-8,3.52-12,5.43-5.29,1.2-10,4.16-15.44,5-3.73.56-7.55,1.58-10.68-1.7,5.94.15,11.3-2.11,16.73-4.06a110.3,110.3,0,0,0,16.68-7.85c3.14-1.78,5.63-1.95,8,1C371.7,276.24,369.68,275.59,368.26,275.83Z"/><path class="cls-14" d="M285.36,283.5c5,.26,9.61-1.7,14.14-3.35,8-2.92,15.86-6.17,23-10.88l.67,0a5.9,5.9,0,0,1,1.33.25c.78.43,1.77.73,1.25,2,0,.39,0,.77,0,1.16-4.91,3.43-10.67,5.06-16,7.6-1.29.62-2.74.92-3.69,2.11-4.57,3.37-9.5,5.09-15.2,3.38C288.8,285.61,286.55,285.91,285.36,283.5Z"/><path class="cls-15" d="M379.2,292.17a116.07,116.07,0,0,0,36-14,3.16,3.16,0,0,1,1.05-.18c2.5-1.26,3.61.2,4.42,2.26-5.31,4-11.94,5.25-17.53,8.66-5.9,5.95-13.24,5.27-20.61,4.49C381.32,293.24,380,293.46,379.2,292.17Z"/><path class="cls-15" d="M491.46,297.62a116.66,116.66,0,0,0,36-14,3.22,3.22,0,0,1,1.06-.19,1.1,1.1,0,0,1,1.09-.43,8.38,8.38,0,0,1,2.33,1.08,2.39,2.39,0,0,1,1,1.61,128.39,128.39,0,0,1-29.49,12.63C499.7,299.37,495.32,299.83,491.46,297.62Z"/><path class="cls-14" d="M579.76,266.16c-6.47,3.17-13.59,4.6-20.22,7.42-3.47,1.47-6.6,3.76-10.38,4.5-2.52.11-3.66-1.11-3.45-3.6,6.06-4.87,13.85-6.05,20.58-9.51a22.87,22.87,0,0,1,8.71-3A5.18,5.18,0,0,1,579.76,266.16Z"/><path class="cls-16" d="M611.39,246.57c0,2.11-2,3.29-2.35,5.25-4.54,4.08-10,6.68-15.24,9.72-2.08-.88-2.8-2.55-2.71-4.69a4.44,4.44,0,0,1,2.77-3.07c5.34-2.05,9.3-5.88,13.19-9.84,1.09-1.1,2.53-2.75,4.07-1.78S612,245,611.39,246.57Z"/><path class="cls-17" d="M591.66,257.32l2.14,4.22a47.94,47.94,0,0,1-14,4.61l-4.4-3.41a1.16,1.16,0,0,1,0-1.41c4.54-2.37,9.54-3.76,13.94-6.44C591.23,254.57,591.11,256.27,591.66,257.32Z"/><path class="cls-18" d="M545.88,274.76a7.52,7.52,0,0,0,3.28,3.32,55.92,55.92,0,0,1-16.25,7.62l-1.18-1.14a4.34,4.34,0,0,0-2.16-1.1l-1.06,0,0-1.12c.18-2.81,2.79-2.41,4.4-3.12,3.79-1.67,7.34-3.93,11.45-4.84A2.75,2.75,0,0,1,545.88,274.76Z"/><path class="cls-19" d="M292.12,247.42c-5.79,3.61-11.57,7.25-17.38,10.83-.69.43-1.52,1.14-2.38.15,1.52-4.12,5.48-5.85,8.45-8.54a53.51,53.51,0,0,1,4.67-3.44l2.18-1.18C289.85,244.53,291.79,244.33,292.12,247.42Z"/><path class="cls-18" d="M472.87,285.56c-.8-1.14-2.11-1.48-3.23-2.11a8.32,8.32,0,0,0-1.09-1v-.19c2.47-4.88,7.65-4.75,11.87-6.42,2.33.75,5.14.5,6.6,3.1C482.05,280.63,477.68,283.56,472.87,285.56Z"/><path class="cls-20" d="M290.91,285.7c3.14.18,6-.77,8.95-1.75,2-.69,4-1.71,6.25-1.63.75,1.81,3.34,3.15,1.43,5.64s-4.21,2.5-6.74,1.51C297.51,288.19,293.9,287.76,290.91,285.7Z"/><path class="cls-21" d="M382.52,293.41c7.38.86,13.93-2.14,20.61-4.49a17,17,0,0,0,.19,2.15c1.05,4.73.26,5.69-4.62,5.45a9.26,9.26,0,0,1-3.16-.56C391.36,294.23,386.7,295.06,382.52,293.41Z"/><path class="cls-22" d="M420.66,280.26c-1.52-.66-2.51-2.37-4.42-2.26,0-.32,0-.65,0-1,.53-1.45,2.09-1.42,3.11-2.18,2.48,1.32,5.81.56,7.78,3.15Z"/><path class="cls-1" d="M330.08,55.69c11.19-2.13,22.4-4.15,33.72-5.52,9.33-1.14,18.68-2.25,28-3.7,4.66-.73,9.38-1,14-1.43a548.64,548.64,0,0,1,68-1.06c5.13.23,10.5-.27,15.51,1.66-.6,1.52-2,2.06-3.35,2.52C458.54,57.58,435.88,74.57,414,92.89c-2.53,2.12-4.71,5.07-8.48,5.35a51.56,51.56,0,0,0-25.28-10.16c-3.32-.38-6-2.23-8.53-5.08-7.91-9-17.64-15.5-29.81-17.24a9.81,9.81,0,0,1-7.45-4.6C333.17,59.23,331.55,57.51,330.08,55.69Z"/><path class="cls-10" d="M336.49,153.85c-7.78-6.82-17.36-9.31-27.14-11.29-1.83-3,.63-4.68,2.19-6.53,8.92-10.58,21-15.81,33.84-19.68,8.69-2.63,17.6-4.75,26.67-5.09,17-.64,32.85,2.63,45.31,15.51.89,2.91-1.73,3.54-3.21,4.88-3.81,3.44-8.49,6.11-10,11.55a39.6,39.6,0,0,1-2.55,6.89c-1,1.81-2.34,3.65-4.45,3.62-7.52-.11-14,3-20.51,6.11l-.49-.16c-1.88-.59-2-4.91-4.5-3-2,1.47.46,3.78,1.22,5.65.37,3.27-3.47,4.62-3.5,7.71a11.44,11.44,0,0,1-.44,1.44c-.27.72-.57,1.43-.86,2.14-1.27,3.85-2.91,7.57-4,11.48-.31,1.12-.44,2.55-2.18,2.47l-.27-.13c-1.38-1.45-1.12-3.58-2.13-5.19l0-.06a13.77,13.77,0,0,1-.89-1.23l0,0c-.81-.45-.55-1.54-1.23-2.06v0a8,8,0,0,1-1.61-3.44c-1.11-2.38-3.2-4.42-2.38-7.48a2.18,2.18,0,0,0-1.36-2.69C345.09,163.76,342,157.15,336.49,153.85Z"/><path class="cls-23" d="M403.22,142.83c-.4-2.23.92-3.62,2.29-5.12,3.51-3.85,7.65-6.92,11.71-10.11,1.79-2,3.79-3.48,6.68-2.27a6.76,6.76,0,0,0,3.37-.14c1.26-2,2.37-4.37,5.47-2.73a48.75,48.75,0,0,0,13.54,0c12.66-1.48,25.35-.37,38-1,19.54-1,39.08-1,58.64-1.08a166,166,0,0,1,27,2.34c9.47,1.5,11.19,3.78,11.48,13.13s-.78,18.45-1.26,27.66c-.09,1.77-.17,3.7-2.21,4.59-2.43-1.58-1.88-4.13-2-6.4a108.33,108.33,0,0,1,1-19.55c.46-3.49-.64-4.82-4.49-4.45-7.68.73-8.93,1.75-9.73,9.44-1.92,18.58-2.67,37.26-4.33,55.86a25.61,25.61,0,0,1-1.58,7.4h0a1.23,1.23,0,0,1-1.71-.48c-2-6.22-1.55-12.71-.77-18.89,1.85-14.78,1.94-29.7,4-44.45.25-1.76,0-3.67,1.68-5.23-9.69-.11-19.16-1.26-28.73-1.35-23.94-.21-47.88.44-71.81,0-14.55-.23-29,1.19-43.52,1.49C411.67,141.68,407.35,141.19,403.22,142.83Z"/><path class="cls-24" d="M556.94,54.46c2.15-5.66,3.46-6,8.62-2.46a10.87,10.87,0,0,1,3.27,3.58c1.68,2.51,1.09,4.53-1.33,6.14-1,.45-2.65.76-3.07,0-2.47-4.38-5.82-2-8.87-1.32-6.18,1.36-12.26,3.12-18.32,4.93-2.23.67-4.59,1.21-6,3.4-.47,1.81-.26,3.75-1.1,5.49a5.41,5.41,0,0,1-4.76,3.1c-4.9-1.1-9.09,1.12-13.41,2.83-6.67,2.64-12.67,6.64-19.2,9.56-3.88.93-6.83,3.5-9.47,6.15-5.12,5.13-11,5.72-17.53,4a2.3,2.3,0,0,1-.81-1.32,6,6,0,0,1,1.87-2.44c3.11-2.53,6.76-4.21,10.12-6.34,5.68-3.28,11.35-6.6,17.16-9.67a19.8,19.8,0,0,1,3.4-1.66c-1.49.28-2.67,1.26-4,1.84q-8.56,4.82-17.1,9.68c-5,2.72-9.47,6.23-14.61,8.66a10.72,10.72,0,0,1-1.33.51,19.2,19.2,0,0,0-2,.76c-.41.25-.83.47-1.25.7a8,8,0,0,1-3.55,1c-1.56,0-3.18,0-4-1.74.28-2.48,2.25-3.27,4.14-4.14a28,28,0,0,1,3.71-2.35c2-.77,3.56-2.4,5.48-3.37,2.7-2.14,6-3.27,8.66-5.54,6.93-4.19,13.94-8.22,21.1-12q-11,5.7-21.5,12.13c-2.65,2.21-5.91,3.48-8.67,5.53-1.85,1.1-3.45,2.62-5.52,3.35-1.31.64-2.37,1.67-3.67,2.31a14.35,14.35,0,0,1-1.41.44c-4.93,2.94-10.09,5.67-10.85,12.29-2,4-6.09,6-8.87,9.3-2.17,1.56-3.55,5-7.2,3.15-1.12-2.64-4-4.24-4.41-7.3,2.5-4.41,6.93-6.79,10.7-9.78A456.28,456.28,0,0,1,477,72.09a21.29,21.29,0,0,1,2.36-1.25,10.73,10.73,0,0,1,1.09-.5c.52-.23,1.05-.45,1.56-.7a9.18,9.18,0,0,1,1-.5c.5-.24,1-.48,1.49-.75a10.44,10.44,0,0,1,1-.58l1.62-.94c.39-.25.79-.47,1.2-.68,2.51-1.43,5.24-2.41,7.94-4-3.63,1.57-7,3-10.34,4.71a7.8,7.8,0,0,1-1.27.5c-.6.19-1.22.33-1.83.52l-1.1.4c-.52.22-1.05.43-1.56.69a9.63,9.63,0,0,1-1,.5c-.51.26-1,.51-1.54.8-.35.23-.71.42-1.08.62-.78.43-1.54.89-2.33,1.32-20.13,7.85-36.16,21.82-52.65,35.1-1.38,1.11-2.45,2.76-4.55,2.64a7.73,7.73,0,0,1-3.4-4.26c0-2.08,1.4-3.28,2.82-4.41,12.9-10.25,25-21.61,39.8-29.28,12.9-6.68,26.3-12.21,39.54-18.14a8,8,0,0,1,3.2-.56,12.8,12.8,0,0,1,3.28.6c-.23-1.9-3.36-4,.22-5.58,2.69-1.2,7.24.81,8.06,3.58A5.77,5.77,0,0,1,510,55.6c-.2.8-1,1.34-1,2.23.8-.37,1.47-.91,2.22-1.32,5.62-2,10.9-5.34,17.27-4.35.16-.09.39-.12.48-.25,1.12-1.69-.64-4.83,2.28-5.44A7.51,7.51,0,0,1,539,49.11a12.25,12.25,0,0,0,1.17,1.1c2.77,1.19.11,5.9,3.82,6.2,2.48.21,4.78-1.38,7.23-1.87C553.13,54.15,555,53.21,556.94,54.46Z"/><path class="cls-11" d="M423.9,125.33l-6.68,2.27c-11.9-10.62-26.12-15.79-41.75-15-18.9.93-37.16,5.28-53.42,15.76-4.64,3-8,7.37-11.84,11.15-.85.83-.74,2-.86,3.07-3.9.16-5.64-2.79-7.61-5.35-1.33-1.72,0-3.05.88-4.38a49.35,49.35,0,0,1,12.82-12.43c20.66-14.55,43.7-20.89,68.83-18.69,10.35.91,20.48,3.58,28.29,11.22C416.56,116.84,420.14,121.18,423.9,125.33Z"/><path class="cls-25" d="M228.72,95.67c-2.76.38-5.34-.82-8.07-.88-2.43-.05-2.46-1.55-1.56-3.38,3.1-6.35,7.87-11.35,13.35-15.58,20.86-16.12,44.66-22.86,70.82-21a51.45,51.45,0,0,1,21.38,5.79c.91.5,2.06.78,2.49,2.49-6.46.64-12.89-.2-19.25.58s-12.79,2.4-19.14,3.82c-17.63,3-35.11,6.31-49.75,17.83C235.1,88.41,233,93.08,228.72,95.67Z"/><path class="cls-26" d="M267.94,118.92c-8.3-8.71-8.49-7.5-.19-15.35,12.13-11.48,26.89-18.24,43-22.06,15-3.55,30.08-4.21,45.1.18,2.6.76,5.16,1.49,7.23,3.26-.43,1.48-1.49,1.07-2.27,1a89.27,89.27,0,0,0-36.66,6.42,6.94,6.94,0,0,1-1.6.25c-13.66,2.33-26.94,5.85-39,13-3.82,2.25-6.45,5.82-9.67,8.75C272.05,116.06,270.66,118.38,267.94,118.92Z"/><path class="cls-27" d="M508.86,55.68c1.13-5.48-.45-6.84-6.92-5.94-.3,1.73,1.5,2.3,2,3.58.38.93,1.82,1.7.93,2.78s-2,.34-2.72-.54c-.95-1.11-2.29-.92-3.51-1.16-.12-3.51-2-3.56-4.78-2.71A169,169,0,0,0,442.65,77.5c-9.34,6.89-18.25,14.34-27.43,21.44-1.67,1.29-3.13,3.14-5.6,3a7.77,7.77,0,0,1-4.09-3.71c10.6-8.53,21-17.3,31.85-25.52a181.15,181.15,0,0,1,51.9-27.08c5.84-1.7,11.66-3.44,17.51-5.07a3.25,3.25,0,0,0,2.7-2.74c.82-3.12,1.6-3.26,4.66-2a20.47,20.47,0,0,1,1.93,1c4.9,2.73,5.47,4.64,3,10-1.39,3.22-3.25,2.5-5.25.65-1.21-4.43-3.7-1.21-5.65-.92,2.1,2.81,6.4,5.12,2.06,9.3A1.32,1.32,0,0,1,508.86,55.68Z"/><path class="cls-28" d="M409.62,102c14.6-11.59,28.54-24.08,44.52-33.81a166.44,166.44,0,0,1,41.53-18.47c1.29-.37,2.91-1.61,3.92,0a3.18,3.18,0,0,1-.92,4.71c-3.46.59-6.4,2.48-9.54,3.87C481,61.85,473,65.69,464.81,69.21c-16.25,7-29.49,18.38-43,29.38-2.81,2.29-5.49,4.75-8.23,7.13C412.35,104.39,410.27,103.92,409.62,102Z"/><path class="cls-29" d="M228.72,95.67C234.05,85.57,243,79.82,253,75.37c9.6-4.26,19.87-6.2,30-8.51,1.88-.43,3.94-.86,5.68.66l-1.09.3c-.63.39-1.43.34-2,.78l-1.12.36a7.93,7.93,0,0,0-1,.55l-1.39.44c-.57.46-1.4.38-1.94.9-5.12,3.07-10.26,6.1-15.33,9.24a73.54,73.54,0,0,0-18.41,16.77c-1.4,1.75-2.68,2.71-5,2C237.17,97.71,232.93,96.74,228.72,95.67Z"/><path class="cls-29" d="M267.94,118.92c9.93-13.1,23.24-20.68,39.12-24.17C310.57,94,314,92.91,317.5,92c1.75-.45,3.55-.89,5.07.64l-.24.13c-.54.49-1.35.42-1.89.92l-.32.17c-.53.49-1.33.43-1.87.9l-.33.2a.55.55,0,0,1-.67.46c-2.3,1.45-4.53,3-6.9,4.32a74.89,74.89,0,0,0-24,20.89c-1.75,2.37-3.72,3.41-6.5,2.23-3.51-1.5-7.48-1.33-10.91-3.09a9.74,9.74,0,0,0-1-.84Z"/><path class="cls-30" d="M478.49,72.34c-12.18,8.13-24.56,16-36.25,24.8-7.21,5.45-14.36,11-21.54,16.46-2.18-.24-3.23-1.64-3.7-3.62,16.58-14.45,33.12-29,53.77-37.62,1.32-.55,2.67-1.06,4-1.58.79-.39,1.87-.15,2.4-1.1l0,0c.72-.41,1.7-.25,2.26-1h0c.66-.51,1.64-.35,2.23-1h0c.6-.61,1.56-.41,2.18-1a.75.75,0,0,1,.77-.27c1.18-.33,2.43-.79,2.47,1.21l-.05,0c-.53.69-1.54.46-2.1,1.09l-.05,0c-.55.64-1.58.41-2.1,1.13h0c-.62.57-1.68.33-2.13,1.18l0,0C479.94,71.52,478.84,71.31,478.49,72.34Z"/><path class="cls-31" d="M336.49,153.85c2.59-.21,3.79,1.86,5.2,3.38,2.73,2.93,5.64,5.24,9.75,6.16,3.81.85,4.5,1.79,3.19,5.23-1.19,3.11,1.83,4.53,1.64,7q-.57.72-1-.06a129,129,0,0,0-15-17.79C338.92,156.49,337.29,155.56,336.49,153.85Z"/><path class="cls-32" d="M425.11,120.9c2.61-.59,4.52-2.3,6.44-4,4.19-.44,1.92,2.21,1.83,3.82a2.92,2.92,0,0,1-1.86,1.54c-1.65.64-2.27,2.77-4.26,2.92C427.15,123.45,425.44,122.52,425.11,120.9Z"/><path class="cls-33" d="M188.19,96a21.24,21.24,0,0,1,7.88-4.57c.27,3-1,4.7-4.19,4.6C190.65,96,189.42,96,188.19,96Z"/><path class="cls-34" d="M359.5,182.19a4.94,4.94,0,0,1,2.13,5.19c-1.52-.49-3-1-3.29-2.91A2.56,2.56,0,0,0,359.5,182.19Z"/><path class="cls-34" d="M355.27,180.9a9.33,9.33,0,0,1-4.65-5.19A7.12,7.12,0,0,1,355.27,180.9Z"/><path class="cls-34" d="M355.22,175.55a9.24,9.24,0,0,1,1,.06c.3,1.09,1.25,2,1.09,3.22A3.18,3.18,0,0,1,355.22,175.55Z"/><path class="cls-25" d="M285.6,68.6a1.73,1.73,0,0,1,2-.78A1.86,1.86,0,0,1,285.6,68.6Z"/><path class="cls-25" d="M280.11,70.85a1.73,1.73,0,0,1,1.95-.9A1.85,1.85,0,0,1,280.11,70.85Z"/><path class="cls-34" d="M357.37,178.86a2.06,2.06,0,0,1,1.23,2.06A1.76,1.76,0,0,1,357.37,178.86Z"/><path class="cls-26" d="M318.25,94.79a1.75,1.75,0,0,1,1.88-.9A1.67,1.67,0,0,1,318.25,94.79Z"/><path class="cls-26" d="M320.44,93.72a1.76,1.76,0,0,1,1.89-.93A1.69,1.69,0,0,1,320.44,93.72Z"/><path class="cls-34" d="M356.28,182.09a1.11,1.11,0,0,1-1-1.12A1.32,1.32,0,0,1,356.28,182.09Z"/><path class="cls-34" d="M357.3,183.26a1.3,1.3,0,0,1-1-1.15A1.3,1.3,0,0,1,357.3,183.26Z"/><path class="cls-34" d="M358.33,184.41a1.41,1.41,0,0,1-1-1.15A1.22,1.22,0,0,1,358.33,184.41Z"/><path class="cls-25" d="M283.44,69.51l1-.55A.8.8,0,0,1,283.44,69.51Z"/><path class="cls-26" d="M317.25,95.45a.85.85,0,0,1,.67-.46l-.2.45Z"/><path class="cls-26" d="M268,119l1,.84A.84.84,0,0,1,268,119Z"/><path class="cls-11" d="M215.88,124l1-.53A.73.73,0,0,1,215.88,124Z"/><path class="cls-34" d="M358.58,180.9a1.23,1.23,0,0,1,.89,1.23A1.27,1.27,0,0,1,358.58,180.9Z"/><path class="cls-12" d="M591.66,257.32l-1.94-2.26c-1.74-.19-2.31-1.72-3.24-2.84-1.82-2.93-4.22-5.46-6-8.41a8.48,8.48,0,0,1-.67-1.35c-.23-.47-.42-.94-.62-1.41s-.58-.9-.88-1.35c-.17-.22-.32-.45-.49-.67-5.71-8.23-5.69-8.24,4.31-10.24,6.16-1.23,12.37-2.1,18.59-3a8.2,8.2,0,0,1,6.19,1c5.12,5.77,7.34,12.2,4.51,19.77-.08-1.06-.15-2.12-.25-3.18,0-.16-.16-.31-.39-.74-2.43,1.25-4,3.49-5.84,5.29-2.56,2.48-4.91,5.08-8.6,6.07C594.51,254.49,592.54,255.29,591.66,257.32Z"/><path class="cls-35" d="M606.88,226.8c-8.61.27-17,2.09-25.43,3.69-2.08.39-4.27.23-6.46,1.13.36,3.47,4,5.08,4.68,8.3a1.87,1.87,0,0,1-2.42,1.26c-3.71-3.4-6.84-7.17-7.94-12.26a1.93,1.93,0,0,1,.68-2A175.27,175.27,0,0,1,596.26,223C600.3,222.74,604.29,222.91,606.88,226.8Z"/><path class="cls-36" d="M570,226.89v1.93c1.37,3.89.22,5.94-4.13,5.64l-1.43-.05c-3.32,1.27-6.39,3.33-10.15,3.25-2.51-1.25-7.21-.29-5.66-5.61a5.65,5.65,0,0,1,1.27-1c3.57-1.83,7.49-2.46,11.37-3.18C564.25,228.26,567.11,227.52,570,226.89Z"/><path class="cls-37" d="M561.26,227.86c-3.08,2.92-7.41,2.55-11,4.18-2.84-1-3-4.42-5.44-5.85-1.27-1.32-3.48-2.28-1.88-4.74,2.81-1.93,5.63-2.23,8.46,0a3.68,3.68,0,0,1,2.61,1.68c1,1.31,2,2.58,3.86,2.61Z"/><path class="cls-24" d="M529.58,67.68c4.64-4.24,10.9-4.33,16.41-6.3,4.7-1.67,9.72-2.47,14.54-3.84,2.19-.63,3.58-.56,3.57,2.14,0,2.21,1.75,1.17,2.75,1.53-.55,3.16-2.46,3.37-4.53,1.68s-4.22-1.61-6.46-1.12c.56.27-.39.12,0,.24,5.33,1.77,6.36,4.76,2.87,9.23-.68.84-1.93.93-2.49,1.84,1.26-.89,2.81-1.39,4.07-2.38a23.94,23.94,0,0,1,6-2.35c4.65-1.21,9.48-2,11.4-7.45.23-.62,1.19-.71,1.9-.86,1.11,0,2.22,0,3.33.05a12.52,12.52,0,0,1,4.63,1.64,8.3,8.3,0,0,1,2.62,6.38c-.36,5.32,2.31,4.88,5.89,3.65,5.9-2,12.61-1.83,17.57-6.42a5.45,5.45,0,0,1,3.22-.17A3.68,3.68,0,0,1,620,66.63c3.7,3.33,4.42,6.55,2,9.43-1.18,1.38-2.53,2.71-4.28.59,0-2.74-.94-3.72-4-3C599.23,77,585,80.9,571.47,87.33c-6.24,3.16-12.47,6.35-18.74,9.47-3.34,1.66-7,3.14-10.44-.15-.42-1.69.75-2.36,1.91-3,.19-.31.9-.09.84-.75a1.86,1.86,0,0,1-.79.54,16.06,16.06,0,0,0-2.3,1.41,14.81,14.81,0,0,1-1.09,1c-.19.17-.39.32-.59.48-5.33,2.48-10.77,4-16.62,1.93-2.94-1.32-1.82-2.29.19-3.46,5.13-3,10.52-5.53,15.59-8.63,3.19,0,5.75-.53,8.16-3.42,1.7-2.06,5.25-3,8.49-1.88,6,4.54,6,4.56,10.81-1.73a7.11,7.11,0,0,1,6.72-2.74c1.44.11,2.85.65,4.32.4,1.07-.18,2.41-.43,2.18-1.83s-1.62-1.35-2.65-1.09c-5.08,1.3-9.84,3.83-15.24,3.93-8.25,1.21-15.43,5.34-23,8.47C532.88,90,526.15,93,520,97.17c-1.83,1.23-4,1.68-5.94-.22-.43-2.84-2.17-3.35-4.58-2.49-2.16.77-4.08,2.12-6.36,2.62a14.12,14.12,0,0,0-2.89.93,13.84,13.84,0,0,1-1.47.67c-3.81.81-7.69,2.31-11-1.16,0-2.79,2.37-3.33,4.16-4.35,6.07-3.44,12.23-6.66,18-10.7,4.18-2.93,9.85-2.93,14.61-5,3,0,5.26-1.64,7.54-3.26,4.13-3.68,10.29-3.85,14.92-8.41-6-.55-10.36,2.66-15.3,2.85A3.57,3.57,0,0,1,529.58,67.68Z"/><path class="cls-38" d="M613.59,65.34c-.63,2.82-2,4.32-5.23,4.88-6.49,1.12-12.84,3-19.73,4.76.23-4.31,1.28-8.62-1.42-12.35-.23-.9-1.7-1.33-1-2.59l25.67,3.43C613,63.61,613.33,64.45,613.59,65.34Z"/><path class="cls-39" d="M586.24,60c.32.86.64,1.73,1,2.59L582.83,61a3.33,3.33,0,0,0-3-.13c-1.29.35-2.66,1.07-2.46,2.44.56,3.74-2.11,3.87-4.5,4.59-4.29,1.28-8.69,2.24-12.75,4.2-1.26.62-2.29.8-2.23-1.14,2.73-5.53,2.6-5.86-3.11-8a15.12,15.12,0,0,1-1.81-1.06c1.67-1.13,3.35-1.29,4.92-1.74,2-.59,3.58-.68,4.93,1.6,1.17,2,3,1.73,4.07-.49,2.29-1.3,1.54-3.67,2-5.62Z"/><path class="cls-40" d="M509.9,55.67c2.25-5.14,2-5.48-4.74-7.87-.23-1.22.93-1.31,1.52-1.85,2.5-.42,5-2,7.44.26,1.27,3,3,2.35,5,.67,1.45,0,2.89,0,4.33.07,3.74.16,5.32-.89,5.1,5.21-5.81,1.92-11.86,3.1-17.47,5.66C509.05,58,509.28,56.92,509.9,55.67Z"/><path class="cls-41" d="M556.94,54.46l-16,4.54c-.59-3.13.22-6-.74-8.79,1-1.46,2.56-1.27,3.95-1,3.54.63,7,1.49,10.58,2.14C556.6,51.67,556.94,52.89,556.94,54.46Z"/><path class="cls-42" d="M620,66.63c-1.29,0-2.17-.87-3.19-1.46a4.28,4.28,0,0,1,5.41.2C621.34,65.55,620.4,65.63,620,66.63Z"/><path class="cls-43" d="M571,86.19c9.23-3.75,18.08-8.36,28.12-10.15a126.78,126.78,0,0,0,15.16-3.36c1.38-.43,2.88-1.2,4,0s-.16,2.65-.59,3.94c-1.1-1.4-2-2.93-4.34-2A41.13,41.13,0,0,1,608,75.89c7,4.27,7,4.27,4.28,9.21-.13.45-.75,1-.4,1.28a2.32,2.32,0,0,0,2.71-.07,86.83,86.83,0,0,1,13-3.46c2-.42,3.74-.72,3.66-3.56-.06-2.18,1.78-2.94,3.81-2.8,3,.22,5.55,1.38,7.05,4.21.53,1.89.19,3.81.26,5.72s.61,3.14,2.84,2c3-.67,6-1.41,9-2,2.31-.43,4.81-.34,4.94-3.73,0-.91,1-1.53,1.91-1.66,4.51-.63,9.47,5.73,7.77,9.93-1.31,3.25-3.6,3.8-5.91,1.14-1-1.14-2-1.93-3.13-1.17-1.77,1.16-5.11-1-5.62,2.67-.62,1.28-1.51,2.48-.73,4s1.78,3.57-.5,4.66c-2.13,1-3.15-1.06-4.38-2.27a3.09,3.09,0,0,1-.57-.92c-.22-2.2-.74-3.92-3.65-3.22-5.23,1.26-10.94,1.7-12.52,8.38-1.42,1.22-2.86,2.4-4.91,2.29-1.52-.2-2.7-1.34-4.22-1.55a21.67,21.67,0,0,0-9.4.23c-5,1.35-8.19-3.4-12.31-5.17-.92-.4-1.44-1.57-2.57-1.8a9.58,9.58,0,0,0-1.42.08c-.74.18-1.45.42-2.18.64a9,9,0,0,1-1.61.38c-7-.19-13.9-1.25-20.89-1a4,4,0,0,1-3.77-1.68c-.11-4.09,3.48-3.77,5.85-4.91A15.64,15.64,0,0,0,578,90.75l1.86-1.22c3.55-3.79,8.73-3.3,13.09-5,.92-.35,1.83-.73,2.72-1.15a14.05,14.05,0,0,1,1.39-.58c1.57-.75,3.56-.91,4.47-3.7A89.69,89.69,0,0,0,582.8,84.3c-.58.31-1.2.57-1.8.84a4.44,4.44,0,0,0-1.67,1.74,2.71,2.71,0,0,1-.94.84,8.06,8.06,0,0,1-1.26.33c-1.6.23-1.7,2-2.82,2.72-1.71.22-2.54-1-3.47-2.09C570.31,87.82,571.38,87.05,571,86.19Z"/><path class="cls-43" d="M685.46,141.82a5.09,5.09,0,0,1-6.45-.15c-2.23,0-4.45.42-6.69.1-3.93-.4-8,1-11.83-.87,1.52-2.9,5-2.59,7.18-4.32,1.81-1.1,4.25-1,5.8-3.23-4-1.37-5.45,1.72-7.47,3.7-7,1.53-13.88,3.37-20.9,4.74-11.9,4.06-23.9,7.87-34.86,14.22-.6.59-1.64.3-2.13,1.09l-.05,0c-3.32-.91-1.73-2.76-.86-4.48a8.5,8.5,0,0,1,3.5-2c2-.31,3.72-1.54,5.66-2.1,1.23-.45,2.27-1.36,3.62-1.52-1.69.16-3,1.36-4.56,1.78s-2.76,1.48-4.39,1.51c-3-.71-2.29-2.25-.7-3.74a14.65,14.65,0,0,1,5-3.18c11.4-4,20.34-12.86,32.24-15.93,2.9-.75,5-4.39,8.73-2.14s7.74,2.06,11.72,1.64c2.47-.27,4.87-1.29,7.29-2s4.69-1,5.69-4.1c.7-2.22,4.43-2.69,6.64-1.51,2.76,1.48,5,8,3.18,10.55-2,2.68-3.49,5.23-3.48,8.68C687.35,139.68,686.13,140.75,685.46,141.82Z"/><path class="cls-43" d="M648,99.08c2.32-.46,2.88,3.76,4.69,2.46,2.49-1.8-1.08-3.13-1.48-4.9-.72-3.26,1.34-2.65,3-3a13.38,13.38,0,0,1,3.14.67c2.91,1.4,3.19,2.36,2,5.57-.25.66-.56,1.3-.81,1.88.93,1.4,2,.7,3,.48,4.22-1,8.41-2.1,12.62-3.14,1.78-.44,3.37-.66,3.14-3.36-.19-2.15,1.69-2.94,3.75-2.91,4.71.07,7.51,3.14,7.53,8,0,2.62-1,4.94-1.74,7.32-.47,1.46-1.47,2.67-3.15,2.43-1.51-.21-1.81-1.54-1.79-2.92a10.06,10.06,0,0,0-.26-1.6c-.36-2.3-1.61-2.88-3.82-2.27-6.08,1.67-12.2,3.2-18.29,4.84a7.51,7.51,0,0,1-3.17.5c-2.56,1.4-5.31,2.37-8,3.54a9.18,9.18,0,0,1-1.35.52,13.67,13.67,0,0,0-6.53,2.7,8,8,0,0,1-1.3.68,91.29,91.29,0,0,0-10.2,4.55c-4.61,2.73-9.45,5-14.28,7.26-1.83.86-4.09,2.15-5-1.25a4.41,4.41,0,0,1,.75-2.16c.35-1.72,3.61-1.24,2.85-3.79-.92-.68-2-.53-3.05-.63a3,3,0,0,1-1.31-.73c-1.86-3.26-.29-5.88,1.53-8.47,4-3.84,9.66-2.73,14.31-4.67,3.24.51,5.66-1.29,8.14-2.91C637.5,101.09,642.05,97.87,648,99.08Z"/><path class="cls-24" d="M655,111.24c2.92,1,3.18,3.58,3.43,6.6,2.46-.78,4.62-1.5,6.81-2.14,1.2-.36,1.89-1,1.65-2.3-.42-2.35.5-3.85,2.84-4.44,2.72-.69,5.91.31,7.34,2.33,2.5,3.51,1.08,9.36-2.77,11.28a1.5,1.5,0,0,1-1.93-.48c-.57-2-1.27-2.85-3.83-2.24a123.11,123.11,0,0,0-25.79,9.75c-10.24,5-20.19,10.56-30.24,15.92-4.86,2.58-4.86,2.57-5.87-3,.06-2.85-.34-5.77,1.42-8.32a9.5,9.5,0,0,1,3.24-2.45,28.29,28.29,0,0,1,7.32-3.84c.74-.34,1.66-.17,2.3-.66.13-.1-1.08-.37-1.16-1.12,2.3-2.91,6.13-3.26,8.88-5.39,3.69-1.7,7.29-3.59,11-5.15h0c1.67-1.63,4,1.31,5.59-.87.18-.4.38-.77.58-1.15a8.75,8.75,0,0,1,1.46-1.26h0C649.79,111.68,652.09,109.51,655,111.24Z"/><path class="cls-13" d="M730.2,174.46a115.81,115.81,0,0,1-16.44-15.33q-3.54-14.12-7.09-28.25a10.51,10.51,0,0,1-.45-2.1c0-1.82,1.33-2.68,2.86-1.71a8.88,8.88,0,0,1,3.62,4c2.33,5.45,6,9.06,12.08,10.45,3.1.71,5.9,2.66,8.52,4.64A9.47,9.47,0,0,1,737,156.47c-1.22,4.88-2.44,9.77-3.76,14.62C732.79,172.64,732.27,174.29,730.2,174.46Z"/><path class="cls-44" d="M608,142.87v3.85c3.57-1.81,6.74-3.26,9.77-5,13.54-7.57,27.3-14.69,41.8-20.29,3.39-1.3,7-1.63,10.47-2.5,2.95-.74,2.68,1.22,2.26,3.12-1.18-.06-1.25-2-2.52-1.64-4.61,1.32-9.65,1.46-13.5,4.87-2.65.33-5.26.42-7,3.09-1,1.57-3.28.07-5,1.14a47.52,47.52,0,0,1-9.22,4.6c-4.27,1.54-6.2,6.39-11.46,6.85-4.65.4-8.29,4.21-12.47,6.33-1.38.69-2.33,1.59.16,2.09a.86.86,0,0,1,.31.85c-.07.29-.15.44-.23.44a18.79,18.79,0,0,1-2.16.82,3.84,3.84,0,0,1-2.36.3,3.39,3.39,0,0,1-.95-1.41C605.91,147.7,604,144.45,608,142.87Z"/><path class="cls-45" d="M702.83,147.21c-1,2.29-2.12,3.92-5,2a48.08,48.08,0,0,0-5.67-2.92c-1.18-.62-.46-1.47-.24-2.25,1.27-4.91,2-5.42,6.24-4.52C702.7,140.44,703.56,141.87,702.83,147.21Z"/><path class="cls-46" d="M745.92,225.79a20,20,0,0,1-.47-7.15c.09-1.67,1.33-2.45,2.74-3,.8-.3,1.29.1,1.74.76a2.88,2.88,0,0,1-.08,3.5C748.71,221.64,747.55,223.35,745.92,225.79Z"/><path class="cls-47" d="M655,111.24c-2.68-.45-5.05,1.26-7.69,1.12a12.85,12.85,0,0,1,9-3.18C655.79,109.86,654.92,110.27,655,111.24Z"/><path class="cls-48" d="M645.18,88.46c-1.76,1.2-3.34,2-3.26-1.34,0-2.14.1-4.28.16-6.42,1.59,1.36.91,3.22.94,4.87S643.46,88.24,645.18,88.46Z"/><path class="cls-49" d="M614.58,86.31c-1.64,1.52-3.71,1.53-6,2.25.54-2.55,2.49-2.52,3.65-3.46C612.62,86.3,613.7,86.1,614.58,86.31Z"/><path class="cls-50" d="M431.52,122.27l.85-1.26c1.09-1.28,1.23-3,1.83-4.43,1.05-2.6,3.1-4.17,5.9-3.84,9.8,1.13,19.48-.69,29.2-.8,34.78-.42,69.56-.27,104.34-.08,3.61,0,7.17.9,10.81,1,6.81.25,7.63,1.22,7.64,8.21,0,.91,0,1.81-.1,2.71-1.89,14.08-2,28.31-3.55,42.43a27.39,27.39,0,0,1-2.27,9.22c-2.71,3.47-4.7,7.57-8.61,10-2,0-2.4-1.61-2.42-3,0-5-.15-10,2.39-14.57.34-.61,1-1.22,1-1.84.25-11.55,1.83-23,1.25-34.64-.13-2.63-.88-4-3.45-5.31-3.75-2-7.74-1.91-11.56-2.44-4.78-.66-9.58-1.63-14.49-1.58-13.4.11-26.83-.51-40.2.17-18.44.94-36.9.27-55.29,1.27-7.29.4-14.76-.22-22.05,1.57C429.77,125.86,431.92,123.26,431.52,122.27Z"/><path class="cls-51" d="M577.53,167.94c-.15,3.33,0,6.63-.79,10-.59,2.39-1.19,5.24.82,7.56-2.11,3.39-5.75,5.18-8.37,8.19a118,118,0,0,0-12.36,16.79,252,252,0,0,1,2-31.3c.62-5.54.57-11.16,1-16.74.42-5.93,1.15-11.85,1.48-17.79s2.19-8.53,8.85-8.3a24.16,24.16,0,0,0,4.34-.08,26.16,26.16,0,0,0,4.06-1.37C578.92,146.07,576.62,157,577.53,167.94Z"/><path class="cls-51" d="M551.41,221.41c-2.92.67-6-.47-8.88,1A39,39,0,0,1,521.9,224c-3-3.91-.87-8.09-.3-12,1.27-8.81.79-17.65,1.13-26.46a9.08,9.08,0,0,1,.32-1.79,27,27,0,0,0,1.17-6,9.9,9.9,0,0,1,.42-1.77c.17-1.45.11-2.9.23-4.34.45-5.67,2.68-8.21,8.11-9.25,11.21-2.16,13.68.33,11.91,11.62-1.28,8.22-1.09,16.56-1.72,24.84-.46,6.23-2.61,12.48-.46,18.76,2.13,2.19,5.13.77,7.53,1.81a2.35,2.35,0,0,1,1.2,1.06A3.21,3.21,0,0,0,551.41,221.41Z"/><path class="cls-51" d="M586.17,175.46c.27-11.22,1.88-22.36,2.55-33.56.35-5.8-.38-11.9,1.87-17.56,1.13-1.66.49-3.52.54-5.27.2-6.35,2.07-8.69,8.25-9.11a22.83,22.83,0,0,0,9.32-2.49c3.4.13,1.23,3.25,2.43,4.57-.8,2.65-3.79,5.1-.74,8.1.76,1.67-.39,3.65.89,5.23l-1,1.24c-1.45,1.49-.63,3.28-.62,5,.21.95-.39,1.76-.44,2.67-1.81,2.69-.92,5.74-1.15,8.64-2.15,2.68-.59,5.82-1.08,8.71.43.41,1.16.54,1.19,1.31-.9,1.4-2,2.8-.08,4.25-5.79,4.57-12.81,7.55-17.52,13.55C589.21,172.38,587.63,173.88,586.17,175.46Z"/><path class="cls-52" d="M645.1,141.79c2.85-1.18,5.7-2.34,8.53-3.57,2.26-1,4.26-2.42,7-.76,1.53.91,3.5-.21,5-1.4a2.66,2.66,0,0,1,2.37,1.39l-7.53,3.45c-4.06.45-7.9,2.26-12.09,2C647.18,142.85,645.86,143.2,645.1,141.79Z"/><path class="cls-53" d="M701.8,199.63c-3.66-1.24-5.09-3.83-7.78-5.52C699.47,193.41,699.47,193.41,701.8,199.63Z"/><path class="cls-54" d="M715.79,172.27c4.46-.36,4.46-.36,5.77,4.34C719.22,175.61,717.86,173.82,715.79,172.27Z"/><path class="cls-55" d="M603.54,175.71c-.92,3.26-2.54,3.93-4.73,3.52-.18,0-.44-.65-.37-.91C599.21,175.36,601.67,177.26,603.54,175.71Z"/><path class="cls-56" d="M717.48,259.08a14.74,14.74,0,0,1-1-1.91c-.37-1.15-1.08-2.36.15-3.4.14-.12.71.09,1,.3,1,.84,1.82,1.81,1,3.23C718.38,257.76,718.06,258.19,717.48,259.08Z"/><path class="cls-57" d="M672.32,141.77c2.21-1.47,4.44-1.83,6.69-.1C676.81,143.6,674.58,143.43,672.32,141.77Z"/><path class="cls-58" d="M716.31,218.61c1.8.82,3.14,1.62,2.21,3.64a1.47,1.47,0,0,1-1.28.54C715.52,221.79,715.81,220.32,716.31,218.61Z"/><path class="cls-59" d="M598.11,169.55c-.12,1.34-.73,2.36-2.19,2.4-.71,0-1.57-.74-1.21-1.28.61-.93,1.14-2.26,2.58-2.25C597.83,168.42,598.14,168.94,598.11,169.55Z"/><path class="cls-60" d="M738.19,236.82a6.16,6.16,0,0,1-.6-1.31c-.2-1.27-1.7-2.54-.09-3.81.16-.13.72,0,.94.23,1.3,1.15,1,2.51.41,3.88A8.8,8.8,0,0,1,738.19,236.82Z"/><path class="cls-61" d="M624.93,154.32c-2.27,2.05-3.44,3.27-5.27,2.38a1,1,0,0,1-.23-1.42C620.65,153.44,622.32,154.9,624.93,154.32Z"/><path class="cls-62" d="M658.92,171.3c-.11.75-.53,1.4-1.26,1.4-1,0-2.16-.22-2.23-1.55,0-.92.83-1,1.5-1C657.81,170.09,658.66,170.23,658.92,171.3Z"/><path class="cls-63" d="M677.42,147.84c.89.18,1.88.41,2,1.45s-.74,1.12-1.48,1.17c-1,.06-1.9-.14-2-1.29C675.94,148.37,676.63,148,677.42,147.84Z"/><path class="cls-64" d="M739.31,199.12c-.23.73-.7,1.33-1.49,1.19-1.13-.2-1.16-1.2-1.16-2.1s.28-1.45,1.22-1.13A2.14,2.14,0,0,1,739.31,199.12Z"/><path class="cls-65" d="M574.57,193.06a1.92,1.92,0,0,1,1.43-1.88.84.84,0,0,1,1.13.68,1.77,1.77,0,0,1-1.37,1.93C575.27,194,574.8,193.65,574.57,193.06Z"/><path class="cls-51" d="M555.89,212.74c-.22,1.48.2,3.14-1.2,4.3l-.53-.47a4,4,0,0,1-.44-1.34c0-1.22.1-2.41,1.56-2.85Z"/><path class="cls-51" d="M555.72,210.43l1.11,0a2.74,2.74,0,0,1-.94,2.29l-.27-.19A1.54,1.54,0,0,1,555.72,210.43Z"/><path class="cls-51" d="M554.69,217a2.27,2.27,0,0,1-1.14,2.12l-.46-.62a2.39,2.39,0,0,1,.16-1.49,1,1,0,0,1,1.34-.11Z"/><path class="cls-3" d="M553.55,219.16a2.86,2.86,0,0,1-2.11,1.27l-.1-.32c0-1.48.81-1.59,1.94-1.09Z"/><path class="cls-51" d="M608.11,157.1a1.91,1.91,0,0,1,2.13-1.09A2.21,2.21,0,0,1,608.11,157.1Z"/><path class="cls-50" d="M361.9,187.51a137.3,137.3,0,0,1,5.39-15.25c.32-.36.63-.73.92-1.11a4.84,4.84,0,0,1,.09-1.07c1-3.21,3.09-5.06,6.46-4.46,8.75,1.56,17.39-.23,26-.73,31.19-1.8,62.4-.72,93.59-.55,7.93,0,15.92.68,23.89.81,7.17.12,7.52.52,7.44,7.8,0,1.6.42,3.28-.52,4.79h0c-1.32,1.63.19,3.82-1.08,5.45h0c-1.17,4.62-.53,9.32-.51,14,0,8.66-2.31,17.07-2.39,25.71,0,.92-.81,1.57-1.55,2.11-3.21,1.86-6.89,2.05-10.38,2.92-3.36.23-6.52,1.85-10,1.46-2.75-2-3.52-5.49-6-7.65-5.6-4.88-12.09-2.19-18.15-1.83a110,110,0,0,0-17,2.84c-3.09.65-6.28,1.82-8.7-1.49-1.51-2-2.37-4.37-4.17-6.13-4.7-4.29-10.37-3.48-15.86-2.76-6.76.88-13.48,2.1-20.15,3.52-2.55.24-5.13,1.18-7.61-.32a13.88,13.88,0,0,1-2-1.64c-2.37-2.79-5.58-3.14-8.93-3.06-9.13.24-18,2.37-26.9,4-2.92.37-5.79,2.18-8.77.28-2.95-1.34-.94-3.54-.55-5.05,1.39-5.36,3.2-10.62,4.85-15.91Z"/><path class="cls-66" d="M292.12,247.42c-1-1.8-2.63-2.16-4.46-2.18l9.71-5.4a48.36,48.36,0,0,0,11.55,2.28c.92.45,2.07.77,1.41,2.22-.07.43-1.16,0-.73.84a1.59,1.59,0,0,1-.3,1.39,3,3,0,0,1-2,.3c4.77.17,4.77.17,14.45,7.75,0,3.18-5.12,4.09-3.55,8,2.82,1.39,6.39.89,8.77,3.42.46,2.47-1.43,2.87-3.07,3.5a1.21,1.21,0,0,1-1.36-.26h0q-14.2-10.54-28.44-21.06A8.74,8.74,0,0,0,292.12,247.42Z"/><path class="cls-67" d="M355.05,215.09l8.71-1.53c2.71.66,3.74,3.08,5.28,5s3.24,3.81,4,6.26a2.7,2.7,0,0,1-2.43,2.59c-1.83,0-2.45-1.6-3.39-2.74-1.17-1.44-1.61-3.35-2.91-4.63,0,.09-.21-.16-.05,0,.49.52-.28-.12.31.36,1.08,1.46,1.72,3.17,2.86,4.57.52,1.09,1.72,2,.94,3.44-3.49,2.5-7.12,4.65-11.63,4.6-4-2-6.31-6-9.84-8.63-2-1.89-5.12-2.06-7-4.22Z"/><path class="cls-35" d="M339.89,220.16a11.82,11.82,0,0,1,7.69,3.35c-3.19,4.06-8.42,3.62-12.56,5.61-6.47,3.1-13.31,5.36-20,7.95-2.85-.41-3.92-2.07-3.42-4.84C320.6,227.22,330.29,223.79,339.89,220.16Z"/><path class="cls-68" d="M311.59,232.23c.83,1.65,1.43,3.47,3.32,4.31a44.79,44.79,0,0,1,12.56,12.36c.2,2.62-1.32,4-3.55,4.82-2.86.2-4.83-1.61-7-3.06-1.26-1.07-2.32-2.38-3.62-3.4-1.15-1-3.23-.09-3.92-2l0,0a.8.8,0,0,1-.23-.73c.06-.25.13-.37.19-.37.74-.34.8-.71,0-1.1-2.25-2.09-4-4.68-6.5-6.52Z"/><path class="cls-69" d="M328,213.8c1.66,0,2.09,1.09,2.13,2.52.05,2.13-3.17,6.41-5.27,7a2.78,2.78,0,0,1-3.37-2.61C321.19,218.14,325.38,213.7,328,213.8Z"/><path class="cls-70" d="M302.93,236.62c4.43-.09,5.38,3.3,6.5,6.52-4.32,0-8.81.64-12.06-3.3Z"/><path class="cls-71" d="M324.64,196.31a6.71,6.71,0,0,1-.09,1.55,2.66,2.66,0,0,1-5.23-.16,38.6,38.6,0,0,1-.05-4.81c.08-1.55.79-2.85,2.5-2.94,2.05-.11,2.74,1.32,2.86,3.11C324.68,193.77,324.64,194.48,324.64,196.31Z"/><path class="cls-69" d="M306.2,214.44a14.67,14.67,0,0,1-.29,2.59c-.59,2-2.14,2.24-3.73.86S300.54,214.7,300,213c-.66-1.88.28-3.18,2.21-3.54s3.26.27,3.79,2.17A16,16,0,0,1,306.2,214.44Z"/><path class="cls-72" d="M269.62,230.16a5.74,5.74,0,0,1,4.61,2.91,2.19,2.19,0,0,1-.9,2.84c-2.19,1.46-4.16.31-6-.83-1.19-.74-2.68-1.67-2.13-3.35S267.34,230,269.62,230.16Z"/><path class="cls-72" d="M280,217.33c2.14,0,6.34,3,6.33,4.42,0,2-1.33,2.78-3.17,2.79-2.75,0-5.28-2-5.3-4.22C277.87,218.75,278.41,217.53,280,217.33Z"/><path class="cls-73" d="M283.71,202.64c-1.88-.2-3.8-3.18-3.66-5.5.12-1.92,1.54-3.2,3.16-2.85s3.54,3.53,3.24,5.72C286.22,201.64,285.35,202.65,283.71,202.64Z"/><path class="cls-74" d="M257.79,211.68c2.34,0,4.75,2.25,4.71,4.31,0,1.63-.77,2.8-2.48,3-2,.21-5.22-2.8-5-4.64A2.78,2.78,0,0,1,257.79,211.68Z"/><path class="cls-75" d="M246,241a9.68,9.68,0,0,1-2.17-.35,2.77,2.77,0,0,1-1.84-3c.05-1.61,1.07-2.12,2.49-2.15.72,0,1.44,0,2.15,0,1.94,0,3.83.46,3.76,2.82S248.33,241,246,241Z"/><path class="cls-76" d="M346.36,205.12c2,0,3.19.83,3.2,2.48a3.67,3.67,0,0,1-3.24,3.68c-2,.37-2.94-.91-3.05-2.78C343.13,206.12,345.12,205.81,346.36,205.12Z"/><path class="cls-66" d="M365,268.12c-9.34-6.13-17.69-13.66-27.22-19.53-1.68-.65-3.87-.78-3.52-3.48,1.59-2.38,4.12-3.23,6.66-4,3.76-.7,7.06,2.42,11.17,1.37-.16-2.36-3.25-4.27-1.14-6.84a8.52,8.52,0,0,1,4.3-2.78,2.89,2.89,0,0,1,1.41.29c2,1,3.29,2.86,4.95,4.27a159,159,0,0,1,16,18c.11,1.53-.49,2.43-2.13,2.43-1.64-1.61-2.82-3.65-4.63-5.11a6.71,6.71,0,0,1-1.15-1.55,9.18,9.18,0,0,0-1.23-1.34c-.4-.42-.82-.83-1.24-1.24s-.79-.81-1.19-1.2-.75-.73-1.08-1.12a1.91,1.91,0,0,1-.42-.81l-.39-.17.33.3a7.35,7.35,0,0,0,.56.78c.34.4.72.75,1.09,1.11l1.18,1.18c.4.42.82.83,1.24,1.25a9.77,9.77,0,0,1,1.24,1.4,3.67,3.67,0,0,0,.68,1.14c1.66,1.89,4.3,3.17,3.91,6.32-2.51,3-5.69,5.37-8.27,8.32h0A2.46,2.46,0,0,1,365,268.12Z"/><path class="cls-77" d="M419.31,274.84c-.47,1.54-1.69,2-3.11,2.18l-2.07-1.28a16.65,16.65,0,0,0-6-9.6,24.34,24.34,0,0,1,2.79,3.11,1.46,1.46,0,0,1-.22,1.42,1.63,1.63,0,0,1-2.08-.31l-3.31-2.16a149.35,149.35,0,0,1-11.79-9.47c-2.07-1.92-4.28-3.31-7.22-3.16-1.82-.57-3.85-1-3.18-3.68,2-2.31,4.39-4,7.61-4.06,2.15.36,4.12,1.31,6.22,1.84,1,.26,2.24.75,3-.18.93-1.09-.26-2-.71-2.88-.57-1.14-1.18-2.25-.75-3.59a10,10,0,0,1,4.75-2.73c2.57-.23,4,1.2,4.84,3.4,2.32,6.29,8.15,9.81,11.86,15,1.43,2,4,3.21,4.26,6-.69,2.16-2.66,3.29-3.94,5-1.05,1.39-3.36,2.48-1.88,4.9A3.77,3.77,0,0,0,419.31,274.84Z"/><path class="cls-70" d="M383.72,251.93c-.2,2.18,1.72,2.46,3,3.33.37.19.5.4.39.62s-.22.35-.33.35a7.24,7.24,0,0,0-5.5,1.87c-4.11,3.59-9.43,5.24-13.63,8.68-.36.3-1,.22-1.56.32,1.06-4.23,4.56-6.28,7.71-8.65a2.17,2.17,0,0,1,1-1,2.18,2.18,0,0,0,2.21-2.29C379,253.6,380.68,251.29,383.72,251.93Z"/><path class="cls-35" d="M334.68,245.37c.35,1.71,2.33,1.88,3.07,3.22-5.85,2.73-11,6.7-16.53,9.91-1.58.91-3,2-3.05,4.1a1.89,1.89,0,0,1-.82-2.69,10,10,0,0,1,3.91-4.86,7.76,7.76,0,0,1,2.33-2.09c1.55-1.09,3.37-2,3.17-4.35C329.64,248.11,331.34,244.73,334.68,245.37Z"/><path class="cls-78" d="M386.76,256.23c0-.33,0-.65-.06-1a3.44,3.44,0,0,1,4.88.16c4.39,4.47,10.16,7.46,13.75,12.78-2.09-.17-3.68-1.35-5.3-2.54C395.64,262.47,391.18,259.37,386.76,256.23Z"/><path class="cls-79" d="M408.64,270.36h2.14v0c-1.39-2.77-4.41-4.16-5.61-7.17a33.87,33.87,0,0,1,9.67,9c.84,1.1-.28,2.37-.7,3.52C411.72,274.54,409.58,273.06,408.64,270.36Z"/><path class="cls-80" d="M368.26,275.83c.68-1.35,2.62-.82,3.28-2.19,4.66-.91,4.66-.91,5.44,4.37C374,277.41,370.94,277.47,368.26,275.83Z"/><path class="cls-81" d="M323.56,269.14c.95-1.24,2.87-1.42,3.38-3.12a16,16,0,0,1,1.46,2.12c1.33,2.79-.23,3.4-2.62,3.31a2.34,2.34,0,0,0-2.14-1.1.72.72,0,0,1-.35-.79Q323.41,269.14,323.56,269.14Z"/><path class="cls-70" d="M365,268.12l1.11-1C365.8,267.53,366.68,269.22,365,268.12Z"/><path class="cls-82" d="M480.42,275.88c-2.18,2.16-5.06,3.05-7.78,4.2-1.44.62-3,1-4.09,2.22l-.48,0h-.47c-2.1-3.14-5.53-4.54-8.45-6.62-6.62-4.71-13.16-9.52-19.74-14.28a16,16,0,0,0-1.4-.81c-1.59-.64-3.69-.73-3.59-3.25,1.34-2.45,3.88-3.12,6.2-4.1a6.28,6.28,0,0,1,3.6,0,11.46,11.46,0,0,1,1.88.78c.4.18.79.38,1.17.57a6.49,6.49,0,0,0,2.55.43c.89,0,1.77,0,2.62-.05a2.75,2.75,0,0,0,.89-.25.68.68,0,0,0,.12-.76,4.82,4.82,0,0,0-.58-.69s-.32-.35-.34-.35a5.21,5.21,0,0,1-.69-.79,6.67,6.67,0,0,1-.59-1,10.56,10.56,0,0,1-.72-1.65c0-.21,0-.42-.08-.63a3,3,0,0,1,.35-1.24,4.43,4.43,0,0,1,2.23-1.36c1.27-.29,2.25-1.59,3.75-1.16,1.67,1.3,3.31,2.63,4.89,4.05,6.41,6.19,12,13.11,18,19.67,1.2,2.28-2.09,3.57-1.28,5.78Z"/><path class="cls-35" d="M435,257.36c.35,1.71,2.32,1.88,3.06,3.22-5.85,2.73-11,6.7-16.53,9.91-1.58.91-3,2-3.05,4.11-2-1.31-.84-2.76-.1-4.09,1.31-2.34,3.38-4,5.42-5.66A7.14,7.14,0,0,1,426,262C429.16,260.71,431,256.92,435,257.36Z"/><path class="cls-82" d="M499.18,228.94a27.12,27.12,0,0,1,9.73-2.13c2.67,1,4.28,3.24,6.21,5.12,2.23,3.25,4.73,6.34,6.31,10,.6,2.6-2.49,4.67-1,7.39,5.15,8.9,11.72,16.43,20.65,21.72a5.09,5.09,0,0,1,2.93,1.88,4.43,4.43,0,0,1,.73,1.19c0,.24,0,.47,0,.7-5.1,3.2-10.75,5.22-16.27,7.51a8.73,8.73,0,0,1-3.3-2.11c-2.25-4.56-7-6.41-10.46-9.73-2.81-2.74-6.44-4.57-9.06-7.68,0-.64-1.07.22-.36.11.2,0,.2.15.28.47.21,1,.35,1.81-1.1,1.61l-5.36-3.37c-1.59-1.16-4.66-1.1-3.68-4.41,2.11-2.16,4.42-3.93,7.64-3.93,3.25.53,6.17,2.48,9.76,2.66-.22-4.51-3.18-4.37-6-4.38a2.5,2.5,0,0,1-1.7-1.37c-.35-1.85,0-3.9-1.48-5.44-1.82-2.53-4.77-4.12-5.95-7.16.3-.61.37-1.06-.59-.73-1.32-.84-2.47.09-3.68.39a4.17,4.17,0,0,1-1.48-.31c-1.62-1.71-5.47-1.49-4.63-5.33C491,229.72,494.57,226.93,499.18,228.94Z"/><path class="cls-83" d="M496,257.37c-.33,2.44,2.59,2.48,3.15,4.25a59.78,59.78,0,0,0-20.71,13c-2.12-2.22.87-3.5,1-5.31C483.66,263.6,489,259.36,496,257.37Z"/><path class="cls-84" d="M504.48,265c1.54-2.27-2.82-2.68-1.53-4.89,1-.68,1.69.12,2.28.71,5.74,5.7,12.53,10.14,18.59,15.44,1.25,1.09,2.69,2,1.36,4l-1.06-.9A4.76,4.76,0,0,0,523,278l.06.07A.64.64,0,0,0,522,278a1.35,1.35,0,0,1-1.1-1,7,7,0,0,0-1.25-1.18A80.39,80.39,0,0,1,504.48,265Z"/><path class="cls-82" d="M519.61,275.82l1.25,1.18Z"/><path class="cls-82" d="M522,278c.43-.8.77-.6,1.07.09A4.84,4.84,0,0,1,522,278Z"/><path class="cls-82" d="M523,278l1.15,1.3Z"/><path class="cls-12" d="M468.55,282.49l1.09,1Z"/><path class="cls-12" d="M323.56,269.14c0,.4.05.81.08,1.21l-1.13-1.09Z"/><path class="cls-12" d="M529.57,283.46c1.59-1.34,1.6.42,2.16,1.1A2.24,2.24,0,0,1,529.57,283.46Z"/><path class="cls-12" d="M543.77,273.64l-2.31-2.05c-7.59-6.41-15.51-12.51-20.32-21.54.28-1.92,1.81-2.57,3.29-3.25a217,217,0,0,1,24.17-9.48,12.11,12.11,0,0,1,5.32-.16,4,4,0,0,1,3.41,1.76c1.68,2.15,3.84,3.89,5.5,6.06,1.76,2.94,4.37,5.12,6.76,7.49,2.15,2.91,6.37,4.52,5.79,9.15,0,.38,0,.75,0,1.12l-29.48,12-1.13.05h0C544.54,274.33,544.07,274.06,543.77,273.64Z"/><path class="cls-66" d="M556.83,239.85l-2.36-2.11a.72.72,0,0,1-.26-.66c0-.24.11-.36.17-.36,3.11-.95,6.61-1,8.82-4,.23-.32.92.19,1.23.65-.34,2.46,1.17,4,2.8,5.41,2.45,4.09,5.12,8,9.47,10.32a22.82,22.82,0,0,0,4.21,3.51.59.59,0,0,0,.85.05c-.32-.05-.66,0-.94-.22-1.17-1.43-3-2.11-4.11-3.59-2.72-3.21-5.83-6.16-7.69-10-.7-1.44-1.74-.68-2.6-1-1.19-1.27-2.29-2.58-2-4.51a17,17,0,0,1,2.14,0c2.32.26,3.33-.62,2.88-3-.08-.45.35-1,.54-1.49.29.2.82.38.84.61.49,4.85,4.93,7.31,6.79,11.31.73,1.09,2.42,0,3,1.37a5.05,5.05,0,0,1,.26.92c.42.53.19.94-.22,1.31-.7.18-.29-.59-.4.12,0,.27.36.55.67.76,2.11,2.24,3.86,4.81,6.39,6.62l2.37,3.22c-.32.61-.51,1.58-1,1.76-4.43,1.65-8.37,4.7-13.36,4.8-1.27-3.61-4.68-5.58-6.63-8.68a47.09,47.09,0,0,0-6.51-10.1C560.88,241,558.44,241.19,556.83,239.85Z"/><path class="cls-50" d="M553.28,219a2.79,2.79,0,0,0-1.94,1.09l-9.77.12c-1.75-8.86.64-17.6,1-26.39.41-9.74,1.87-19.44,1.65-29.21-.16-7-2.26-9.37-9.23-10.64-17.76-3.22-35.68-3.57-53.65-2.4-2,.13-4,.59-6,.54-21.76-.59-43.49,1.06-65.24,1.14a25.73,25.73,0,0,1-6.5-.37c-1.71-.43-3.8-.77-2.73-3.48a24.91,24.91,0,0,1,2.29-6.59c2.32-3.22,4.93-5.37,9-2.6a2.56,2.56,0,0,0,1.58.29c17.1-1.86,34.27-2.15,51.45-2,12.82.09,25.65,0,38.47,0,2.34,0,4.68.13,7-.74a6.33,6.33,0,0,1,3.75-.21c5.53,1.63,11.19,1.09,16.76.87,9.61-.37,19.08,1.39,29.06,1.28-.17,7.91-1.14,15.53-2,23.14a37.75,37.75,0,0,0-.34,5.4c.22,6.9-1,13.64-1.91,20.44-.58,4.65-.22,9.42-.27,14.13,0,2.54,0,5.08,0,7.62l-.09,2.12c-1.1.85-1,2.09-1.08,3.27a5.77,5.77,0,0,1-1,1.18Z"/><path class="cls-23" d="M400.93,149.42c.26,1.89,1.55,2.25,3.16,2.17,10.12-.51,20.3,1.06,30.38-1a21.73,21.73,0,0,1,4.35-.1c12.35,0,24.76.71,37-.23a338.74,338.74,0,0,1,34.74-.73A133.59,133.59,0,0,1,538,152.81c6.21,1.47,6.6,2.45,6.94,9,.53,10.18-.82,20.26-1.37,30.37-.52,9.35-2.07,18.66-1.95,28.07-2.18-4.83-1-9.84-.69-14.79,0-.88.65-1.76.59-2.61-.54-7.07,1.81-14,1.14-21-.45-4.75,1.64-9.24,1.13-14-.17-1.58.34-3.26-.82-5-2.74.91-5.65.44-8.48.79-5.22.65-8.2,1.69-8.17,8.47,0,1.9.74,4-1.07,5.62,0-2.36-.1-4.72,0-7.07.16-2.78-1-3.9-3.78-3.85-6.34.12-12.72.43-19,0-29.87-2.25-59.76-.5-89.64-.93-8.09-.12-16.17.91-24.22,1.89-4.1.49-8.39.89-12.42-.34-3.5-1.07-6-.36-7.84,2.69-.69-3.73,3.17-4.89,4.3-7.59a4.12,4.12,0,0,1,3.32-3.2c6.32-4.32,13.06-7.28,21-6.69C399.08,152.77,399.53,150.43,400.93,149.42Z"/><path class="cls-76" d="M394.4,139.18c0,3.67-1.13,5.69-3.13,5.78s-3.34-1.89-3.36-5.2a6.57,6.57,0,0,1,.15-2.13c.51-1.59,1.42-3.15,3.25-3s2.66,1.63,3,3.32A6.67,6.67,0,0,1,394.4,139.18Z"/><path class="cls-69" d="M375.92,159.29a7.06,7.06,0,0,1-3.32,3.2c-.92-.13-1.78-.39-2.05-1.42-.52-2-2-4-.46-6.12a2.28,2.28,0,0,1,2.85-.87A4.82,4.82,0,0,1,375.92,159.29Z"/><path class="cls-85" d="M349.73,142.79c0-1.75.11-3.08,1.44-3.69,1.77-.81,2.56.72,3.46,1.76a8.73,8.73,0,0,1,1,1.89c.83,1.68.72,3.23-1.1,4.08-2,.95-3.47.07-4.25-1.9A13.72,13.72,0,0,1,349.73,142.79Z"/><path class="cls-23" d="M368.21,171.15l-.92,1.11Z"/><path class="cls-23" d="M610.21,108c-3.13,3.13-7,3.43-11.17,3.37-4.8-.08-7,2.51-7.36,7.4-.15,1.89.72,4-1.09,5.57l0-7.08c0-1.76-.84-2.83-2.64-2.66-5.65.51-11.14-1.16-16.75-1.15-33,0-66.11-.31-99.15.21-8.4.13-17,.1-25.35,1.78a9,9,0,0,1-5.27-.8c-3.53-1.41-5.1-.67-6.68,2.89-.58,1.31-.83,2.82-2.35,3.48.19-.85.33-1.72.56-2.57.35-1.28-.41-1.48-1.38-1.53,2.36-3.48,6.66-5.08,8.65-8.91a20.38,20.38,0,0,1,14.17-7.63l3.45-.89c1.4-.12,2.85,0,4.08-.92,1.11-.36,2.2-1.19,3.41-.23,6.11,1.76,11.71,1.9,16.78-3.14,2.94-2.92,6-6.32,10.65-6.71-.52,4.61-5.57,5.11-7.48,8.31a2.46,2.46,0,0,1,2.85.18c2.87,2.22,6.08,1.1,9.17.87,1-.08,2-.72,3.11-.52,4-.1,7.9-1.3,11.94-.92,3.8,2.45,7.86.53,11.79.7,5.81,2.07,11.11.28,16.31-2.2a2.68,2.68,0,0,1,2.24,1.17c3.11,2,6.15,1.19,9.13-.28,6.41-3.17,12.79-6.4,19.18-9.6,3.64.67-.6,1.46,0,2.18a1.23,1.23,0,0,1,.33.9c0,.34-.06.5-.12.5-2.48,3.07-6.56,2.8-9.91,4.78,2.52.86,5.25-.67,7.36,1.14.73,1.28,2,1.41,3.25,1.4a44.79,44.79,0,0,0,5.91,0c5.89-.8,11.51,1.61,17.34,1.29,1.08-.28,2.47.15,3-1.33.76-.87,1.73-.94,2.12.11.93,2.53,3,3.42,5.27,4.13.35.1.81.07,1,.29,3,2.92,5.92,3.65,9.94,1.45,1.65-.9,4.49.38,6.79.67C619.86,107.8,615.18,108.34,610.21,108Z"/><path class="cls-86" d="M488.11,97c-2.1,0-3.79,2.14-6.37,1.09,3.27-3.82,7.94-5.8,11-9.58,8.71-5,17.54-9.78,27.27-12.65,1.82-.54,3.47-1,4.88.7,1,.59.93,1.25.14,2-4.25,1.28-8,4.1-12.74,3.89a2.14,2.14,0,0,0-1.46.63c-5.93,6.36-14.39,8.52-21.46,13C488.93,96.28,488.53,96.65,488.11,97Z"/><path class="cls-87" d="M506.68,65.34c8-3.43,16.06-5.3,23.9-7.79,1.36-.44,2.41-.62,3,1s.44,2.75-1.3,3.5a12.2,12.2,0,0,1-6.82,1.16c-2.84-.43-5.34,0-6.67,3.2-1.18,2.79-4.31,3-6.6,4.34-1,.55-1.73-.11-2.09-1C509.49,68.06,507.9,67.05,506.68,65.34Z"/><path class="cls-88" d="M470.66,83.94a170.9,170.9,0,0,1,26.4-14.75c-.87,1.62-.36.66-.23,1.37,0,.17,0,.47-.07.52q-12.33,7.13-24.68,14.22C470.9,85.58,470.48,85.07,470.66,83.94Z"/><path class="cls-89" d="M454.37,100.37c-5.11,1.83-9.44,5.08-14.17,7.63-.77-3,.83-5,2.95-6.84,2.78-2.47,5.19-5.4,9.08-6.22.47,2-1.35,2.58-2.39,3.63-.51.52-.71,1-.24.46a3.55,3.55,0,0,1,.42.28C451.17,100.87,452.87,100.21,454.37,100.37Z"/><path class="cls-90" d="M487,67.62c-.55-1-1.56-1-2.47-1.21,4.74-2.71,9.64-5,15.17-5.84C496.13,64.11,491.59,65.88,487,67.62Z"/><path class="cls-91" d="M494.68,80.7l-17.45,9.74c-.49-.29-1.15-.39-1.3-1.09a128.88,128.88,0,0,1,17.43-9.85C494.62,79,494.82,79.66,494.68,80.7Z"/><path class="cls-92" d="M475.93,89.35l1.3,1.09L467.42,97c-.47.72-1.6.41-2,1.24l-.11.07-3.05,1.14c-1.26.39-1.58-.19-1.37-1.32A129.27,129.27,0,0,1,475.93,89.35Z"/><path class="cls-93" d="M470.66,83.94l1.42,1.36c-2.56,2.45-5.87,3.64-8.85,5.39-1.19.4-1.43-.16-1.21-1.19C464.82,87.53,467.5,85.36,470.66,83.94Z"/><path class="cls-94" d="M525,78.49c0-.65-.09-1.31-.13-2,2,0,3.13-1.43,4.53-2.45h.73a3.62,3.62,0,0,1,2.62,1.06C530.81,77.68,527.82,77.85,525,78.49Z"/><path class="cls-95" d="M494.68,80.7l-1.32-1.2a17.17,17.17,0,0,1,8-3.56C499.16,78.94,496.79,79.64,494.68,80.7Z"/><path class="cls-96" d="M450,99.31c-.8.16-1.44,1-2.92.44,1.67-1.87,4.22-2.59,5.13-4.81l1.13,0c.43.33,1.07.45,1.1,1.16Z"/><path class="cls-97" d="M509.9,55.67c.17.83.11,1.78,1.14,2.15-1.18,1.49-2.91,1.52-4.86,1.91-.18-2.27,2.53-2.36,2.68-4C509.21,55.67,509.56,55.66,509.9,55.67Z"/><path class="cls-98" d="M462,89.5l1.21,1.19A15.72,15.72,0,0,1,457.8,94c-1.18.51-1.34-.09-1.16-1Z"/><path class="cls-94" d="M529.58,67.68l2.43.14c.18,2.49.77,5.11-2.17,6.56l-.41-.3Z"/><path class="cls-99" d="M460.89,98.15l1.37,1.32c-1.48.6-2.95,2.92-4.44,0l-.09,0c.45-.84,1.56-.57,2.11-1.24A7.38,7.38,0,0,1,460.89,98.15Z"/><path class="cls-100" d="M456.64,92.91l1.16,1-3.35,2.18L453.36,95Z"/><path class="cls-90" d="M483.8,66.68a2,2,0,0,1-2.18,1A2.24,2.24,0,0,1,483.8,66.68Z"/><path class="cls-90" d="M481.6,67.67a2,2,0,0,1-2.23,1A2.13,2.13,0,0,1,481.6,67.67Z"/><path class="cls-90" d="M484.89,68.73a2,2,0,0,1,2.1-1.09A2.13,2.13,0,0,1,484.89,68.73Z"/><path class="cls-90" d="M479.39,68.68a1.79,1.79,0,0,1-2.26,1A2.26,2.26,0,0,1,479.39,68.68Z"/><path class="cls-90" d="M482.74,69.89a1.89,1.89,0,0,1,2.1-1.13A2.2,2.2,0,0,1,482.74,69.89Z"/><path class="cls-23" d="M459.84,98.2a2.37,2.37,0,0,1-2.11,1.24C458.07,98.41,458.9,98.2,459.84,98.2Z"/><path class="cls-23" d="M465.42,98.26a2.35,2.35,0,0,1,2-1.24A2.07,2.07,0,0,1,465.42,98.26Z"/><path class="cls-90" d="M478.49,72.34c.26-1.18,1.1-1.4,2.15-1.28A2.49,2.49,0,0,1,478.49,72.34Z"/><path class="cls-90" d="M480.61,71.08a1.79,1.79,0,0,1,2.13-1.18A2.26,2.26,0,0,1,480.61,71.08Z"/><path class="cls-90" d="M477.17,69.68c-.45,1.13-1.35,1.27-2.4,1.1A2.49,2.49,0,0,1,477.17,69.68Z"/><path class="cls-101" d="M514.12,46.21c-2.45-1.11-5,.06-7.44-.26,1.77-1.81,4.24-1.73,6.42-2.12S514.54,45.07,514.12,46.21Z"/><path class="cls-102" d="M587.35,251.84a11.46,11.46,0,0,1-7.66-7.6l0,0L580.9,243A33,33,0,0,1,587.35,251.84Z"/><path class="cls-102" d="M580.65,242.11c-1.16-.12-2.5.15-3-1.36l2-.84v0a8.11,8.11,0,0,1,1.07,1.19A9,9,0,0,1,580.65,242.11Z"/><path class="cls-35" d="M580.74,241.08c-.36-.4-.71-.8-1.07-1.19C580,240.28,580.38,240.68,580.74,241.08Z"/><path class="cls-12" d="M520.82,242.05a64.77,64.77,0,0,1-6.62-9.69c-.25-2.17,1.42-2.94,2.92-3.22,9.51-1.78,18.91-4.59,28.77-3.42,2.66,1.28,2.86,4.26,4.38,6.32l-1.06.21c-7.14,6.24-16.62,7.41-24.81,11.36C522.9,244.33,521.63,243.47,520.82,242.05Z"/><path class="cls-83" d="M520.82,242.05c1.52,1,2.9.68,4.54,0,7.91-3.36,15.89-6.54,23.85-9.78-.34.81-.92,1.68.27,2.25,1.62.78,3.27,1.49,4.9,2.22a3,3,0,0,1,.09,1c-4.65-.25-8.69,2-12.85,3.44-6.06,2.12-11.88,4.92-17.84,7.33a2.53,2.53,0,0,0-1.86,2.3c-1.19.51-1.69-.28-2.16-1.13-1.76-2.08-2.58-4,.53-5.71C520.69,243.75,520.65,242.71,520.82,242.05Z"/><path class="cls-103" d="M545.89,225.72c-1.06,1.38-2.6,1-4,1.06-8.33.21-16.33,2.63-24.55,3.58a4.32,4.32,0,0,0-3.13,2,24,24,0,0,1-5.29-5.55c3.06-1.64,6.6-1.29,9.79-2.4a22.24,22.24,0,0,1,3.31-.73c6.84-.51,13.63-1.77,20.52-1.31C543.13,224,545,224.34,545.89,225.72Z"/><path class="cls-104" d="M562.44,76.46c3.3-.07,6.35-1.17,9.43-2.22,2.39-.82,4.82-1.49,7.23-2.24,1.92-.6,2.52.56,3,2.1s.4,2.81-1.28,3.59a7.69,7.69,0,0,1-5.71.44c-5-1.38-6.07-.74-7.92,4.1A3.69,3.69,0,0,1,565,84.35c-1.79.84-3.56,1.73-5.52,2.68-1.27-1.77-1-4.43-3.39-5.32-2-.79-2.3-1.73-.22-2.82S560.3,77.42,562.44,76.46Z"/><path class="cls-105" d="M529.84,74.38c2-1.76.35-4.74,2.17-6.56,4.15-1.28,8.29-2.6,12.47-3.81,1.2-.35,2.7-1.66,3.58.5s.55,3.67-2,4.5c-2.75.88-5.36,2.2-8,3.29a15.38,15.38,0,0,0-5.21,2.84C531.77,75,530.5,75.87,529.84,74.38Z"/><path class="cls-106" d="M524.12,97.1a15.25,15.25,0,0,1-12-.18c.06-1.45.94-1.59,2.09-1.32,1.71,2.59,3.76,1.33,5.63.37,4.91-2.55,9.75-5.24,14.65-7.81,1.56-.83,3.06-1.88,4.94-2-3.28,3.7-8.14,4.9-12,7.62-1.31.9-3.07,1.25-4.18,2.31C522.24,97,523.63,96.89,524.12,97.1Z"/><path class="cls-106" d="M562.44,76.46c-1.79,1.53-4,2.08-6.16,2.85-1.81.65-.53,1.56-.21,2.4-3.86-.15-7.8-1-9.49,4.32a3.17,3.17,0,0,1-5.29,1,6.1,6.1,0,0,0-1.91-.82c1.5-3,4.73-3.22,7.34-4.14C552,80.21,556.59,76.59,562.44,76.46Z"/><path class="cls-107" d="M514.16,95.6a3.31,3.31,0,0,0-2.09,1.32c-3.86,1.2-7.71,2.6-11.68.4h-.12c.43-.92,1.52-.67,2.16-1.22a53.82,53.82,0,0,0,6.24-2.92c2.51-1.57,4.28-.35,6.09,1.09C514.86,94.34,514.37,95.14,514.16,95.6Z"/><path class="cls-108" d="M527.17,87.07a5.84,5.84,0,0,1-.76.36,5.93,5.93,0,0,0-1.23.89l-6,3.51c.7-4.92,4.31-4.79,7-5.81C527.29,85.68,527.54,86.09,527.17,87.07Z"/><path class="cls-109" d="M543.81,92.91c1.56-.93,2.94-2.42,5.41-1.82-.78,2.12-2.42,2.53-4,3C544.13,94.44,543.67,94,543.81,92.91Z"/><path class="cls-110" d="M557.85,70.94c.41,1,1.39.94,2.23,1.14a8.32,8.32,0,0,1-5.86,2C554.73,71.85,556.62,71.81,557.85,70.94Z"/><path class="cls-111" d="M548,75.42c-.14,1.49-1.28,2-2.54,2.13-.65.08-1.57-.22-1.39-1.17.28-1.5,1.68-1.61,2.85-1.91C547.57,74.3,547.79,74.83,548,75.42Z"/><path class="cls-112" d="M528.41,84.85c1.37-1.23,3.16-.94,5.18-2.17-1,2.6-2.78,2.73-4.07,3.49C529,85.82,528.36,85.64,528.41,84.85Z"/><path class="cls-113" d="M543.81,92.91l1.41,1.2-2.55,2c-.91-.07-2,.11-2.24-1.17l0,0a5.18,5.18,0,0,0,1-1.08Z"/><path class="cls-114" d="M528.41,84.85l1.11,1.32-2.35.9-1-1A3.17,3.17,0,0,1,528.41,84.85Z"/><path class="cls-4" d="M579.79,60.85a1.91,1.91,0,0,1,3,.13A5.17,5.17,0,0,1,579.79,60.85Z"/><path class="cls-23" d="M502.43,96.1a2.27,2.27,0,0,1-2.17,1.22C500.58,96.19,501.44,96,502.43,96.1Z"/><path class="cls-114" d="M525.18,88.32a1.27,1.27,0,0,1,1.23-.89A1.27,1.27,0,0,1,525.18,88.32Z"/><path class="cls-23" d="M541.46,93.8l-1,1.08Z"/><path class="cls-115" d="M609.15,93.68c7.66-3,15.52-4.21,23.13-6.32,1.27-.34,2.5-.46,3,1.3s-.07,2.65-1.77,3.28a12.22,12.22,0,0,1-6.39.66c-2.59-.4-5-.33-6.39,2.69-1.17,2.63-4.15,2.65-6.32,3.83-.9.49-1.64.13-2.2-.83C611.33,96.79,610.29,95.38,609.15,93.68Z"/><path class="cls-116" d="M648,99.08c-5.13,1.44-10.22,3-14.87,5.66-1.32.78-2.2.66-2.26-1.12.24-.26.68-.51.69-.78.1-5,3.52-6.33,7.64-7,2.1-.36,4.14-1,6.22-1.56,1.17-.28,2.72-1.13,3.39.17C649.55,95.9,650,97.85,648,99.08Z"/><path class="cls-37" d="M581.5,83.82c2.45-2.52,6-2.39,9-3.52a80.1,80.1,0,0,1,9.95-2.66c1.12-.27,2.57-.9,2.73,1.3.1,1.39.89,2.84-1.27,3.42-1.9.51-3.58,1.76-5.64,1.79C591.34,83.61,586.37,86.16,581.5,83.82Z"/><path class="cls-117" d="M581.5,83.82a45.66,45.66,0,0,1,11.31-.9c1.29,0,2.55.08,3.43,1.23h-.07c-.71.41-1.66.26-2.24,1A6.59,6.59,0,0,1,589.56,87c-3.91-.18-6.69,2-9.73,3.75-1.05.38-1.53-.24-1.87-1.08a2.34,2.34,0,0,1,.75-2.28l0,0c.88-.94,0-2.45,1.09-3.32Z"/><path class="cls-118" d="M610.21,108l13.15-4.33c1.66-.17,1.92,1.69,3.13,2.18.65,1.42-.45,1.65-1.37,2-3.94.94-7.6,3.08-11.87,2.73-.84-.07-1.61.67-2.12,1.46C607.65,111.41,610.07,109.45,610.21,108Z"/><path class="cls-119" d="M568.68,95.69l-8.52,1c-1,.1-1.9-.07-2.19-1.09s.6-1.56,1.44-1.88c3.86-1.45,7.72-2.87,11.58-4.3,1.48,1,3.72,1,4.14,3.26Z"/><path class="cls-120" d="M602.52,89.09a2.1,2.1,0,0,1-.08.52c-.65,1.23-8,4.15-9.13,3.59a1,1,0,0,1-.45-1.37c.52-1.12,8.15-4.13,9.18-3.62C602.29,88.33,602.36,88.79,602.52,89.09Z"/><path class="cls-121" d="M625.12,107.85l1.37-2c1.89.12,2.88-1.53,4.35-2.23.32,1.26,1.4,1,2.26,1.12C630.9,107,628,107.49,625.12,107.85Z"/><path class="cls-122" d="M575.13,92.66,571,89.4c0-.34,0-.69,0-1,1.68-.18,2.11,1.52,3.23,2.18a2.1,2.1,0,0,1,2.07-.56,3.89,3.89,0,0,1,2.32,1.81C577.68,92.94,576.42,92.83,575.13,92.66Z"/><path class="cls-24" d="M576.45,90.57l-2.2,0c.33-3.88.7-4.24,3.27-3.26.57.33.51.89.51,1.42a2.07,2.07,0,0,1-.25,1,2,2,0,0,1-.8.72Z"/><path class="cls-123" d="M598.21,97c1.43,1,1.54,1.86-.33,2.3a2.38,2.38,0,0,1-2.7-1H595c.55-.85,1.6-.66,2.35-1.11A1.48,1.48,0,0,0,598.21,97Z"/><path class="cls-124" d="M578.64,91.8c-.89-.13-1.89,0-2.19-1.23h0a6.23,6.23,0,0,0,1-1.14l.06-.07a.59.59,0,0,1,.91-.1l1.45,1.45Z"/><path class="cls-122" d="M579.78,84.06c-.37,1.1-.06,2.43-1.09,3.32C578.56,86.11,578.25,84.78,579.78,84.06Z"/><path class="cls-122" d="M578.38,89.26c-.3,0-.61.08-.91.1,0-.69,0-1.38,0-2.07l1.19.06Z"/><path class="cls-37" d="M593.93,85.13a1.88,1.88,0,0,1,2.24-1A2.29,2.29,0,0,1,593.93,85.13Z"/><path class="cls-23" d="M597.39,97.23A2.81,2.81,0,0,1,595,98.34C595.46,97.22,596.37,97.11,597.39,97.23Z"/><path class="cls-125" d="M668,137.45a2.45,2.45,0,0,1-2.37-1.39c1.25-5.12,5.82-4.26,9.55-5.49.9,2.9,0,4.61-2.62,5.47C671.07,136.54,669.54,137,668,137.45Z"/><path class="cls-126" d="M615.63,148.26c1.75-2,4.32-2.08,6.74-2.65-1.32,2.12-3.66,2.7-5.69,3.74A2.57,2.57,0,0,1,615.63,148.26Z"/><path class="cls-127" d="M679.75,129.07a17.9,17.9,0,0,1,2-.47c1.22-.14,2.35.37,2.12,1.63-.17.93-1.42.75-2.3.53S679.87,130.31,679.75,129.07Z"/><path class="cls-128" d="M647.52,133.4c-.12,1-1,1.3-1.76,1.64s-1.81.64-2.07-.56c-.16-.74.64-1.19,1.35-1.37A2.38,2.38,0,0,1,647.52,133.4Z"/><path class="cls-129" d="M615.63,148.26l1,1.09-5.4,2.19c-.38-.25-.5-.51-.37-.77s.25-.38.38-.38c0-.32,0-.65,0-1Z"/><path class="cls-130" d="M611.29,150.39c0,.39,0,.77,0,1.16l-3.14,1.34c-.39-.44-.79-.87-1.19-1.31l1-.11c.42-.28.82-.57,1.21-.88Z"/><path class="cls-131" d="M609.17,132c-2-2.26-1.44-4,1.07-5.42.27,2.43,1.6,1.82,3,1.11,5.15-2.59,10.32-5.16,15.47-7.73.28.24.38.49.29.73s-.19.37-.28.37c-2.41,2.61-6.33,2.81-8.72,5.47.77,1.29-1,1.31-1.08,2.21-2.23,1.4-4.94,2-6.65,4.26C611.55,131.77,610,133.1,609.17,132Z"/><path class="cls-132" d="M611.28,125.37c-3-1-3.08-1.52-.89-5.23a2,2,0,0,0,1-.3c.78-.41,1.51-.57,2,.46l2.71,1.53C614.9,123.64,612.64,123.91,611.28,125.37Z"/><path class="cls-47" d="M647.27,112.35,646,114.7l-.07-.06c1,.51,1.26,1.11.24,1.87-2.47,1.86-4.45,0-6.55-.88C641.39,112.68,644.22,112.25,647.27,112.35Z"/><path class="cls-47" d="M628.75,121.08c0-.36,0-.73,0-1.1,3.59-1.57,6.75-4.2,10.91-4.36A32,32,0,0,1,628.75,121.08Z"/><path class="cls-133" d="M619.94,118.9c.36-2.41,2-3.29,4.19-3.46,1-.12,2.27-1.09,2.26,1l-5.09,2.77A1.15,1.15,0,0,1,619.94,118.9Z"/><path class="cls-134" d="M645.92,107.44c-.89-.2-1.43-.5-1.33-1.11.22-1.33,1.38-1.52,2.44-1.68s1.44.46,1.21,1.26C647.89,107.17,646.59,107.05,645.92,107.44Z"/><path class="cls-135" d="M626.39,116.42c-.56-.78-1.44-.79-2.26-1a5.55,5.55,0,0,1,3.42-1.12c1.09-.27,1.4.17,1.08,1.19Z"/><path class="cls-136" d="M628.63,115.51l-1.08-1.19c.81-.75,2-1.44,2.63-.38C630.65,114.67,629.49,115.28,628.63,115.51Z"/><path class="cls-137" d="M619.94,118.9l1.36.29c-.43.63-1,1-1.69.49C619.32,119.47,619.54,119.06,619.94,118.9Z"/><path class="cls-51" d="M613.31,120.3l-2-.46C612.26,118.85,613,118.85,613.31,120.3Z"/><path class="cls-138" d="M650.06,121.06a36.38,36.38,0,0,1-9.73,4.41C642.57,121.64,645.17,120.34,650.06,121.06Z"/><path class="cls-139" d="M628.52,129.59c1.82-1.14,3.38-3.14,6.64-1.83a12.82,12.82,0,0,1-5.45,2.9C629.26,130.36,628.57,130.34,628.52,129.59Z"/><path class="cls-140" d="M628.84,131c-1.15,1.09-2.34,2.06-4.17,1.64.21-2.1,1.78-2.2,3-2.67C628.07,130.28,628.77,130.26,628.84,131Z"/><path class="cls-141" d="M619,128.76c-1.22-1.51,1.23-1.23,1.08-2.21.82,0,1.71-.22,2.44.48A4.66,4.66,0,0,1,619,128.76Z"/><path class="cls-142" d="M609.17,132c1,.36,2.91-1.93,3.13,1l-3.12,1.21C607.85,133.5,609,132.76,609.17,132Z"/><path class="cls-143" d="M614.64,138.83c-.22.1-.67.5-1.08.46-.66-.07-.63-.67-.21-1a2.06,2.06,0,0,1,1.31-.47C615.07,137.84,615.11,138.28,614.64,138.83Z"/><path class="cls-144" d="M628.84,131l-1.13-1a1.52,1.52,0,0,1,.81-.33l1.19,1.07A1.51,1.51,0,0,1,628.84,131Z"/><path class="cls-51" d="M609.19,150.59l-1.21.88Z"/><path class="cls-23" d="M522,223.68a3.93,3.93,0,0,1-3.31.73c.92-1,2.12-1.74,2.19-3.48.48-11.09,3-22,2.18-33.22-.11-1.54-.47-3.28,1-4.52,0,5.8.17,11.61-.06,17.39a96,96,0,0,1-1.42,14.49A47.29,47.29,0,0,0,522,223.68Z"/><path class="cls-23" d="M524.12,183.19c.23-1.84-.73-3.92,1.08-5.45C525,179.58,525.93,181.66,524.12,183.19Z"/><path class="cls-3" d="M553.59,217l1-1.17c0,.37,0,.74,0,1.11C554.26,217,553.92,217,553.59,217Z"/><path class="cls-12" d="M446.69,214.82c1.76,1.39,2.32,3.55,3.4,5.38,1.47,3.1-.46,4.37-2.92,5.14q-4.67,1.46-9.38,2.77c-5.32,1.28-9.77,5.38-15.64,4.91-3.68-1.81-5-5.52-7-8.68-.66-1.23-1.62-2.34-1.72-3.84a3.1,3.1,0,0,1,.61-1.68C424.63,215.12,435.23,211.49,446.69,214.82Z"/><path class="cls-12" d="M499.18,228.94c-4.21.25-7.86,2.46-11.88,3.36-5.35,4.15-11,7.58-18.19,6.46-3.59-3.69-7.8-7-7.24-13,10.7-3.14,21.37-6.53,32.77-4.36C497.05,223.34,498.19,226.1,499.18,228.94Z"/><path class="cls-145" d="M413.93,220.38c0,.32.07.64.12,1,.4,2.81-1.66,2.28-3.23,2.42a1.4,1.4,0,0,0-.84.67c1,2.17,2.7,3.85,4.14,5.69a9.23,9.23,0,0,1,.88,1.2,17.2,17.2,0,0,1,1.46,2.66,2.43,2.43,0,0,1-.09,1.53c-2.76,2.65-5.89,4.42-9.87,4.16-5.73-4-9.45-10-14.75-14.41-1.56-1.88-5.25-1.83-4.89-5.43,4.67-3.2,10.09-4.16,15.48-5.21,2.06,1.49,4.22-.31,6.3.21A8.68,8.68,0,0,1,413.93,220.38Z"/><path class="cls-146" d="M402.34,214.61a4.62,4.62,0,0,1-3.54,2.16c-4.07.73-7.78,2.55-11.76,3.54-4.72,4.64-10.59,6.39-14.57,4.34-1.91-1.46-2.84-3.64-4.14-5.56-.08-2.21,1.75-2.66,3.21-3a147.7,147.7,0,0,1,24.56-3.86c1.86-.13,3.51.75,5.21,1.35Z"/><path class="cls-147" d="M413.93,220.38a24.09,24.09,0,0,1-5.29-5.56,116.1,116.1,0,0,1,30.45-4.39c3.41,0,5.7,1.82,7.6,4.39-8.13-.61-16,1-23.85,2.76C419.84,218.28,416.17,217.17,413.93,220.38Z"/><path class="cls-103" d="M401.31,213.57c-9.53-.09-18.78,2.07-28.11,3.53-1.71.27-3.56.59-4.87,2l-4.57-5.53A137.5,137.5,0,0,1,392,209.29C396,209.11,399.06,210.29,401.31,213.57Z"/><path class="cls-148" d="M494.64,221.35a148.67,148.67,0,0,0-26.06,3.91c-2.19.5-4.84-.58-6.62,1.61-1.14.44-2-.16-2.85-.8-1.05-1.36-3-2.45-1.38-4.61a173.89,173.89,0,0,1,26.83-4C488.48,217.2,492.19,217.7,494.64,221.35Z"/><path class="cls-149" d="M457.73,221.46c-.24,1.88,1.57,2.69,2.18,4.13.27,2.5-1.76,3-3.37,3.28-3,.6-5.76,1.82-8.78,2.13-2,.29-2.94-1.91-4.71-2.1,1.27.44,2.33,1,1.4,2.64a4,4,0,0,1-2.29.68,9.52,9.52,0,0,1-5.3-2.13c-1.42-1.08-1.63-2.24.09-3.29,3.43-1,6.82-2.08,10.28-2.9,2.12-.51,3.06-1.57,2.86-3.7C452.09,224,455.09,221.59,457.73,221.46Z"/><path class="cls-150" d="M323.59,253a3.36,3.36,0,0,1-2.32,2.09c-2.84-1.34-5.75-2.46-7.86-5a6.93,6.93,0,0,0-5.2-2.46,6.53,6.53,0,0,1-4.54-1.6c1.79-1.62,4.17,2,5.74-.65.63.11,1.3.9,1.86.29,1.45-1.6,1.93-.23,2.59.72.46,1.79,1.94,2.54,3.39,3.33C319.56,250.37,321,252.86,323.59,253Z"/><path class="cls-150" d="M309.39,244.24c0,.37,0,.73,0,1.1C308.66,245,308.59,244.64,309.39,244.24Z"/><path class="cls-12" d="M334.68,245.37c-1.5.36-2.29,1.69-3.43,2.54-1.37,1-2.81,1.64-4.49.7a83.46,83.46,0,0,1-11.85-12.07c2.34-2.46,5.62-3.06,8.58-4.21,8-3.08,15.81-6.56,24.09-8.82a40.88,40.88,0,0,1,8.67,8.85c.27.2.37.42.29.64s-.17.33-.26.33l-.44.08h-.45a4.59,4.59,0,0,0-1.28.95l-2.25,1.14c-2.56,3.88-6.42,5.58-10.8,6.39Q337.88,243.64,334.68,245.37Z"/><path class="cls-151" d="M356.28,233.33l0-1c4.46-.27,7.83-3.41,12-4.54.53-.83,1.62-.39,2.26-1a2.88,2.88,0,0,0,2-2.17c2,1,3.85.06,5.66-.65,3-1.17,5.94-2.45,8.91-3.69,1.22,2.13,4.22,2,5.38,4.18a2.79,2.79,0,0,1-1.68,2c-10.13,3.62-20,8-30.21,11.37A15.15,15.15,0,0,1,356.28,233.33Z"/><path class="cls-152" d="M355.13,225.74c-3.14-.51-4.47-3.13-6.83-5.58,3.58,1.37,3.58,1.37,6.94,5.47Z"/><path class="cls-153" d="M355.24,225.63a11.82,11.82,0,0,1,2.07.24,2.51,2.51,0,0,1,2.06,2.63c0,.32-.2.83-.41.89-1.69.52-1.8-1.24-2.63-2a9.16,9.16,0,0,1-1.2-1.69Z"/><path class="cls-154" d="M363.93,219.1c2.13,1.21,2.9,3.23,3.29,5.48l-.08.07c-1.93-.83-2.32-2.8-3.24-4.38-.3-.27-.4-.53-.29-.79S363.82,219.1,363.93,219.1Z"/><path class="cls-154" d="M370.47,226.82a2.22,2.22,0,0,1-2.26,1l-1.07-3.17.08-.07Z"/><path class="cls-155" d="M363.93,219.1l0,1.17a5.62,5.62,0,0,1-1-1.17c-.24-.52-1-1.42.11-1.61C363.81,217.36,363.84,218.41,363.93,219.1Z"/><path class="cls-156" d="M317.25,249.64c-1.79-.44-4.23-.21-3.39-3.33A11,11,0,0,1,317.25,249.64Z"/><path class="cls-157" d="M313.78,238.78l-1.1-1.09h0Z"/><path class="cls-157" d="M312.68,237.69l-.45-.45c.1,0,.23,0,.28.08a1.37,1.37,0,0,1,.19.36Z"/><path class="cls-158" d="M314.16,239l.08.28c-.1,0-.23,0-.28-.08a1.59,1.59,0,0,1-.18-.37Z"/><path class="cls-12" d="M360.53,237.85c4-3.62,9.24-4.83,14.07-6.75,5.89-2.34,11.87-4.42,17.81-6.61,1.79.27,2.56,1.71,3.58,2.95,3.29,4,7.33,7.25,10.36,11.46.23,2.66-2.59.72-3.19,2.12a8,8,0,0,1-4.1,2.2,10.21,10.21,0,0,1-7.95,5.5c-3-.08-4.68,2.71-7.39,3.21-2.38.74-3.62,3.9-6.7,3.19C370.76,250.09,366.12,243.52,360.53,237.85Z"/><path class="cls-35" d="M341.06,241.88l10.8-6.39c-.81,1.32-1.09,2.55.14,3.87,1.07,1.13,2.44,2.1,2.89,4.21a10.68,10.68,0,0,1-7.65,0C345.21,242.93,343.12,242.45,341.06,241.88Z"/><path class="cls-159" d="M366.07,256.22a6,6,0,0,1-1.35-.86c-3.94-4.24-7.94-8.35-14.51-8.16,6.21-1.38,7.25-1.41,9.2.8,2.32,2.65,5.89,4.31,6.69,8.19Z"/><path class="cls-79" d="M339.93,246.41c3.77.37,5.84,3.1,7.92,5.83a21.68,21.68,0,0,1-7.91-5.84Z"/><path class="cls-160" d="M374.81,257.41l-1,1c-.11-3.1-3.41-4.09-4.37-6.63a.65.65,0,0,1,1.09,0C372.56,253.21,374.58,254.62,374.81,257.41Z"/><path class="cls-157" d="M365,258.4c-3-.36-4.24-2.73-5.66-4.9,2.58.81,4.23,2.72,5.68,4.88Z"/><path class="cls-161" d="M363.88,245.32c-.69-.27-1.32-.63-1.41-1.44,0-.11.52-.45.72-.4a2.72,2.72,0,0,1,1.77,1.87A.64.64,0,0,1,363.88,245.32Z"/><path class="cls-162" d="M366.1,256.19l.46.51c-.1,0-.24,0-.3-.09a1.42,1.42,0,0,1-.19-.39Z"/><path class="cls-79" d="M339.94,246.4c-.15-.08-.44-.19-.43-.24.08-.36.25-.27.42.25Z"/><path class="cls-163" d="M363.88,245.32l1.08,0a6.35,6.35,0,0,1,0,1.07l0,0Z"/><path class="cls-164" d="M365,246.42l1.09,1.08h0A1.44,1.44,0,0,1,365,246.4Z"/><path class="cls-164" d="M367.19,248.58a1.43,1.43,0,0,1-1.09-1.09h0l1.09,1.09Z"/><path class="cls-164" d="M368.28,249.67a1.46,1.46,0,0,1-1.09-1.09h0l1.09,1.09Z"/><path class="cls-165" d="M369.37,250.75a1.42,1.42,0,0,1-1.09-1.08h0l1.09,1.09Z"/><path class="cls-151" d="M354.11,234.35l1.28-.95Z"/><path class="cls-165" d="M370.5,251.85l-1.09,0a4.77,4.77,0,0,1,0-1.07l0,0Z"/><path class="cls-166" d="M365,258.38c.15.16.31.32.46.49-.1,0-.24,0-.3-.08a1.73,1.73,0,0,1-.18-.39Z"/><path class="cls-151" d="M403.16,241c.56-1.47,2.51-.83,3.19-2.12a20.3,20.3,0,0,0,9.91-4.45,7.15,7.15,0,0,1,5.51-2.22c4.64-.43,8.7-2.52,12.72-4.62a5.64,5.64,0,0,1,2.46-.81c-.33.8-.93,1.68.27,2.25,1.62.78,3.27,1.48,4.91,2.21a.78.78,0,0,1,.16,1.33c-10.79,4.1-22,7.24-32.12,12.91a1.93,1.93,0,0,1-2.59-1.33C406.51,242.56,405.46,240.91,403.16,241Z"/><path class="cls-167" d="M407.58,244.17l2.09,1.19c6.43,4.88,13,9.64,16.39,17.38a3.33,3.33,0,0,1-2.31,2.11q-7.32-8.13-14.64-16.25C408,247.33,406.08,246.34,407.58,244.17Z"/><path class="cls-168" d="M391.11,248.72l7.94-5.5c.48,2.58,2.64,4.15,4.1,6.48-1.49,1.61-3.1,2.41-5.16,1.69C395.67,250.59,393.16,250.23,391.11,248.72Z"/><path class="cls-169" d="M415.15,260.56a1.89,1.89,0,0,1,1.4,1.34c0,.1-.47.46-.6.4-.76-.31-.78-1-.83-1.71Z"/><path class="cls-169" d="M415.12,260.59c-.15-.09-.44-.21-.43-.26.08-.38.26-.3.46.23Z"/><path class="cls-77" d="M410.77,270.39c.15.08.45.2.44.24-.08.37-.25.28-.43-.26Z"/><path class="cls-12" d="M426.06,262.74c-3.73-4.7-8.35-8.56-12.42-12.94-1.36-1.45-2.65-3-4-4.44.13-.7.16-1.51.89-1.86a214.41,214.41,0,0,1,29-11.14,9.87,9.87,0,0,1,2.67-.08c5.61,2.48,8.81,7.54,12.68,11.88a2.87,2.87,0,0,1-1.67,3.31,2.55,2.55,0,0,0-2.16,1.1.71.71,0,0,0-.26.75c.08.25.17.38.25.38l0,0c.67.53.42,1.6,1.2,2.07h0a3.41,3.41,0,0,0,1.06,1.11h0a7,7,0,0,0,1.05,1.13h0a1.31,1.31,0,0,1-.08,2l-5.36,0c-.63-.55-1.6-.34-2.18-1h0c-.61-.67-1.6-.46-2.28-1l-2-.21a.78.78,0,0,0-1.14,0L435,257.36C431.83,258.89,429.73,262.1,426.06,262.74Z"/><path class="cls-12" d="M496,257.37l-16.59,11.95c-6.88-5.84-12.38-13-18.6-19.49-.43-1.92,1.06-2.64,2.3-3.21A202.14,202.14,0,0,1,490,236.3a4.56,4.56,0,0,1,2.68.18,6,6,0,0,1,.95.11,11.67,11.67,0,0,1,4.08,2.9c2.81,3.24,6.84,5.53,8,10.08.32.43.64.86,1,1.28.4,2.58-1.49,2.91-3.27,3.33C500.4,254.07,498.69,256.88,496,257.37Z"/><path class="cls-170" d="M453.22,247.47c.61-.95,1.27-1.89.91-3.12.27-.7-.1-1.37-.11-2-.27-.42,1.08-.41.27-1a3.89,3.89,0,0,1-.93-.88,30.94,30.94,0,0,0-2.51-3.08,10.54,10.54,0,0,1-.85-1.14c-.86-2.17-3.89-3.19-3.29-6.14,3.29-.53,6.24-2.32,9.68-2.38a4.48,4.48,0,0,0,3.52-2.1l2,1.28c2.28,3.78,4.47,7.63,7.56,10.85,1.61,2.06-.16,3-1.49,3.58-3.71,1.62-7.21,3.9-11.44,4C455.42,246,455,247.71,453.22,247.47Z"/><path class="cls-83" d="M456.59,245.32c.11-.67.11-1.46,1.05-1.48,4-.07,7-2.92,10.69-4,1-.28,1.16-1.22,1.19-2.14a4.55,4.55,0,0,0,4,.24c4.53-2,9.16-3.79,13.76-5.66,1.22,2.12,4.21,2,5.36,4.18-8.59,3.35-17.4,6.11-25.82,9.92-2.13,1-4.45,1.55-6.06,3.43C459.33,248.37,457.08,247.66,456.59,245.32Z"/><path class="cls-171" d="M457.62,256.22c3.21,1.66,4.63,4.86,6.54,7.64a1.56,1.56,0,0,1-2.25,0c-1.85.11-2.77-1.59-4.25-2.19-.57-.86.12-1.71,0-2.56,0-.22,0-.44,0-.66l0-2.25Z"/><path class="cls-172" d="M461.91,263.85h2.25l3.33,4.31a.75.75,0,0,1,.26.83c-.11.26-.21.39-.31.39A20,20,0,0,1,461.91,263.85Z"/><path class="cls-173" d="M472.87,268.23c-2-1.37-4-2.75-4.34-5.47h0c2.08,1.31,4,2.72,4.37,5.43Z"/><path class="cls-174" d="M467.44,269.39c0-.4,0-.81.05-1.22l3.15,4.19C468.58,272.28,467.53,271.29,467.44,269.39Z"/><path class="cls-175" d="M456.55,259.51h-5.28l0-1.07h6.38l0,0C457.94,259.43,457.59,259.79,456.55,259.51Z"/><path class="cls-176" d="M472.92,268.18a5,5,0,0,1,3,4.07c-2-1.06-3-2.14-3.08-4Z"/><path class="cls-177" d="M466.34,260.58a4.92,4.92,0,0,1-3-4c2,1.05,3,2.11,3.05,4Z"/><path class="cls-178" d="M456.55,259.51l1-1.11c2.9,1,.91,2.16.07,3.26A2.18,2.18,0,0,1,456.55,259.51Z"/><path class="cls-175" d="M446.76,255.12a2.29,2.29,0,0,1,2.18,1A2,2,0,0,1,446.76,255.12Z"/><path class="cls-175" d="M452.27,251.79a2,2,0,0,1-1.2-2.07A2.2,2.2,0,0,1,452.27,251.79Z"/><path class="cls-175" d="M444.46,254.13a2.09,2.09,0,0,1,2.28,1A2.37,2.37,0,0,1,444.46,254.13Z"/><path class="cls-175" d="M454.3,256.08c0-.68.05-1.36.08-2C455.42,254.76,455.73,255.46,454.3,256.08Z"/><path class="cls-179" d="M466.36,260.56l1.08,1.11,0,0c-.38-.35-.75-.71-1.12-1.07Z"/><path class="cls-179" d="M468.53,262.76l-1.07-1.11,0,0,1.11,1.08Z"/><path class="cls-175" d="M451.05,249.7c-.72-.38-.73-.76,0-1.13C451.06,249,451.05,249.32,451.05,249.7Z"/><path class="cls-175" d="M453.32,252.9a1.39,1.39,0,0,1-1.06-1.11Z"/><path class="cls-175" d="M441.27,254c.36-.57.74-.59,1.14,0Z"/><path class="cls-175" d="M454.37,254l-1.05-1.13Z"/><path class="cls-175" d="M457.64,256.19c-.16-.08-.45-.2-.44-.24.08-.37.25-.27.42.27Z"/><path class="cls-180" d="M519.76,249.68l2.16,1.13c4.81,5.85,10.56,10.79,15.72,16.3,1.34,1.43,3.08,2.53,3.82,4.48-.94.44-1.44,2.23-3,.66-6.32-6.38-12.87-12.55-18.3-19.75C519.61,251.78,518.62,250.79,519.76,249.68Z"/><path class="cls-181" d="M503.37,254.18c.71-1.48,2.79-1.62,3.27-3.33,4.34-1.21,6.08-.48,8.11,3.19a2.54,2.54,0,0,1-.3,2.94c-.74,1.19-1.64,1.17-2.71.6C509.06,256.17,505.9,255.93,503.37,254.18Z"/><path class="cls-182" d="M534.88,276.71l-13.83-13.83A165.58,165.58,0,0,1,534.88,276.71Z"/><path class="cls-183" d="M496.85,239.9a7.41,7.41,0,0,1-3.24-3.31c1.46-2.18,2.91-1.06,4.36,0l0,0c1.62,3,4.9,4.64,6.57,7.63-.19,2.67-1.51.9-2.16.44C500.39,243.24,499.16,240.94,496.85,239.9Z"/><path class="cls-184" d="M496.85,239.9c2.22-1.23,2.34,1.45,3.64,2,1.46.57,1.57,3.46,4,2.36,1.77,1.49,2.5,3.2,1.16,5.35Z"/><path class="cls-171" d="M511,241c-2.44-1.64-3.51-4.31-4.95-6.71a8.41,8.41,0,0,1,5,6.67Z"/><path class="cls-185" d="M511.07,233.29c2,1.36,4,2.79,4.39,5.46l-.1.09c-2-1.39-4-2.79-4.35-5.5Z"/><path class="cls-154" d="M531.73,269.32a11.21,11.21,0,0,1-4.34-4.38h0a4.61,4.61,0,0,1,4.39,4.35Z"/><path class="cls-186" d="M531.78,269.28a5,5,0,0,1,3,4c-2-1-3-2.07-3.07-3.95Z"/><path class="cls-187" d="M522,260.56c2.18.13,3.41,1.51,4.35,3.28h0c-2.2-.08-3.4-1.52-4.37-3.26Z"/><path class="cls-188" d="M517.52,259.48c1.56,0,3.52-1.62,4.43,1.08l0,0c-1.5-.19-3.26.56-4.35-1.16Z"/><path class="cls-189" d="M515.46,238.75a4.48,4.48,0,0,1,2.52,2.61c-2.33.59-2.27-1.18-2.62-2.52Z"/><path class="cls-190" d="M511,233.34a6.18,6.18,0,0,1-1.27-.9c-.43-.49-1.09-1.14-.09-1.66.15-.08.82.57,1.06,1a5.71,5.71,0,0,1,.36,1.53Z"/><path class="cls-152" d="M511.06,240.94a6.4,6.4,0,0,1,1.28.91c.43.49,1.09,1.14.09,1.66-.16.08-.83-.58-1.07-1A5.7,5.7,0,0,1,511,241Z"/><path class="cls-191" d="M498,236.61c.12-.58-.15-1.41.81-1.45a.86.86,0,0,1,.61.61c0,1-.86.7-1.44.82Z"/><path class="cls-192" d="M502.92,235a3.2,3.2,0,0,1,.8.5c.3.32.18.71-.24.75a.93.93,0,0,1-.78-.42C502.6,235.66,502.83,235.3,502.92,235Z"/><path class="cls-181" d="M517.57,259.43l-1.4-.32c.75-1,1-.05,1.35.37Z"/><path class="cls-193" d="M527.39,264.94l-1.1-1.09h0l1.09,1.09Z"/><path class="cls-18" d="M543.77,273.64c.34.38.67.77,1,1.16C544.44,274.41,544.11,274,543.77,273.64Z"/><path class="cls-194" d="M563.34,242.07a34.52,34.52,0,0,1,5.61,9c.3.67.57,1.32-.21,1.85-2.57-2.13-5.49-4-6.51-7.45C561.58,244,560.83,242.52,563.34,242.07Z"/><path class="cls-195" d="M563.34,242.07c-1.34.82-1,2.19-1.11,3.42a19.74,19.74,0,0,1-5.4-5.64C559.17,240.11,562,239,563.34,242.07Z"/><path class="cls-196" d="M576.38,249.73c-1.87-1.51-4.81-1-6-4.08-.94-2.32-3.47-4-3.73-6.82-.32-.27-.42-.53-.31-.78s.23-.38.34-.38c.87-.16,1.25-2.48,2.7-.28,2.53,3.86,5.44,7.47,8.2,11.19C577.19,249,577.06,249.65,576.38,249.73Z"/><path class="cls-173" d="M576.38,249.73l1.15-1.15c2.5.41,3.57,2.24,4.35,4.36h0C578.56,254.43,577.9,251.33,576.38,249.73Z"/><path class="cls-197" d="M566.63,237.67l0,1.16c-1.69-1.44-4-2.64-2.17-5.47h0Z"/><path class="cls-173" d="M581.88,252.94c.16.09.45.21.44.26-.09.37-.26.28-.44-.25Z"/><path class="cls-102" d="M579.69,244.24c-.15-.09-.45-.22-.44-.27.09-.38.27-.29.46.25Z"/><path class="cls-198" d="M545.53,85.5a.85.85,0,0,1-1.2.46.81.81,0,0,1-.11-.78,1.21,1.21,0,0,1,.87-.42C545.24,84.76,545.38,85.24,545.53,85.5Z"/><path class="cls-122" d="M577.41,89.43a1.19,1.19,0,0,1-1,1.14Z"/><path class="cls-199" d="M646,114.64a4.55,4.55,0,0,1-1.24.77c-.31.06-.47-.5-.19-.6a6.13,6.13,0,0,1,1.5-.11Z"/><path class="cls-200" d="M421.77,232.23a6.58,6.58,0,0,1-5.51,2.22h0c-.78-1.06-1.35-2.27-2.2-3.29h0c-.61-2.85-2.08-6,2.06-7.5Q418.94,227.94,421.77,232.23Z"/><path class="cls-190" d="M416.09,223.65c-2.66,2-.53,5.24-2.06,7.5-3-1.57-4.38-4.69-6-7.34-.72-1.15,1.07-.25,1.71-.3l0,0c.1-1.15.3-2.14,1.73-1.06s2-.13,2.65-1.14A3.23,3.23,0,0,1,416.09,223.65Z"/><path class="cls-201" d="M414,231.15a3.25,3.25,0,0,1,2.2,3.29A3.38,3.38,0,0,1,414,231.15Z"/><path class="cls-82" d="M454.36,242.08c.22.79,1.14,1.64-.23,2.27q-6-6-11.92-12.07a2.68,2.68,0,0,0-.08-1l2.47-.12c3.42.33,4.53,3.41,6.5,5.46h0c1,1.55,2.27,2.86,3.29,4.38l0,0a.74.74,0,0,1,.26.76C454.53,242,454.45,242.08,454.36,242.08Z"/><path class="cls-159" d="M451.1,236.6c-2.68-1.21-3.89-4.17-6.5-5.46-.54-.87-1.07-1.74-1.68-2.74,1.93-.56,2.47,1.42,3.79,1.67C447.74,232.54,451,233.5,451.1,236.6Z"/><path class="cls-202" d="M456.56,233.32c3.54.11,5.31,2,5.38,5.47a.67.67,0,0,1-1.05,0c-2-1.34-4-2.73-4.35-5.44Z"/><path class="cls-150" d="M454.38,241c-1.8-.93-3.19-2.18-3.29-4.38C452.88,237.53,454.27,238.77,454.38,241Z"/><path class="cls-203" d="M460.89,238.78h1.05C461.58,239.67,461.23,239.49,460.89,238.78Z"/><path class="cls-164" d="M455.45,232.25l1.11,1.07,0,0-1.07-1.11Z"/><path class="cls-164" d="M454.37,231.16l1.08,1.09,0,0a1.45,1.45,0,0,1-1.09-1.08Z"/><path class="cls-84" d="M454.38,231.15l-.46-.45c.1,0,.23,0,.28.08a2.19,2.19,0,0,1,.17.38Z"/><path class="cls-204" d="M454.36,242.08c0-.39,0-.77,0-1.15C455.21,241.3,455.22,241.68,454.36,242.08Z"/><path class="cls-145" d="M409.67,223.53c.16.08.47.19.46.23-.08.38-.25.29-.44-.25Z"/></g></g></svg>