<svg xmlns="http://www.w3.org/2000/svg" viewBox="0 0 1447.3 1524.1"><defs><style>.cls-1{fill:#d0d0d0;}.cls-2{fill:#fae1ce;}.cls-3{fill:#400a07;}.cls-4{fill:#713505;}.cls-5{fill:#bb0e06;}.cls-6{fill:#5f3005;}.cls-7{fill:#815a35;}.cls-8{fill:#3d1f03;}.cls-9{fill:#3c1f03;}.cls-10{fill:#076715;}.cls-11{fill:#076615;}.cls-12{fill:#f3f2f1;}.cls-13{fill:#3e0906;}.cls-14{fill:#e9e5e2;}.cls-15{fill:#8c0b05;}.cls-16{fill:#8d8d8d;}.cls-17{fill:#353535;}.cls-18{fill:#fef0e5;}.cls-19{fill:#bcafa5;}.cls-20{fill:#ddcabb;}.cls-21{fill:#6c110c;}.cls-22{fill:#410a07;}.cls-23{fill:#420a07;}.cls-24{fill:#430a07;}.cls-25{fill:#440a07;}.cls-26{fill:#8c5c36;}</style></defs><g id="레이어_2" data-name="레이어 2"><g id="레이어_1-2" data-name="레이어 1"><path d="M852.43,242.67c8.35-32.35,16.23-64.83,25.23-97,4.73-16.91,7.19-34.51,14.72-50.63,3.42-7.3,8-13.23,15.41-17C923,70.43,938.32,63.56,955,59.48c24-5.9,46.56-2.16,68.26,8.78a117.16,117.16,0,0,1,20.34,12.62c7,5.61,10.64,12.31,9.79,22-1.68,19.18-6.9,37.61-10.26,56.42-10.91,61.18-31.32,119.92-46.08,180.11q-14.71,60.07-28.34,120.39a504.11,504.11,0,0,1-13.7,49c-1.16,3.49-1,5.15,2.85,7,15.73,7.3,32.37,8.71,49.25,8.26,31.19-.82,61.67,2.47,91.72,11.49,19.07,5.72,38.06,11.85,57.45,16.5,9.77,2.34,19.55,1.36,29.29-.11,23.54-3.55,46.29.6,69.12,6,35.43,8.43,70.46,18.12,104.85,30.14a67.18,67.18,0,0,0,16.62,3.29c23.35,1.9,39,15.1,50.38,34.2,11.12,18.74,19.21,38.68,20.6,60.86,1.05,16.87-2.41,33.12-6.11,49.35-2,8.92-4.09,17.84-8.47,26-3.21,6-7.36,11.18-13.15,14.75-2.54,1.56-3.18,3.31-2.9,6.11,2.51,25.19,5.06,50.37,7.3,75.59,3,33.35,5.41,66.73,7.69,100.14,2.13,31.24,5.07,62.42,7.42,93.64,2,27.07,3.73,54.17,5.64,81.25.6,8.47,1.46,16.92,2.17,25.39.82,9.73-2.39,17.66-10.53,23.36-.54.38-1.25.69-1.55,1.22-8.7,14.91-23.37,23.48-36.27,33.82-25.35,20.31-51.22,40-78.45,57.7-23.84,15.52-49.65,27.68-74.59,41.33a1449.72,1449.72,0,0,1-200.16,90.73c-40.92,14.9-80.57,33.36-122.28,45.8C866.59,1469.37,812,1490.79,756.19,1509c-17.06,5.57-34,11.8-51.94,14a64.15,64.15,0,0,1-14.46.15c-6.71-.7-13.3-2.15-20.14.28-4.06,1.44-8.57.37-12.72-1.21-55.75-21.32-112.58-39.55-169.14-58.49A1354.47,1354.47,0,0,1,260.54,1363.3c-28.36-15.72-52.63-37.33-78.08-57.24-26-20.32-51.15-41.63-77.06-62-19.82-15.6-37.36-33.68-56-50.59-9.32-8.45-11.24-19.9-12.59-31.68-4.07-35.57-8.15-71.13-10.37-106.89C23.32,1004,22.12,953,22,902c-.05-14.33,0-28.66.06-43a26.89,26.89,0,0,0-1.23-8.84c-8.35-24.61-13.22-49.8-12.31-75.93.16-4.82,0-9.67.17-14.49.26-6.94-.78-13.17-4.92-19.28-5.72-8.43-3.92-17.92-.85-27A46.69,46.69,0,0,1,11,698.7c8.29-10,16.59-20,25.11-29.81,12.32-14.17,29.08-20.85,46.39-26,8.84-2.64,16.25-6.52,22.92-13.06,10.52-10.32,23.73-17.1,36.25-24.69,10.95-6.64,22.14-12.88,33.1-19.53,17-10.32,35.17-18.12,54-24.45a49.55,49.55,0,0,0,19-11.49c3-2.89,6.11-5.67,8.93-8.73,19.79-21.48,44.36-32.78,73.37-34.95,28-2.09,55.33-7.12,81.16-19,18.32-8.43,38.38-10.56,58-14.31,17-3.27,33.6-8,49.27-15.65,1.64-.8,2-2.07,2.45-3.46,17.69-50.59,46.2-95.38,75.24-139.83,10.73-16.43,26.37-20.74,47.08-14.46a141.71,141.71,0,0,1,34,15.48c1.59-2.3,1-4.71,1.06-6.93,1.1-30,1.45-60,3.29-89.91,2-32.09,5.51-64,9.6-95.9,2.09-16.34,3.18-32.8,6.26-49,2.38-12.57,4.91-25.12,7-37.75.76-4.67,3-8.07,7-9.55C729.85,19,746.46,8,765.69,3.18c24.77-6.14,48.21-3.71,70,10.13,10.59,6.72,17.72,16.47,23.56,27.31a30.29,30.29,0,0,0,1.59,3.11c8,11.5,7.67,24.31,6.26,37.42-1.64,15.24-1.76,30.54-1.83,45.88-.07,16.3-2.73,32.48-5.2,48.62-3.14,20.55-7.2,41-8.74,61.76-1,2.61.34,5.27-.16,7.88a23.75,23.75,0,0,0-1.18,6.62c-.28,1.7-.84,3.34-1,5.07.18-1.25.48-2.48.73-3.72.39-1.64.3-3.35.74-5A14.65,14.65,0,0,1,852.43,242.67Z"/><path class="cls-1" d="M852.43,242.67l-1.12,5.88c-2.3-.39-.87-2-1-3.08.34-2.69-.27-5.5,1.06-8.06C852.16,239.07,850.85,241.17,852.43,242.67Z"/><path class="cls-2" d="M162.61,831.59c-1.56-1.71-3.11-3.44-4.69-5.14C144.47,812,128,808.57,109.19,816.08c-9.78,3.9-17.9,10.19-25.28,17.5-4.35,4.32-8.49,8.86-12.67,13.26-.52-.26-1.06-.45-1-.53,1-4.88-3-7.85-4.39-11.82-7.11-21-10.73-42.49-9.73-64.74.5-11.13.61-22.31-1.39-33.37a12.08,12.08,0,0,0-1.13-4.31c-3.38-5.33-1.75-9.45,2.5-13.39a37.45,37.45,0,0,0,6.14-7.22c9.3-14.52,23.74-20.91,39.57-24.71a62.47,62.47,0,0,0,32-18.33c8.07-8.6,18.41-14.25,28.52-20,20.94-11.92,40.8-25.83,63.18-35.17A115.15,115.15,0,0,1,238,608.5c21.17-6.06,38.33-18.22,52.84-34.41A61.64,61.64,0,0,1,315.7,557c7.27-2.69,14.95-3.25,22.57-3.84,32.11-2.48,63.1-9.39,92.57-22.66,8.08-3.64,16.77-5.32,25.4-7.15,14.31-3,28.29-7.34,42.28-11.56a16.57,16.57,0,0,1-.36,9.08,5.63,5.63,0,0,0,1.24,5.82c-4.21,19.81-9.54,39.39-12.22,59.51-2.44,18.31-4.93,36.63-5.2,55.16,0,1.63.25,3.19-1.59,4.35-15.94,10.06-24.54,25.87-32.34,42.14a35.79,35.79,0,0,0-2.64,24.38,34,34,0,0,0,6.18,13c14.9,19.26,34.92,28,58.87,26.94,21-1,41.79-3.94,61.17-12.85,3-1.41,4.16.08,5.7,1.91,16.92,20.07,39.09,30.46,64.5,34.65,12.45,2,23.75-1.52,34.08-8.4,10.65-7.09,19.37-16.27,27.53-26,1.56-1.86,2.59-2.8,5.14-1,21.15,14.68,45.19,21.41,70.26,25.22,3.62.55,7.27.91,10.91,1.33,22.77,2.63,36.91-7.89,40.73-30.44.84-4.91,1.39-9.89,1.74-14.86.19-2.77,1.17-3.17,3.74-2.75,19.09,3.14,38.4,4.22,57.67,5.43,16.17,1,25.63-5.28,31.29-18.85,2.87-6.88,2.18-13.7.1-20.51-1-3.33-1.95-6.92-3.94-9.66-4.56-6.27-4.06-12.57-2.6-19.71,6.16-30.14,13-60.12,20.13-90,1.4-5.82,1.4-5.86,6.81-3.55,19.26,8.25,39.65,10,60.2,9.63,21.06-.35,42.1-.18,62.54,5.09,18.65,4.81,37.48,9.19,55.62,15.77,21.74,7.89,44,10.47,66.81,6.89,16.49-2.59,32.42-.13,48.43,3.72,35.59,8.56,71,17.77,105.46,30.16a87.24,87.24,0,0,0,23.87,5c7.89.49,12.9,4.47,16.74,10.77,12.07,19.75,18.16,40.62,12.13,63.82-.75,2.87-1.33,5.78-2,8.91-4.56-1.86-8.68-4-13.23-5.15-15.19-3.77-28.91.92-42.4,7.16-25.48,11.8-39.79,32.35-48.27,58.55-9.65,29.8-14.94,60.32-18.83,91.23-2.43,19.28-4.55,38.64-10.73,57.27a84.57,84.57,0,0,1-13.64,25.89c-5.8,7.42-13.64,8.52-20.78,2.4-12.59-10.8-22.92-23.7-32.89-36.84a166.3,166.3,0,0,0-44.12-40.82c-36.38-22.9-69.85-3.8-85.46,19.68a241.25,241.25,0,0,0-22.21,42.91,143.59,143.59,0,0,1-14,27c-4.9,7.17-11.19,9.07-19.47,7.14-9.19-2.13-17.41-6.56-26-10.16C937,948.57,893,955.4,850.65,979.24c-14.45,8.13-24.4,20.71-31.34,35.93-10.26,22.51-16,46.49-23.78,69.82-4.5,13.59-9.53,27-17.07,39.25-1.83,3-3.81,7.12-7.36,6.72-3.22-.37-4-4.9-5.4-7.9a92.11,92.11,0,0,1-5.94-18c-5-22-16.26-40.3-32.29-55.79-12.59-12.17-25.58-23.86-41.26-32.1-17.5-9.2-34.47-8.42-51.16,2-8.47,5.32-16.6,11.11-24.59,17.11-4.77,3.59-7.07,3.32-11.06-1-10.94-11.72-22.74-22.08-39.5-24.38-12.43-1.72-24.63.28-36.71,2.66-24.73,4.88-48.7,12.27-71,24.33a148.08,148.08,0,0,0-46.14,39.21c-4.11,5.24-8.34,10.38-12.94,15.22-2.44,2.57-3.87,2.43-5.18-.77-4.09-10-8-20.09-12.34-30-10.31-23.31-17.27-47.83-26.21-71.62-4.44-11.82-9.33-23.51-15.61-34.53C321.67,934.23,304.06,926.4,280,931a177.83,177.83,0,0,0-41.61,13.46c-13.83,6.43-16.37,5.57-24.09-7.87a343.15,343.15,0,0,1-20.87-43.06c-6.61-16.51-14-32.67-22-48.6C169.47,839.88,167.14,835,162.61,831.59Z"/><path class="cls-3" d="M679.43,1346.69c-.95-7.51-2-15-2.83-22.54-1.81-17.62-2.71-35.32-4.85-52.92-1.64-13.48-2.77-27-4.24-40.51-.81-7.4-1.87-14.77-2.81-22.15,1.88-.75,3.61.1,5.35.53,12.43,3.06,24.94,3.32,37.63,1.86q34.74-4,69.08-10.55c38.44-7.4,76.76-15.24,114.57-25.49,24.26-6.57,48.71-12.49,72.84-19.6a994.17,994.17,0,0,0,134.67-50.2c33.58-15.44,67.85-29.35,101.92-43.71,22.56-9.51,44.54-20.27,66.84-30.36,37-16.74,71-38.76,105.39-60a10.17,10.17,0,0,1,1.68-1.08c4.55-1.63,7.93-4.35,8.92-9.36,1.48,1.73.84,3.83.87,5.75.31,18,2.64,35.93,4,53.9.95,13.18,2,26.36,3.12,39.54,1.37,17,1.67,34,3.87,50.88-11.44,7.16-22.18,15.34-33.5,22.68-29.63,19.24-60.35,36.53-91.34,53.5-45.8,25.08-94.51,43-143.13,61.28-52.84,19.88-105.68,39.77-159.27,57.57-49.71,16.5-100.06,30.46-151.87,38.61-19.74,3.11-39.35,7.06-59.23,9.23a218.17,218.17,0,0,1-38.35.86c-12.58-.85-24.86-2.11-36.33-7.73A4.4,4.4,0,0,0,679.43,1346.69Z"/><path class="cls-4" d="M1383.59,960.59c0,1.83-.06,3.66-.11,5.49,0,1-.12,2-1.34,2.37-9.72,2.57-17,9.51-25.32,14.45-25.62,15.11-50.55,31.48-77.5,44.15-30.82,14.48-61.72,28.79-93.14,42-30.62,12.88-61.26,25.73-91.55,39.38-28.61,12.89-57.61,24.8-87.49,34.67-37.37,12.35-75.3,22.56-113.33,32.59-34.31,9-68.85,17-103.71,23.54-23.42,4.4-46.75,9.32-70.54,11.48-8.07.73-16.09,2.54-24.15,2.66-10.41.15-20.86-.75-30.71-4.81q-3-27-5.92-54c-1.76-16.16-3.47-32.34-5.27-48.5q-1.77-15.83-3.77-31.62c-.82-6.4,6.23-15.33,12.57-15.5a5.1,5.1,0,0,1,2.78,1c18.43,12.39,36.18,25.63,45.3,46.81,3.65,8.48,5.36,17.8,8.25,26.63a92,92,0,0,0,11.83,24.12c17.71,25.52,47.78,28.24,71.82,10.82,9.67-7,16-16.83,21.45-27.19,12.74-24.14,20.14-50.24,27.76-76.25A208.67,208.67,0,0,1,865,1030.58c3.28-6.61,9-10.73,15.37-13.72,16.41-7.75,33.61-12.61,52-12.31,15.67.26,29.85,6.05,43.83,12.36,13.17,6,26.75,10,41.38,9.76,18.94-.27,33.88-8.62,45.8-22.8,10.85-12.9,17.63-28.14,24.1-43.49,4.73-11.22,10-22.16,16.81-32.26a26.81,26.81,0,0,1,2.77-3.52c6.15-6.44,10.91-7,18.49-2.37,12.87,7.82,23,18.41,32.08,30.31,12.33,16.13,25.06,32,41.15,44.67,9.36,7.34,19.68,13.3,32.1,13.57,20.38.44,38.33-5.38,52.06-21.28,18.35-21.25,26.69-46.83,31.6-73.83,5.17-28.4,6.91-57.33,13-85.58a258.54,258.54,0,0,1,14.79-47c4.18-9.78,13.11-13.72,21.74-18,2.21-1.1,3.28,0,3.47,2.46,1.28,16,2.52,32.12,4,48.15,1.39,14.7,3.22,29.36,4.65,44.06q1.82,18.6,3.13,37.23C1380.85,918.15,1382.18,939.37,1383.59,960.59Z"/><path class="cls-3" d="M616.42,1206.52c2.69,22.61,5.54,45.2,8,67.84,1.39,12.81,2.1,25.69,3.18,38.53.58,6.91,1.3,13.81,2,20.71-6.36,2.47-12.81,1.37-19.2.32-23.33-3.83-47-5.07-70.28-9.31-27.24-5-54.22-11-80.56-19.55-27.55-9-55.28-17.58-81.84-29.28-23.93-10.55-47.57-21.74-70.34-34.68-6.66-3.78-13.57-7.15-20.52-10.36-27.75-12.85-53.32-29.49-79.4-45.27-21.3-12.87-41.61-27.08-60.25-43.57-14-12.35-28-24.55-40.43-38.59-6.93-7.86-14.89-14.78-21.71-22.78-3.11-3.66-6.71-6.9-9.49-10.87-1.86-6.06-1.28-12.43-1.61-18.58-.92-16.73-2.23-33.44-2.42-50.23-.17-15.28-.7-30.57-1.14-45.85-.22-7.45-.74-14.9-.65-22.37.76-.1,1.48.25,1.51.92.29,6.24,4.89,9.64,8.92,13.24,21.5,19.22,43.7,37.56,67.29,54.18,44.15,31.1,89.93,59.73,135.11,89.26,19.94,13,41.95,22.51,63.76,32.11,2.43,1.07,4.75,2.38,7.23,3.34,8,9.66,17.19,17.52,30.22,19.56a41.87,41.87,0,0,0,13.82-.6q68.51,24.83,138.37,45.52c23.7,7,48,10.59,72.41,14.13C611.14,1204.7,614,1204.7,616.42,1206.52Z"/><path class="cls-4" d="M679.43,1346.69c.12-1.55.07-3.2,2.49-1.93,19.6,10.31,41,9,62,8.57,17.36-.38,34.5-4.09,51.65-6.94,21.23-3.52,42.43-7.16,63.51-11.61,24.21-5.12,48.12-11.28,71.69-18.77s47.33-14.65,70.64-23c39.89-14.25,79.78-28.53,119.29-43.85,23.54-9.13,47.27-17.76,70.82-26.87,31.74-12.27,61.74-28,91.72-43.86a1008.34,1008.34,0,0,0,94.56-57.43c4.53-3.07,9-6.28,13.35-9.58,1.41-1.06,2.55-2.23,4.3-.78.66,13.28,1,26.57,3,39.75a7.76,7.76,0,0,1-3,7.84c-31.45,26.2-64.19,50.71-97.67,74.25-13.67,9.61-28.92,16.45-43.41,24.61-25.39,14.3-51.58,27.11-77.33,40.75-35.21,18.66-72.35,33-108.8,48.85-31.33,13.64-64,23.59-95.76,35.88-16.6,6.41-32.87,13.66-49.51,20-21.78,8.24-44.63,13.2-66.57,21-41.07,14.55-82.38,28.42-123.06,44-10.56,4.06-21,8.51-32,11.28-.81.21-1.59.52-2.41.67-3.64.63-6.12.81-6.9-4.47-2.34-15.78-4.45-31.53-5.61-47.46-1.89-25.83-3.08-51.73-6.74-77.41C679.47,1349,679.49,1347.85,679.43,1346.69Z"/><path class="cls-5" d="M543.53,548.63c12.2-53.6,28.31-105.71,57.63-152.89,9.57-15.41,18.62-31.14,28.37-46.44,2-3.15,3.57-3.34,6.71-2,21.1,9.21,38.84,22.74,54.24,39.89,20.65,23,38.29,48.19,55.12,74,9.5,14.57,16.66,30.34,22.57,46.65,7.1,19.54,15,38.77,21.58,58.51,6.79,20.34,8.6,41.26,9,62.45a5.5,5.5,0,0,1-2.57,5,90.06,90.06,0,0,1-23.27,12.44c-20.87,7.75-41.65,16-64,18.79-30.81,3.83-61.63,5.27-92.55.93-17.78-2.49-35.75-3.52-53.36-7.25-12.31-2.6-23.74-7.51-35-13-4-1.94-1.83-5.15-2.23-7.84,3.36-5.71,3-12,2.89-18.25,3.05-18.1,7.1-36,11.05-53.91.47-.94,1-1.66,2.25-1.06,4.76,3.86,7.76,3.22,10.33-2.26a22.46,22.46,0,0,0,1.94-7.15c.22-2.09-.18-4-2.17-5.15s-3.77-.34-5.31,1.18c-.8.79-1.5,1.83-2.89,1.6C542.62,551.53,542.94,550.09,543.53,548.63Z"/><path class="cls-4" d="M75.54,1069.66c1.29-1,1.76.28,2.33.9,5.93,6.5,11.74,13.11,17.76,19.53,5.45,5.83,10.9,11.68,16.52,17.31,26.08,26.15,53.49,50.81,85.1,70.24,30.71,18.88,61,38.45,93.77,53.85,17.59,8.28,34.55,17.91,51.89,26.75,38.63,19.7,79.51,33.58,120.73,46.66,31.06,9.86,62.82,16.5,94.94,21.36,21.09,3.2,42.4,4.93,63.6,7.36,2.48.29,4.92-.95,7.38,0,6.64,43.52,7.62,87.57,12.41,131.93-8.16-2.73-16.11-5.34-24.05-8-31.32-10.64-62.68-21.19-94-32-33.46-11.55-67.44-21.8-99.88-36-49.65-21.81-99.55-43.22-146.19-71.22-18.72-11.24-35.72-25-52.54-38.78-15.68-12.88-32.17-24.74-47.62-37.87-27.22-23.14-56-44.41-81.66-69.49-7.7-7.54-12-14.68-13.06-25.65C80.59,1120.86,77,1095.36,75.54,1069.66Z"/><path class="cls-4" d="M353.54,1125.68c-4.06.83-7.06-1.93-10.34-3.35a571,571,0,0,1-97.71-54.58c-25.54-17.64-52.08-33.82-77.81-51.19-26.12-17.63-51.59-36.19-75.06-57.34-4.06-3.66-8.44-7-12.46-10.67-4.78-4.41-10.27-8.45-10.45-15.92,0-9.33.07-18.66-.09-28-.06-3.24.94-4.4,4.31-5.19,14.71-3.43,25.77-12.67,35.54-23.65a118.71,118.71,0,0,1,12.34-12.33c2.34-2,3.62-1.74,5.39.92,7.43,11.19,12.11,23.7,17.33,35.9,10.27,24,20,48.31,34.95,69.94,11.58,16.78,27.46,26.48,48.28,26.21,10.8-.14,20.74-4.24,30.49-8.63,9.41-4.24,18.94-8,29.28-9.57,3.46-.53,4.75.46,6.1,3.17a288.83,288.83,0,0,1,17.85,44.37c8.78,28.5,21,55.66,32,83.32C345.85,1115.18,349.56,1120.54,353.54,1125.68Z"/><path class="cls-4" d="M616.42,1206.52c-12.73-.87-25.22-3.52-37.81-5.41-32.32-4.85-63-15.75-94.07-25.36-27.78-8.59-55.2-18.28-82.54-28.16-1.71-.61-3.55-1.06-4.42-2.95,15.45-3.71,25.82-14.6,35.83-25.8,10.48-11.73,19.37-25,33-33.65,7.58-4.82,15.21-9.44,23.76-12.47,16.93-6,34-11.25,51.81-14.09,11.6-1.84,18.59,3.63,24.6,12.06,3.47,4.86,6.36,10.11,10.77,14.31,6.21,5.91,13.26,9.46,22,8.67,4-.36,4.95,1.28,5.33,5.06,1.62,16.17,3.71,32.29,5.52,48.44,1.52,13.51,2.92,27,4.34,40.56C615.19,1194,615.8,1200.25,616.42,1206.52Z"/><path class="cls-6" d="M957.5,301.74q-11.09,44.56-22.19,89.13a13.17,13.17,0,0,1-.77,1.83c-2.15.35-2.82-1.52-3.75-2.72-15.68-20.22-31.37-40.43-46.58-61a31.84,31.84,0,0,1-2.59-4.24q10.65-43.65,21.33-87.29c.07-.28.42-.49.64-.73,1.67-.48,2.44.77,3.18,1.81,15.25,21.56,32.11,41.82,49.48,61.68C956.68,300.69,957,301.26,957.5,301.74Z"/><path class="cls-7" d="M808.44,194.74q-2.62,20.82-5.25,41.64c-.35,2.78-.55,5.58-.82,8.36-.89,1.54.32,3.45-.87,4.94v0c-4.35.42-7.59-2.13-10.63-4.51-10.74-8.42-19.92-18.53-29.22-28.44-9.55-10.17-17.37-21.78-25.85-32.84-2.4-3.13-3.43-6.33-2.35-10.14,2.35-20.57,2.48-41.3,4.21-61.92,2.4-.45,3.11,1.63,4.11,3,14.15,18.93,30.54,36,45.35,54.35,6.16,7.64,12.77,14.88,19.26,22.23A19.06,19.06,0,0,1,808.44,194.74Z"/><path class="cls-7" d="M794.7,319.74c-2.23,20-4.85,39.92-6.31,60-.94,1.2.56,3.42-1.19,4s-3-1.18-4-2.46c-18.24-22.67-36.92-45-53.66-68.84a17.5,17.5,0,0,1-3-5.71c-1.44-2.56-.1-5.15,0-7.71q.5-21.93,1.15-43.85c.21-6.8.65-13.6,1-20.39,2.38-1.35,3.36.65,4.3,2,14.87,21.92,32.77,41.47,49,62.31,3.68,4.71,7.31,9.47,10.84,14.31C794.2,315.27,795.71,317.14,794.7,319.74Z"/><path class="cls-6" d="M794.7,319.74c-.11-3.5-2.78-5.58-4.68-8q-26.94-34.14-54.09-68.09c-2.4-3-2.9-7.55-7.26-8.94.51-16.66,1.65-33.27,3.69-49.81.46-3.73-.72-7.62,1.09-11.2-.47,3.72,1.21,6.57,3.33,9.49,13.78,19,28.63,37,45.71,53.11,5.74,5.43,11.66,10.32,19,13.33-.3,13.6-2.22,27.07-3.34,40.6-.7,8.41-1.75,16.79-2.65,25.19C795.36,316.89,795.81,318.46,794.7,319.74Z"/><path class="cls-7" d="M881.62,324.73c6.37,5.66,10.52,13.1,15.7,19.7,12.55,16,24.83,32.17,37.22,48.27q-6,27.78-12,55.55c-.31,1.45-.77,2.87-1.16,4.3-3.2.24-4.72-2.3-6.21-4.28-15-20-30.92-39.45-44.44-60.61a20,20,0,0,1-2-5C872.23,363.18,876.75,343.92,881.62,324.73Z"/><path class="cls-7" d="M957.5,301.74c-5.06-2.52-8-7.36-11.41-11.4-14.61-17.12-28.86-34.55-41.68-53.09-.17-.25-.54-.36-.82-.54,1-8.46,4.21-16.4,5.86-24.7,2-10.11,4.09-20.19,6.14-30.29,5.12.81,7.5,5.2,10.41,8.53,14.29,16.35,28.17,33.06,42,49.84,2,2.46,4.91,4.75,3.74,8.67Q964.6,275.25,957.5,301.74Z"/><path class="cls-7" d="M905.49,506.68q-8.49,30.49-17,61c-1.95.38-2.62-1.23-3.37-2.39-12.74-19.62-26.22-38.78-37-59.61-1.65-3.18-2.69-6.41-1.76-10,3.15-21.55,7.59-42.86,12-64.17,1.7-.44,2.35.81,3,1.94,13.88,22.85,27.86,45.64,42.21,68.19A14.07,14.07,0,0,1,905.49,506.68Z"/><path class="cls-6" d="M971.71,248.76c-.67-4.8-4.43-7.68-7.24-11-15.1-17.77-29.33-36.3-45.5-53.15-1-1.06-2.25-1.94-3.38-2.9,1.25-7.34,2.62-14.66,3.69-22,.45-3.1,2-3.39,4.49-2.71,20.62,5.72,41.7,7.66,63,7.84.67,0,1.33,0,2,0,4,.32,5.78,1.1,4.32,6.24-7.21,25.36-13.82,50.89-20.66,76.36A5.81,5.81,0,0,1,971.71,248.76Z"/><path class="cls-6" d="M846.38,495.64a16.48,16.48,0,0,0,2.13,8.05c11.64,22.39,25.86,43.16,40,64-1.54,10.85-4.83,21.3-7,32-1.48,7.3-3.26,14.55-4.72,21.85-.57,2.85-1.22,3.92-4.1,1.87a160.27,160.27,0,0,0-23.61-13.84c-2.06-1-3.48-2.07-3.61-4.75-.94-20-5.44-39.37-12.15-58.21-1.37-3.85-1.55-6.75,1.28-10.28,6.28-7.82,6.58-17.88,8.9-27.15C844.63,504.7,845.43,500.15,846.38,495.64Z"/><path class="cls-6" d="M905.49,506.68Q883.7,472,861.88,437.29c-1.21-1.92-1-4.67-3.48-5.82l10.26-48.81c12,18.64,25.58,36.11,38.86,53.8,4.23,5.64,7.87,11.88,13.81,16.09C916.81,470.82,911.65,488.9,905.49,506.68Z"/><path class="cls-6" d="M726.58,306.68c7.94,10.58,15.71,21.3,23.86,31.71,11.44,14.6,23.16,29,34.77,43.44a14.93,14.93,0,0,0,1.63,1.45c.58-1.32,1.06-2.44,1.55-3.55q-1.64,18.81-3.25,37.62c-.36,4.25-.67,8.5-1,13.07-2.5-.35-3-2.4-3.88-3.74q-17.33-25.59-36-50.22c-5.32-7-11.55-13.29-17.4-19.87-1.23-1.38-2.47-2.62-2.4-4.71.49-14.45.92-28.9,1.41-43.35A6.1,6.1,0,0,1,726.58,306.68Z"/><path class="cls-6" d="M808.44,194.74c-10.54-9.88-19.17-21.44-28.5-32.39-9-10.56-18.05-21.12-27-31.76-5.2-6.18-10.21-12.52-15.3-18.79-.6-3.77.63-4.42,4-2.65,11.16,5.92,22.61,11.11,35.13,13.64,12.67,2.57,25.39,2.45,38.09.73,3.6-.5,4,.68,3.62,3.5-1.77,13.11-3.43,26.24-5.34,39.34C811.75,175.84,810,185.28,808.44,194.74Z"/><path class="cls-8" d="M744.55,59.39c18.76-9,37.2-15.69,57.83-9.6,10.36,3.05,14.26,11.74,18.3,20.36.86,1.83-.62,2.26-1.77,2.91-4.15,2.34-8.74,3.2-13.36,3.58a81.12,81.12,0,0,1-43.93-8.33C756.06,65.51,750,63.74,744.55,59.39Z"/><path class="cls-9" d="M935.72,114.33c3.17-3.11,6.94-3.52,10.22-4.68,13.92-4.94,28.23-6.9,42.85-3.82,6,1.27,11.55,4.13,17,7.07,1.27.69,2.9,1.52,2.29,3.37-.49,1.49-2,1.46-3.4,1.44-17.9-.32-35.79-.7-53.67-1.79A151.12,151.12,0,0,1,935.72,114.33Z"/><path class="cls-10" d="M539.46,700.33c-11.41,1.73-21.73,4.2-32.38,4.27a31,31,0,0,1-12-2.76c-2.63-1.08-3.58-2.53-1.92-5.33,2.71-4.56,4.32-10.63,8.66-13.1,5.06-2.87,9.05,3.23,13.55,5.24C523.19,692.16,530.83,696.11,539.46,700.33Z"/><path class="cls-10" d="M784.6,693.12c0,7.57,0,14.54,0,21.52,0,2.41-1,3.4-3.34,3a139,139,0,0,1-36.76-11.09Z"/><path class="cls-10" d="M661.4,716.67c-3.43,4.82-7.56,7.41-11.19,10.53a4.14,4.14,0,0,1-3.67,1.21c-9.69-2.48-19.23-5.31-26.88-12.25-.2-.18-.21-.58-.51-1.5C633.14,715.17,646.84,716.76,661.4,716.67Z"/><path class="cls-11" d="M830.47,668.37c3.33-2.93,6-5.29,8.72-7.71,1.76-1.58,3.16-.2,4.45.62a132.31,132.31,0,0,1,16.26,12.54C849.32,672.75,840.09,671.93,830.47,668.37Z"/><path class="cls-12" d="M499.4,526.69c-2.94-.51-4-2.25-2.68-4.89,1.57-3.21-.1-6.92,1.8-10l5.34-2.06Z"/><path class="cls-13" d="M528.64,619.61c1.54,6.48,2.92,12.93-2.89,18.25Q527.19,628.74,528.64,619.61Z"/><path class="cls-14" d="M162.61,831.59c6,2.46,8,7.55,8.89,13.37Q167.06,838.27,162.61,831.59Z"/><path class="cls-15" d="M541.47,564.74l-1.79,1a84.55,84.55,0,0,1,3.85-17.07c.32,1.33-.46,2.92.94,4C545.92,557.27,543.53,561,541.47,564.74Z"/><path class="cls-16" d="M850.3,245.47l1,3.08-.91,5c-.92.4-1.25.11-1-.86C849.61,250.26,849.06,247.75,850.3,245.47Z"/><path class="cls-17" d="M849.39,252.67l1,.86c-.31,1.39-.63,2.78-.95,4.17C848.55,256,848.12,254.29,849.39,252.67Z"/><path class="cls-6" d="M801.5,249.68c.22-1.66-.46-3.48.87-4.94C802.42,246.45,803.1,248.27,801.5,249.68Z"/><path class="cls-18" d="M945.47,885.65c-7.5,2.89-15.07,5.61-22.53,8.64-24.92,10.09-50,19.75-75,29.73-22.86,9.15-46.54,15.53-70.36,21.6-18.47,4.7-36.73,10.31-55,16-15.25,4.73-31,6.73-46.59,10-10.35,2.17-20.85,3.64-31.26,5.53a31.2,31.2,0,0,1-9.75.65c-12.49-1.62-20.46,5-26.1,15.22-2.4,4.36-4.49,8.89-6.73,13.35-2.47-.66-2.57-2.79-3.41-4.27-4-7.07-6.77-14.79-11.56-21.5A21.24,21.24,0,0,0,577,973c-18.16-6.87-36.37-13.62-54.41-20.73-27.48-10.83-55-21.61-81.75-34.36-20.84-9.95-42.89-17-64.4-25.38-33.74-13.1-67.72-25.64-100.75-40.45-27.9-12.51-56.39-23.64-83.86-37.15-13.09-6.44-26.78-11.7-40.25-17.35-7.3-3-12.73-10-12.72-17.3,2.4.8,4.7,1.47,6.92,2.34,19.21,7.48,39.55,11.55,58.75,19C240,815.35,276.4,826.47,311.6,841c21.8,9,44.47,15.57,67.18,21.94,22,6.18,43.67,13.78,66,18.93,13.71,3.16,27.66,5,41.6,6.67,7.76.94,14.74,3.93,21.85,6.58,20.84,7.79,41.16,16.9,62.36,23.8a100.48,100.48,0,0,1,20.88,9.39c10.82,6.59,22,6.18,33.67,4,21.46-4,43-7.73,64.42-11.74,11.09-2.07,21.88-5.38,32.66-8.69,21.24-6.51,42.6-12.61,64.22-17.79A337.39,337.39,0,0,0,839.68,876c16.17-6.87,33.2-10,50.48-12.47,13-1.84,25.59-5.35,38.19-8.95,27.52-7.88,53.74-19.2,80.23-29.85,12-4.82,24.18-9.19,37-11.37a11.59,11.59,0,0,1,5.79,0,15.41,15.41,0,0,0,12.43-.95c18.68-9.91,39-16.22,57.75-25.91,22-11.37,43.51-23.62,64.88-36.14q23.22-13.59,47.07-26.12c8.07-4.26,16.7-6.3,25.59-1.39a24.47,24.47,0,0,1,9,9.12c4.31,7,3.25,10.86-4.07,14.38-28.17,13.52-56.64,26.37-85.28,38.88-32.73,14.28-65.87,27.6-98.43,42.3-31.17,14.07-62.88,26.95-94.33,40.41-9,3.86-17.94,7.9-26.9,11.89-1.5.67-2.89,1.74-4.66.86-1.07,1.89-3.37,1.89-4.83,3.18C948.27,884.61,946.8,885,945.47,885.65Z"/><path class="cls-19" d="M949.35,883.64c1.4-1.49,3.31-2.08,5.08-2.9-.2,2.4-2.18,2.51-3.86,3A.81.81,0,0,1,949.35,883.64Z"/><path class="cls-20" d="M949.35,883.64l1.21.09a6,6,0,0,1-5.09,1.92A5.52,5.52,0,0,1,949.35,883.64Z"/><path class="cls-21" d="M816.9,1287.9c-2.47-.11-4.62-.84-5.07-3.34-.48-2.69,1.88-3.88,3.9-4.44,9.26-2.58,18.55-5.07,27.89-7.32,38.52-9.3,76.48-20.68,114.84-30.59,12.18-3.15,24.48-5.8,36.72-8.72a31.22,31.22,0,0,0,6.17-1.86c3-1.44,5.36-1,6.57,2,1.34,3.34-.73,5.58-3.66,6.48-5.23,1.59-10.57,2.81-15.9,4-50.38,11.68-99.77,27.23-150.21,38.72C831.06,1284.51,824,1286.22,816.9,1287.9Z"/><path class="cls-21" d="M1302.71,1072.14c2.13.29,3.79.83,4.47,2.93a4.05,4.05,0,0,1-2.39,5.35c-5.59,2.55-11.28,4.88-16.94,7.25-27.71,11.63-55.39,23.31-83.14,34.84q-33.35,13.86-66.3,28.63c-.76.33-1.62.44-2.37.78-2.73,1.27-5.07.78-6.2-2.05s.83-4.36,3.1-5.41c7.7-3.54,15.37-7.15,23.14-10.52q31.76-13.79,63.59-27.37c21.4-9.07,42.87-18,64.31-26.93q7.57-3.18,15.18-6.3C1300.38,1072.83,1301.67,1072.49,1302.71,1072.14Z"/><path class="cls-21" d="M1060.54,1171.72c.36,3-1.91,4.42-4.41,5.61a273.23,273.23,0,0,1-43.37,16c-19.6,5.51-39.2,11.1-59.26,14.77-3.41.63-6.84,1.16-10.27,1.73-2.33.39-4.62.09-5.17-2.51-.64-3,1.48-4.69,4.05-5.35,3.84-1,7.79-1.5,11.66-2.37,32.38-7.27,64.35-15.95,95.07-28.72a53.53,53.53,0,0,0,5.17-3C1057.52,1166,1060.41,1167.53,1060.54,1171.72Z"/><path class="cls-21" d="M1213.28,1172.55c-2.17-.31-3.81-1.19-4.26-3.19-.51-2.24.75-3.85,2.68-4.78,5.23-2.53,10.48-5,15.78-7.39q21.81-9.75,43.66-19.38c1.06-.47,2.17-.82,3.24-1.28,2.56-1.12,4.76-.48,5.82,2a4.34,4.34,0,0,1-2.34,5.88c-4.61,2.27-9.28,4.46-14,6.5q-24.19,10.45-48.46,20.77C1214.65,1172,1213.88,1172.31,1213.28,1172.55Z"/><path class="cls-21" d="M569.2,1268.82c-7.78-1.54-15.61-2.92-23.35-4.64-32.67-7.24-65.15-15.3-97.6-23.45-33.06-8.29-65.07-19.75-96.76-32.15-9.43-3.69-18.86-7.37-28.26-11.14-1.64-.66-3.38-1.39-3.65-3.67-.4-3.47,2.27-5.66,5.55-4.35,31.61,12.65,63.59,24.32,96.09,34.48,26.43,8.26,53.5,14.12,80.36,20.77,21.38,5.29,42.88,10,64.42,14.58,1.29.28,2.69.11,3.94.48,2.58.75,6.06.7,5.58,4.89C575.09,1268.47,572.28,1268.78,569.2,1268.82Z"/><path class="cls-21" d="M388.36,1177.8c-4.8-1.84-9.68-3.49-14.38-5.57q-42.48-18.76-83.51-40.53c-14.86-7.84-30.19-14.81-45.26-22.26a661.94,661.94,0,0,1-63.67-36.25,24.7,24.7,0,0,1-3.21-2.35c-1.64-1.47-2.54-3.31-.91-5.23a3.85,3.85,0,0,1,5.34-.92c6.59,3.88,13.26,7.61,19.81,11.56,23,13.87,47.09,25.45,71.21,37.11,21.14,10.22,41.8,21.41,62.9,31.7,16,7.8,31.95,15.66,48.6,22a25.58,25.58,0,0,1,6.17,3.24,3.69,3.69,0,0,1,1.39,4.83A4.23,4.23,0,0,1,388.36,1177.8Z"/><path class="cls-21" d="M193,1124.64c-5,0-8.68-2.78-12.45-5.09-19.12-11.7-37-25.11-54.41-39.19-2.24-1.81-3.13-4-1.06-6.42,2.26-2.61,4.68-1.08,6.61.46,10.25,8.15,20.65,16.09,31.57,23.32,10.09,6.68,19.81,14,30.84,19.15,2.11,1,3.71,2.45,3.22,5S195.05,1124.94,193,1124.64Z"/><path class="cls-22" d="M576.27,639.71c-1,3.17-.59,6.34-.58,9.49,0,2.81-.94,4.9-3.92,5.5a5.58,5.58,0,0,1-6.62-3.25c-2.27-5-1.6-10.06.52-14.92,1.15-2.64,3.59-3.34,6.29-2.79C575.23,634.39,575.65,637.15,576.27,639.71Z"/><path class="cls-22" d="M541.47,564.74c-.1-4.31,2.48-8,3-12.12,1.6-3.14,3.49-5.81,7.65-4.17,4,1.59,4,4.95,3.23,8.32-.73,3.19-1.47,6.45-3.55,9.15C548.45,570.25,544.14,569.76,541.47,564.74Z"/><path class="cls-22" d="M596.05,484.44c-.76,4.33-2.28,8.5-5.53,11.81a5.35,5.35,0,0,1-6.86.81,5,5,0,0,1-2.3-6,37.48,37.48,0,0,1,4.82-10.31c1.44-2.28,3.87-2.51,6.23-1.85C595,479.6,595.74,481.85,596.05,484.44Z"/><path class="cls-22" d="M635.61,427.65c-.14,4.39-6.17,11.27-10.32,12a5.29,5.29,0,0,1-5.43-8.1,82.88,82.88,0,0,1,6.52-8.13,4.61,4.61,0,0,1,5.9-1.13C634.45,423.37,635.91,425.17,635.61,427.65Z"/><path class="cls-23" d="M583.62,561.67c0-6.94,2-10.13,6.2-9.89,3.84.21,6.21,4.57,5.63,10.6a19.61,19.61,0,0,1-1,4.34c-1,2.91-3.07,4.36-6.08,3.93-2.77-.39-4.34-2.3-4.75-5A26.27,26.27,0,0,1,583.62,561.67Z"/><path class="cls-22" d="M746,631.47c.06,4.65-3.81,7.28-7.6,5.55a16.5,16.5,0,0,1-7.88-7.91,5.58,5.58,0,0,1,1.25-6.81,4.91,4.91,0,0,1,6.42-.53A18.82,18.82,0,0,1,746,631.47Z"/><path class="cls-22" d="M602.51,646.78c-.12-3.93,1-7.19,5-7.7s6,2,6.45,5.9c.22,1.79,1,3.5,1.32,5.27.6,2.91-.3,5.23-3,6.64-3,1.52-5.19.09-6.91-2.09A11.59,11.59,0,0,1,602.51,646.78Z"/><path class="cls-23" d="M772.76,621.12c-3.43-.14-10.32-6.76-10-10s2.09-5.57,5.84-5.5c4.33.09,10.09,6.19,9.8,10.4A5.46,5.46,0,0,1,772.76,621.12Z"/><path class="cls-22" d="M691.61,635.69c4.83.08,10.5,8.4,8.95,12.66a4.6,4.6,0,0,1-4.94,3.35c-5-.23-10.37-7.58-9-12.38C687.35,636.6,689.51,636,691.61,635.69Z"/><path class="cls-22" d="M694.64,423.87c.16,3-.46,5.89-2.79,8.15a5.23,5.23,0,0,1-8.7-1.43c-1.44-2.79.15-10.43,2.53-12.58a5.46,5.46,0,0,1,6.05-1C694.77,418.26,694.8,421.06,694.64,423.87Z"/><path class="cls-22" d="M702.32,479.19c-.23,6.68-3.05,10.87-6.89,10.35-4.44-.59-5.23-4.27-5.43-7.8-.25-4.56,3.22-8.3,7-8.07S701.88,476.5,702.32,479.19Z"/><path class="cls-22" d="M661.34,653.25c-.53,2.58-1.56,5.13-5.08,5.42-4,.31-8.4-4.66-8.29-9.64a5.76,5.76,0,0,1,5.56-6C656.84,642.71,661.19,648.43,661.34,653.25Z"/><path class="cls-23" d="M718.51,479.52c-.27-3.89,1.78-6.25,5.65-6.57,3.52-.3,6.44,4.07,6.28,9.22-.11,3.41-1.32,6.32-5.35,6.52C721.39,488.87,718.47,484.75,718.51,479.52Z"/><path class="cls-23" d="M664,426.75c-.17,4.83-3.59,9.15-7.17,8.7s-5.26-2.78-5.11-6.26c.26-5.9,3-9.65,6.8-9.46C661.87,419.9,664.11,422.77,664,426.75Z"/><path class="cls-23" d="M626.67,564c.16,3.7-.66,6.68-5.17,6.78-4,.09-6-2.73-6.09-7.85-.08-4,1.6-6.44,5.45-6.94C624.45,555.49,626.71,558.82,626.67,564Z"/><path class="cls-22" d="M732.46,565.73c-4.92.08-9.56-3.83-9.5-7.58,0-3.41,1.88-5.57,5.59-5.58a8.21,8.21,0,0,1,8.05,7.84C736.63,563.85,734.89,565.6,732.46,565.73Z"/><path class="cls-22" d="M698.78,571.6c-4.56.18-9.09-3.18-9.34-6.44-.32-4.08,2.25-5.66,5.66-6.07,4.08-.49,8.32,2.95,8.44,6.66S701.48,571.05,698.78,571.6Z"/><path class="cls-23" d="M651.74,559.63c4.46.14,7,3.64,7,8.66,0,3.69-1.72,5.63-5.47,5.5s-7-4.33-6.62-8.53C646.88,561.76,648.88,559.91,651.74,559.63Z"/><path class="cls-24" d="M658.13,491.82c-4.13.13-5.44-2.43-5.53-6-.1-4,2.55-7.18,6-7,3.9.16,5.42,2.85,5.7,6.23A6.06,6.06,0,0,1,658.13,491.82Z"/><path class="cls-22" d="M638.35,487.47c-.67,3.2-2.46,6.12-6.11,5.74-4-.42-5.75-3.66-5.66-7.58.09-3.7,2.09-5.91,5.9-5.87C635.62,479.79,638.49,483.63,638.35,487.47Z"/><path class="cls-25" d="M750.44,550.46c.07-2.91,1.41-4.74,4.46-4.83a4.72,4.72,0,0,1,5.18,4.91c.11,3.08-2.19,5-5.18,4.85C752.15,555.3,750.3,553.6,750.44,550.46Z"/><path class="cls-26" d="M290.69,1021.11c1.34,1.23,2.1,2.16,1.69,3.6C290.63,1024.16,290.78,1022.86,290.69,1021.11Z"/></g></g></svg>