<svg xmlns="http://www.w3.org/2000/svg" viewBox="0 0 1796.59 1078.99"><defs><style>.cls-1{fill:#46a461;}.cls-2{fill:#adc7b4;}.cls-3{fill:#acbab0;}.cls-4{fill:#83b291;}.cls-5{fill:#c33712;}.cls-6{fill:#62b278;}.cls-7{fill:#ca5434;}.cls-8{fill:#701f0a;}.cls-9{fill:#fef7d3;}.cls-10{fill:#e46335;}.cls-11{fill:#df5d2e;}.cls-12{fill:#ea6637;}.cls-13{fill:#fbd71a;}.cls-14{fill:#ea6537;}</style></defs><g id="레이어_2" data-name="레이어 2"><g id="레이어_1-2" data-name="레이어 1"><path d="M943.84,0A1471,1471,0,0,1,1119.89,9.7c98.17,11.46,194,32.8,286.81,67.26,4.53,1.68,9,3.43,12.8,6.64a5,5,0,0,0,2.13,1.2c19.73,3.71,37.09,13.5,55,21.75,56.46,26.06,109.4,57.89,157.54,97.42,44.12,36.22,82.38,77.66,111.73,126.88,24.47,41,40.94,85,47.53,132.41,7.54,54.31,1.58,107.26-16.68,158.87-21.63,61.14-57,113.74-100.94,160.85-51.86,55.53-112.4,99.91-178.17,137.4-74.73,42.61-153.91,74.74-236.26,99.25a1407.86,1407.86,0,0,1-158.23,37,1505.07,1505.07,0,0,1-175.06,20,1464.28,1464.28,0,0,1-198.27-2.35c-86.31-6.82-171.32-21.13-254.68-44.73-70.95-20.08-139.38-46.52-204.1-82.1-62.6-34.41-119.82-75.88-167.92-129.15C66.93,778.31,38.3,733.59,19.92,682.6.31,628.21-5,572.54,4.81,515.48,16.91,445.16,48.57,384,92.61,328.76c45.33-56.87,100.26-103,161-142.46,90.13-58.62,188.14-99.67,291-129.69a1372.84,1372.84,0,0,1,161-36.44A1513.62,1513.62,0,0,1,943.84,0Z"/><path class="cls-1" d="M1346.35,939.76c-23.59,9.52-47.6,17.9-71.79,25.74a1286.71,1286.71,0,0,1-143.79,37.44c-36.69,7.36-73.63,13.2-110.8,17.74a1456.09,1456.09,0,0,1-184.33,10.48,1389.62,1389.62,0,0,1-143-8.27,1246.55,1246.55,0,0,1-187.26-34.44c-83.22-22.2-162.95-53-237-97.48-49.56-29.76-94.89-64.82-133.21-108.37S68.08,690,55,632.67c-11-48.27-8.89-96.11,4.84-143.51,12.37-42.72,33-81.3,59.43-116.88,51.25-69,117.16-121,190.35-164.62,61.61-36.67,126.93-65.22,194.73-88.32A1302.44,1302.44,0,0,1,674.91,74.1q53.63-10.48,108-16.61,68.28-7.74,137-9.28,73.26-1.62,146.23,4.16,49.56,3.85,98.63,11.49A1176.69,1176.69,0,0,1,1338,103.94c17.29,5.45,34.44,11.31,51.41,17.72,4,1.53,8.1,3,12.47,3.42a8.82,8.82,0,0,1,3.4.7c24.06,13.69,50.35,22.59,74.9,35.29,51.11,26.44,99.39,57,142.27,95.57,40.76,36.68,75,78.42,98.39,128.44,16.43,35.22,26.05,72.15,27.72,111.15,2,47.87-8.06,93.21-27.42,136.72-19.86,44.64-48.42,83.38-81.11,119.3a10.87,10.87,0,0,1-1.54,1.22,64.73,64.73,0,0,0-12.21,12.26c-36.52,36.32-77.34,67.15-120.83,94.56-43,27.12-88.56,49.46-135,70-1.49.66-3,1.62-4.73,1.29-5.1,1.79-10.23,3.47-15.16,5.68C1349,937.91,1347.07,937.78,1346.35,939.76Z"/><path class="cls-2" d="M1349.44,936.68c5.34-2,10.38-4.87,16.26-5.09-4.41,2.85-9.39,4.34-14.28,6.06C1350.4,938.06,1349.36,938.49,1349.44,936.68Z"/><path class="cls-3" d="M1626.27,765.73c-1.25-1.66.36-2.47,1.21-3.11,3.79-2.91,5.91-7.82,11-9.14A128.35,128.35,0,0,1,1626.27,765.73Z"/><path class="cls-4" d="M1349.44,936.68l2,1-5.07,2.11C1344.93,936.27,1348.5,937.79,1349.44,936.68Z"/><path class="cls-5" d="M1307.34,203.42c15.87,6.06,31.09,13.6,46.61,20.46,15.36,6.79,30.31,14.63,47,18.1a128.3,128.3,0,0,0,24.79,2.44c17.5.21,35-.15,52.49.38,31.85,1,61.87,8.62,88.89,26.17,16.42,10.67,29.9,24.4,41.28,40.23,15.59,21.67,30.12,44,39.59,69.15,6.21,16.48,8.56,33.82,10.15,51.23,3.25,35.64,7.87,71.07,15.63,106.05a252.75,252.75,0,0,1,4.43,83.88c-3.29,28.78-15.4,54.15-31.34,78-16.2,24.27-37.43,43.7-59.15,62.68-17.29,15.12-34,31-52.8,44.29-51.48,36.34-107.11,63.93-168.43,79.41-46.92,11.84-93.94,23.23-141.45,32.47-26.44,5.14-50.94,15.39-74.56,27.84-33.24,17.51-68.11,30.07-105.09,36.84-28,5.11-55.82,11.19-84.41,11.53-44.76.52-88.19-6.75-129.72-23.77-29.62-12.13-60.51-19.13-91.94-24.32-21.24-3.5-42.6-4.87-64.11-5.16-25.83-.36-51.38-3.58-76.81-8.2-17.81-3.24-35.85-5.26-53.74-8.11-27.15-4.32-53.38-12.59-80-19a161.51,161.51,0,0,1-57.94-27.25c-7.78-5.72-15.69-11.27-23.62-16.78-26.76-18.61-56-32.85-84.92-47.56-34-17.27-66.91-36.57-100.19-55.16-38.36-21.41-58.57-55.64-67.63-97.82-6.11-28.39-2.52-55.91,4.54-83.33,5-19.32,7.55-38.65,6-58.71-1.48-19.67-.12-39.29,7.49-57.93,6.82-16.7,17.07-31.29,28.68-44.87,33.87-39.62,71.72-75.1,112.23-107.89,15.78-12.77,30.41-27,45.34-40.75,26.62-24.59,55.62-45.49,89.26-59.61,30.47-12.79,62.11-20.37,94.94-24,29.61-3.28,59.35-5.13,88.89-8.82,43.54-5.44,87.39-9.52,129.67-22C759.18,147,780.43,138.54,802,131.3c13.39-4.49,26.73-9.25,40.64-12,10.9-2.15,21.53-2,31.22,4.4a7.83,7.83,0,0,0,4.8,1c27.66-.38,54.69,3.9,81.32,11.12.17,3-2.63,3.49-4.32,4.81-22.79,17.79-43.13,37.68-56,64.14-3.24,6.64-4.06,13.28-1.79,20.3a10.58,10.58,0,0,1,.4,5.91c-1.84,7.25-1.27,14.57-.49,21.83,2.73,25.4,10.05,49.53,20.42,72.82,9.34,21,20.69,40.68,36,57.92,16.13,18.22,34,34.17,56.69,44.11,14.72,6.44,29.42,12.47,45.49,14.51,20.23,2.55,40.06.32,60-3.48,32.62-6.2,62.81-19.26,92.42-33.18a219.89,219.89,0,0,0,72.77-55.19c9-10.33,18.17-20.54,24.44-32.75,9.84-19.16,16.68-39.38,15.83-61.23-.63-16.14-5.3-31.46-12.58-45.94C1308.19,208.21,1306.24,206.2,1307.34,203.42Z"/><path d="M1307.34,203.42c7.69,14.89,13.44,30.36,15.36,47.18,1.52,13.37-.75,26.11-4.19,38.92-10.19,38-35.75,64.73-64.86,88.82-24.3,20.11-52.69,32.64-81.64,44.5a322.81,322.81,0,0,1-72.38,20.06c-28.43,4.49-55.9.82-82.5-10.79-46.38-20.25-76.37-56.09-97.62-100.54-9.43-19.75-16.65-40.32-20.5-61.88-2.36-13.2-5.13-26.54-1.75-40.06a6.39,6.39,0,0,0-.52-3.9c-2.81-7.28-2-14.24,1.45-21.21,13.38-27.15,34.26-47.66,57.86-65.8,1.31-1,2.65-2,4-3,23.65-13.58,49.26-21.67,75.93-26.5,21.23-3.84,42.56-4.13,64.12-2,43.76,4.28,85.71,15.63,126.41,31.53,29.4,11.5,55.25,28.65,74.18,54.73C1303,196.71,1305.12,200.11,1307.34,203.42Z"/><path class="cls-6" d="M298.64,877.71c-2.83-.88-4.31-1.39-5.52-2.71C295.46,873.91,296.65,875.23,298.64,877.71Z"/><path d="M504.32,662.5c-23,7.25-45.57,15.9-69.08,21.47-35.59,8.43-71.17,16.89-106.83,25-19.84,4.53-40.21,5.32-60.38,7.54-11.74,1.3-23.45,3-35.29,3.23-12.79.29-24.86-1.92-35.44-9.7-10.18-7.48-14.45-18.47-17.5-30-7-26.58-12.65-53.42-14-81A112.59,112.59,0,0,1,169,566.38c3.54-14.27,12-24.59,24.91-31.54,14.38-7.76,29.79-13.3,44.39-20.59,8.35-4.17,8.51-4.17,6-13-5.1-17.65-6.41-35.23-.41-53,4.73-14,13.74-24.19,26.76-30.87q37.77-19.41,77-35.72c57.77-24.08,115.48-48.26,172.78-73.43,50.28-22.08,100.69-43.95,152.18-63.12,20.27-7.55,41-13.65,62.46-17,8.91-1.41,17.59-1.78,25.24,4.35,1.11.89,2.73,1.18,4.16,1.63,8.41,2.64,13,8.87,15.81,16.78a251.37,251.37,0,0,1,13.1,66.89c.86,13.12,2,26.23,2.65,39.36.87,17.83.46,35.65-3.66,53.13-3.49,14.81-12.35,25.53-26,32.41-18.15,9.17-37.25,16.17-55.72,24.6-2.16,1-3.49,1.81-3.45,4.61a468.61,468.61,0,0,1-3.79,70.24,22.93,22.93,0,0,0,0,2.79c2.19.1,3.72-1.26,5.35-2.12,42-22.17,83.65-44.87,126.44-65.43,26.4-12.68,52.49-26.11,80.85-34.17,6.07-1.73,12.14-3.53,18.27-5,8.57-2.08,16.19-.36,22.29,6.39a8.34,8.34,0,0,0,4.39,3c13.91,3.18,20.43,11.06,21.16,25.62a227.43,227.43,0,0,1,0,28.48c-.33,4.5.63,5.29,5.07,3.86,40.85-13.17,81.5-26.95,122.32-40.19,26.24-8.52,52.44-17.38,79.26-24,22-5.44,43.88-10.79,64.93-19.39,14.92-6.1,30.15,2.05,35.55,18.08,1.77,5.23,2.41,10.7,3.44,16.09s1.15,5.51,5.58,2.53c26.54-17.86,54.33-33.71,81.58-50.44,7.1-4.36,14.5-8.22,22.94-9.38,1.8-.24,3-1.33,4.31-2.32,8.1-6,16.86-7.19,25.81-2.49,8.75,4.59,13.18,12.23,12.53,22.15-.86,13.11-2.34,26.19-3.38,39.29s-1.86,26.23-2.79,39.34c-.24,3.43-.5,6.86-.79,10.89,8.53-4.88,16.41-9.78,24.64-14,21-10.86,42.22-21.27,63.19-32.17,12.84-6.68,25.25-14.21,38.45-20.21,21.16-9.63,39.63-4.6,52.9,14.4,9,12.88,14.21,27.48,19.06,42.18Q1651,539,1664.57,582.3a67.72,67.72,0,0,1,1.76,34.1,44.32,44.32,0,0,1-14.47,24.52c-19.69,17.52-41,32.94-61.74,49.18-25.94,20.35-51.23,41.57-78.37,60.35-70.38,48.69-143,93.44-221.83,127.51-9.18,4-18.32,7.95-27.91,10.81-17.91,5.34-33.52,1.52-46.72-11.76-11-11.08-19.1-24.36-27.79-37.15-6-8.83-12.67-17.15-18.81-25.86-2-2.86-3.5-1.43-5.33-.4-21.76,12.25-43.39,24.75-65.32,36.71-28.35,15.47-56.73,30.93-85.49,45.61-24,12.24-43.55,7.73-59-14.11-17.16-24.23-31.92-50-41.76-78.19-3.08-8.86-5.38-17.91-4.16-27.4.49-3.83-1.81-2.74-3.6-2.38-26.72,5.39-53.37,11.07-79.74,18-14.3,3.78-28.83,6.82-43.84,5.9-6.48-.4-12.56-2-17.68-6-2.62-2.08-4.49-1.55-7,.09-30.79,20.28-63.19,37.59-96.7,53-25.92,11.9-52.85,21.07-79.59,30.78-13.9,5-27.23,11.87-42,14.32-16.09,2.67-29.67-1.81-39.69-15.2-7.11-9.51-12.74-19.94-18.21-30.4-10.88-20.8-22.31-41.36-29.73-63.75-4.69-14.16-7.23-28.67-6.1-43.7,1.54-20.47,13.84-34.38,28.26-47.06,10.64-9.37,22-17.81,33.45-26.14.16-.39.83-.73.49-1.13A1.23,1.23,0,0,0,504.32,662.5Z"/><path class="cls-7" d="M287.38,341.73c0-8,5.68-16.33,13.85-18.87,13.86-4.32,25.75-12.31,38-19.61,18.55-11.08,35.19-24.92,52.92-37.21,12.91-9,27.16-14.67,42-19.18,21.59-6.55,43.25-12.88,64.89-19.29,19.23-5.69,38.48-11.25,58.46-13.82,8-1,18.63,4.56,22.48,12.07a22.17,22.17,0,0,1-3.2,25c-7.15,8-16.8,10.46-26.54,12.54-18.2,3.89-35.94,9.36-53.74,14.67-18.45,5.5-36.91,10.94-55.31,16.61a85.45,85.45,0,0,0-28,14.79c-26.51,21-55.75,37.29-86.94,50.17-7.08,2.92-14.37,5.24-22.24,3.31C293.36,360.33,287.33,352.64,287.38,341.73Z"/><path class="cls-7" d="M863.34,368.85c-.26,23.89-5.84,43.72-14.08,62.94-3.54,8.24-6.78,16.52-14.57,22.1-8.3,5.94-17.84,6.58-26.48,1-7.54-4.86-11.46-14.91-9.5-24,1.78-8.2,5.55-15.66,8.86-23.23,9.11-20.83,9.22-42.06,4.42-63.82-5.45-24.66-12.63-48.8-20.37-72.81-4-12.49-6.14-25.21-3.1-38.22,2.61-11.17,11-18.85,20.23-19.22,13.4-.53,24.18,9.49,22.26,22.73-1.45,10,1.66,18.39,5.25,26.84A382,382,0,0,1,861,345.44C862.54,354.05,862.77,362.9,863.34,368.85Z"/><path class="cls-7" d="M1597.25,391.76c-13.08-.12-19.94-6.51-25.47-15.24-11.21-17.71-27.09-29.78-46.19-38-14.22-6.12-29.52-7.23-44.49-9.92-10.68-1.92-21.31-3.86-29-12.66-5.57-6.34-6.44-16.45-1.83-24.21,4.24-7.15,13.55-11.63,21.31-9.43,13.35,3.78,27.13,3.79,40.74,5.32,24.86,2.8,47.38,11.55,66.78,27.42,12.09,9.9,23.57,20.58,32.07,33.94,6.34,10,9,20.51,2.62,31.47C1609.74,387.42,1604.1,392.35,1597.25,391.76Z"/><path class="cls-7" d="M404.39,826.75c0,17.83-18.56,28.53-33.95,19-29.48-18.31-60.66-33.79-89.19-53.67-7.89-5.5-15.6-11.18-24.12-15.82-8.89-4.83-12.1-16.44-8.19-25.72,4.11-9.76,13.95-14.39,24.51-12.19,10.26,2.14,18.49,8.2,27.05,13.46,14.34,8.81,29.37,16.24,44.25,24,14.42,7.54,28.72,15.33,42.22,24.5a46,46,0,0,1,14,14.57C403.19,818.64,404.87,822.62,404.39,826.75Z"/><path class="cls-7" d="M856.75,812.52c10.9-.45,22.55,6.31,23.88,19.62.91,9-3.08,16-10.15,21.33-7.94,6-17.53,7.63-26.82,10.06-28.2,7.35-56.73,13.3-85.08,20a48.47,48.47,0,0,0-6.59,2.19c-10.63,4.19-21.31.42-26.8-9.52-5-9-2-21.1,6.67-27.4,6.75-4.9,14.68-6.83,22.47-9.14,26.07-7.73,52-15.92,78.33-22.68C840.33,815,847.91,812.35,856.75,812.52Z"/><path class="cls-7" d="M1052.57,971.54c-13.66,0-21.29-5.7-24.33-16.91-2.85-10.55,4.82-23.13,16.36-24.86,10.38-1.55,19.84-5.47,29-10,21.62-10.65,43.43-20.95,64.13-33.38a52.2,52.2,0,0,1,15.24-6,19.16,19.16,0,0,1,19.38,6.1c5.61,6.19,7.9,13.72,4.39,22.16-4.17,10-11.56,17.2-20.64,22.25-29.23,16.27-59.68,29.8-92,38.83a13,13,0,0,1-3.37.75C1057.75,970.5,1055,972.32,1052.57,971.54Z"/><path class="cls-8" d="M504.32,662.5c1.19-1.17,2.73-1.37,4.74-1.73a4.58,4.58,0,0,1-3.58,2.9Z"/><path class="cls-9" d="M1076,397.11c-29-.8-54.27-12.29-75.87-32.54-19.47-18.26-32.33-40.82-42.81-65-7.15-16.48-14.29-32.93-17.37-50.82-1-5.78-1.08-11.58-1.52-17.38a5.64,5.64,0,0,1,1.07-3.25c18.24-33.33,44.48-56.28,81.87-66.69,31.91-8.89,63.74-9.55,95.93-3.86,35.12,6.22,69.52,15.2,102,30.2,13.53,6.25,25.93,14.48,36,25.57,12.88,14.14,21.25,30.68,19.71,50.14-1.22,15.54-7,29.89-16.74,42.59-16.74,21.93-37.51,39.07-61,53.19-11.92,7.16-25.29,11-37.76,16.83-21.9,10.28-45,16.25-68.79,19.87C1086.16,396.66,1081.47,396.7,1076,397.11Z"/><path class="cls-10" d="M806.33,545.56c13.37-7.79,27.24-14.64,41.28-21.09,23.3-10.71,45.43-23.74,68.75-34.4,4.68-2.14,9.63-3.66,14.34-5.76,3.19-1.42,4.06-.49,4.1,2.73a283.81,283.81,0,0,1-1.79,31.4c-1.44,14.57-1.45,29.26-3.64,43.77-.32,2.13-.79,4.24-1.19,6.36-2.2,1.36-3.54-.39-4.65-1.62-8.94-10-27.55-8-34.74,6.46Q877,597.1,865.16,620.74c-5.17,10.35-13.6,17.4-23.17,23.35-9.15,2.95-16.78,8.77-25.09,13.29-23,12.5-43.21,28.74-62.82,45.85a7.12,7.12,0,0,0-2.31,3.19c-5.09,6.34-12.33,10-18.71,14.69-7.36,5.4-15.07,10.34-22.86,15.14-7.38,4.55-14.41,9.6-19.19,17.1-3.86,6-6.65,12.32-4,19.72a4.76,4.76,0,0,1-.52,4.75c-15.86,9.13-32.56,16.56-49.11,24.31C604.61,817.47,569.79,827.34,536.4,841c-1.91.78-3.41.93-4.61-1.2-14-24.9-28.22-49.73-37.38-77-1.27-3.75-1.79-7.76-2.58-11.67-1.73-8.47.28-15.4,7.1-21.37a405.52,405.52,0,0,1,37.33-29.2c3.55-2.44,7.2-4.73,10.81-7.08,2.58-1.12,3.27.85,3.87,2.56,4.48,12.9,18.83,17.25,30.8,11.06A915.3,915.3,0,0,0,665,658.67c37.67-24.82,76.48-47.75,116.07-69.38,5.55-3,11-6.31,16.51-9.33,9.16-5,15.2-18.05,9.46-29.32C806.23,549.09,804.94,547.47,806.33,545.56Z"/><path class="cls-10" d="M1254.16,547.2c14-10.71,28.82-20.33,43.3-30.39,31.7-22,64.9-41.86,95.37-65,1.48.23,1.42,1,1.37,1.58-1.7,18.41-1.9,36.92-4.13,55.28a19.73,19.73,0,0,1-.76,2.88c-1.1,6.23-1.1,6.23-6.35,2.33-9.9-7.38-20.14-6.44-28.41,2.78-5.66,6.3-8.81,14.14-12.12,21.72-8,18.25-18.17,35.16-29.32,51.58-15.35,22.61-31.83,44.35-49.12,65.5a77.8,77.8,0,0,0-6.64,10c-3.33,5.67-4.88,11.71-2.94,18.19,1.11,3.71-.16,5.7-3.48,7.58-18.83,10.67-38.44,19.86-57.33,30.42-19.38,10.83-37.52,23.48-55.52,36.38-5,3.59-9.88,7.33-14.69,11.19a31.85,31.85,0,0,0-10.4,14.34,11.88,11.88,0,0,1-3.61,5.2c-14.33,9.07-29.25,17.11-44.2,25.07-23.19,12.33-46.63,24.21-69.34,37.43-3.24,1.89-5,1.58-7-1.79-12-19.74-24.21-39.37-32-61.34-1.27-3.6-.51-5.78,2.23-8.19,9-7.91,17.79-16,27.22-23.38,2-1.5,4.1-1,6.21-.45,6.61,1.84,12.51.31,17.8-3.85,14.16-11.14,29.91-20,44.55-30.39,13.15-9.38,26.28-18.78,39.12-28.6,15.21-11.63,30.34-23.37,45.09-35.57,20.52-17,40.8-34.24,61.22-51.34q18.75-15.71,38.11-30.68a49.79,49.79,0,0,0,9.85-9.87c3-4.08,5.34-8.46,4.83-13.82A7.19,7.19,0,0,1,1254.16,547.2Z"/><path class="cls-10" d="M525.33,358.47c15.76-7.9,32.12-14.48,48.36-21.29q67.88-28.47,136-56.32c7.67-3.15,15.71-5.41,23.59-8.07,2-.69,3.66-1,4.5,1.91,3.49,12,6.26,24.13,6.63,36.69a4.48,4.48,0,0,1,.41,2.42c.11,5.42.11,5.42-4.91,3.95-11-3.23-21.47,2.09-25,13-4,12.33-6.92,25-11.06,37.33-1.67,5-4.6,7.95-9.36,10.2-15.64,7.39-31.33,14.7-46.75,22.57a753,753,0,0,1-78.29,33.91c-3.28,1.23-6.71,1.94-10,3.07-13.59,4.6-27,9.59-36.6,21.08-13.22,1.19-29.56,11.39-27.12,27.65.77,5.11,1.35,5.81,6.33,5.2,1.34-.16,2.67-.33,3.63.95-13.66,5.7-27.89,9.75-42,14.11-30.19,9.33-60.3,18.94-90.63,27.78a346,346,0,0,1-55.21,11.14c-3.11.37-4.93-.45-6.14-3.48-6.53-16.38-14-32.37-19.84-49-3-8.5-5.33-17.14-3.6-26.39.67-3.58,2.19-6.1,5.47-7.73,7.45-3.7,14.81-7.57,22.58-10.57,2.47-1.21,4.19-.15,5.4,2,7.42,13,19.13,15.7,32.61,13,26-5.26,51.31-12.9,76.32-21.62,24.51-8.55,48.67-18.06,72.95-27.25,6.38-2.41,12.74-4.93,18.92-7.79,10.33-4.79,17.33-12.06,17.62-24.36.23-9.69-4.17-16.07-12.63-20.18C526.08,361.6,522.61,361.63,525.33,358.47Z"/><path class="cls-10" d="M1405.38,762.79c-12.78,9.07-26.42,16.73-40.08,24.35a1107.06,1107.06,0,0,1-108.55,53c-9.32,4-7.12,4-13.67-3.3a263.73,263.73,0,0,1-20.82-26.17c-2.13-2.75-.48-3.82,1.89-5.2,39.91-23.1,82-42.21,121.49-66.05,9.95-6,20.35-11.32,28.58-19.93,5.57-5.83,9-12.31,8.81-20.46a7.72,7.72,0,0,1,1.13-4.78c9.08-8.28,15.08-18.65,20.14-29.66A100.16,100.16,0,0,1,1429,640.22c27.31-18.79,54.8-37.31,83.53-53.9,10.37-6,21.42-10.87,30.27-19.23,5.14-4.86,10-10.06,11-17.37,2.1-15.37-12.52-26.88-27.27-21.72-10.3,3.61-19.34,9.7-28.81,14.9A588.69,588.69,0,0,0,1438,580.2c-2.71,1.95-5.13,4.28-8,5.95-2.14,1.23-2.18,1.17-3.86-.79.61-10.62,5.06-18.35,14.39-24.44,29.57-19.33,60.7-35.69,92.37-51.19,14.92-7.3,29.41-15.48,44-23.46,3.09-1.7,4.55-1.39,5.9,1.92,3.5,8.61,7.39,17.06,9.57,26.15.93,3.44-1.58,2.95-3.46,2.89-3.48-.12-7-.54-10.3.89-9.11,3.9-13.37,11.24-13.76,20.72-.54,13.39-1.66,26.78-1.16,40.22.09,2.44.4,5-1.09,7.23-1.37-.23-2.28-.24-3.26,1.37-6.56,10.84-15.15,20.12-23.51,29.55-11,12.42-22.78,24.12-33.6,36.7-6.44,7.48-9.6,15.83-6.56,25.74-.39,2-2.09,3-3.53,4-26.66,19.36-51.44,41.09-77.12,61.67-4.28,3.43-7.32,7.7-8.23,13.26A8.33,8.33,0,0,1,1405.38,762.79Z"/><path class="cls-10" d="M477.42,620.74A548.26,548.26,0,0,1,409.15,641C379.47,647.66,350,655.17,320.34,662c-17.23,3.95-34.94,4.66-52.47,6.53-11.75,1.26-23.53,2.18-35.27,3.47-3.78.42-5.73-.52-6.77-4.49-5.77-21.93-10.29-44.07-12.07-66.71a125,125,0,0,1,.3-16c.29-5.41,2.38-9,7.14-11.56,13.35-7.13,26.61-14.43,39.86-21.77,1.81-1,2.63-.72,3.34,1.12q1.71,4.42,3.63,8.77c11.82,26.67,28.43,35.88,57.34,31.69a545.2,545.2,0,0,0,95-22.72c37.69-12.63,76-23.14,113.54-36.4,39.35-13.93,79.19-26.46,117.8-42.44,7.71-3.2,8-3,7.47,5.47-.47,7.94-.1,16-1.69,23.83-4.29-7.88-10.47-10.73-19.69-9.08a39.34,39.34,0,0,0-10,3.06c-16.28,7.69-31.82,16.78-47.64,25.34a5.3,5.3,0,0,0-2.54,2.32c-6.76,4-14.43,5.79-21.61,8.76-22,9.08-44.34,17.17-65.64,27.81a39.48,39.48,0,0,0-11.92,8.89c-7.54,8.37-8.2,18-1.9,27.34C477.62,616.89,480,618.44,477.42,620.74Z"/><path class="cls-10" d="M982.44,696a31.31,31.31,0,0,1-15.05,9.16c-25.85,7.51-50.91,17.64-77.41,23-16.46,3.33-33.06,6-49.31,10.31a18.48,18.48,0,0,1-3.21,0l25.16-17c22.22-15,45.35-28.61,66.7-44.87,5.56-4.24,11-8.62,16.33-13.16,8.88-7.6,13.87-17.63,17.65-28.5,5.85-16.77,7.82-34.33,11-51.65,1.4-7.69,3-15.37,3.36-23.18.21-4,2.11-5.45,5.78-6.6,20.33-6.37,41.23-10.53,61.69-16.4,24.48-7,48-17,72.29-24.42,40.35-12.38,80.56-25.25,121.67-35,8.5-2,7.83-2.16,11.42,5.91,2.38,5.34.52,7.4-3.48,10.17-17.65,12.22-35.1,24.71-52.62,37.1-10.63-9.35-20.34-10.68-33.36-4.2-21.34,10.63-41.4,23.44-61.33,36.46-21.62,14.12-42.82,28.83-62.57,45.5-10.81,9.11-22.09,17.72-31.69,28.17-4.87,5.29-8,11.41-7.89,18.86,0,5,2.5,8.86,5.09,12.76.09,2.92-2.24,4.33-4,6a38.11,38.11,0,0,0-9.64,13.69C987.72,691.47,984.58,693.28,982.44,696Z"/><path class="cls-11" d="M1109.38,788.76c1.8-2.27,2.09-5.17,3.15-7.75,3.81-9.31,11.85-14.63,19.43-20.14,17.43-12.68,34.9-25.34,53.63-36.07,10.09-5.78,20.38-11.19,30.64-16.67,11.72-6.27,23.51-12.42,35.25-18.67,1.2-.64,3-.92,2.22-3.15-4.71-12.91,2.18-22.79,9.5-31.78,11.3-13.88,22.34-28,32.85-42.41,15.9-21.88,31.5-44,42.87-68.75,3.12-6.8,6.14-13.66,9.67-20.24,4-7.48,9.13-13.69,18.49-15.08,7.08-1.05,12.57,1.55,17.78,5.65.89.71,1.68,1.54,2.54,2.32,1.67-1.24.1-3.54,1.91-4.44-.76,12.47-3.3,24.69-5.21,37-4.94,31.93-14.11,62.85-22.81,93.88-2.76,9.84-8.57,16.82-17.73,21.64-30.32,16-61.31,30.61-92.26,45.3-29.52,14-56.9,31.8-85.25,47.89C1147.26,768,1128.27,778.28,1109.38,788.76Z"/><path class="cls-11" d="M522.37,458.59c5.87-9.69,15.54-14.22,25.48-17.88,17.73-6.52,35.75-12.26,53.12-19.81,14.16-6.15,28.3-12.33,42.16-19.16,17.75-8.74,35.62-17.21,53.45-25.77a10,10,0,0,0,5.27-6.23,364.76,364.76,0,0,0,11-37.69C716,319,730.52,311.5,744.42,318v-6.6c1.84,8.48,1.86,17.16,2.45,25.74,1.23,17.76,2.55,35.52.62,53.35-.64,5.94-2.24,9.92-8.38,12.5-37.37,15.74-74.3,32.47-112.19,47.07-32.59,12.56-65.56,23.95-98.6,35.21a13.57,13.57,0,0,1-1.94.37c-6.78-6-8.37-13.66-7-22.2C519.68,461.49,520.18,459.46,522.37,458.59Z"/><path class="cls-11" d="M686.45,777.82c.39-4.63-2.82-8.67-1.57-13.64,2.91-11.57,10.29-19.51,19.82-25.74,14.72-9.62,29.48-19.16,43.52-29.76a9,9,0,0,0,3.13-3.11c1.95-3.29,5.47-4.85,8.38-6.87,26.39-18.26,53.12-36,79.41-54.43.67-.47,1.25-1.14,2.19-.7,10.95-7.55,20.12-16.43,25.69-29,6.05-13.66,13.8-26.57,19.77-40.26,7.12-16.32,28.48-19.87,38.43-7.37a3.75,3.75,0,0,0,3,1.63c-2.72,15.71-4.53,31.57-8.79,47a32,32,0,0,1-11.85,17.81c-20.5,15.76-42.5,29.27-64,43.5-33.76,22.3-66.94,45.47-101.1,67.16-16,10.16-32.29,20-48.48,29.86C691.54,775.37,689,776.52,686.45,777.82Z"/><path class="cls-11" d="M806.33,545.56c.84,4.53,4.19,8.06,4.17,13.14-.06,11.26-5.28,18.58-14.9,23.85-18.93,10.38-37.67,21.08-56.42,31.79-21.19,12.09-41.93,24.94-62.45,38.13-16.89,10.85-33.54,22.08-51,32.09-15.27,8.78-30.61,17.49-46.56,25A21.57,21.57,0,0,1,550,697c-.5-1.48-.63-3.45-2.92-3.5,17.12-12.67,35.14-24,53.18-35.26,57.88-36.18,119-66.52,179.07-98.71C788.25,554.7,797.32,550.19,806.33,545.56Z"/><path class="cls-11" d="M525.33,358.47c-.17.91-.7,1.61.87,2.19,17,6.31,21.06,26.21,8.41,39.32-6.05,6.27-13.76,9.13-21.45,12.14-32.93,12.9-65.85,25.86-99.5,36.8-20,6.5-40.24,12.38-60.93,16.27-11.52,2.17-25.1-.21-32.07-14.1a4.19,4.19,0,0,0-4.39-2.55c13.88-7.52,28.39-13.75,42.89-19.91,54-22.92,108.57-44.39,161.94-68.75A41.94,41.94,0,0,1,525.33,358.47Z"/><path class="cls-11" d="M1561.27,586.58c1.53-1.31,1-3.09,1-4.68-.53-14.61.55-29.2,1.11-43.78.48-12.28,9.94-24.72,25.79-22.36,1.57.24,3,1,3.23-1.42,6.13,15.81,10.86,32.07,15.79,48.27.92,9.71.61,19.45.46,29.17-.08,4.59,1.16,8,5.23,10.32a10.11,10.11,0,0,1,4.47,4.49c-9.44,9.19-20.09,16.9-30.5,24.86-31.58,24.16-62.1,49.67-94.14,73.23-28.42,20.89-58.39,39.47-88.3,58.11-.53-7.83,3-13.84,8.86-18.52,27-21.63,53.21-44.15,81-64.7.4-2.21,2.26-3.18,3.79-4.43,16-13,32.26-25.72,47.85-39.25,2.43-2.11,3.92-4,3.52-7.58-.46-4,.78-8,2.17-11.69,3.32-8.92,6.3-17.9,7.46-27.39A3.65,3.65,0,0,1,1561.27,586.58Z"/><path class="cls-11" d="M477.42,620.74c.21-.94.73-1.78-.15-2.77-14.22-16.05-2.47-32.27,10.55-39.12,15.76-8.3,32.42-14.54,48.89-21.2,13.51-5.47,27.1-10.72,40.65-16.07,2.93-3,7-3.79,10.61-5.15,12-4.48,23.9-9.22,36-13.26,6.61-2.19,13.28-2.83,20.07-.54,5.36,1.8,8.5,6.18,12.19,10-.51,9-2.86,17.67-4,26.55-.34,2.66-2.63,3.26-4.58,4.06-18.75,7.72-38,14.06-57.37,19.91-36.9,11.15-73.15,24.17-109.53,36.81C479.69,620.29,478.54,620.47,477.42,620.74Z"/><path class="cls-11" d="M1426.16,585.36c2.58,2.22,4-.69,5.26-1.67,19.41-14.85,40.16-27.59,61.5-39.39,10.44-5.78,20.49-12.27,31.59-16.86,16.44-6.79,32.88,5.17,30.61,22.8-.94,7.31-6.07,12.61-11.28,17.61-11.23,10.77-25.72,16.28-38.7,24.21-22.21,13.56-44.1,27.58-65.41,42.52-5.42,3.8-10.79,7.67-16.31,11.33-7.58,5-11.86,13.35-19.12,18.66C1413.12,638.59,1418.62,611.69,1426.16,585.36Z"/><path class="cls-12" d="M1002.32,668.57c-5.52-4.7-7.35-12.38-5.22-19.86,2.87-10.08,10.47-16.56,17.78-23,12.46-10.9,25.25-21.47,38.41-31.52a797.93,797.93,0,0,1,88.37-58.41c9.24-5.28,18.1-11.34,28.66-13.64,7.14-1.56,14.24-1.28,20.38,3.61,1.7,1.35,3.54,2.58,3.7,5.05-17.12,13.53-34.28,27-52,39.8-25.82,16.37-52.24,31.79-76.9,50-20.08,14.8-39.85,30-59,46C1005.34,667.59,1004.34,669.2,1002.32,668.57Z"/><path class="cls-11" d="M1254.16,547.2c2.27,13-5,21.66-14.14,28.83-17.82,14-35.34,28.42-52.75,43-20.58,17.19-40.9,34.68-62,51.3s-42.51,33.26-64.63,48.77c-12.9,9-26,17.69-39.13,26.43-3.44,2.29-6.76,4.78-10,7.38-5.93,4.8-12.44,6.66-19.84,4.3a18.82,18.82,0,0,0-5.41-.61,109.65,109.65,0,0,1,14.92-12.25c6.46-4.28,12-10,17.87-15.13,42.6-37.25,87.14-72,132.59-105.71,25.4-18.82,50.37-38.21,75.62-57.23C1236.08,559.64,1244.78,552.94,1254.16,547.2Z"/><path class="cls-11" d="M1384.16,694.23c2.33,17-7.78,27-20.22,35.42s-25.84,15.63-39,23.06c-29,16.38-58.83,31-88.17,46.64-4.51,2.4-8,6.51-13.29,7.66-2.26.5-1.23,2.29-1.23,3.64-5.09-5.91-10.1-11.91-15.33-17.7-2-2.24-1.77-3.3.79-4.79,20.68-12.09,41.06-24.72,62.74-35,30.65-14.55,61.29-29.14,91.42-44.74A155.43,155.43,0,0,0,1384.16,694.23Z"/><path class="cls-11" d="M1002.32,668.57a950.78,950.78,0,0,1,97-72.5c13.07-8.47,26.55-16.31,39.88-24.38a15,15,0,0,1,3.26-1.05c-12.92,9.65-25.9,19.24-38.77,29-40.12,30.35-79.12,62.13-118,94-1,.84-2.15,1.55-3.23,2.32C988.73,686.58,993.49,676.1,1002.32,668.57Z"/><path class="cls-12" d="M522.37,458.59c-3.15,8.23-3.58,16.13,2.57,23.38.8.95,1,2.42,1.44,3.66a159.38,159.38,0,0,1-20.74,7.08c-1.31.09-2.92-.29-3.88.34-5.41,3.51-6.25-.63-7.1-4.22-2.76-11.61,5-24.67,16.57-28.26,2.83-.87,5.56-2.06,8.32-3.16C520.93,456.86,522.17,456.43,522.37,458.59Z"/><path class="cls-12" d="M656.28,532.59c-1.57.93-2.21,0-3.1-1.21-6.11-8.54-14.66-10.37-24.28-8-13.91,3.34-26.79,9.69-40.32,14.18-3.78,1.25-7.48,2.71-11.22,4.07-1-1.83.78-1.8,1.6-2.25,15.93-8.64,31.63-17.7,48-25.6,8-3.86,16.06-4.73,24.48-2,4.33,1.42,6.55,4.35,6.05,9A39.67,39.67,0,0,1,656.28,532.59Z"/><path class="cls-10" d="M1618.32,606.59c-6.22-3.57-12.45-6.61-11.25-16,1-7.64.17-15.51.22-23.28,0-1.59-.53-3.34.87-4.7a289.49,289.49,0,0,1,10.78,34.06C1619.69,599.79,1621,603.46,1618.32,606.59Z"/><path class="cls-13" d="M980,263.19c.58-23.16,8.67-43.07,26-58.79a24.78,24.78,0,0,1,13-5.84,9.21,9.21,0,0,0,3.74-1.25c25.24-17.3,66.15-8.63,85.65,12.55,8.58,9.32,18.15,17.64,23.22,29.59,7.48,17.59,11.89,35.86,8.41,54.94-4.2,23-18.79,37.13-40.69,44.19a23.5,23.5,0,0,0-5.52,2.17c-26.29,16.87-51.89,13.5-76.53-3.22-14.78-10-27.67-22.12-32.61-40.27A141.41,141.41,0,0,1,980,263.19Z"/><path class="cls-14" d="M841.33,643.57c-29.19,21.83-59.93,41.42-90,62,1.5-4.87,6.21-6.84,9.57-9.75,12.55-10.82,25.53-21.14,39.59-30,12.63-8,25.76-15.09,38.71-22.53C840.07,642.76,840.74,642.72,841.33,643.57Z"/><path class="cls-12" d="M1561.27,586.58c-.13,10.11-3.57,19.41-6.84,28.78-1.71,4.91-3.84,9.86-2.32,15.32.52,1.85-.48,3.16-1.84,4.28-18.2,15-36.28,30.21-55,44.61-4-6-2-12,.34-17.84,2.16-5.49,6.32-9.73,10.16-14,9.63-10.72,19.81-20.94,29.42-31.68,7.93-8.85,16.09-17.56,22.29-27.81a9.09,9.09,0,0,1,2.54-3C1562.35,583.7,1560.72,586.21,1561.27,586.58Z"/></g></g></svg>