<svg xmlns="http://www.w3.org/2000/svg" viewBox="0 0 1016.82 639.61"><defs><style>.cls-1{fill:#fefefe;}.cls-2{fill:#c3c3c3;}.cls-3{fill:#004f6e;}.cls-4{fill:#006e99;}.cls-5{fill:#feea87;}.cls-6{fill:#378c47;}.cls-7{fill:#fedb2d;}.cls-8{fill:#066d1a;}.cls-9{fill:#fddb2d;}.cls-10{fill:#066c1a;}.cls-11{fill:#fcda2e;}.cls-12{fill:#fbd82f;}.cls-13{fill:#e1c436;}.cls-14{fill:#e9e9e9;}.cls-15{fill:#e0c541;}.cls-16{fill:#1a566e;}.cls-17{fill:#f1a467;}.cls-18{fill:#c96719;}.cls-19{fill:#c96718;}.cls-20{fill:#be6117;}.cls-21{fill:#bd7034;}.cls-22{fill:#a36f46;}.cls-23{fill:#a16e45;}.cls-24{fill:#ea9f64;}.cls-25{fill:#dd965f;}.cls-26{fill:#cb7d40;}.cls-27{fill:#c3651c;}.cls-28{fill:#ad764a;}.cls-29{fill:#c38554;}.cls-30{fill:#cf6d20;}.cls-31{fill:#d07024;}</style></defs><g id="레이어_2" data-name="레이어 2"><g id="레이어_1-2" data-name="레이어 1"><path d="M634.42,0A665.86,665.86,0,0,1,755.68,9.8c39.13,6.94,77.16,17.59,113.43,34C904.92,60.06,937.55,81,964.46,110c26.43,28.55,44,61.6,50.1,100.3,4.94,31.3,1.55,61.94-8,92C997,332.61,982,360.06,963.33,385.63,934.59,425.11,899.33,458,860.26,487c-43.79,32.49-91.17,58.69-141.06,80.48a871.92,871.92,0,0,1-176.65,55.36,855,855,0,0,1-104.4,14.44,749.24,749.24,0,0,1-120.31-.13c-48.16-4.07-95.33-13-140.9-29.5-30.46-11-59.36-25.11-85.75-44-27.85-20-51.4-44-68.14-74.13Q-4.29,440.15.77,383.92C4.43,342.51,19.82,305.3,42,270.65c22.53-35.14,50.72-65.27,82.29-92.38,41.28-35.44,86.89-64.29,135.49-88.51A849.6,849.6,0,0,1,422.21,28.92,883.29,883.29,0,0,1,526.84,7.85,805,805,0,0,1,634.42,0Z"/><path class="cls-1" d="M379.46,616.42a681.55,681.55,0,0,1-86.73-5.33c-36.41-4.63-72.1-12.44-106.69-24.85-30-10.75-58.39-24.63-84.12-43.6-23.79-17.54-44.05-38.35-58.49-64.37-17.19-31-23.25-64.12-18.78-99.19,4.63-36.37,19.15-68.91,39.14-99.22,23.87-36.18,53.89-66.68,87.46-93.82,38.93-31.47,81.41-57.29,126.37-79.16A852.38,852.38,0,0,1,594.91,24.49a716.3,716.3,0,0,1,107.54,1.65c36.91,3.42,73.23,9.9,108.71,20.74,38.5,11.76,74.78,28.08,107,52.52,23.89,18.1,43.84,39.69,57.67,66.51,15.33,29.72,20.51,61.25,16.37,94.36-4.3,34.4-17.62,65.4-36,94.44-18.78,29.77-42,55.79-68,79.38-41.82,38-88.82,68.26-139.09,93.67-55.41,28-113.46,48.88-173.65,63.85A846,846,0,0,1,464,611.56,794,794,0,0,1,379.46,616.42Z"/><path d="M821.78,367.69c-.27,3.53-.39,7.07-.85,10.58-1,7.52-6.43,11.08-13.87,9.25-3.31-.81-6.12-2.7-9.16-4.09-4.44-1.61-8.38-4.19-12.49-6.44a366.11,366.11,0,0,1-36.85-21.11c-2.44-1.61-2.66-1.55-3.66,1.06-1.34,3.48-2.9,6.86-4.53,10.21-7.26,14.84-14.11,29.89-23,43.91-1,1.61-2.13,3.16-3.2,4.73-3.23,4.61-6.26,9.34-9.65,13.84a14.21,14.21,0,0,1-2.78,3c-6.93,8.87-14.14,17.49-21.88,25.67-27.93,29.55-60.29,53-97.66,68.91a382.48,382.48,0,0,1-76,23.85c-21.54,4.25-43.15,7.56-65.06,8.05a485.18,485.18,0,0,1-80.46-4.49c-28.81-4.19-57.2-10.52-83.05-24.89A160.49,160.49,0,0,1,240.75,502c-.63-.64-1.34-1.2-2-1.79-3.42-2.71-5.85-6.26-8.28-9.8a32.71,32.71,0,0,0-2.17-3.07c-7.33-13-13.57-26.52-17-41.17-2-8.43-3.37-17-3.13-25.62a207.3,207.3,0,0,1,5.44-41.22c5.56-23.93,17.83-44.29,32.54-63.52a330.49,330.49,0,0,1,31.59-35.29,255.77,255.77,0,0,1,38.57-30.61c9.49-6.26,19.34-11.9,29.3-17.36a17.28,17.28,0,0,1,2.09-1,108.15,108.15,0,0,1-24.05-17.17,11.38,11.38,0,0,1-3.7-6.23,37.9,37.9,0,0,1-.05-5.22,3.62,3.62,0,0,1,.15-.81c2-6.1,5.75-10.23,12.71-11-1.38-2.38-3.93-3.44-5-5.74a179.07,179.07,0,0,1-18.19-20.52c-3.94-5.38-4.65-10.32-1.79-14.87a14.51,14.51,0,0,1,15.17-6.21l7.17,1.43c.27-.91-.32-1.35-.63-1.83a269,269,0,0,1-13.26-24c-4.81-9.55,1.53-19.72,12.33-19.4,11.4.33,22.47,2.85,33.32,6.34,3.23,1,3.23,1.07,2.66-2.38-.47-2.79-.9-5.57-.06-8.36,2.22-7.38,11.09-11,18.79-7.59,6.51,2.89,12.35,6.9,18.06,11.1,2,1.5,4.06,3,6.62,4.92,0-2.76,0-5,0-7.33,0-5.57,2.07-9.91,7.34-12.3,5.49-2.49,10.61-2,15.18,2.14,12.4,11.14,22.33,24.23,30.57,38.66,2.79,4.88,5.65,9.71,8.48,14.56,2,1.35,2.37,3.7,3.47,5.6.84,1.46,1.54,3,2.3,4.51.33.49.33,1.13.74,1.62.72-.55.86-1.46,1.35-2.13a108.07,108.07,0,0,1,7-10.72,7.61,7.61,0,0,1,2-2.15c5.54-6.36,11.08-12.68,18-17.66,25-17.92,52.59-25.72,83.27-21.9a113.84,113.84,0,0,1,46,15.74,2.77,2.77,0,0,0,3.58-.12c13.27-9.1,27.81-13.22,44-11.79a124,124,0,0,1,51.45,16.46c.55.32,1.14.55,1.71.82a37.4,37.4,0,0,1,11.11,7.54c1.92,1.77,3.67,3.72,5.61,5.47A126.75,126.75,0,0,1,773,160.06c2.5,4.46,3.57,9.51,5.17,14.33.88,2.67,1,2.73,3,.72,1.49-1.46,2.9-3,4.47-4.4,6.07-5.34,13.52-4.4,18.07,2.21,3.66,5.31,5.9,11.27,7.89,17.29,6.4,19.27,11.6,38.83,13.46,59.12.4,4.32.78,8.67.75,13-.1,12.62,0,25.25,0,37.88s-.51,25-1.52,37.53c-.34,4.24-.7,8.5-.89,12.76A108.22,108.22,0,0,1,821.78,367.69Z"/><path class="cls-2" d="M327.72,185.39l7.16,6.25c-7.77.16-11.89,4.17-14.27,10.34a3.84,3.84,0,0,0-2.64.34c-17.22,7.79-34.26,16-50.86,25-13.89,7.59-27.52,15.58-40.72,24.29a431.62,431.62,0,0,0-43.68,32.55c-6.41,5.51-12.74,11.11-18.65,17.14-14.57,14.85-27.65,30.87-36.89,49.66-6.12,12.43-10.19,25.56-10.38,39.5-.25,17.8,5.92,33.43,17.37,47,10.23,12.14,22.89,21.19,36.78,28.6,17.58,9.37,36.28,15.79,55.58,20.55a7.73,7.73,0,0,0,2.35.63l9.86,13c-7.47-1-14.7-3.1-21.93-5.09-16.29-4.48-32.2-10-47.29-17.78-14.29-7.33-27.63-16-38.78-27.7-12.71-13.31-21.35-28.81-23.86-47.28-1.76-13-.2-25.66,3.66-38.11,4.38-14.09,11.34-26.83,19.65-39,10.28-15,22.63-28.13,35.83-40.47a378.4,378.4,0,0,1,43.61-34.64,597.42,597.42,0,0,1,64.93-38.75q25.4-13.17,51.74-24.29C327.11,186.81,328.15,186.72,327.72,185.39Z"/><path class="cls-2" d="M750.34,131a93.81,93.81,0,0,0-16-13c7.48.62,14.91,1.58,22.32,2.72A382,382,0,0,1,800.5,130a257,257,0,0,1,40.84,14.84A165.24,165.24,0,0,1,876,166.07c13,10.59,23.33,23.34,29.44,39.13a75.29,75.29,0,0,1,5.14,30.05,101,101,0,0,1-8.77,37.32c-7.68,17.42-18.39,32.82-31,47a306,306,0,0,1-40.86,38.14,54.3,54.3,0,0,1-5.56,4.33c-2.34,1.36-1.7,3.78-2.6,5.63,0-5.84.48-11.66,1-17.47,4.81-4.41,10-8.41,14.92-12.7a252.76,252.76,0,0,0,34.17-35.82c10.56-13.58,19.43-28.12,24.31-44.76,7.45-25.39,3.71-48.68-13.52-69.3-10.18-12.19-22.75-21.36-36.67-28.72-24-12.71-49.72-20.25-76.31-25.17-5.36-1-10.72-2-16.11-2.78A9.59,9.59,0,0,0,750.34,131Z"/><path class="cls-2" d="M785.75,376.5l12.15,6.93c-2.18-.79-3.78.1-5.66,1.31q-15.3,9.87-31.22,18.74c-13.53,7.57-27.38,14.54-41.37,21.2-5.87,2.8-11.6,6-17.86,7.91l11.92-17c11.18-4.76,21.87-10.51,32.58-16.21,9.83-5.23,19.44-10.88,29-16.56C778.81,380.74,782,378.22,785.75,376.5Z"/><path class="cls-2" d="M486.34,136.43l-8.63,13.23c-1.11-.54-2,.11-2.9.56l-5.34-10.52c4.91-.11,9.44-2.13,14.23-2.83C484.58,136.74,485.46,136.58,486.34,136.43Z"/><path class="cls-3" d="M791.64,192.64a159.3,159.3,0,0,1,6.51,20.6c2,7.44,3.94,14.89,5.41,22.47.5,2.58,0,4-2.54,5-10.34,4.07-19.88,9.7-29.38,15.4-4,2.44-5.73,6.61-4.14,10.63s5.9,6,10.4,4.78a19.75,19.75,0,0,0,4-1.62,239.11,239.11,0,0,1,22-10.05c2-.81,2,0,2.1,1.57.61,6.53.21,13.07.42,19.6.07,2.09-.77,3.06-2.57,3.88-7.68,3.51-15.3,7.16-22.94,10.75a16.13,16.13,0,0,0-5.41,4.06,8.64,8.64,0,0,0-.15,11.46c2.7,3,7.25,3.38,11,1.08,5.62-3.47,12.13-4.76,18.11-7.36,1.46-.64,1.5.31,1.48,1.31-.06,5.27,0,10.55-.25,15.81-.55,10-1.28,20.08-2,30.12a88.85,88.85,0,0,0-.5,9.78c.07,2.16-.7,2.29-2.37,1.38-7.65-4.18-15.27-8.42-23-12.45-9.34-4.89-17.73-11.36-27.08-16.24-7.4-3.87-12.5-3.33-19.36,5.44-3,3.84-4,8.68-6.1,13-8.68,18.4-17,37-28.6,53.84-9.51,13.85-19.66,27.15-31.41,39.26-20.83,21.45-43.9,39.78-70.33,53.94-15,8-30.73,13.81-46.56,19.73-20.78,7.78-42.37,12-64,16.24-7.89,1.56-16,1.92-24,2.9a142.78,142.78,0,0,1-22.23,1.35c-12.59-.42-25.21.26-37.79-1.18-6.11-.69-12.29-.93-18.45-1.21-12.26-.57-24.31-2.57-36.31-5-1.49-.3-1.66-.91-1.24-2.27a173.66,173.66,0,0,0,6.25-34.44c.09-1-.13-3.07,2.07-1.71,6.69,4.13,14.21,4.77,21.75,5.05,6.16.23,12.33,1.13,18.5.61,11.95-1,23-4.48,31.65-13.28,5.41-5.49,7.32-12.63,8.75-19.89,1.5-7.57,1.92-15.26,2.3-23,.49-9.88.21-19.76-.15-29.62-.41-11.23-1.55-22.4-3-33.56a296.23,296.23,0,0,0-6.73-36.59c-2.12-8.07-4.1-16.17-7.59-23.82-4-8.79-9.84-15.9-18.52-20.32-5.33-2.72-11.12-3-17-2.5-12.77,1.15-24.22,5.95-35,12.58-2.33,1.43-2.33-.23-2.54-1.71a144.92,144.92,0,0,0-7.05-30.12c-1.6-4.34-3.13-8.71-5-13-.86-2-.3-2.91,1.34-3.93a380.61,380.61,0,0,1,49.82-25.68c13.77-5.91,27.63-11.55,41.91-16.12a360.09,360.09,0,0,1,56.36-13c13.65-2,27.35-3.13,41.12-3.81,10.22-.5,20.45-.85,30.67-.69,10.68.16,21.39,0,32.06.87a275.79,275.79,0,0,1,38.36,6c16.18,3.7,32.32,7.52,48.18,12.46,15,4.68,29.62,10.37,44.1,16.44,4.1,1.72,7.6,4.62,11.48,6.76,9.84,5.42,12.46,4.78,19.74-3.86,13.51-16,26.53-32.49,41.89-46.86C790.53,193.63,790.93,193.28,791.64,192.64Z"/><path class="cls-1" d="M228.87,487.26c-1.65,1-3.21,0-4.67-.43C206.1,482,188.45,476,171.8,467.32c-13.11-6.87-25.18-15.19-35.29-26.05-10.69-11.5-17.75-24.92-19.84-40.65-1.72-12.94.4-25.47,4.76-37.65,6.73-18.81,17.87-34.9,30.86-49.89,16.55-19.12,35.78-35.19,56.17-49.95a542.71,542.71,0,0,1,63.88-39.38c15.08-8,30.5-15.32,46-22.39.93-.42,1.89-1,2.23.62a.53.53,0,0,1-.1.45,15.39,15.39,0,0,0,0,6c1.53,4.72,5.48,7.34,9,10.28a120.82,120.82,0,0,0,19.25,12.76c-6.51,3.71-12.78,7.25-19,10.86a276.81,276.81,0,0,0-73.53,62c-11.78,14-22.62,28.65-31,45s-12.69,33.95-15,52.1c-1.46,11.58-2.07,23.16-.27,34.76,2.61,16.91,8.68,32.58,17,47.46C227.68,484.86,228.26,486.07,228.87,487.26Z"/><path class="cls-4" d="M338,406.51c.05,13.19-1.65,26.27-2.11,39.42a546,546,0,0,1-5.33,59.61c-1,7.12-2.74,14.05-4.44,21-.43,1.74-1.21,1.34-2.33,1.05a151.45,151.45,0,0,1-34.3-13c-13.51-7.28-26-16-36.56-27.18-7.45-7.85-12.18-17.35-16.39-27.14-6.14-14.28-9.49-29.11-8.65-44.77,1.62-30.07,10.77-57.38,29-81.6A329.88,329.88,0,0,1,295,291a243.93,243.93,0,0,1,19.71-16.31c2.51-1.9,2.57-1.83,3.5,1,4.84,15,7.65,30.41,10,46,1.53,10.23,3.62,20.37,5.06,30.61,2,13.83,3.7,27.69,4.34,41.67C337.8,398.17,338,402.34,338,406.51Z"/><path class="cls-1" d="M750.34,131c.18-1.44,1.24-1.09,2.08-1,19,3,37.81,6.68,56.11,12.57,17.92,5.77,35.22,13,50.94,23.58,10.78,7.24,20.4,15.73,27.92,26.39a68.78,68.78,0,0,1,12.44,31c2.19,16.52-1.2,32.06-8,47-8,17.64-19.46,32.85-32.5,47A278,278,0,0,1,835,340.8q-5.18,4.41-10.46,8.67a2.49,2.49,0,0,1-1.69.75c.61-12.24,1.93-24.44,2-36.71.18-22.61,1.58-45.28-1-67.81a235.64,235.64,0,0,0-18.09-67.9,27.57,27.57,0,0,0-2.29-4c-4.53-7-12-7.76-18-1.89-2.19,2.15-4.27,4.43-6.73,7-.72-2.27-1.38-4-1.82-5.84-2.75-11.09-8.73-20.44-15.6-29.34C757.91,139.25,754.17,135.07,750.34,131Z"/><path class="cls-4" d="M356.59,392c-.64-6.68-1.24-13.26-1.92-19.83-.16-1.57.94-1.49,1.87-1.72,5.88-1.53,11.78-3,17.66-4.57,7.29-1.94,10.89-7.67,9-14.27A10.9,10.9,0,0,0,370.68,344a117.27,117.27,0,0,0-16.05,5.18c-2.23.84-2.81.21-3.05-2-.41-3.78-1.13-7.53-1.75-11.29-.13-.8-.47-1.48.44-2.16a68,68,0,0,1,33.89-13c5.32-.58,8.64,1.9,11.15,6.07,3.23,5.36,4.84,11.32,6.45,17.29,6.43,23.77,9.53,48,10.56,72.56a283.16,283.16,0,0,1-.73,39.19c-.29,3-1.12,5.88-1.46,8.84-.68,5.94-4.63,8.64-9.74,10.46-6.73,2.4-13.63,1.63-20.52,1.39-2.26-.07-4.52-.31-6.79-.39-6.45-.25-12-2.31-16.19-7.51-1.49-1.85-3.46-3-3.13-6.08.53-4.79.22-4.81,5.09-5.88,6.41-1.4,13-1.25,19.45-2.31s10.37-4.83,10.94-10.09c.86-8-6.06-13.79-14.32-12.1-5.95,1.21-11.94,2.23-17.9,3.4-1,.2-1.62.1-1.55-1.08q.57-9.64,1.16-19.3c.09-1.32,1.14-1.49,2.12-1.71,5.57-1.26,11.17-2.41,16.71-3.81a12.63,12.63,0,0,0,9.54-12.4,10.14,10.14,0,0,0-12.16-9.65C367.45,388.87,362.15,390.5,356.59,392Z"/><path class="cls-5" d="M602.18,185.62l-19.38-1.78c-.9-1.55.17-2.83.69-4.1a280.91,280.91,0,0,1,18.64-37.2c.33-.54.62-1.12,1-1.63,1.11-1.57.48-2.36-1.1-3.07-4.72-2.1-9.76-2.69-14.79-3.43-10.76-1.57-21.11.91-31.5,3-2.3.47-2.43.8-1,2.86,5.57,8.17,10.84,16.55,16.37,24.75A130.41,130.41,0,0,1,580,180.94c.43.87,1,1.8.23,2.79L560,183.18c-1.72-.73-2.49-2.35-3.38-3.79-6.8-11-14.14-21.56-21.19-32.36-1.5-2.3-1.88-2.46-4.07-1a95.28,95.28,0,0,0-26.89,27c-2,2.94-3,6.38-4.45,9.62-.43,1-.65,2.11-1.62,2.78l-10.92,1.29c-1.43-.27-.88-1.21-.77-2.09.32-2.65,1.63-5,2.37-7.48a104.65,104.65,0,0,1,11.76-21c1.74-1.48,2.89-3.46,4.34-5.19,12.92-15.39,29.59-23.95,49.23-27.1,3.86-.62,7.68-1.46,11.51-2.21,11-2.15,21.79-1.25,32.55,1.44a7.38,7.38,0,0,1,1.6.29,31.25,31.25,0,0,1,7.92,2.63c7.55,3.56,14.9,7.46,21.45,12.69,7.3,5.85,13,13.19,18.58,20.56,8.06,10.57,11.08,22.92,12.83,35.73.14,1.09.47,2.43-1,3.1l-11.63-2.93c-1.16-.47-1.06-1.6-1.28-2.53-.59-2.47-1.13-5-1.65-7.44-2.36-11.22-9-19.89-16.41-28.13-1.75-2-3.57-3.87-5.46-5.7-1.13-1.09-2-1.06-2.7.47-4,9.07-9.53,17.36-13.17,26.59a63.88,63.88,0,0,1-2.83,5.9C604.19,185.26,603.57,186.17,602.18,185.62Z"/><path class="cls-6" d="M366.91,214.49a18.87,18.87,0,0,1-5.65-3.09c5.13-1.16,9.68-2.71,12.19-7.35,1.11-1.25,2.72-1.34,4.18-1.79,11.88-3.62,23.84-7,35-12.62,2.52-1.26,4.92-2.73,7.34-4.15,1.06-.63,1.67-1.23.11-2-4.45-2.25-9-4.37-13.34-6.78a2.79,2.79,0,0,0-2.62,0c-5.29,2.44-11,2.81-16.69,3.48-9.24,1.1-18.44.18-27.62-.94a23,23,0,0,1-4.37-1.34c-2.67-1.52-4.88-3.61-7.93-6.12,7,.8,13.45,3.13,18.83-2.11,1.23-.79,2.61-.67,4-.66,7.17,0,14.35.37,21.1-.82-12.68-8.32-25.63-16.74-36.05-28.42-3.71-3.91-6.07-8.7-9.38-13.86,5.42,1.38,10.14,2.49,14.35,5.14,5,3.26,9.29,7.51,14,11.18a259.16,259.16,0,0,0,30.14,20.4,3.18,3.18,0,0,0,1.82.69c.08-.88-.55-1.45-.94-2.09-4.63-7.58-9.21-15.19-13.61-22.91-.7-1.23-1.7-2.43-.86-4,2-3.64,3.36-7.41,2.13-11.72a3.3,3.3,0,0,1,2.21,1.32c6.44,9.24,12,19.05,18,28.54,3.31,5.22,6.92,10.34,9.49,15.89,2.11,4.58,5.47,6.64,9.68,8.28,5.05,2,10,4.09,15.38,6.11-3.87-6.7-6.63-13.51-9.63-20.19-3.39-7.54-6.69-15.12-9.84-22.76-.37-.9-1-1.77-.4-2.82a16.93,16.93,0,0,0,3.88-12.85c0-.07.06-.21.11-.22a2.06,2.06,0,0,1,.43,0c6.13,10.64,10.87,22,15.8,33.17,4.17,9.48,8.72,18.77,13.36,28a12.14,12.14,0,0,0,1.85,2.69c1.19,2.24.45,3-2,3.4-4.42.66-8.78,1.73-13.17,2.63a9.21,9.21,0,0,1-6.52-1.23c-4.48-2.52-8.23-2.43-12.85.7-17.49,11.87-37.41,17.6-57.91,21.6A10.19,10.19,0,0,1,366.91,214.49Z"/><path class="cls-5" d="M700.15,210.75c-4.46-1.52-8.92-3.05-13.4-4.54-1.42-.47-1.14-1.66-1.27-2.7-1.05-8.92-1.16-17.93-3.17-26.75-1-4.45-2.58-8.69-4-13-.8-2.29-.42-4.63-.3-7,.25-4.81-.2-9.62.09-14.43.11-1.76-.71-2.39-2.32-2.63a64.21,64.21,0,0,0-8.43-.3c-1.36,0-2.74.1-3.92-.8l-9.12-10.45c.15-1.2,1.17-.92,1.89-1a112.24,112.24,0,0,1,23.61-.36,91.36,91.36,0,0,1,22.18,4A56.75,56.75,0,0,1,713.35,136,145.08,145.08,0,0,1,737,153.77a27.87,27.87,0,0,1,3.83,4.22c2.82,3.91,5.34,8,8,12,5.21,7.92,7.35,16.69,7.25,26.08.26,1.74,1.38,3.46.19,5.26l-8,9.91c-2.43-.06-4.16-1.7-4.46-4.7-.27-2.7-.64-5.41-.68-8.13,0-2.1-.44-4.14-.59-6.22-.13-1.85-.73-2.14-2.34-1.17-6.31,3.79-12.45,7.82-18.7,11.68-2.7,1.67-5.4,3.35-8,5.12C709.42,210.56,705.13,212.26,700.15,210.75Z"/><path class="cls-1" d="M785.75,376.5c-2.51,2.86-6,4.39-9.11,6.29-16,9.73-32.46,18.83-49.28,27.17-3.89,1.93-7.83,3.77-11.76,5.63-.61.29-1.26.92-1.89,0,8.53-12.85,15.43-26.58,22-40.47,3.15-6.63,6.69-13.09,9.07-20.06.48-1.4.9-2,2.41-1C759.49,362.54,772.56,369.61,785.75,376.5Z"/><path class="cls-7" d="M498.37,185.41A60.13,60.13,0,0,1,512.11,162c5.71-6,11.49-11.78,18.45-16.31,3.42-2.22,3.31-2.17,5.51,1.21,4.75,7.27,9.64,14.46,14.43,21.72,3.19,4.83,6.32,9.7,9.47,14.56-8.33.09-16.66,0-25,.3-11.59.35-23.17.87-34.73,1.93A16.84,16.84,0,0,1,498.37,185.41Z"/><path class="cls-7" d="M580.22,183.73a82.07,82.07,0,0,0-9.07-17.28c-5.93-9.12-12-18.15-18-27.21-.65-1-1.12-1.93.48-2.17,8.48-1.25,16.74-4.28,25.42-3.82,7.74.42,15.58.55,22.91,3.77,3.38,1.48,3.46,1.38,1.65,4.4a286.2,286.2,0,0,0-20.19,40.35c-.26.66-.41,1.38-.61,2.07Z"/><path class="cls-7" d="M602.18,185.62c1.55,0,1.86-1.3,2.29-2.33,4.61-11,10.69-21.36,15.79-32.16.82-1.73,1.41-2.56,3.14-.79,8.19,8.35,16.27,16.77,20.52,28,2,5.42,3.07,11.12,4.29,16.76-10.53-2.33-21.05-4.72-31.6-7C611.83,187.13,607,186.45,602.18,185.62Z"/><path class="cls-8" d="M355.45,177.9A157.71,157.71,0,0,0,378.38,180a106.23,106.23,0,0,0,22.85-2.7.5.5,0,0,0,.25-.09c3.34-3.07,6.18-.89,9.19.74,4,2.16,8.08,4.1,12.59,6.36-15.46,10.24-32.61,15.07-49.81,19.78,2.28-7.91.17-13.48-6.77-18.12A104.21,104.21,0,0,1,355.45,177.9Z"/><path class="cls-8" d="M428,137c3.9,9.06,7.77,18.13,11.72,27.16,2.77,6.37,5.64,12.7,9,19.17-2.67-.09-4.5-1.31-6.48-2q-8.14-3-16-6.72c-.8-.37-1.72-.62-2-1.65-1.55-5.12-5-9.21-7.64-13.69C409.86,148,402.89,137,396.06,125.9a13.41,13.41,0,0,1-.82-2c5.54,3.55,10.08,8.29,14.59,12.93A12.38,12.38,0,0,0,428,137Z"/><path class="cls-7" d="M700.15,210.75c.61-.17,1.3-.61,1.8-.45,4.28,1.36,7.59-.89,10.88-2.92,9.23-5.68,18.46-11.4,27.56-17.3,2.18-1.41,2.61-.52,2.78,1.31.44,4.58.83,9.16,1.12,13.75.18,2.84,1.05,5.11,4,6.12q-5.79,8.36-11.57,16.74c-.63.92-1.11,1.22-2.13.44-10-7.68-21.59-12.49-33.24-17.07A10.92,10.92,0,0,1,700.15,210.75Z"/><path class="cls-8" d="M390.9,134.31c.86,4,3.49,7.11,5.47,10.54,3.34,5.81,6.9,11.5,10.35,17.25.41.69.69,1.45,1.18,2.5-3-.39-5-2.16-7.15-3.44a238.56,238.56,0,0,1-36.83-26.81c-1.22-1.08-2.65-1.91-3.58-3.3,4.75,1.55,9,4.18,13.34,6.51C380.63,141.27,386,140.35,390.9,134.31Z"/><path class="cls-9" d="M755.85,196.43a60.46,60.46,0,0,0-9.55-29.27c-7.42-11.75-17.62-20.07-28.87-27.71a66.41,66.41,0,0,0-28.32-10.93,118.85,118.85,0,0,0-30-.89c-1.59.17-3.28-.42-4.77.57-1-1.09.22-1.15.69-1.33a41.12,41.12,0,0,1,14.79-3.36c20.56-.16,39.53,5.33,56.3,17.24,11.18,7.94,19.51,18.75,25.65,30.9,3.83,7.58,6.06,16,4.65,24.77C756.21,196.64,756,196.65,755.85,196.43Z"/><path class="cls-10" d="M366.91,214.49a97.79,97.79,0,0,0,19.63-3.9c10.83-3,21.58-6.37,31.54-11.71,5-2.69,9.89-5.68,14.67-8.79a3.6,3.6,0,0,1,3.68-.38c3.92,1.35,7.52,3.65,11.76,4.08-13.32,3.49-26.53,7.34-39.52,11.92-10.27,3.62-20.35,7.74-30.3,12.14a5.19,5.19,0,0,1-4.88-.15C371.32,216.59,369.1,215.56,366.91,214.49Z"/><path class="cls-10" d="M355.37,139.77c3.81,3,7.16,6.59,11,9.61,8.45,6.65,16.95,13.22,26.81,18.89-4.72,1.54-9.14,1.45-13.54,1.45s-8.86,0-13.29-.05c5.14-6.41,3.37-13.48-1.57-18.82C361.49,147.29,357.77,144.09,355.37,139.77Z"/><path class="cls-10" d="M463.38,187.76c-1.26.1-1.66-.81-2.14-1.72-6.62-12.73-12.45-25.81-18.18-38.95-3-6.9-6.39-13.64-9.59-20.45-.41-.9-.73-1.84-1.1-2.76,3.34,3.74,5.63,8.18,8.24,12.41,8.94,14.48,16.47,29.62,21.46,46A19,19,0,0,1,463.38,187.76Z"/><path class="cls-11" d="M600,123.31c-4.66-.5-9.27-1.3-13.95-1.75a73.43,73.43,0,0,0-22.63,1.25c-8.74,1.85-17.62,3-26.09,6.1-8.64,3.13-16.12,8.11-23.24,13.79a79.34,79.34,0,0,0-11.07,11.52c-.63.75-1.16,1.65-2.25,1.86a76.74,76.74,0,0,1,25.12-23.66c22.41-13.49,46.2-16.3,71.32-10.11A26.57,26.57,0,0,1,600,123.31Z"/><path class="cls-9" d="M663.43,138.64c4.69,0,9.39-.26,14.08.46,1.38.22,1.7.4,1.52,2a57,57,0,0,0-.15,8.37c.12,4.8-.22,9.58-.57,14.35A132,132,0,0,0,663.43,138.64Z"/><path class="cls-12" d="M659.84,198c1.26-2.42.22-4.93-.22-7.19-1.65-8.54-3.37-17.17-8-24.71-6.49-10.66-14.28-20.29-24.13-28.09a104.12,104.12,0,0,0-17.38-10.59c-.78-.41-1.77-.55-2.19-1.5,7.73,2.41,14.44,6.75,20.91,11.41,14,10.12,23.66,23.62,29.44,39.81,2.26,6.34,2.94,13.07,3.19,19.81C661.56,198.43,661.17,198.89,659.84,198Z"/><path class="cls-13" d="M489.05,177.13c-.06,2.75-1.65,5.12-1.91,7.83-.07.67-.23,1.24.31,1.74-1.77.94-2.28.39-1.72-1.45A33.19,33.19,0,0,1,489.05,177.13Z"/><path class="cls-14" d="M474.81,150.22c1.11-2.05,1.84-2.19,2.9-.56-.5,1-1,2-1.55,3.07A4.57,4.57,0,0,1,474.81,150.22Z"/><path class="cls-15" d="M755.85,196.43h.54c0,1.64,2.55,3.36-.14,4.93A18.89,18.89,0,0,0,755.85,196.43Z"/><path class="cls-2" d="M320.53,208.44a6.26,6.26,0,0,1,0-6Z"/><path d="M486.93,434.58c-.4-14.33-.57-28.68-1.27-43-.75-15.19-2.6-30.29-4.55-45.39-1.53-11.81-4.74-23.24-6.94-34.9-1.46-7.73-2.55-15.56-5.16-23-.36-1-.81-2-1.11-3.07-1.36-4.62.28-8.58,4.55-11.07,2.89-1.68,6.63-.77,10,2.05,12.9,10.87,20.7,25,26.5,40.53a131.26,131.26,0,0,1,7.53,36.05c.83,10.77,1.79,21.53,1.41,32.33-.47,13.58-1.21,27.17-5.33,40.29A161.45,161.45,0,0,1,503.25,448c-2.54,5.14-4.8,4.73-11.19,4-3.57-.42-5.18-3.4-5.19-8.1v-9.27Z"/><path d="M588.93,350.44c.14,20.16-3.53,36.17-9.14,51.81-1.81,5-3.43,10.15-5.36,15.13s-7.29,5.84-11,2.1a4.53,4.53,0,0,0-2.4-1.62c-3.73-.77-5.53-3-5.47-6.94.1-7.17.64-14.35.44-21.5-.31-10.62.16-21.27-1-31.83-2-18.64-3.58-37.36-9.18-55.41-1.65-5.32-4.3-10.19-6.82-15.11-3-5.83-2.67-8.2,1.6-12.7,2.32-2.44,7.12-2.75,11.55-.9a40.33,40.33,0,0,1,11.27,7.5A67.71,67.71,0,0,1,585,318.25,173.63,173.63,0,0,1,588.93,350.44Z"/><path class="cls-16" d="M720.34,253.1c-6.09-2.24-12.19-4.48-18.45-6.18-12.46-3.38-24.91-6.77-37.74-8.55-13.22-1.83-26.41-3.85-39.46-6.73a100.67,100.67,0,0,0-16.38-2c-7.48-.39-14.95-1-22.26-2.8a147.23,147.23,0,0,0-34.6-4.25c-9.08-.06-18.17,0-27.26,0a368.77,368.77,0,0,0-38.45,2.11c-16.81,1.8-33.49,4.37-49.76,8.94-5.59,1.57-11.08,1.32-17.09,1.52,2.24-2,4.74-2.52,7-3.59,5.15-2.47,10.33-4.89,15.49-7.35,7-3.35,14.73-4.25,22.2-5.94,8.18-1.85,16.39-3.62,24.71-4.76,5.54-.75,11.1-1.37,16.67-1.82,10.46-.85,20.92-1.6,31.42-1.73,8.4-.11,16.78,0,25.16.54,4.78.33,9.58.18,14.39.54,9.36.71,18.72,1.54,28.08,2.12,12.85.81,25.41,3.28,38,5.71a201.2,201.2,0,0,1,23.83,6.36c8,2.58,16,5.27,24,7.75,5.92,1.82,10.92,5.27,16,8.64,4.58,3.06,9,6.4,13.44,9.62.52.37,1,.76,1.52,1.14Z"/><path d="M652,333.38c.09,12.4-2.3,21.88-5.08,31.29-1.15,3.91-2.27,7.84-3.55,11.71-1.94,5.88-7,7.23-11.66,3.23a5.68,5.68,0,0,0-1.31-.93c-4.44-2.11-5.81-4.37-5.36-9.22,1-10.43.34-20.83-.57-31.23a201.65,201.65,0,0,0-5.54-32.09,167.41,167.41,0,0,0-6.12-19.45c-2.08-5.3-1.32-8.2,3.76-12.9,3.15-2.93,6.84-2,10.22-.57,6.34,2.67,10.72,7.53,14.32,13.3,5.37,8.6,7.55,18.14,8.93,28C651,321.62,651.69,328.73,652,333.38Z"/><path class="cls-16" d="M712.11,339.46c0,8.12-2.22,15.79-4.91,23.3-5.69,15.93-14.4,30.41-22.42,45.18-3.91,7.21-9.24,13.6-14.83,19.68-4.16,4.53-7.54,9.82-12.25,13.8C646.42,451,637,462.55,624.84,471.06c-4.75,3.31-9.56,6.54-14.46,9.61a25.92,25.92,0,0,0-4,3.23c-5.77,5.52-13.38,7.89-20.06,11.84A86.18,86.18,0,0,1,570,503.63c-1.62.54-4,1.81-4.91-.76-.8-2.36,1.81-2.78,3.32-3.56,7-3.63,12.59-9.09,18.91-13.61,10.29-7.35,18.8-16.7,28.32-24.92,6.8-5.87,13-12.32,19.78-18.23,8.08-7.06,15.09-15.15,22.32-23,10.55-11.49,19.85-23.88,27.1-37.84,5.8-11.16,12.62-21.78,18.85-32.72a78.12,78.12,0,0,0,3.54-8.23c.35-.83.69-1.68,1.11-2.48.53-1,1.26-1.95,2.54-1.54S712.09,338.39,712.11,339.46Z"/><path d="M301,395.49a8.82,8.82,0,0,1-5.65,8.25c-3.59,1.61-6.94.91-9.87-1.62a34.35,34.35,0,0,1-6.56-8c-1.39-2.22-2-1.76-3.25,0-2.3,3.26-4.85,6.35-7.32,9.49a13.5,13.5,0,0,1-3.42,3.1,8.21,8.21,0,0,1-9.87-.65,7.85,7.85,0,0,1-1.94-9.88c1.82-3.23,4.13-6.19,6.12-9.32s3.78-6.43,5.86-9.51c1.11-1.65.89-2.88-.08-4.45-3.84-6.27-7.74-12.51-11.28-18.95-2.94-5.35,0-11.21,6-12.2,3.69-.62,6.48,1.19,8.57,4.14,2.64,3.7,5.32,7.36,7.85,11.13,1.1,1.63,1.64,1.37,2.66-.07,3.06-4.28,6.2-8.52,9.43-12.68,4.25-5.48,10.93-5.75,15.19-.72,2.73,3.24,2.85,7.77,0,11.87-3.12,4.46-6.48,8.75-9.71,13.15-1.6,2.19-4.05,4.29-4.45,6.71-.42,2.57,2.78,4.38,4.21,6.65a69.09,69.09,0,0,0,4.61,6.06C299.78,390.24,301.15,392.54,301,395.49Z"/><path class="cls-7" d="M689.17,204.9c2.64-10,1.69-19.5,1.68-28.88s.37-18.68.57-28c0-2.11,1.46-3.67,1.88-5.64.19-.87,1.4-.3,2.17-.1,8.45,2.19,15.4,7.18,22.3,12.15,3.44,2.48,6.54,5.44,9.82,8.15,3.51,2.9,5.4,7,7.95,10.62.75,1.06-.21,1.47-.74,2-2.92,2.79-6.59,4.47-9.92,6.65q-14.79,9.64-29.6,19.29C693.47,202.26,691.63,203.37,689.17,204.9Z"/><path class="cls-17" d="M496.8,365.57c-2-22.09-6.38-43.74-12-65.17a12,12,0,0,1-.21-1.34c-.16-.58-.43-1.22.62-1.17a58,58,0,0,1,5.51,9.93c1.68,8.16,4.15,16.14,5.71,24.87a38.15,38.15,0,0,0-.22-6.49c-.15-1-.53-2.21.93-2.7,4.46,11.16,5.67,22.95,6.57,34.77a261.46,261.46,0,0,1,0,43.17,59.42,59.42,0,0,1-1.59,10.45c-1.17,0-1.13-1-1.32-1.74-.42-1.67-.73-3.37-1-5.07-.26-2.09-.47-4.2-.84-6.29q-.36-9-.74-18.05a29.62,29.62,0,0,1,.87-11,30,30,0,0,0,.15-14.09c-.34,2.54.18,5.3-.59,7.94C498.4,364.5,498.49,365.91,496.8,365.57Z"/><path class="cls-18" d="M497.18,323.5c-.81,2.67.51,5.32.05,8-.18,1,.37,2.19-.9,3.35-.79-3.42-1.52-6.62-2.27-9.81s-1.51-6.7-2.47-10a19.47,19.47,0,0,1-.83-7.22A109.1,109.1,0,0,1,497.18,323.5Z"/><path class="cls-19" d="M496.8,365.57c1.82-1.21,1.31-3.2,1.46-4.87.24-2.67,0-5.39,1.24-8,.43,4.1,2,8.06,1.28,12.28-.9,5.24-2.42,10.38-2.54,15.75Z"/><path class="cls-20" d="M500.45,404.79c.7,2.34.61,4.86,1.72,7.1a41.58,41.58,0,0,1-2,8.7,10.08,10.08,0,0,1-.61-4.93,49.71,49.71,0,0,0-.06-9.21C499.46,405.91,498.59,404.43,500.45,404.79Z"/><path class="cls-21" d="M500.45,404.79c-1.41.38-.35,1.36-.43,2-.36,2.94.54,5.95-.46,8.86-.21-5.62-.87-11.23-.58-16.87A19.2,19.2,0,0,1,500.45,404.79Z"/><path class="cls-22" d="M485.25,297.89l-.62,1.17a4.57,4.57,0,0,1-.65-2.62C484.87,296.61,485.05,297.26,485.25,297.89Z"/><path class="cls-17" d="M555.61,290.8c10,9.45,14.93,21.38,17.44,34.64,3.52,18.63,3.9,37.19-.54,55.71-.76,3.2-1.85,6.33-2.8,9.5l-1-.12c0-8.8.5-17.63-.1-26.39-1.41-20.76-3.19-41.51-9.31-61.56-1.16-3.8-2.82-7.46-4.25-11.19C554.83,290.81,555.08,290.67,555.61,290.8Z"/><path class="cls-23" d="M555.61,290.8l-.59.59a2,2,0,0,1-.84-1.85C555.05,289.56,555.35,290.15,555.61,290.8Z"/><path class="cls-24" d="M627.7,289.08c4.9,6.48,7.34,13.88,8.23,21.87.06.58.48,1.47-.35,1.58-1,.13-1.19-.89-1.45-1.66a23.08,23.08,0,0,0-2.25-5.85q-2.43-7.36-4.85-14.73C626.72,289.59,626.69,289.05,627.7,289.08Z"/><path class="cls-25" d="M637.85,324.05a56.9,56.9,0,0,1,.73,14.74c-.22.28-.45.28-.67,0q-1.1-8.42-2.18-16.82c-.21-.67-.48-1.35.31-1.85C637.37,321.1,637.35,322.7,637.85,324.05Z"/><path class="cls-26" d="M636.29,320.27c-.62.43-.4,1.13-.56,1.71q-1.93-8.48-3.85-17c2,1.24,2,3.54,2.8,5.42.1,2.73,1.85,5.07,1.84,7.85C636.51,319,636.91,319.66,636.29,320.27Z"/><path class="cls-27" d="M636.29,320.27c-.61-2.71-1.2-5.43-1.85-8.13-.15-.64-.42-1.21.24-1.7a2.08,2.08,0,0,0,.91,1.72c.12-.41.23-.81.34-1.21a94.88,94.88,0,0,1,1.92,13.1A6.77,6.77,0,0,1,636.29,320.27Z"/><path class="cls-28" d="M627.7,289.08c-.55.23-.56.75-.67,1.21a6.5,6.5,0,0,1-1.13-2.93A2.23,2.23,0,0,1,627.7,289.08Z"/><path class="cls-29" d="M637.91,338.8h.67a3.56,3.56,0,0,1-.33,2.57A3.71,3.71,0,0,1,637.91,338.8Z"/><path class="cls-30" d="M564.83,311.56c.88,3.38,1.86,6.74,2.61,10.14.95,4.33,1.72,8.7,2.56,13.05.11.56.7,1.3-.19,1.61-.7.24-1.12-.48-1.44-1-1.09-1.75-1.27-3.76-1.54-5.73q-1.26-9-2.49-17.95Z"/><path class="cls-31" d="M570.45,358.85c.63-4.6-2.36-9.44,1-13.81C571,349.65,572,354.35,570.45,358.85Z"/></g></g></svg>