<svg xmlns="http://www.w3.org/2000/svg" viewBox="0 0 787.96 691.28"><defs><style>.cls-1{fill:#547c8c;}.cls-2{fill:#fff6e4;}.cls-3{fill:#41606d;}.cls-4{fill:#010101;}.cls-5{fill:#e7d8c8;}.cls-6{fill:#c59d91;}</style></defs><g id="레이어_2" data-name="레이어 2"><g id="레이어_1-2" data-name="레이어 1"><path d="M766.43,280.78c1.49.64,2.53.16,3.58,0,10.79-1.64,18.94,6,17.86,16.92-1.21,12.1-2.44,24.2-3.86,36.28-2.64,22.35-6.16,44.54-11.89,66.36C756.94,458.17,732.25,511.5,697.19,560a232.63,232.63,0,0,1-34.88,38.82c-16.64,14.61-33.09,29.44-51.54,41.85a277.57,277.57,0,0,1-122.08,45.9c-40.45,5-81.1,5.78-121.8,3.49-22.31-1.26-44.51-3.47-66.43-8Q204.3,662.37,128.31,600.2c-23.7-19.49-42.43-43.17-58-69.49C51.51,498.86,37.52,464.86,25.49,430c-6.57-19-13.36-38-17.93-57.61A177.9,177.9,0,0,1,4.28,352C2.94,340.27.57,328.68.07,316.86A61.61,61.61,0,0,1,.49,306c.63-4.61,2.11-8.84,6-11.77,1.94-1.45,2.72-2.87,1.53-5.49-2.83-6.23-3.45-13-3-19.72,1.42-22.46,5.85-44.24,15.32-64.77,8.59-18.63,20.82-34,39.91-42.94,1.7-.8,3.07-1.55,3.22-3.82,1.23-18.4,8.3-34.8,17.61-50.36C99,77.17,125.42,57.72,157.82,45.94a52.19,52.19,0,0,1,24.65-3c2.55.33,4.09-.61,5.68-2.29a131.32,131.32,0,0,1,22.47-18.88A116.39,116.39,0,0,1,268.25,2.47c12.69-.85,24.84,2.29,36.67,6.7a191.56,191.56,0,0,1,23.29,10.48c4,2.11,7.22,2,11.07-.34,22.9-13.64,48-19.1,74.4-19.31,25.53-.2,48.64,7,68.91,22.8,3.72,2.9,7.64,5.55,11.26,8.57,2.84,2.38,5.14,2.91,8.6.72,6.95-4.4,14.78-6.74,22.87-8.31,16.89-3.29,32.34,1.17,47.31,8.46A100.46,100.46,0,0,1,605,57.53c3.79,4.41,7.49,8.89,11.19,13.37,1.48,1.79,3,2.78,5.61,2.36,15.09-2.51,27.31,3.54,38.15,13.28a93.6,93.6,0,0,1,17.35,21.57c3.56,5.9,7.08,11.83,10.47,17.84a22.34,22.34,0,0,0,14.58,11.29c16.79,4.27,27.55,15.21,34,31,3.56,8.81,5.63,18,7.37,27.25a30.73,30.73,0,0,0,6,13.16C762.91,226,768,245.88,767.23,267.43,767.07,271.93,766.7,276.43,766.43,280.78Z"/><path class="cls-1" d="M26.57,317.41c16.68,3.36,32.69,6.44,48.64,9.84a348.58,348.58,0,0,0,43.62,6c16.09,1.33,32.23,2.06,48.31,3.49,12.83,1.15,25.39,4.11,38,6.71,24.14,5,48.36,9.61,73,11.89,11.39,1.05,22.79,1.64,34.22,2.06,13.06.48,26.11,1.15,39.16,1.8,10.72.53,21.41-.43,32.11-.7,23.6-.57,47.17-1.74,70.68-3.67,23.86-2,47.63-4.85,71.47-7.06,22-2.05,44-4.83,65.87-8,14.17-2.08,28.29-4.53,42.44-6.71q20.7-3.18,41.43-6.15c21.71-3.14,43.34-6.81,64.8-11.4,6.37-1.36,12.72-2.84,19.16-4.28,1.33,1.69.66,3.55.45,5.22-2.61,20.86-4.82,41.78-9.44,62.35a475.31,475.31,0,0,1-27.19,83.72C710,493.32,692.74,521.82,673,548.89c-10.34,14.18-22.81,26.32-36.09,37.68-12.56,10.74-24.92,21.69-38.57,31.09-30.52,21-64.12,34.5-100.45,41.26-14.45,2.7-29.11,3.82-43.8,4.67-26.13,1.51-52.27,1.93-78.41.9-43-1.71-85.24-8.28-125.61-23.75-43.26-16.58-83.12-39.07-116.94-71.17-17-16.1-30.5-35-42.19-55.22-18.43-31.92-31.72-66-43.59-100.77-6.63-19.4-13.81-38.71-16.63-59.09-1.37-9.86-3.05-19.64-4.74-29.44C25.55,322.66,26.73,320.46,26.57,317.41Z"/><path class="cls-2" d="M362,333.4c-29.66-1.32-59.49-1.36-89.09-4.72a656.14,656.14,0,0,1-69.64-12.21,308.69,308.69,0,0,0-54.42-7.25C119.59,308,90.61,304.7,62,298.09c-8.11-1.87-16.42-2.86-24.52-4.84-2.38-.59-4.1-1-3.86-4.05A6.82,6.82,0,0,0,32,284.12c-4-4.27-3.45-9.37-2.72-14.42.82-5.74,1.9-11.44,3-17.14,2.56-13.19,5.76-26.18,11.53-38.44,6.82-14.5,16.54-26.06,31.81-32,9.53-3.67,13.17-10.67,13.09-20.35a56,56,0,0,1,3.76-19.68c12.76-35.17,37.41-58.42,72.05-71.6a33.57,33.57,0,0,1,17.13-2c10.21,1.55,17.73-2.25,24.51-9.71a95.52,95.52,0,0,1,37.49-25.4c19.72-7.44,39-7.08,58.09,1.89,6.23,2.93,12.57,5.65,18.7,8.78,9.77,5,19.17,4.39,28.49-1.11,11-6.5,22.55-11.61,35.12-14.22,17.61-3.65,35.24-4.55,52.94-.63,9.93,2.2,18.7,6.82,26.88,12.65,6.94,5,13.85,10,20.63,15.14,8.58,6.56,17.16,6.81,26.14.82a50.39,50.39,0,0,1,19.49-7.94,41,41,0,0,1,20.36,1.81,75.56,75.56,0,0,1,33.09,21.17c3.77,4.17,7.31,8.55,11,12.84,1.41,1.65,2.83,3.31,4.26,5,6.6,7.57,14.88,11.08,24.81,9.12,7.22-1.42,12.76,1.21,17.95,5.57a62.66,62.66,0,0,1,12.92,15.37c3.62,5.86,7.17,11.77,10.51,17.8,6.84,12.37,16.62,21,30.55,24.34,8.33,2,13.42,7.32,16.72,14.95,3.13,7.23,4.85,14.81,6.25,22.48a55.19,55.19,0,0,0,11.4,25.49c7.5,9.26,10.74,20.46,11.7,32.27.8,10-.68,19.93-1.26,29.89-.16,2.76-1.86,3.28-3.84,3.65-5.17.95-10.4,1.42-15.57,2.43-30.28,5.92-60.87,9.86-91.37,14.39-19.56,2.91-39.07,6.12-58.63,9-17.23,2.58-34.57,4.31-51.9,6.05-20.41,2.05-40.81,4.1-61.24,5.95q-17.09,1.55-34.22,2.43C403.08,331.78,382.58,332.53,362,333.4Z"/><path class="cls-3" d="M545.86,612c-1.4-.24-1.61-1.1-1.32-2,2-6.26,4.34-12,10.5-15.75a159.34,159.34,0,0,0,32.65-26.77c11.7-12.4,24.91-23.26,36.65-35.63,7.37-7.77,13.49-16.51,20.07-24.88,9-11.46,16.13-24,22.35-37.15C674,454.5,683.1,440.24,690.21,425c6.27-13.49,12.91-26.79,19.56-40.08a17,17,0,0,1,4-5.79c.78-.66,1.39-1.94,2.67-1.37a3.33,3.33,0,0,1,2.15,3.47,54.16,54.16,0,0,1-1.27,6.91c-5.28,21-9.79,42.22-17.16,62.7-8.56,23.81-19,46.7-34.16,67-9.61,12.87-19.4,25.63-29.16,38.4-3.43,4.5-8.15,7.74-12.46,11.28-5,4.12-9.69,8.68-15.17,12.26a55.71,55.71,0,0,1-5.51,3.43l-54,27C548.34,610.82,547,611.41,545.86,612Z"/><path class="cls-4" d="M171,214.1c.91-2.46,1.7-4.86,2.7-7.18a13.52,13.52,0,0,1,5.81-7c3.7-2,6.86-1.77,10,1.13s5.48,6.69,9.07,9.32c1.81,1.33,1.56,3.55.18,5.38a5,5,0,0,1-6.33,1.51,16.51,16.51,0,0,1-3.31-2.79c-.91-.88-1.69-1.89-2.54-2.84s-1.68-1.86-2.65-2.92c-2.33,1.49-2.52,4-3.25,6.08-.59,1.7-.76,3.55-1.35,5.26-1.4,4.08-3.8,5.42-8,4.3a41.45,41.45,0,0,1-5.51-2.26c-3.57-1.51-4.17-1.34-5.67,2.31-1,2.34-1.6,4.81-2.42,7.21-2.37,6.93-5.6,8.38-12.45,5.61-.67-.28-1.31-.62-2-.91-4.82-2-6-1.46-7.2,3.5a23.46,23.46,0,0,0-.3,7.57c.23,2.5-.76,4.3-3.31,4.85-2.19.46-4.24-1.25-4.73-4.18-.9-5.29-.62-10.52,1.89-15.38,3.12-6.06,8.14-7.91,14.56-5.57a19,19,0,0,1,2.52,1c1.88,1,2.52.11,3-1.62a46.85,46.85,0,0,1,2.32-6.66c3.41-7.53,8.56-9.58,16.33-6.68C169.24,213.51,170.09,213.78,171,214.1Z"/><path class="cls-4" d="M480.44,116.71c12.35-6.41,15.38-5.76,23.59,5,2.13-1.18,4.22-2.55,6.48-3.54,4.45-1.92,8.27-1.11,11.29,2.48,4.14,4.91,6.07,11.1,9.16,16.63,1,1.72,0,3.59-1.65,4.72a4.54,4.54,0,0,1-5.13-.06c-1.82-1.09-2.69-2.92-3.61-4.68q-2.28-4.33-4.39-8.75c-.94-2-2.25-2.12-3.89-1-1.48,1-2.88,2.21-4.4,3.2-4.22,2.76-7.2,2.29-10.39-1.69-1-1.27-1.78-2.74-2.69-4.09-2.32-3.49-3.43-3.75-7.09-1.58-1.09.64-2.05,1.51-3.13,2.17-4.14,2.55-6.88,2.18-10-1.46-1.55-1.79-2.82-3.79-4.32-5.61-3.05-3.72-6.64-3.94-10.26-.68a14.29,14.29,0,0,0-3.37,5.5c-.82,2-2.46,3.2-4.79,2.45A3.9,3.9,0,0,1,449,121c1.11-6.47,5.15-10.74,11.06-13.09,5.68-2.27,11.07-1.66,15.45,3.09C477.24,112.89,478.84,114.85,480.44,116.71Z"/><path class="cls-4" d="M594.41,246.76a5.77,5.77,0,0,1,1.47.17c3.28,1.25,5,.08,6.64-3.05,2.89-5.48,9.19-8.5,14.64-5,1.71,1.1,2.6.61,3.36-1a11.43,11.43,0,0,1,1.12-1.87c5.16-7.17,13-7.09,17.81.24a61.65,61.65,0,0,1,3.92,7.13,4.83,4.83,0,0,1-2,6.54c-2.16,1.16-4.53.58-6.09-1.85-1.16-1.82-1.85-3.93-2.9-5.83-1.31-2.35-2.47-2.3-3.78.14a17.94,17.94,0,0,0-1.69,5.14c-.52,2.81-1.69,5.31-4.79,6-2.75.58-4.25-1.41-5.82-3.23-1.14-1.32-2.14-3.48-4.17-3-2.5.6-2.59,3.22-3.07,5.3-.24,1.06-.12,2.18-.32,3.25-.86,4.54-4.73,6.06-8.53,3.35a37.59,37.59,0,0,0-3.36-2.74c-3.11-1.73-5.75-.6-6.69,2.84a11.33,11.33,0,0,0,.86,8.43c1.7,3.33,1.27,5.42-.94,6.51s-4.66,0-6.42-2.62c-3.82-5.73-3.12-15.82,1.43-20.94C587.5,247.9,590.65,246.8,594.41,246.76Z"/><path class="cls-5" d="M207.84,157.31c-.28.15-.57.43-.85.42s-.57-.27-.85-.42c.28-.16.57-.43.85-.43S207.56,157.15,207.84,157.31Z"/><path class="cls-6" d="M489.34,186.79c-.12.13-.27.37-.35.35a6.06,6.06,0,0,1-.86-.4,5,5,0,0,1,.9-.31C489.11,186.41,489.24,186.67,489.34,186.79Z"/></g></g></svg>