<svg xmlns="http://www.w3.org/2000/svg" viewBox="0 0 1839.89 1186.5"><defs><style>.cls-1{fill:#b1b1b1;}.cls-2{fill:#e99f2a;}.cls-3{fill:#a26e1d;}.cls-4{fill:#7f5717;}.cls-5{fill:#a06d1d;}.cls-6{fill:#9d6b1c;}.cls-7{fill:#4d6e09;}.cls-8{fill:#b2821f;}.cls-9{fill:#c44e0b;}.cls-10{fill:#f9cfb7;}.cls-11{fill:#b98c72;}.cls-12{fill:#b68c70;}.cls-13{fill:#ba8d73;}.cls-14{fill:#b78c70;}.cls-15{fill:#e1bf9f;}.cls-16{fill:#344b06;}.cls-17{fill:#a77254;}.cls-18{fill:#fad1ba;}.cls-19{fill:#fcf4ef;}.cls-20{fill:#865a42;}.cls-21{fill:#e8c2ad;}.cls-22{fill:#903907;}.cls-23{fill:#ba8e74;}.cls-24{fill:#875b42;}.cls-25{fill:#e8c2ae;}</style></defs><g id="레이어_2" data-name="레이어 2"><g id="레이어_1-2" data-name="레이어 1"><path d="M1836.42,687.56c-1.78,15-2.65,30.21-7.14,44.8-4.33,14-11.68,25.95-23.51,35.08-5.12,4-6.65,10.37-7.07,16.47-1.81,26.21-8,51.56-14.36,76.9-6.2,24.61-22.51,38.18-46.62,43.05-37,7.48-72.11,21-107.1,34.75-36.9,14.46-74.53,26.81-112.21,38.94-68.08,21.93-137.62,38.6-207.12,55.36-32.17,7.75-64.11,16.47-96.11,24.92-39.94,10.54-80.36,19-120.71,27.71-26.81,5.79-53.46,12.3-80.37,17.65-36.93,7.33-74.19,12.45-111.42,17.84-26.69,3.86-53.3,8.27-79.93,12.51-29.42,4.68-58.84,9.33-88.23,14.22-34,5.66-68.07,10.73-102.21,15.43q-46.51,6.4-93.29,10.7-71.67,6.63-143.46,11.49c-40.36,2.78-80.58-.12-120.8-3.06-9.67-.71-16.37-6.16-21.78-14.11-14.82-21.77-27.83-44.65-41.79-66.94-21.28-34-46.38-65-71-96.51C106,961.24,72.36,917.34,44,869.73c-17.45-29.28-30.85-60.44-41.16-92.92-2.44-7.7-3-15.72-2.76-23.73,1-31.81,1.76-63.62,4.43-95.36a825.91,825.91,0,0,1,24.23-141,52.93,52.93,0,0,1,7.45-16.82c5-7.23,11.54-11.93,20.46-12.78,2.13-.21,3.75-.77,4.94-2.72,9.27-15.21,22.78-26,37.62-35.19,57.73-35.65,117.41-67.59,179.62-94.81,42.24-18.49,84.73-36.34,127.83-52.7q79.82-30.3,161.27-55.88,74.73-23.62,150.27-44.51c62.66-17.47,125.75-33.3,188.63-49.9,37.32-9.85,74.49-20.28,111.69-30.57,51.46-14.23,103-28.12,155.09-39.82,38.3-8.6,76.6-17.17,115-25.18,39.25-8.19,78.6-15.89,117.93-23.65,36.74-7.24,73.39-14.93,110.2-21.75,23.23-4.3,46.58-8.13,70.19-10,5.48-.43,11-.78,16.45.2,11.58,2.06,19.17,9.19,21.71,20.58.52,2.32,1.1,4.46,2.93,6.17,30.45,28.41,49.85,64.11,64.62,102.17,10.08,26,23.51,49.91,37.31,73.82,12.06,20.91,25.22,41.19,35.53,63.08,10.62,22.56,17.33,46.41,22.82,70.62,7,30.94,14.66,61.76,20.62,92.94,8.14,42.5,16.89,84.9,22,127.91,1.78,14.89,3.68,29.76,5.53,44.63C1840.42,630.89,1839.45,659.23,1836.42,687.56Z"/><path class="cls-1" d="M1836.42,687.56c-.46-7.83.83-15.57,1.35-23.33a311.74,311.74,0,0,0-1.29-57.23,38.86,38.86,0,0,1,0-4.45c2.62,6.62,2.26,13.71,2.76,20.57,1.5,20.78.22,41.54-1.88,62.25A7.71,7.71,0,0,1,1836.42,687.56Z"/><path class="cls-2" d="M507.47,327.44c48.5-17.11,97.62-32.32,146.88-47.08Q716.51,261.75,779.24,245c57.87-15.47,115.94-30.2,173.82-45.63,43.57-11.62,87-23.92,130.47-35.79C1140.87,148,1198.85,135,1256.9,122.29c58.85-12.86,117.93-24.61,177.12-35.82,42-8,83.74-17.14,125.28-27.28,14.51-3.54,14.2-3.14,25,6.82,25,23,41.42,51.78,53.17,82.88,11.46,30.31,27.06,58.21,43.24,86,10.48,18,21.69,35.54,30.86,54.27,11,22.49,16.23,46.76,22.09,70.87,11.68,48.06,21.14,96.59,30.23,145.19,5,26.84,8.47,53.93,11.58,81.06,2.38,20.85,5.78,41.61,4.86,62.7-.86,19.64-2.89,39.18-5,58.72-1.13,10.33-6.69,15.14-16.29,17.92-36.45,10.56-73.4,19.17-110.11,28.7-42.69,11.07-85.12,23.15-127.86,34-26.11,6.63-52.61,11.71-78.9,17.64-39.13,8.82-77.88,19.2-116.78,29-38.58,9.7-77.53,17.78-116.31,26.59q-56.43,12.81-112.8,25.82c-43.63,10-87.37,19.53-131.33,28-71.25,13.72-142.3,28.36-213.28,43.42-36.14,7.66-72.76,12.89-109.4,17.75C616.16,980,590.16,984,564.12,987.7c-24.89,3.54-49.76,7.24-74.7,10.4-27.9,3.55-55.72,8-83.82,9.86-31.11,2-62.2,3-93.1-3.15-10.51-2.08-18.08-8-24.58-15.87-7.54-9.14-13.65-19.3-20.46-29-32.13-45.65-58.14-94.68-80.43-145.74-16.28-37.29-28.51-76-40.44-114.86-9.71-31.65-21.07-62.8-29.19-94.94a427.48,427.48,0,0,1-11.24-64.37c-1.67-17.58,5.74-29.79,20.1-38.78a1324.65,1324.65,0,0,1,141.85-77.79c67.61-31.62,136.71-59.6,207-84.78,8.77-3.14,17.6-6.12,26.4-9.17C503.36,328.52,505.6,328.51,507.47,327.44Z"/><path class="cls-2" d="M353.21,1130.28c-12,0-24-.08-36,.06-3.18,0-4.32-.64-4.09-4.2,1.24-19.29,2-38.61.85-57.94-.18-3,.88-3.74,3.73-3.37,39.58,5.13,79.13,3.59,118.6-1.18q54.3-6.57,108.49-14c28.86-4,57.61-8.66,86.44-12.84,21.25-3.08,42.57-5.67,63.82-8.78,49.78-7.27,98.84-18.33,148-28.88,42.32-9.08,84.88-16.87,127.34-25.21,69.93-13.74,139.35-29.78,208.8-45.73,44.27-10.17,88.72-19.6,132.93-30,38.39-9.06,76.54-19.09,114.8-28.67,33.24-8.32,67-14.54,100.28-22.51,41.12-9.84,81.64-22,122.54-32.66,28.17-7.36,56.48-14.18,84.7-21.36,3.43-.87,4.5-.15,4.08,3.42-1.69,14.45-5.7,28.38-8.91,42.5-1.25,5.48-3.56,7.9-9.15,9.05-41.14,8.45-79.83,24.39-118.93,39.13-44.71,16.86-89.82,32.77-135.79,45.7-56.35,15.85-113,30.63-170.11,43.88-34.36,8-68.3,17.75-102.47,26.57-41.4,10.68-83.32,19.09-125.05,28.36-33.8,7.51-67.51,15.5-101.76,20.79-32.89,5.08-65.87,9.64-98.76,14.79q-73,11.44-145.94,23.41c-50.11,8.26-100.36,15.52-150.79,21.44-22.16,2.6-44.42,4.3-66.65,6.31-48.77,4.42-97.63,7.76-146.51,10.7-1.49.09-3,0-4.49,0Z"/><path class="cls-2" d="M253.53,1058.89c-6.6-9.57-13-19.26-19.82-28.71-20.11-28-42.74-54.09-63.4-81.68C142,910.67,112.84,873.34,89.64,831.94c-12-21.39-21.31-44-29.44-67.12-2.33-6.62-1.74-13.5-1.45-20.3,1.26-30.27,1.62-60.6,4.9-90.76a89.56,89.56,0,0,1,2.4-14.61Q74.33,665,82.6,690.84c15.25,47.52,28.93,95.57,48.73,141.53C155,887.25,182.49,940,216.71,989.12c11,15.85,21,32.46,34.59,46.39a4.82,4.82,0,0,1,1.42,2.53c.72,6.88,1.3,13.77,1.93,20.65Z"/><path class="cls-3" d="M507.47,327.44c-1.6,1.85-3.71,2.21-6,2.1A8.69,8.69,0,0,1,507.47,327.44Z"/><path d="M756.53,889.53c-8.16-3.34-16.48-6.34-24.2-10.66-3.59-2-5.5-1.75-7.72,2.23-9.66,17.32-19.94,34.27-34.14,48.43-13.18,13.15-28.27,16.72-45.67,9.51-13.4-5.55-27.5-9-41.18-13.76-3.65-1.26-6.06-.59-8.61,2.47-9.54,11.5-21.13,20.69-33.49,29-13.32,9-27.61,10.66-43,7-28.62-6.92-57.29-13.6-85.9-20.53-2.63-.64-3.64.07-4.46,2.29-1.09,3-2.41,5.84-3.51,8.8-9.23,24.89-40,29.64-58.85,13.43-19.27-16.62-34.36-36.56-47.43-58.24-15.15-25.12-25.9-52.1-34.84-79.9-1.48-2.87-1.48-6.21-2.89-9.11-.39-1.44-.72-2.91-1.17-4.33-1.18-3.64-1.58-7.93-3.82-10.74-2.75-3.44-6.95.12-10.54.17-19.13.22-32-10.27-35.56-29.58-5.81-31.5-8.82-63.31-10.32-95.29-.62-13.34-.09-26.64.51-39.95.18-4-.26-5.46-4.72-3.66-8.7,3.52-17.61,5.83-27.26,3.73-17.66-3.86-27.7-16-25.12-33.82,5.21-36,13-71.47,31.09-103.68,8.4-15,17.31-29.66,30.42-41.2a28.72,28.72,0,0,1,20.12-7.43c1.66,0,3.41.36,4.71-1,6.26-6.78,14.7-9.58,23-12.54,34.65-12.35,69.37-24.56,105.26-32.81a415.38,415.38,0,0,1,77.56-10.76,18.3,18.3,0,0,0,10.08-3.64c36.15-24.89,73.47-47.57,114.77-63.25,18.4-7,35.08-6.38,50.54,6.5,1.73,1.44,3.23,1.84,5.39.73C679,315.5,725.54,301.26,771.85,286.5c5.23-1.67,10.39-3.57,15.66-5.11,17.1-5,32.19.53,42.15,15.38a54.47,54.47,0,0,1,4.94,8.1c1.57,3.56,3.36,3.59,6.53,1.9,21.75-11.61,44.33-21.49,66.86-31.47,31.94-14.14,63.83-28.37,95.8-42.44,8.7-3.82,17.64-7.08,27.33-7.27a38.84,38.84,0,0,1,23.6,6.86c3,2.14,5.39,2,8.57.31,21.56-11.58,43.22-23,66.21-31.6,14.81-5.53,29.68-10.9,45.14-14.44,14.54-3.34,27.42-.15,38.51,9.8,2.17,1.95,3.79,2.5,6.5.87,26.8-16.1,55.72-27.71,84.57-39.41,19.27-7.81,38.86-14.85,58.22-22.45,16.16-6.35,31.06-4.06,44.82,6.1,3,2.18,5.11,1.92,8,.25,12.14-7,24.37-13.75,36.6-20.53A189.84,189.84,0,0,1,1476,110.41a41.93,41.93,0,0,1,35.3,1.78c9.69,4.9,19.84,9.73,26.09,18.78,4.37,6.31,8.61,9.47,16.45,9.37,8.37-.1,15.19,4.44,20.58,10.85a30.81,30.81,0,0,0,7.49,6.55c29.52,18.09,53.75,41.91,75,69,4,5.12,8.34,10,12.34,15.09,10.36,13.27,9.16,33.47-2.93,45.21-2.58,2.51-2.22,4.15-.64,6.74,9.22,15.09,17.69,30.59,23.23,47.45,5.77,17.55,9,35.45,6,54A62.47,62.47,0,0,1,1674,432.93c-2.15,1.92-3.12,3.22-1,6.06,25.36,33.16,35.32,71.19,34.43,112.34-.56,26-1.66,51.94-6.92,77.51-.6,2.92-1.4,5.81-2.11,8.71-1.11,3.42-2.08,6.9-4.05,10-6.3,11.65-16.34,18.65-28.57,22.83-8,2.74-16.09,5.41-24.23,7.8-3.21.94-4.09,2.2-3.55,5.64a84.31,84.31,0,0,1-1,33.74c-5.71,23.08-20.48,34-44.13,32-23.43-2-46.84-3.39-70.34-1.8-25.11,1.7-50,5.13-75,8.15-17.38,2.09-34.8,3.67-52.34,2.54-3.16-.21-4.74.94-6.21,3.65-4.82,8.89-9,18.08-14,26.9-8,14.16-20.11,21.2-35.67,20.27-24.58-1.46-49.15-3.82-73.34-8.84a128.67,128.67,0,0,1-22.87-7.12c-4.52-1.86-6.31-.67-7.18,3.76-1,5.33-3.66,10-6.81,14.32-6.33,8.72-14.85,13.55-25.53,15-10.94,1.43-21.94,1.38-32.92,1.88-32.78,1.51-65.51,4.18-98.35,4.34-2.28,0-3.69.58-4.15,3.17-3.52,19.93-16.25,29.6-35.53,33.12-23.28,4.26-46.78,3.83-70.22,4.73-31.8,1.22-63.63,1.56-95.45.61-3-.09-4.38.94-5.52,3.68-8.64,20.67-21.56,28-44.06,25.9a243.43,243.43,0,0,1-49.77-10.34C764,892,760.13,891.1,756.53,889.53Z"/><path class="cls-4" d="M756.53,889.53c3.9.7,7.71,1.66,11.06,3.91A20.85,20.85,0,0,1,756.53,889.53Z"/><path class="cls-5" d="M1694.37,647.53a41.82,41.82,0,0,1,4.05-10C1698.37,641.4,1697.33,644.86,1694.37,647.53Z"/><path class="cls-6" d="M280.66,820.44a17.23,17.23,0,0,1,2.89,9.11C281.23,827,280.85,823.73,280.66,820.44Z"/><path class="cls-7" d="M1579.27,689.6c-3.73,2.37-7.42-.08-11.06-.33a346.76,346.76,0,0,0-45.36,0c-12.61.78-25.18,1.81-37.72,3.25-12.21,1.4-24.36,3.25-36.58,4.41-17.49,1.65-34.85,4.63-52.62,2.93-9.15-.88-18.61-1.84-27.73,1.31-12.5,4.33-20,13.79-26,24.92-3.53,6.6-7.13,13.18-10.39,19.92-1.38,2.86-3.11,3.84-6.21,3.57-26.54-2.34-52.81-5.81-77.72-16.15-7-2.92-14-6.57-21.81-6.79-23.17-.68-32.65,9.36-39.33,30.07-4,12.55-3.63,12.39-16.77,12.95-26.57,1.12-53.13,2.57-79.69,3.93-13.45.7-26.9.44-40.36.19-11.18-.21-21.72,2.62-30.19,10.81-6,5.77-8.72,12.86-9.27,20.91-.54,7.87-.49,7.75-8.47,8.11-26.77,1.22-53.55,1.68-80.34,2.27-13.48.3-27,.59-40.43.42-10.79-.14-21.58-1-32.33-1.94-13.88-1.2-31.56,9.82-35.12,23.68-1.42,5.53-4.56,6.25-9.44,5.43-15.94-2.69-31.65-6.2-46.65-12.37-9.83-4-20.42-4.48-30.69-6.16a217,217,0,0,1-32.36-8c-3.69-1.2-4.82-.25-5.95,3.08-6.93,20.34-17.94,38.55-29.66,56.39-2.17,3.3-4.65,3.87-8.4,2.69-14.42-4.53-28.62-9.73-43.46-13-22.21-4.87-39.49,2.48-53.22,19.79a111.36,111.36,0,0,1-19,18.33,7.58,7.58,0,0,1-6.84,1.55c-22.46-4.59-44.43-11.24-66.95-15.58-11.75-2.27-22.94-6.56-34.2-10.71-17.13-6.3-35.37-2.56-43.3,15.81-1.54,3.56-2.57,3.48-4.74.34a275,275,0,0,1-36-73.15c-5-15.83-10.75-31.47-14.68-47.63-2.31-9.5-3.81-19.2-5.65-28.81-3.09-16-20.18-28.68-36.29-26.56-4,.53-5.64.24-6.07-4.61-2.16-24.37-3.31-48.69-2-73.19.77-14.51,3.06-29.18-.58-43.72C272.71,578.3,255,566.75,235,570.27c-5,.89-5.57.38-4.35-4.54,4.89-19.61,11.16-38.66,22.23-55.82,3.52-5.45,8-8.78,14.72-8.26,6.47.5,12.45-1.09,18.47-3.33,34.14-12.66,68.57-24.53,104-33.15,15.77-3.84,32-5.91,48.14-7.75,15.43-1.77,30.86-2,46.34-1.77a10,10,0,0,0,7.56-3.1c12.75-12.54,27.39-22.63,42.2-32.53,6.06-4,11.66-8.79,17.44-13.27a73.89,73.89,0,0,1,23.84-12.22,134.21,134.21,0,0,0,18.71-6.86c2.52-1.2,4.17-.66,6.22,1.05,6.42,5.36,13.29,9.82,21.68,11.85,11.21,2.72,21.33-.54,30.63-5.82,23.59-13.38,49-22.49,74.14-32.08,18.65-7.1,38-12.24,56.85-18.69,3.92-1.34,5.94-.26,7.94,3.19,4.78,8.24,10.16,16.17,18.8,20.88,13.16,7.18,26.46,5.36,39.31-.74,22.39-10.63,44.37-22.1,67.12-32,26.69-11.63,53.19-23.7,79.79-35.55,9.26-4.13,18.59-8.12,27.86-12.26,2.16-1,3.89-1.07,6,.39,15.07,10.49,31,9.94,46.93,2.58,14.33-6.63,28.16-14.31,42.3-21.36,15.36-7.66,31.44-13.55,47.44-19.7,8.17-3.13,12.8-1.61,19.53,4.25,14.77,12.88,26.19,13.54,43.28,4.18a869.24,869.24,0,0,1,101-47.7c14.09-5.52,28.25-10.86,42.33-16.41,3.19-1.25,5.53-.76,8.17,1.38,15,12.17,31,13.5,48.39,4.92,18.09-8.93,35.06-19.84,53.09-28.86,8.19-4.1,8.08-4.44,14.36,1.89,5.41,5.46,11.83,8.52,19.56,8.57,2.11,0,4,.28,5.27,2.16,5.89,8.91,15.25,13.75,23.51,19.82,11,8.06,22.63,15.2,33,24.1,3.42,2.93,6,4.7,2.4,10.08-7,10.41-5.48,21.39.78,32,15.47,26.17,33.73,50.68,46.79,78.3a89.57,89.57,0,0,1,8.81,32.51c.36,5.24-1.74,8.82-5.74,11.93-6.83,5.3-13.72,10.62-18.75,17.8-10.9,15.55-10.6,33.07.87,48.16,4.72,6.21,9.89,12.09,14.63,18.3,10.89,14.26,15.63,31,19,48.25,3.33,17,1.4,34.12.28,51.18-.77,11.77-1.76,23.51-3.28,35.21-.48,3.71-2.13,5.14-5.59,6.46-13.25,5.06-27.47,6.67-40.67,11.69-13.91,5.29-22.64,15.17-23.32,30.55-.4,9,2.13,17.73,4.42,26.4C1578.17,687.5,1577.89,688.53,1579.27,689.6Z"/><path class="cls-8" d="M1579.27,689.6c-1.18-.43-3.41.73-3.36-1.41,0-1.57,1.93-1.8,3.44-1.7C1579.33,687.53,1579.3,688.57,1579.27,689.6Z"/><path d="M333.57,512.58a28.82,28.82,0,0,0,5-9.11c3.47-9.29,10.17-16.09,20-16.55,12.17-.57,23.48-4.36,35.17-6.65,15.82-3.11,31.78-5,47.77-6.9,23.95-2.81,48-4.32,72-5.56,8.31-.42,16.66-.26,25-.16,3,0,4-.93,4.1-4,.61-13.32,10.45-23.31,24.13-25,28.85-3.58,57.64-7.58,86.85-7.3,19.6.19,39.16.8,58.73,1.94,14.94.88,29.85,1.71,44.6,4.31,3.76.66,7.51,1.46,11.21,2.4,2,.51,2.93.4,3.49-1.95,3-12.71,11.59-19.5,24.14-21.2,19.46-2.64,38.49-7.38,57.58-11.73,36.76-8.37,73.42-17.13,110.11-25.81,6.62-1.57,13.11-3.74,20-3.87a5.48,5.48,0,0,0,4.57-2.61c4.78-6.81,11.87-10.1,19.58-12,17.75-4.42,35.18-10,52.73-15.07a513.18,513.18,0,0,1,70-15.3c10.87-1.58,21.66-3.43,32.71-3a9.39,9.39,0,0,0,3.8-1c26.24-11.05,53.16-20.16,80.19-29.06,20.07-6.61,40.31-12.56,60.8-17.64,16.27-4,32.59-8.11,49.53-8.13,21.82,0,37.71,11.28,45.16,31.89,10.69,29.58,18.25,60,25.75,90.54,8.87,36.12,18.72,72,25.55,108.61,5.58,29.93,14.33,59.07,21,88.72,4.08,18.31,3.77,36-8.12,51.86-8.65,11.51-20.25,18.63-34,22.34-21.73,5.87-44,8.46-66.36,10.11-16.22,1.19-32.35,3.42-48.48,5.54-12.67,1.66-25.4,2.93-38.11,4.23a9.8,9.8,0,0,0-6.58,3.07c-9.76,10.44-22.45,14.24-36.09,16.12-18.6,2.56-37.26,4.79-56,5.6-26.41,1.13-52.86,2.59-79.33.61-6.81-.51-13.49-1.88-20.28-2.32-2-.14-4-.35-5.77,1-11.78,9.24-26.07,12.17-40,15.77-23.32,6-46.72,11.81-70.49,15.73-16.53,2.72-33.13,5.14-49.85,6.61-3.8.34-7.6.71-11.39,1.17a6.77,6.77,0,0,0-5.43,3.91c-5.46,10.53-14.77,16.53-25.29,20.78-24.25,9.81-49.46,16.7-74.5,24.07-23.05,6.77-46.75,9.72-70.57,12.25a373,373,0,0,1-47.84,1.67c-3.2-.07-5.11.76-6.68,3.79-6.12,11.87-18.94,17.58-32,14.5a13.26,13.26,0,0,0-8.14.56C612.73,838,591.19,843,569.82,848.65c-16.3,4.29-32.86,7.19-49.73,6.65-21.24-.68-42.51-1.29-63.56-4.73-14.61-2.39-25.84-9.85-34.1-22.12-11.27-16.75-20.68-34.5-29.49-52.64-9.46-19.46-18.57-39-26.38-59.22-11.89-30.72-23.94-61.39-30.36-93.85a478.28,478.28,0,0,1-6.8-49.8c-1.12-12.49-.89-25-.75-37.42,0-3.64.61-7.27.94-10.91C330.47,520.46,331,516.19,333.57,512.58Z"/><path class="cls-9" d="M1482.4,256.28c10,4.59,13.93-.8,18.41-8.68,6.54-11.48,20.46-15,31.78-9.95,12.76,5.75,19.08,18.1,15.75,31.31-.65,2.57-.49,4,1.67,5.91,9.25,8.07,17.23,17.13,20.54,29.4.62,2.27,2.52,3.38,4.34,4.59,7.18,4.81,14.37,9.66,19.85,16.47,6.22,7.72,4.7,18.54-3.51,24a9.9,9.9,0,0,0-5,8.3c-1.08,11-7.75,18.41-17.1,23.63-6.31,3.53-13.22,5.31-20.32,6.38-1.48.22-3.17,0-4.09,1.39-5.23,7.87-13.67,11.52-21.39,15.92-9.51,5.42-19,11.08-29.68,14.08s-20.13-.16-25.1-8.82c-1.92-3.36-3.23-7.09-2.62-10.93.42-2.61-.53-3.86-2.56-4.62-11.63-4.32-16.55-12.93-19.46-24.87-2.25-9.24-2.43-18.88-6.15-27.95s.28-17.63,6.84-24.5c2.35-2.46,2.63-4.52,1.49-7.5-3.2-8.34-5-17-3.16-25.89,3-14.47,14.48-24.09,30.83-26.21C1476.69,257.32,1479.58,256.22,1482.4,256.28Z"/><path class="cls-10" d="M1555.22,600.7l-.41,0-.36-.18a75.79,75.79,0,0,0-8.19-2.9c-19.12-7.26-35-29.59-35.65-50.17-.95-29.09,12.13-51,34.89-67.88,3.86,3.36,7.91,3.94,13,2.35a7.75,7.75,0,0,1,9,3.52c.88.86,1.4,3.25,3.08.77,1.3-1.91,2.55-3.84,3.82-5.76,1.48-2.78,4-2.52,6.46-2.1,3.32.56,6.57.8,9.49-1.3,2-1.43,2.49,0,3.06,1.46,8.26,14.59,18.09,28.28,24.57,43.91,4.65,11.21,9.55,22.31,12.49,34.14,1,2.73.84,5-1.91,6.82-2.3,1.49-2.57,3.75-1.39,6.11,1.75,3.51.27,5.27-3.11,6.1a24,24,0,0,0-2.39.64c-1.73.65-2.83,1.8-2.61,3.72.25,2.2,1.81,3,3.82,3.11,3.26.12,6-1.5,9-2.55,2.78-1,2.88-.86,3.49,1.84-1.12,2.52-2.74,4.46-5.66,4.9-10.06,1.49-20.08,2.27-30.13-.22-6.52-1.61-12.63-4-17.93-8.24-.83-.67-1.56-2.37-3.19-1.22-.77,3.33-.68,6.78-1.46,10.13-.57,2.49-1.21,4-3.76,1.76-1.36-1.19-2.9-1.8-4.56-1a27.33,27.33,0,0,1-9.49,2.65,3.58,3.58,0,0,0-3.17,2.75,4.51,4.51,0,0,0,1.4,5.16,1.59,1.59,0,0,1,.25,1.27C1557,601.26,1556.11,601.07,1555.22,600.7Z"/><path class="cls-11" d="M1635.35,582.4c-.55-2.91-2.14-1.18-3.25-.62-3,1.51-6,2.9-9.44,2.85-3.08,0-5.07-1.29-5.35-4.62-.26-3.13,1.44-4.9,4.22-5.13,4.66-.4,6.84-1.62,3.8-6.51a4,4,0,0,1,2.05-5.88c3.13-1.24,3.14-3.37,3.09-5.88,3.65,5.39,5.49,11.54,7.25,17.69C1638.58,577.3,1636.65,579.84,1635.35,582.4Z"/><path class="cls-12" d="M1567.5,485.49c-3.91-2.14-7.69-3.6-12.33-1.44-4.38,2-7,.52-9.67-4.43,1.93-4.31,6.33-6.17,9.57-9.09,3-2.67,6.94.24,10.29,1.19,2.82.8,2.13,3.73,2.07,6C1567.36,480.32,1566.29,482.92,1567.5,485.49Z"/><path class="cls-13" d="M1554.47,594.55c0-2.62,1.42-5.64,3.7-4.8,5.89,2.19,11.55-8.5,17.27.2,2.24-3.91,1.06-8.52,3-12.33.25,7.14-.88,13.94-4.79,20.08-3.09.94-5.94,2.53-9.08,3.34-2.64.68-5.14,1-7.11-1.48h0C1555.2,598.64,1555.1,596.44,1554.47,594.55Z"/><path class="cls-14" d="M1593.41,478.56c-.38-.32-1-1-1.09-.89-4.83,3.7-10.09,2.3-15.35,1.49-.77-.12-1.71.86-2.57,1.34,1.24-4.6,2-9.35,7.24-11.63,4.94-2.16,8.15-1.11,10.15,4C1592.5,474.73,1593.74,476.43,1593.41,478.56Z"/><path class="cls-15" d="M1557.46,599.56c4.25,2.07,7.94-.4,11.81-1.43,1.42-.38,2.73-2.33,4.38-.43-4.22,7-8,7.6-18.43,3Z"/><path class="cls-16" d="M333.57,512.58q-2,6-4,12C329.43,520.11,329.7,515.75,333.57,512.58Z"/><path class="cls-15" d="M1546.26,597.67a11.66,11.66,0,0,1,8.19,2.9A15.61,15.61,0,0,1,1546.26,597.67Z"/><path class="cls-17" d="M821.58,613.59a154.53,154.53,0,0,1,5,23.8c.7,5.41,1.75,10.75,2.85,16.08s.49,6.63-5,8.28A169.56,169.56,0,0,1,808.05,666c-32,6.29-64.11,12.32-96.21,18.29-8.51,1.59-17,3.48-25.51,4.92a12.74,12.74,0,0,0-3.36.94c-1.25.6-2.5,1.37-1.94,3,.43,1.28,1.71,1.45,2.94,1.36,3.67-.28,7.16-1.51,10.77-2.11,32.52-5.48,64.93-11.58,97.35-17.62,11.94-2.23,24-4.2,35.48-8.3,2.36-.84,4.22-.74,5,2.07q5.4,24.84,10.83,49.67c.66,3-.17,4.57-3.23,5.52C812.92,732.22,786,742.17,757.77,747c-22.6,3.88-45.4,6.71-68.43,6.3-4-.07-8-.8-11.94-.55-4.33.27-5.22-2-5.81-5.52-2.89-17.2-6-34.37-10.49-51.23q-5.29-19.69-10.52-39.4c7.12-5.83,15.27-8.87,24.48-8.42,21.23,1,41.12-5.22,61.19-10.81,23.59-6.57,47.3-12.7,71.23-17.94,2.11-.46,4.26-1.25,6.39-1.06C817.79,618.73,820.06,616.87,821.58,613.59Z"/><path class="cls-18" d="M821.58,613.59c.82,4.83-1.35,5.72-6,6.07-11.61.88-22.78,4.46-34,7.37-24.43,6.33-48.8,12.93-73.22,19.31a103.79,103.79,0,0,1-29.64,3.18c-9.35-.29-18.28.9-25.81,7.15-.79.66-1.55.27-2.32-.06-9.7-34.53-20.54-68.68-33.82-102a9.28,9.28,0,0,1-.32-1.92,21.43,21.43,0,0,1,13-2.33c14.54,2.15,28.87-.17,43.21-1.69,25.67-2.71,50.78-8.64,76.07-13.55,13.53-2.63,27.13-5.13,40.93-5.91,3-.16,4.4-1.85,6-3.75,4.75,9.55,7.43,19.82,10.24,30C811.24,574.79,816.37,594.2,821.58,613.59Z"/><path class="cls-18" d="M1263.59,528.6c-6.1-26.19-12-52.45-18.42-78.55-3.11-12.56-7.35-24.85-11.07-37.26,3.16-2.83,7.35-3,11.12-3.89,16.61-3.89,32.38-10.24,48.34-16,18.19-6.61,36.53-12.64,55.82-15.18,1.65-.22,3.36-.73,5-.39,4.27.92,7-.56,8.2-4.72,3.17,12.62,6.28,25.26,9.53,37.87,6.86,26.66,13.79,53.32,19.58,80.25.34,1.62.61,3.26.91,4.89.87,3.18-1.43,4.09-3.66,4.82a14,14,0,0,1-7.42.38c-10.64-2.44-20.4.78-30.21,4.15-20.47,7.06-40.57,15-60.55,23.36-5.69,2.37-11.67,3.94-17.55,5.74C1265.43,536.41,1265.4,536.32,1263.59,528.6Z"/><path class="cls-18" d="M433.61,725.61c-15.65-36.5-30.26-73.38-40-112a8.12,8.12,0,0,1,0-2c3.9,2.22,8,1.9,12.34,1.57a637.52,637.52,0,0,0,98.85-15.42c10.69-2.54,21.61-3.69,32.43-5.45,10.44-1.69,19.19-6.11,25.43-14.89,7.11,15.9,12.41,32.47,17.79,49,3.9,12,7.43,24.09,11.13,36.14,1.09,2.73-1.19,3.22-2.77,3.61-6.06,1.51-10.75,5-15,9.39a30.44,30.44,0,0,1-11.32,7.13c-17,6.26-33.5,13.8-50.63,19.73a235.45,235.45,0,0,1-29.66,8.6c-14.88,3.06-29.37,7.16-42.56,15C437.6,727.27,435.41,728.47,433.61,725.61Z"/><path class="cls-17" d="M433.61,725.61c1.32.77,2.49,1.22,4.09.2,13.09-8.33,27.7-12.48,42.72-15.67C500,706,518.6,699,537,691.34c8.13-3.36,16.38-6.43,24.54-9.7a32.23,32.23,0,0,0,12.38-8.1,25.64,25.64,0,0,1,13.9-8.27c1.55-.32,3.4-.53,3.74-2.67,9.23,35.66,20.44,70.86,24.16,107.76.38,3.75-.63,5.16-4.18,6.2-21.86,6.41-43.72,12.78-65.94,17.8-15.45,3.5-31.13,2.28-46.74,1.64-8.3-.34-16.56-1.5-24.85-2-3.79-.22-5.92-2.07-7.85-5.13-11-17.5-19.61-36.27-28.64-54.81C436.19,731.27,434.92,728.43,433.61,725.61Z"/><path class="cls-17" d="M1263.59,528.6a11.35,11.35,0,0,1,1.21,2.67c.53,3.21,2,3.17,4.89,2.4,21.24-5.77,40.9-15.71,61.55-23,10.48-3.7,21-7.2,31.58-10.76a29.75,29.75,0,0,1,16.23-.64c3,.66,6,.33,8.94.11,2.37-.17,4.09-1.25,4.57-3.77,3.7,17.35,7.18,34.75,11.18,52,4.23,18.31,9,36.49,13.46,54.75,1.64,6.74,1.46,6.64-5.23,8.22-19.7,4.64-39.84,5.56-59.86,7.64-21.35,2.2-42.67,4.78-64,7.43-3.61.45-4.35-.64-4.94-3.95q-7.45-41.76-17.28-83C1265.13,535.33,1263.1,532.26,1263.59,528.6Z"/><path class="cls-18" d="M1192.62,482.53c4.1,13.54,6.59,27.47,9.88,41.2.38,1.62.71,3.25,1.06,4.87,1.47,4.11-.22,5.91-4.28,7-32.91,8.75-65.52,18.47-97.31,30.8a132.42,132.42,0,0,1-25.37,7.21c-7.36,1.27-8.71.19-10.08-7-6.63-32.1-14.41-63.93-23-95.55a5.56,5.56,0,0,1,0-1.47c1.62-1.69,3.83-1.92,5.93-2.3,22.43-4.09,44.62-9.15,66.23-16.49q18.9-6.4,37.62-13.27a48.36,48.36,0,0,1,18-3.28c3.3.09,5.78,0,4.35-4.42a2.93,2.93,0,0,1,.89-3.19,24.56,24.56,0,0,1,3.12,8.61c2.52,9.12,5,18.24,8,27.24l0-.08c.84,3.8-2.27,4-4.49,4.57-9.83,2.53-19.62,5.24-29.42,7.91C1124.15,483,1094.87,492,1065.59,501a11.37,11.37,0,0,0-2.34.88c-1,.6-2,1.31-1.52,2.74.43,1.14,1.55,1.2,2.53,1.11a40.68,40.68,0,0,0,8.82-1.62c35.1-11.11,70.65-20.59,106.15-30.28,1-.27,2-.46,2.93-.65,7.11-1.42,7.49-1.16,9.14,5.71C1191.6,480.12,1191.57,481.54,1192.62,482.53Z"/><path class="cls-19" d="M562.67,577.46c.17,6.33-5.46,7.8-9.23,10.56-7.52,5.5-16.72,6.37-25.52,7.3-13.56,1.45-26.62,5.13-39.94,7.6-18,3.35-35.9,7.49-54.28,8.8-11.35.81-22.67,2.35-34,3.85-3.53.47-4.5-2-6.12-3.92-6.28-23-10.74-46.3-12.16-70.14-.2-3.26,1.15-4.11,4.11-4.72,22.29-4.55,44.95-4.9,67.54-6.37,27.41-1.78,54.77-4.2,82.27-4.35,4.54,0,7.23,1,9.17,5.49C551.12,546.66,557.23,561.92,562.67,577.46Z"/><path class="cls-17" d="M1066.52,566.64c3.11,7,3.09,7,11.46,5.23,17.85-3.7,34.51-11,51.58-17,22.9-8.08,46.32-14.43,69.78-20.62,3.65-1,4.42-2.57,4.22-5.66,1.82,8.07,3.57,16.16,5.47,24.21,5.1,21.52,10.1,43.06,14,64.83.83,4.54.23,7.1-4.25,9.53-7.66,4.15-13.38,10.5-15.31,19.39-.61,2.82-2.37,3.22-4.65,3.45-17.07,1.7-34.18,2.41-51.33,2.79-18.64.42-37.25,1.25-55.77-2-4.84-.84-7.72-2.09-8.84-7.77-4.15-21.19-9.1-42.22-13.61-63.34C1068.39,575.35,1066,571.3,1066.52,566.64Z"/><path class="cls-18" d="M880.55,608.63c-.38-2-.75-3.89-1.13-5.84-.47-3.92-3.28-8.37-1.8-11.39,1.35-2.77,6.75-2.23,10.27-3.69,23.14-9.61,47.25-15.94,71.76-20.88,2.63-.53,5.3-.47,7.94-.79,1.49-.19,3.27-.51,3.25-2.41s-1.83-2.15-3.3-2.43a18.17,18.17,0,0,0-6.45.16c-24.92,4-48.84,11.62-72.46,20.29a30.18,30.18,0,0,0-8.29,4.54c-2.93,2.31-4.61,1.89-5.47-2-.34-1.53-.43-3.26-1.47-4.61-3.08-11-6.34-22-9.19-33-3.31-12.84-7.91-25.26-11.68-37.94,3.09-.18,3.19,2.46,3.79,4.32,1.1,3.41,3.07,4.12,6.49,3.42,27.5-5.62,53.93-14.72,80.37-23.95,11.92-4.15,23.57-9.34,36.13-11.52,2.06-.36,3.62-1.6,5.37-2.53,4,15,8.3,30,12.05,45.12,3.88,15.63,7.25,31.38,10.85,47.07,1.39,8.81,1.39,8.82-7.35,9.43a28,28,0,0,0-9.16,2.32c-6.87,3-14,5.44-20.75,8.6-15.07,7-31.12,10.79-47.25,14.15-11.9,2.49-23.72,5.29-35.56,8C883.48,614,881,613,880.55,608.63Z"/><path class="cls-17" d="M880.55,608.63c1.17,3.87,3.62,4,7.17,3.12,19.82-4.71,39.81-8.76,59.53-13.83,14.64-3.77,28.15-10.84,42.15-16.48,4.54-1.82,9.1-3.33,14-2.81,4.35.45,5.87-.78,4.15-5.1-.34-.84,0-1.95,0-2.94,2,9.39,3.9,18.79,5.93,28.16q6.09,28.05,12.27,56.06a27.59,27.59,0,0,1,1,5.38c0,3.92-.39,7.17-5.46,8.53a762.76,762.76,0,0,1-119.09,21.71c-3.45.36-5.18-.1-6.15-4.18-5.31-22.5-8.75-45.36-13.4-68C882.05,615,880,612.12,880.55,608.63Z"/><path class="cls-19" d="M795.67,525.43c1,4.2-.75,5.07-4.89,5.26-16.41.75-32.53,3.88-48.58,7.21-20.26,4.2-40.51,8.61-61,11.32-13.59,1.8-27.29,4-41.09,3.27-7.91-.42-15.78-.87-23.66.17-3.22-7.82-6.63-15.58-9.63-23.48-5.08-13.38-10.82-26.43-18.36-38.7,1.53-1.73,3.48-1.06,5.16-1.18,37.82-2.63,75.52.87,113.27,2.18,21,.73,41.75,3.12,62,9C782.23,504.31,791.58,512,795.67,525.43Z"/><path class="cls-19" d="M1176.51,426.67c-.45,2.62.91,4.84,1.58,7.21.34,1.23.49,2.62-1.38,2.24-12.69-2.59-23.83,2.91-35.08,7-28.22,10.33-56.76,19.38-86.45,24.41-3.91.66-7.81,1.37-11.71,2.06-4.51-14.13-6.89-28.8-11-43-1.15-4-1.93-8.13-3.46-12s0-4.92,3.37-5.62c19.38-4,38.69-8.33,58.11-12.09,20.74-4,41.52-7.83,62.46-10.76,5.07-.71,7.77,1,9.85,5.24A245,245,0,0,1,1176.51,426.67Z"/><path class="cls-19" d="M984.68,478.4c-.06,2.14-1.11,3-3.28,3.46-18.79,4.36-36.61,11.63-54.75,18a552.25,552.25,0,0,1-66,18.53c-2.23.48-3.49,0-4.63-2.36s-.48-5.83-3.49-7.37c-4.84-10.21-8.91-20.81-15.82-29.94a130.72,130.72,0,0,0-11-12.51c8.27-1.23,15.57-2.42,22.91-3.39,34.54-4.57,68.54-11.83,102.25-20.52,6.76-1.74,13.59-3.21,20.34-5,2.06-.54,3.52-.75,4.17,1.79C978.77,452.15,982.28,465.14,984.68,478.4Z"/><path class="cls-19" d="M1362.54,372.58c0,1.49,0,3-.08,4.47s-.6,2.55-2.43,2.24c-11.49-2-22.28,1.69-33.13,4.37-23.7,5.87-45.93,16.18-69.23,23.31a179.58,179.58,0,0,1-23.58,5.82c-5.88-15-10.48-30.45-17.77-44.86-1.55-3.06.77-3.18,2.69-3.77,15.58-4.77,31.46-8.43,47.24-12.49,23-5.91,45.63-13.37,68.93-18.34,14.92-3.17,15-3.52,19.43,11C1357.47,353.66,1360.87,362.88,1362.54,372.58Z"/><path class="cls-20" d="M832.6,668.56c-1.13-.77-1.76-2-3.78-1.23-15.41,5.95-31.8,7.81-47.84,11.07-15.56,3.15-31.26,5.6-46.87,8.47-16.75,3.07-33.48,6.26-50.21,9.45-2.55.49-4.46-.37-5.11-2.75-.77-2.78.87-4.44,3.53-5,10.06-2,20.11-4.07,30.19-6q27.79-5.26,55.6-10.4c16.11-3,32.25-5.77,48.18-9.64,1.77-.43,3.51-1,5.26-1.52,8.49-2.5,8.36-2.48,6.57-11.39-.81-4-2.13-8-1.49-12.28C829.68,647.58,830.75,658.14,832.6,668.56Z"/><path class="cls-21" d="M1192.62,482.53a3.25,3.25,0,0,1-1.87-2.78c-.1-5.8-2.66-6.84-8-5.31-16.07,4.58-32.33,8.53-48.4,13.11-21,6-41.95,12.37-62.93,18.52a51.65,51.65,0,0,1-6.8,1.3c-2,.32-4.21.66-4.91-2s.29-4.27,3.17-5.11c11.61-3.4,23.11-7.16,34.73-10.53q34.8-10.12,69.69-20c5.41-1.54,10.88-2.85,16.35-4.2,1.86-.45,3.56-1,4-3.15A89.28,89.28,0,0,1,1192.62,482.53Z"/><path class="cls-21" d="M873.4,579.61c2.3,1.87,1.4,5.4,3.75,7.32,8.92-7.61,20.21-9.85,30.79-13.48a360.58,360.58,0,0,1,45.53-12.26c5.12-1,10.36-2.52,15.7-1.21,2,.48,4.15,1.18,4,3.71s-2.18,3.72-4.52,3.82c-16.9.72-32.8,6.16-48.88,10.57-12,3.29-23.82,7.11-35.08,12.47a8.82,8.82,0,0,1-6.46.61c-.37,4,2,7.68,1.24,11.63C876.91,595.19,874.56,587.56,873.4,579.61Z"/><path class="cls-21" d="M1187.64,462.52a94.59,94.59,0,0,1-8-27.24C1182.92,444.18,1186.17,453.09,1187.64,462.52Z"/><path class="cls-22" d="M1503.47,282.1c.28-2.19-.55-4.3-1.43-6.5-1.18-3-1.36-6.16,2.18-7.65,3.24-1.36,5.65.1,7.31,3.2,6.9,12.85.46,27.45-13.19,29.49a8.6,8.6,0,0,0-7.15,5.26c-2.67,5.61-6.21,10.67-12.87,12.24a13.93,13.93,0,0,1-13.34-3.53,4.47,4.47,0,0,1-.92-5.89c1.25-2.2,3.39-2.47,5.68-1.88,8.3,2.15,8.36,2.19,12.15-5.14,2.88-5.56,6.59-9.62,13.32-10.66C1499.74,290.35,1503.94,288.26,1503.47,282.1Z"/><path class="cls-22" d="M1519.4,370.61c-3.68-1-6.78,1-9.72,4.15a17.13,17.13,0,0,1-14.74,5.84,7.83,7.83,0,0,1-6-3.18c-1.19-1.66-2.06-3.47-.62-5.51,1.29-1.82,3.16-2.88,5.16-2.06,4.85,2,8-.46,10.88-3.71,3.1-3.44,6.41-6.53,11.54-5.53,8.1,1.59,12.28-3.16,15.67-9.37a49.65,49.65,0,0,1,3.3-5.54,4.65,4.65,0,0,1,6.19-1.62c2.31,1.1,2.6,3.3,2.33,5.57C1542.16,360.31,1530.7,370.62,1519.4,370.61Z"/><path class="cls-22" d="M1528.22,323.71c-2-.12-4.25.34-5.92-.46-4.52-2.18-6.5-.68-8.69,3.58a35.44,35.44,0,0,1-15,14.86c-2.75,1.5-6.21,2.28-8.24-1.39s.33-5.94,3.48-7.37c7.19-3.29,10.6-9.83,14-16.3,4-7.61,5.14-8,13.07-4.44,4,1.82,8.34,2.28,12.56.38,3.06-1.38,6.18-1.83,7.57,1.82,1.27,3.34-.41,6-3.63,7.78C1534.48,323.83,1531.37,323.59,1528.22,323.71Z"/><path class="cls-11" d="M1547.57,514.55a41,41,0,0,1,.07-6.47c.36-2.23,1.83-4.38,4.26-3.93,2.1.39,3.23,2.26,3.32,4.87.64,18.68,1.9,37.28,8,55.2.89,2.63,3.36,6.26-.46,7.89-4.11,1.76-5.69-2.31-7-5.3-4-9.07-4.73-18.91-6.11-28.55-1.12-7.85-1.62-15.79-2.4-23.69Z"/><path class="cls-13" d="M1589.77,496.62c2.34.19,3.6,2.17,4.72,4.23,6.83,12.56,13.61,25.13,20.45,37.68,1.22,2.24,2,4.4-.67,6.06s-4.52.11-5.77-2c-3.89-6.57-7.72-13.18-11.38-19.88-3.43-6.27-6.66-12.64-9.91-19C1585.34,500,1586.42,496.73,1589.77,496.62Z"/><path class="cls-23" d="M1530.41,528.38c-2.41,5.15-2.08,11.32-2.1,17.45s1.49,11.75,5.35,16.68c1.68,2.16,3,4.73.23,7s-4.49-.49-6.13-2.12c-3.53-3.51-5.36-8.06-6.32-12.77-1.84-9-1.9-18.12,1.2-27,.83-2.37,2.5-4.5,5.58-3.89C1530.28,524.19,1530.51,525.91,1530.41,528.38Z"/><path class="cls-13" d="M1584.5,541.92c1.59.18,2.67,1.53,3.49,2.92,3.78,6.42,9,11.39,14.94,15.76a9.12,9.12,0,0,1,1.79,1.72c1.58,2,4.16,4,1.56,6.83s-4.78.49-6.83-1.18c-6.8-5.56-13.73-11-17.84-19.09C1579.91,545.53,1581.31,542,1584.5,541.92Z"/><path class="cls-15" d="M1554.47,594.55q1.48,2.51,3,5C1554.14,599.28,1554.41,596.85,1554.47,594.55Z"/><path class="cls-20" d="M707.35,728.51c-3,.07-6.37-.31-6.3-3.91.05-2.84,2.86-4,5.9-4.06,13-.17,25.56-3.42,38.27-5.48,10.28-1.66,20.39-4.29,30.61-6.37a39.72,39.72,0,0,0,9.76-3.65c2.52-1.25,5.55-3.13,7.46.19,2.09,3.62-1.27,5.33-3.79,6.87-7,4.22-14.87,5.58-22.63,7.22-18.93,4-38.17,6.21-57.28,9.18A13.34,13.34,0,0,1,707.35,728.51Z"/><path class="cls-21" d="M790.24,567.34c-12.33-2.57-23.44,3.33-35,5.65-24.3,4.91-48.38,10.92-72.58,16.34-5.8,1.3-11.7,2.12-17.56,3.11a27,27,0,0,1-3,.13c-2.54.14-5.15-.45-5.29-3.24s2.08-4.57,4.84-4.69c13.5-.57,26.37-4.51,39.39-7.47,29.67-6.75,59.26-13.84,88.84-20.95,3.09-.75,5.49-.81,7.55,1.82,1.17,1.48,1.61,3.15.33,4.54C795.72,564.82,794.11,567.94,790.24,567.34Z"/><path class="cls-21" d="M712,615.52c-2-.68-4.19-1.08-4.4-3.57s1.51-3.81,3.81-4.5c10.81-3.24,21.57-6.64,32.41-9.76,16.9-4.85,33.86-9.46,50.75-14.34,2.7-.78,5.11-1.25,6.41,1.61s-1.37,4.25-3.21,5.39c-6.78,4.21-14.78,4.87-22.25,6.92-20.31,5.59-40.68,10.93-60.75,17.35Z"/><path class="cls-21" d="M1277.48,497.44a4,4,0,0,1-4.35-1.91c-1-1.6.18-2.92,1.07-4,2.46-3,6.31-3.56,9.65-4.84A265.35,265.35,0,0,1,1321,476c3.49-.76,7.28-.51,10.9-.24,2.45.17,3.6,2.1,3.51,4.62-.1,2.68-1.82,3.16-4.07,3.21-17.16.43-33,6.14-48.88,12C1280.64,496.25,1278.78,497,1277.48,497.44Z"/><path class="cls-21" d="M1276.94,454.53c-2.38.1-4.07-.22-4.33-2.35a4.6,4.6,0,0,1,3.53-5.32c5.72-1.68,11.43-3.47,17.26-4.66,7.28-1.48,14.64-2.71,22.12-2.6a13.82,13.82,0,0,1,3.9.55c1.86.59,3.31,1.71,2.93,4s-2,2.23-3.74,2.49c-8.16,1.19-16.44,1.3-24.5,3.49C1288.24,451.72,1282.06,452.17,1276.94,454.53Z"/><path class="cls-21" d="M429,662.51a3.89,3.89,0,0,1-4.26-3.3,3.57,3.57,0,0,1,3-4.45c14.25-2.54,28-6.77,41.76-11.21,14-4.55,28-9.36,42-13.95,12.31-4,24.64-8,37-11.79a12.18,12.18,0,0,1,5.94,0c2.14.48,3.17,2.23,3,4.55-.1,2-1.08,2.91-3.07,3.21-11.74,1.73-22.59,6.52-33.82,10C490.56,644.92,461,656.05,430,662.27Z"/><path class="cls-21" d="M541.45,655.6c2.49-.06,4.09,0,4.78,1.65.93,2.29-.41,3.91-2.06,5.12-5,3.69-11,5.54-16.84,7.15-22.18,6.06-44.32,12.25-66.29,19a21.3,21.3,0,0,1-3.34.93c-1.53.21-3.11.08-3.82-1.6a3.61,3.61,0,0,1,.94-4.1,9.57,9.57,0,0,1,4.18-2.53c19.44-6.57,39.24-11.92,58.94-17.6,7-2,14-4,20.66-7.1A21,21,0,0,1,541.45,655.6Z"/><path class="cls-20" d="M478.13,758.54c-3.22.06-5.2-.06-5.55-2.8s1.06-3.8,3.48-4.52c18.43-5.49,36.82-11.1,55.24-16.63,19.34-5.82,38.71-11.55,58-17.46,2.7-.82,4.73-.49,5.83,2,1.19,2.74-.6,4.41-2.88,5.49a112.73,112.73,0,0,1-19.76,6.7c-24.54,6.4-48.73,13.95-73,21.27C492.1,754.85,484.78,757.59,478.13,758.54Z"/><path class="cls-20" d="M529.49,772.54c-2.16,0-2.83,0-3.5,0-2.8.1-5.23-.72-5.3-3.89s2.75-3.89,5.28-4c4.46-.24,8.9-.43,13.38-.94,16.3-1.86,32.52-4,48.12-9.33,3.06-1,5-.23,6.27,2.13,1.48,2.78-1.31,3.91-3,4.84-5.72,3.2-12.2,4.17-18.53,5.43C557.63,769.68,542.8,771,529.49,772.54Z"/><path class="cls-20" d="M1319.43,589.52c-3.2.2-5.31-.59-5.69-3.11s1.62-3.41,3.68-4c9.75-2.61,19.71-4.14,29.64-5.88q24.17-4.22,48.32-8.45a26.17,26.17,0,0,1,4.41-.45c1.79,0,2.45,1.46,3.11,2.84.77,1.6-.36,2.48-1.29,3.4-2.68,2.64-6.35,3-9.67,3.47-23.83,3.65-47.67,7.2-71.31,12A7,7,0,0,1,1319.43,589.52Z"/><path class="cls-20" d="M1376.4,535.3a6.13,6.13,0,0,1-6.21,4.16c-6.18-.29-12.21,1.17-18.34,1.09a18.08,18.08,0,0,0-6.78,1.33c-2.35.89-4.49.76-5.38-1.72s.44-4.4,2.93-5.52c4.39-2,9.16-.86,13.73-1.84,4.79-1,9.8-1.81,14.8-1.18C1373.49,531.92,1375.78,532.39,1376.4,535.3Z"/><path class="cls-24" d="M1289.11,570.44c-3.73.29-5.9-.42-6.34-2.91-.48-2.73,1.45-4.34,4-4.8,5.66-1.05,11.41-1.64,16.86-3.68a3.71,3.71,0,0,1,5,2c1,2-.47,3.44-1.81,4.65-1.67,1.51-3.83,1.68-6,2.08C1296.43,568.56,1292.13,569.73,1289.11,570.44Z"/><path class="cls-25" d="M1173.48,511.32c-.25,2.63-1.72,3.78-4.14,4.31-15.35,3.34-30.6,7-45.57,11.87-4.73,1.53-9.59,2.68-14,5-2.46,1.28-4.93,1.85-6.54-.92-1.84-3.17,1.08-4.71,3.06-5.75,6.77-3.53,14.12-5.69,21.44-7.75,12.73-3.57,25.54-6.86,38.35-10.15C1169.32,507.07,1172.42,507.2,1173.48,511.32Z"/><path class="cls-20" d="M1207.34,612.23a4.09,4.09,0,0,1-4.14,3.32c-31.91,2.19-62.42,11.59-93.47,18.17a27.94,27.94,0,0,0-5.61,2c-2.45,1.11-4.6,1.29-5.78-1.61s.12-4.82,3-5.64c8-2.29,15.9-4.77,24-6.66,16-3.75,32-7.24,48-10.67,7.92-1.69,15.9-3.13,23.88-4.5C1201.56,605.93,1207.29,609.11,1207.34,612.23Z"/><path class="cls-20" d="M1091.45,603.54a3.85,3.85,0,0,1-3.82-3.35c-.55-2.87,1.66-3.91,3.77-4.39q12.07-2.76,24.25-5.16a62.49,62.49,0,0,0,13.78-4.1c2.59-1.17,5.22-1.65,6.38,1.28,1.09,2.76-1.22,4.64-3.51,5.77a70.89,70.89,0,0,1-18.45,5.7C1106.54,600.69,1099.24,602.07,1091.45,603.54Z"/><path class="cls-21" d="M887.9,552.58c-2.84,0-4.89.06-5.23-2.39-.4-2.9,1.5-4.16,4-4.79,10.27-2.61,20.52-5.32,30.83-7.8,12.39-3,24.84-5.71,37.24-8.65,2.72-.64,5.38-.63,6.32,2.22,1,3-1.66,4.71-4,5.3-11.07,2.79-22.14,5.63-33.34,7.79s-21.84,5.5-32.89,7.69C889.55,552.2,888.27,552.5,887.9,552.58Z"/><path class="cls-20" d="M982.29,661.58a215.07,215.07,0,0,0-58.75,11.06c-2.66.88-5.24,1.59-6.36-1.34-1-2.71,1.13-4.59,3.58-5.66a102.05,102.05,0,0,1,17.52-5.5c15.31-3.61,30.63-7.08,46.52-6.64a19.17,19.17,0,0,1,6.8,1.26c1.81.74,3.08,2.09,2.8,4.23-.32,2.43-2.19,2.6-4.12,2.59Z"/><path class="cls-20" d="M940.44,636.56c-2.25.14-4.16-.72-4.64-2.9-.58-2.71,1.72-4,3.74-4.48,5.76-1.41,11.63-2.37,17.43-3.63,10.8-2.34,21.84-3.65,32.33-7.37a11,11,0,0,1,2.4-.57c2.3-.26,4.74.09,5.32,2.54s-1.24,4-3.43,4.84a118.32,118.32,0,0,1-18.15,5c-11.11,2.43-22.48,3.57-33.51,6.44A6.71,6.71,0,0,1,940.44,636.56Z"/></g></g></svg>