<svg xmlns="http://www.w3.org/2000/svg" viewBox="0 0 1717.93 1489.21"><defs><style>.cls-1{fill:#fefefe;}.cls-2{fill:#843704;}.cls-3{fill:#5f2805;}.cls-4{fill:#bf5006;}.cls-5{fill:#3b1903;}.cls-6{fill:#07871f;}.cls-7{fill:#066a19;}.cls-8{fill:#17b034;}.cls-9{fill:#0f611e;}</style></defs><g id="레이어_2" data-name="레이어 2"><g id="레이어_1-2" data-name="레이어 1"><path d="M742.43,1489.21c-95.6-.09-189.11-13.68-280.06-43.6-72.41-23.83-140.18-57-202.08-101.71-105-75.75-181.8-173.13-225.62-295.5C6.09,968.58-4.23,886.11,1.54,801.66c5.9-86.23,28.2-168.29,64.2-246.71,46.88-102.13,112.68-190.62,193.7-268.07,54.76-52.36,114.94-97.59,179.94-136.52A1066.69,1066.69,0,0,1,827.66,11.08a987.35,987.35,0,0,1,210.8-9,868.23,868.23,0,0,1,146,21.68C1235.65,36,1285.57,52,1333.56,73.85c81.2,37,153.9,86.11,215.7,150.73,75,78.45,126.12,170.18,151.75,275.83,14.43,59.52,19.38,119.91,15.81,181-5.15,88.1-27.38,171.94-64.15,252-62.18,135.3-155.47,245.57-272.56,336.36-89.54,69.43-188.15,122.31-295,159.92a1056.78,1056.78,0,0,1-187,47.23A992.94,992.94,0,0,1,742.43,1489.21Z"/><path class="cls-1" d="M742.36,1441.59c-77.53.11-153.84-9.4-228.58-30.09-96.64-26.74-185-69.88-262.21-134.55C163,1202.69,100.89,1110.76,68.92,999.21A555.75,555.75,0,0,1,48.58,812.39c5-84.59,26.51-165,62.28-241.67,53-113.49,129.9-208.41,225.36-288.73,98.09-82.53,208.57-143,330-183.56A976.45,976.45,0,0,1,828.47,59.06c81.41-12.45,163.14-15.14,245.11-6.16a846.85,846.85,0,0,1,97.93,16.58c92.91,21.42,179.14,58.08,257,113.47,66.13,47,121,104.73,163,174.34a542.53,542.53,0,0,1,69.58,184.22,577.56,577.56,0,0,1,4.69,175.66c-8.75,70.71-28.92,138.2-59.21,202.62-55.45,117.93-136.41,215.68-237,297.59-93.65,76.22-198.18,132.86-312.44,171.64a988.18,988.18,0,0,1-188.21,44.09A958.1,958.1,0,0,1,742.36,1441.59Z"/><path d="M1618.32,567.9c.7,21.91-5,44-10.55,66.13-7.13,28.77-17.61,56.46-25.86,84.85-5,17.07-5.46,34.81-6.77,52.38-2,27.26-4.49,54.36-13.39,80.5-13.86,40.66-35.83,76.58-62.27,110.21-31.75,40.37-70.63,72.86-111.49,103.26-25.9,19.28-51.6,38.92-79.15,55.86-49.24,30.27-99.92,57.76-154.71,76.92-20.4,7.13-41.91,8.92-63,12.78-35.63,6.52-71,2.84-106.43-1.44-23.78-2.88-47.58-5.69-70.59-12.66-26.11-7.9-52.18-16.17-76.26-29.19C808,1151.34,785,1128.42,772.71,1096a88,88,0,0,1-6-30.19c0-4.39-1.84-5.84-5.72-7-35.71-10.22-68.45-26.72-98.43-48.43-34-24.59-57.63-57.81-76.44-94.73-12.52-24.57-19.29-51.27-27.8-77.31-16.85-51.5-32.24-103.44-48-155.26a457.25,457.25,0,0,1-18.75-164.36c5-76.47,33.82-143.58,83.26-202.31,63.56-75.5,141.41-131.22,231.34-170.82,25.09-11.05,50-22.44,76.08-31.19,25.74-8.65,52.21-13.14,79.12-15.66,10.45-1,21.09-.52,31.37-1.87,33.46-4.39,66.82-.87,100.21-.22,24.65.49,48.29,7.16,71.75,14,43.75,12.71,87,27.12,128.89,44.95,40.32,17.14,76.32,41.29,108.94,70.47a52.44,52.44,0,0,0,11.86,8.13A257.88,257.88,0,0,1,1467,268.53a588.29,588.29,0,0,1,68.88,68.82c30.5,36,47.85,78.7,61.21,123.31,3.38,11.3,7.41,22.4,10.88,33.68C1615.28,518.22,1618,537.74,1618.32,567.9Z"/><path d="M429,1275c-41.26,1-72.14-16.78-93.43-51.73-8.05-13.21-15.76-26.63-22.11-40.76-1.42-3.16-3.5-1.93-5.36-1.73a149.22,149.22,0,0,1-63.63-6.24c-53.59-17.56-82.07-75.67-62.33-127,3.34-8.68,8.16-16.48,15.21-22.57,3-2.56,2.58-4.13.51-6.81a108.57,108.57,0,0,1-16.7-31.65c-.92-2.67-2.5-3.87-5-4.93-23.61-10.12-45.64-22.78-62.79-42.37-15.53-17.73-25.71-38.32-27.45-61.94-2.1-28.67,7.4-53.06,30.84-70.92,2.54-1.93,1.74-3,.61-5.08-13.46-25.11-19.92-51.71-16.16-80.26,1.09-8.24,3.6-16.2,6.49-24,9.69-26.13,30.69-37.2,56.15-42.26,10.68-2.13,21.25-1,31.59,2.06,3.06.89,4.09.54,5-2.81,11.35-40.3,39.39-62.42,79.55-67.79,30.15-4,53.3,10.78,70.09,35.39,2.8,4.11,4.21,5,8.67,2.15,11.35-7.19,23.57-12.49,37.39-12.44,20.43.08,33.9,11.32,43.47,28.08,10.4,18.19,13.81,38,12,58.74-.55,6.3-1.43,12.57-2.23,18.84-.23,1.81-.31,3.13,2.1,3.58,21.78,4.15,32.93,19.44,39.56,38.84,8.78,25.66,9.37,52.06,4.36,78.44-2.08,11-1.71,20,4.27,30.24,10.59,18.15,12.74,39,13.43,59.81a239.37,239.37,0,0,1-.77,31.46c-.42,4.12.71,6.43,4.47,8.71,16.8,10.18,28.84,24.14,31.94,44.23,2.15,13.89-.49,27.41-6.22,39.93-3.88,8.5-3.81,14,2.62,22,20.12,25,19.94,53.22,9.26,82.17a106.86,106.86,0,0,1-24.84,38.83c-2.4,2.42-3.37,4.46-2.74,8.17,2,11.9-1.12,22.82-8.27,32.47-12.39,16.71-29.47,26.51-48.86,32.92A128.63,128.63,0,0,1,429,1275Z"/><path class="cls-2" d="M1540.16,441.58c4.44,9.52,7.24,19.61,10.11,29.66,5,17.43,12,34.2,16.06,51.93,2.19,9.6,2.67,19.39,3.69,29.13,2.91,27.76-4.21,54-11.32,80.42-5.71,21.23-13,41.92-19.8,62.77-5.77,17.67-8.23,35.87-10,54.29-2.32,24.28-2.12,48.92-8.38,72.7-8.92,33.88-24.67,64.52-45.47,92.65-15.67,21.18-32.26,41.59-51.67,59.47-24.75,22.8-51.22,43.5-78.5,63.19-24.3,17.52-48.24,35.53-74.12,50.75-40.37,23.75-81.62,45.69-125.6,62.16-15.54,5.82-31.78,8.34-48,10.84-13.62,2.1-27.26,4.16-41,5-20.55,1.32-40.82-2.08-61.14-4.26-17.48-1.87-35.05-3.5-52.21-7.65-30-7.26-59.47-16.41-86.38-31.65-19.7-11.16-35.1-27-40.72-50.15-3.48-14.31-.16-28.08,3.74-41.71,6.25-21.8,17.2-41.43,28.59-60.84,17.6-30,37.07-58.87,55.17-88.57,19-31.25,34.51-64.2,47.39-98.37,13.61-36.11,26.75-72.4,38.84-109.06,10.48-31.81,17.64-64.38,22.71-97.44,9.9-64.62,34.12-123.15,74.45-174.76,16.17-20.7,35.37-38.49,55.33-55.42A498.14,498.14,0,0,1,1253,275.45c18.07-8.47,36.63-15.88,55.17-23.29,2.76-1.1,4.79-.69,7.36.72,9.48,5.22,20.31,6.09,30.56,8.82,14.45,3.85,29.09,6.95,42.81,13.26,19.22,8.84,36.44,20.55,52.38,34.39A551.43,551.43,0,0,1,1501.7,371c11.86,14.1,21,29.89,28.34,46.78-.14,12.14-3.73,23.62-7.2,35a967.61,967.61,0,0,1-42.09,112.79c-15.22,34.13-33.32,66.79-55.47,97-6.15,8.41-10.14,18-14.88,27.13-6.43,12.43-12.08,25.25-18.25,37.8-5.37,10.93-11.44,21.48-17.32,32.11a183.16,183.16,0,0,0-19.42,54.87c-3.4,17.87-5.22,35.92-6.94,54-1.94,20.43-10.47,37.71-24.36,52.48-21,22.29-45.34,40.06-72.35,54.44-26.17,13.93-51.79,28.9-78.56,41.7-19.69,9.41-39.29,19.13-60.46,24.86-25.57,6.92-51.28,13.32-77.59,16.84-6.65.89-13.3-.1-19.91-.92-1-.12-2.08-.59-3-.33-12,3.56-24-1.42-36.19,0-11.11,1.31-22.56-.81-33.8-2-11.42-1.24-22.86-2-34.33-2.53-17-.71-33.75-3.57-50.51-6.36a173.08,173.08,0,0,0-22.81-2.58c-4.93-.17-5.71.91-4.36,5.61a18.54,18.54,0,0,0,14.43,13.74c6.83,1.6,14,1.27,20.77,2.85,31.45,7.33,63.5,12,94.15,22.84,15.2,5.36,30.6,10.31,46.61,13.14,19.24,3.4,38.17,1.74,57-2.33,26.37-5.69,52.88-10.9,78.4-20a349.43,349.43,0,0,0,36-15c38.62-18.89,76.82-38.6,113.86-60.46a299.29,299.29,0,0,0,62.63-49.36c23.46-24.13,37.2-52.84,39.72-86.74a438.38,438.38,0,0,1,6.33-48.52c3.65-19.51,12.7-36.76,22.41-53.71A464.74,464.74,0,0,0,1444,723.27c4.93-11.12,10.93-21.74,16.12-32.73,14-29.52,27.18-59.37,41-88.93,7.42-15.83,15.85-31.2,22.26-47.5a362,362,0,0,0,12.37-35.37,68.1,68.1,0,0,0,2.75-16.73c.27-14.81,1.79-29.59,1.19-44.43-.11-2.68-.7-5.29-.83-7.94S1537.87,444,1540.16,441.58Z"/><path class="cls-3" d="M886.14,812.75c-6.85,16.13-15.82,31.15-24.89,46-19.53,32.11-40.57,63.29-59.38,95.85-9.91,17.14-19,34.74-25.2,53.66-1,3.1-2.13,5.06-6.4,3.69a281.29,281.29,0,0,1-86.22-45.14c-17.34-13.37-29.84-31.12-41.95-49.09-14.89-22.08-23.73-46.78-31.42-72-8-26.24-16.87-52.21-25-78.4-12.9-41.56-25.75-83.15-36.81-125.25-4.35-16.55-6.45-33.49-7.93-50.56-1.16-13.4-1.92-26.83-2.62-40.24-1.38-26.25,3-52,8.32-77.54,9.19-44.46,30.38-83.06,58.24-118.41,10.3-13.08,21.43-25.42,32.75-37.59,23.69-25.44,51-46.66,78.83-67.25,33.79-25,71-43.84,109-61.16,22.26-10.12,44.5-20.26,67.65-28.22,19.83-6.82,40.21-11.53,60.78-15.27,11.89-2.17,23.68-5.27,35.9-5.23a21.58,21.58,0,0,1,8.26,1.44,21,21,0,0,0,13.2,1.14,24.65,24.65,0,0,1,5.44-.49c23.32-.44,46.61.45,69.9,1.19,19.69.62,38.72,5.44,57.69,10.43,32.85,8.64,64.51,20.86,96.63,31.73a438.16,438.16,0,0,1,48,19.6c1.59.75,3.1,1.65,5.57,3-8,2.69-15.07,5-22.09,7.4-34.05,11.61-65.7,28.13-96.23,47S1117.66,304,1091.06,328c-34.51,31.18-61.39,67.87-83.21,108.78s-35,84.74-42.41,130.24a676.75,676.75,0,0,1-31.88,123.24c-12.62,34.67-24.5,69.62-38.7,103.7-1.22,2.92-2.58,5.77-3.88,8.65a2.57,2.57,0,0,1-1.94.13c-16.93-7.28-35.2-8.52-53-11.78-12.62-2.31-25.37-3.8-38-5.73-6.19-.94-7.15-2.61-4.42-8.3,9.65-20.12,19-40.38,28.3-60.68,8.24-18,16.5-36,24.62-54.13,4.74-10.56,4.67-10.84,16.14-9.69,21.2,2.12,42.37,4.6,63.51,7.28a37.6,37.6,0,0,1,7.29,1.69c3.13,1.06,5.86.61,6.68-3s-1.86-4.65-4.63-5.27a192.43,192.43,0,0,0-20.27-2.91c-17.53-2-35.07-4-52.59-6.12-5.55-.69-6.38-2.09-4.08-7.15,7.8-17.13,16-34.07,24.07-51.08,11.63-24.54,22.95-49.21,34.65-73.72,2.76-5.78,6.25-8.34,12.71-7.9,5.47.37,10.9,1.59,16.43,1.13,2.65-.23,6,.1,6.15-3.51s-3.23-4.31-6.06-4.59c-5-.5-10,0-14.93-1.05-5.22-1.07-5.71-1.67-3.38-6.53,8.87-18.48,18.63-36.51,28-54.73,7.39-14.37,15.16-28.55,22.67-42.85,3.94-7.52,8.27-14.85,11.84-22.57,1.66-3.6,4.27-5.32,8.26-5.17q4,.15,8-.06c1.92-.1,3.73-.52,4.28-2.7s-.56-3.84-2.3-5.1a6.09,6.09,0,0,0-3.23-1.24c-6.16-.32-5.48-3.08-3.16-7.32,10.37-19,21.33-37.71,32.68-56.16,18.17-29.5,35.47-59.56,55.18-88.1.85-1.24,1.75-2.49,1.66-4.09-.13-2.47-2.39-3.57-4.74-2.2s-3.58,3.43-5,5.48c-17.32,24.51-32.87,50.16-48.61,75.69-14.53,23.54-28.52,47.39-41.71,71.7-2.28,4.22-5.18,5.85-9.91,5.89-33.49.26-66.94-1.66-100.43-1.18-11,.16-12-2-6.55-11.32,18.15-31.26,34.55-63.51,52.86-94.69,6.75-11.49,14.22-22.55,20.83-34.13.33-.57.71-1.13,1-1.72,1.13-2.27,2.66-4.84-.2-6.64-3-1.9-4.62.89-5.85,2.92-15,24.63-31.1,48.53-44.58,74.07-11.81,22.39-24.28,44.44-37,66.32-2.25,3.86-5.48,4.32-9.31,4.31q-35.25,0-70.49,0c-12.17,0-24.33.06-36.5,0-6.41-.05-7.41-1.54-4.22-7,12.93-22.34,24.47-45.5,39.5-66.59,1.3-1.84,3.46-4.06,1-6.12-2.68-2.29-5.07-.23-6.78,1.92-7.28,9.15-13.07,19.31-19.08,29.29q-12.64,21-24.52,42.4c-2.49,4.47-5.75,6.29-10.88,6.24-20.49-.19-41-.08-61.48-.07a21.57,21.57,0,0,0-6.46.52c-1.73.54-3,1.55-2.88,3.55.11,1.78,1.44,2.52,3,2.9a16,16,0,0,0,4.48.31c19.33-.7,38.61,1.16,57.93,1.05,6.48,0,7.1,1.24,3.73,7Q689,421,659.59,473c-2.2,3.88-4.9,5.7-9.32,4.69a40.71,40.71,0,0,0-11-.53c-13,.58-25.94-1.13-38.93-1-2.51,0-5,0-7.36,1.11a2.94,2.94,0,0,0-2,3.1,3.13,3.13,0,0,0,2.54,2.74,7.39,7.39,0,0,0,2.47.31c12-.6,23.93,1.56,35.93,1,5-.23,9.94.95,14.93,1.16,3.24.14,4,1.79,2.52,4.66-1.37,2.68-3.22,5.06-4.59,7.73-1.09,2.14-2.06,4.65.34,6.33,2.59,1.82,4.79.08,6.43-2a54,54,0,0,0,6.3-10.18c2.11-4.33,5.4-6.14,10.07-5.7,11.27,1,22.58,1.48,33.85,2.36,11.44.89,22.88,1.92,34.33,2.62,13.62.83,27.19,2.25,40.8,3.15,4.05.27,4.87,2.09,2.5,6.31-5.16,9.16-9.39,18.76-14,28.17q-18.45,37.46-37.33,74.68c-3.45,6.84-7.36,13.45-10.63,20.38-1.83,3.9-4.62,4.89-8.89,4.54-16.08-1.34-32.17-2.54-48.26-3.73-10.3-.77-20.64-.1-30.9-1.62-6-.9-11.92.94-17.91,1.1-1.71,0-3.36,1-3.33,3,0,2.23,1.65,3.22,3.65,3.33,2.49.13,5-.45,7.48-.37,19.45.65,38.87,1.74,58.26,3.65,8.77.86,17.56,1.51,26.34,2.32,6,.56,6.61,1.35,4.08,6.61-7.22,15-15.12,29.69-22.92,44.41-4.52,8.54-9.29,16.95-13.55,25.63a18.12,18.12,0,0,0-1.19,2.75c-.67,2.2-.94,4.47,1.52,5.66s4.27-.26,5.4-2.27c2.83-5.1,5.58-10.24,8.36-15.37,10.78-19.92,21-40.13,31.54-60.2,2-3.75,4.52-5.49,8.69-5.19,12.12.86,24.18,2.34,36.27,3.47q27.34,2.58,54.63,5.55c6.62.71,13.25,1.31,19.87,2.05,5,.56,5.87,2.14,3.58,7.09-6.79,14.66-13.39,29.41-20.09,44.11q-17.52,38.43-35.66,76.56c-2.73,5.72-3.27,5.87-9.65,5.2-14.89-1.57-29.73-3.89-44.78-3.34a20,20,0,0,0-5.46.47c-1.69.55-3.13,1.51-2.92,3.52.24,2.25,2,3.18,4,2.86,4.68-.75,9.26-.07,13.92.29,10.13.78,20.21,1.92,30.27,3.27,7.43,1,8.09,2.18,5.08,8.84-10.38,22.93-20,46.18-30,69.27a28.7,28.7,0,0,0-1.88,5.16c-.46,2.08-.4,4.16,1.77,5.21,2.55,1.23,4-.58,5.3-2.43a16.4,16.4,0,0,0,1.35-2.68c10.29-23.32,20-46.91,30.41-70.16,4.92-10.92,4.93-11,16.82-9.3,24.07,3.47,48.13,7,72,11.92a110,110,0,0,1,12.54,3.4C884.93,809.3,887.15,809.9,886.14,812.75Z"/><path class="cls-4" d="M1540.16,441.58a259.12,259.12,0,0,1,.66,37.37c-.74,11.23.14,22.6-2.28,33.72a227.7,227.7,0,0,1-16.16,47c-12.94,27.92-26.74,55.49-39.19,83.6-16.18,36.53-34.31,72.1-51.22,108.25-5.27,11.28-11.86,21.94-17.8,32.9-8.51,15.7-12.45,32.75-15.2,50.24-3,18.8-3.27,37.9-7.48,56.58-4.3,19.07-13,35.79-24.69,51.13-15.42,20.17-35.12,35.67-55.31,50.6-16.51,12.21-34.8,21.39-52.64,31.37-19.76,11.07-40.07,21.05-60.08,31.61-34.63,18.29-70.84,31.93-109.25,39.65-14.61,2.94-29.12,6.54-43.84,8.76-19.8,3-39.33.36-58.5-5.15-20.75-6-40.89-14-61.94-18.89s-42.07-9.23-63.2-13.35c-6.13-1.19-12.56-1-18.69-2.45-8.14-2-14.46-9.59-15.23-17.83-.29-3,.73-4.16,3.87-4.1,10.48.21,20.78,1.87,31.07,3.58,16.52,2.74,33,5,49.83,5.65,13.72.49,27.39,2.37,41.08,3.39,8.84.66,17.74,2.55,26.78.69,5-1,10.31-.37,15.32,1,3.5,1,6.95,1.25,10.26-.17,4.15-1.77,8.33-.58,12.23.12,12.62,2.29,24.91,0,37-2.68,21.19-4.72,42.59-8.63,63.26-15.47a295.1,295.1,0,0,0,31.58-12.21,1278.84,1278.84,0,0,0,122.47-65c22.68-13.66,43-30.76,59.07-52.19,9.13-12.15,13.58-26,15.18-41,2.91-27.33,5.14-54.78,14-81.11,4.35-13,10.62-25.13,17.37-37,8.74-15.34,16.63-31.1,23.94-47.16,9.52-20.92,21.36-40.42,34.21-59.49,19.94-29.58,36.23-61.25,49.74-94.28,11.19-27.38,21.81-55,31-83.1,5.06-15.45,9.74-31,11.86-47.22,0-.43.56-.79.85-1.18A159.7,159.7,0,0,1,1540.16,441.58Z"/><path class="cls-5" d="M886.14,812.75c-.23-2.11-1.89-2.53-3.52-3-19-5.18-38.5-8.16-58-11.09-10.13-1.53-20.25-3.15-30.37-4.78-4.1-.66-7.13-.25-9.09,4.38-9.18,21.72-18.69,43.32-28.09,65-1.86,4.27-3.66,8.57-5.68,12.75-1.36,2.79-3.26,5.34-6.94,3.82-4-1.65-4.13-4.93-2.69-8.35q8.7-20.67,17.59-41.26c5.09-11.74,10.32-23.42,15.57-35.08,1-2.14,1.1-3.25-1.73-3.6-6.39-.8-12.74-2-19.13-2.76-6.57-.8-13.16-1.41-19.75-1.94a19.7,19.7,0,0,0-7.91.59c-3.55,1.16-6.11-.65-6.76-4s2.05-5.41,5-5.53c7.48-.28,15.06-.67,22.46.17,10.34,1.18,20.79,1.5,31,3.58,2.06.41,3.15-.68,4.08-2.7,12.19-26.42,24.57-52.76,36.81-79.17,6.91-14.93,13.59-30,20.53-44.9,1.51-3.25.6-3.88-2.62-4.19-15.48-1.49-30.92-3.28-46.39-4.82-11.69-1.16-23.41-2.07-35.12-3.14q-15.57-1.44-31.12-3c-2.72-.28-4.14.82-5.4,3.24q-19.74,37.83-39.71,75.55c-2.42,4.61-5.41,6.36-8.41,4.48-3.92-2.45-3-5.8-1.26-9.15q15.12-28.71,30.21-57.43c3.07-5.87,5.93-11.86,9.1-18.22-8.86-.85-17.17-1.76-25.49-2.41-17.67-1.39-35.33-2.8-53-3.88-5.78-.35-11.62-.7-17.42.4-3.44.64-6-.87-6.71-4.28-.74-3.78,2.07-4.94,5.12-5.23,15.08-1.43,30.11-.4,45.14.82,5.78.47,11.58.44,17.39.93,12.36,1,24.78,1.6,37.1,3.17,3,.38,4-1.66,5.08-3.81,11.65-23,23.19-46.12,35.05-69,9.34-18,17.07-36.87,27.2-54.49,2.12-3.69,1.46-4.47-2.8-4.73-16.36-1-32.68-2.6-49-3.77-9.09-.65-18.18-1.16-27.26-2-10.71-1-21.5-1.33-32.24-2.15-3.91-.29-6.14,1.23-7.81,4.69a88.87,88.87,0,0,1-6.32,10.72c-2.35,3.53-6.62,4.82-9,2.74-3.17-2.8-2-6-.21-9s3.88-6.14,6.1-9.64c-4.84-.51-9.17-1.24-13.53-1.39-13.62-.47-27.24-.76-40.87-1-3.06-.06-5.69-.32-6.28-4.09-.63-4,2.19-4.83,5-5.4a55.78,55.78,0,0,1,17.9-.35c10,1.23,19.94.42,29.9.8,3.15.12,6.27-.15,9.41.78,2.79.84,4.82-.11,6.47-3,16.21-28.43,32.59-56.76,48.91-85.13,4.61-8,9.17-16.05,13.87-24.28a12.94,12.94,0,0,0-1.84-.34c-20.8.37-41.56-1.73-62.37-1-1.81.06-3.64.23-5.41-.56s-3.05-2-2.85-4.17c.17-1.92.7-3.52,2.73-4.34a16.68,16.68,0,0,1,6.37-.92c21.33,0,42.66-.09,64,.1,4.34,0,6.81-1.18,9.08-5.14,11.72-20.46,23.79-40.73,35.89-61a133.51,133.51,0,0,1,8.66-12.16c2.3-3,5.47-4.27,8.65-1.7s1,5.33-.81,7.79c-10.6,14.13-18.76,29.76-27.54,45-3.9,6.77-7.79,13.54-11.58,20.37-1.1,2-2.6,3.85-2.67,6.72h5c35.66,0,71.32-.07,107,.1,4.35,0,6.6-1.23,8.93-5.14,25.08-42.1,45.78-86.73,73.74-127.16,2.92-4.22,5.1-9,7.88-13.28,1.53-2.37,3.48-4.9,6.89-2.65,3.06,2,3.36,4.65,1.48,7.75-6.11,10.08-11.9,20.37-18.32,30.26-9.61,14.8-17.67,30.47-26.2,45.87-10.87,19.63-21.42,39.43-32.89,58.72-2.79,4.71-2.77,4.86,2.63,6a27.36,27.36,0,0,0,5.42.53c16,.05,32-.54,48,.21,17.63.82,35.25.61,52.88.9,3.48.06,5.26-1.12,6.94-4.2,15.39-28.32,31.81-56.05,48.84-83.42,11.67-18.75,23.14-37.64,35.71-55.82,3.3-4.76,6.19-9.83,10.2-14.11,2.23-2.39,4.62-3.57,7.32-1.17,2.37,2.11,2,4.44.16,7.07-25.43,37-47.78,75.88-71,114.21-7,11.59-14.09,23.26-19.94,35.72,2.56,1.27,5.21.16,7.45,1.55,3,1.85,4.9,4.1,4,7.76-.84,3.36-3.67,3.82-6.37,3.29-9.91-2-14.2,3-18.56,11.51-19.25,37.43-39.3,74.45-58.16,112.1-.79,1.59-2.06,3.05-1.93,5.05a79.88,79.88,0,0,0,16.81,1.41,15.1,15.1,0,0,1,4,.35c3.3.74,6.38,2.36,5.89,6.16S951,507,947.4,506.79c-7.12-.47-14.26-.63-21.37-1.1-2.95-.19-4.56,1-5.78,3.59q-19.79,42.26-39.7,84.44c-6.88,14.6-13.86,29.15-20.81,43.71-2.38,5-2.38,4.72,3.16,5.35,15.77,1.81,31.49,4,47.27,5.69,8.56.9,17.1,1.87,25.59,3.24,2.77.45,5.29,1.35,6.16,4.28a5.75,5.75,0,0,1-1.8,5.94c-2.17,2-4.53,1.76-7.36.77-8-2.78-16.6-2.74-24.94-3.89-13.92-1.9-27.9-3.34-41.87-4.91-3.28-.37-6.61-.15-9.87-1.08-2.79-.8-4.15,1-5.24,3.34-6.36,13.91-12.88,27.75-19.25,41.66-6.08,13.3-11.93,26.71-18.08,40-6.29,13.58-12.77,27.08-19.28,40.57-1.79,3.71-1.35,4.88,3.22,5.5,26.71,3.62,53.4,7.44,79.78,13.11A40.69,40.69,0,0,1,891,802.6Z"/><path class="cls-6" d="M307.24,1132.76c-8.89,1.75-17.91,1.38-26.79.67-10.78-.86-21.28-3.35-31-8.55-19.71-10.51-30.32-36.35-23.58-57.7,1.69-5.36,4.81-9,10.21-10.64,1.75-.53,3.44-1.27,5.21-1.72,12.67-3.17,19.23-11.54,21.23-24.19,1.26-8-.87-14.83-6.41-20.54-5.78-6-12.59-10.81-17.76-17.47-15-19.38-19.52-40.68-12.49-64.27,2.62-8.8,5.65-17.4,11.4-24.79s11.29-8.7,19.61-4.47c3.41,1.74,6.54,3.94,10.24,5.13,15.58,5,28.57-5.2,33.06-20.62a14,14,0,0,0,.77-3.9c-.19-18,11.75-27.3,25.22-35.45,5.12-3.09,10.58-5.66,16.63-6.52,5.14-.73,8.85,1.24,11.86,5.56a91.53,91.53,0,0,1,14.27,34.37c4.58,22.58,30.8,29.68,46.82,16a55.54,55.54,0,0,1,24.67-12.54c8.81-1.89,13,0,17,8.17,5.15,10.5,7.15,21.83,7.61,33.31.54,13.46.69,26.94-.61,40.42-.8,8.32-.24,16.62,3.11,24.5,4.07,9.54,12.25,14.55,20.83,19.23,14.56,7.93,15.84,11.93,10.12,27.8-2.44,6.77-5.71,13.12-8.68,19.62-7.08,15.52-4.21,30.18,9.36,40.62,15.74,12.12,17.14,25.23,11.16,43.48-3.17,9.67-8.84,17.8-16,25-5.17,5.17-11.11,9.68-14.93,16.06-5.31,8.9-7.34,18.23-2.1,27.9,1.31,2.43.37,3.7-1.24,5.09a48.35,48.35,0,0,1-16.85,9.4c-.24-3.69,1.79-6.94,1.78-10.7a26,26,0,0,0-4.82-15.43c-5.47-7.84-11.47-15.24-19.36-20.69s-8.89-12.7-7.49-21.15c1.48-8.89,3.88-17.57,6.12-26.27,3-11.62.43-22.13-5.68-32-9.42-15.2-17.62-31-23.1-48.06a231.79,231.79,0,0,1-9.87-42.77c-1.57-12.94-4.41-25.73-9.74-37.62a155.44,155.44,0,0,0-14.52-25c-8.18-11.75-24.91-12.17-34.2-1.33-6.65,7.77-9.44,16.68-6.76,27,2.73,10.47,5,21.11,8.45,31.35,4.1,12.1,3.48,24.3,2.19,36.54a147.7,147.7,0,0,1-12.52,46.61c-4.78,10.36-10.27,20.15-19.5,27.39a19.09,19.09,0,0,0-6.92,12.38C302.45,1126.36,303.09,1130.19,307.24,1132.76Z"/><path class="cls-7" d="M237.16,849.67c-33.45,8.91-47.87,34.57-57,64.85-1.1,3.65-2,7.37-2.78,11.11-.45,2.22-.65,3.28-3.34,1.74-18.49-10.65-32.84-24.65-39.14-45.8-3.38-11.37-1.41-21.65,4.61-31.48,3.69-6,9.91-6.69,16.07-7.36,4.62-.49,9.29-.63,13.87-1.34,9.8-1.51,17-6.61,20.33-16.22,3.51-10.14-.48-18.45-6.79-26.17-4.22-5.16-10.34-7.75-15.32-11.91-8-6.72-12.8-15.14-15.47-25-2.3-8.5-4.56-17.14-4.53-25.91s1.82-17.62,6.22-25.38c3.67-6.47,17.48-10.36,26.22-8.66,12.46,2.43,21.94,10,31.49,17.52,8.79,6.91,18.22,9.76,28.68,4.22s14.77-17.3,11.12-29.57c-1-3.5-2.46-6.89-3.67-10.34-4.85-13.87,1.76-33.41,14.09-41.34A68.52,68.52,0,0,1,282,634c9.14-2.34,21.13,3,27.19,11.75C314.63,653.71,317,663,320,671.93c6.51,19.53,25.33,24.93,41,11.46,7.77-6.7,14.51-14.51,23.6-19.73,10.38-5.95,12.65-5.26,16.74,6.15,4.49,12.53,2.88,25.21,1.34,38-1.18,9.75-3.6,19.24-5.79,28.77-4.32,18.78,8.54,31,25.8,32.25,5.2.37,10.26-.81,15.39-1.18,3.66-.26,5.43,1.21,6.79,4.33a64.34,64.34,0,0,1,5,20.73A174.79,174.79,0,0,1,449,829c-.34,2.53-1.54,3.72-4.28,3.71-11.68,0-22.68,3.13-33.2,7.89-3.17,1.43-4.32.54-5.58-2.25-5-11.08-10.47-21.84-19.16-30.71-17.29-17.65-37.82-21.46-60.95-15-2.56.71-5.11,1.44-7.66,2.16-2.21-.76-2.8-2.74-3.32-4.65-3.45-12.72-6.12-25.6-6-38.82.06-8.84-.58-17.61-1.21-26.39-1.14-15.65-12.2-25-26.59-22.74-10.63,1.67-17.9,10.57-18.37,22.88-.3,7.81-.23,15.64-.05,23.46.66,28.06-5.34,54.81-15.56,80.76q-3.12,7.89-6.32,15.75C239.94,846.92,239.12,848.72,237.16,849.67Z"/><path class="cls-8" d="M307.24,1132.76c-6.55.64-5.76-4.89-5.79-8.15,0-6.1,2.27-12.11,7.29-15.75,8.29-6,13.28-14.34,17.75-23.06a138.54,138.54,0,0,0,12.61-38.66c3.33-18.25,4.19-36.36-2.26-54.35-3.18-8.86-5.13-18.18-7.24-27.39-3.38-14.78,9.07-35.44,26.7-33.73,7.57.73,13.84,3.75,17.89,10.22,10.2,16.34,19.32,33.06,22.24,52.62,1.9,12.73,3.67,25.51,7,38a216.37,216.37,0,0,0,27.1,61.7c8.08,12.54,9,25.54,4.77,39.5-2.11,7-3.48,14.14-5.05,21.25-2.14,9.7,2.69,16.08,10.17,21.31,8.19,5.74,14.05,13.68,18.93,22.18a21.76,21.76,0,0,1-.25,23.18,71.38,71.38,0,0,1-37,5c-4.1-2-6.17-5.88-8.87-9.19s-3.24-3.26-5.5.45c-1.33,2.17-2.25,4.94-5.63,4.71-10.16-3.78-16.91-11.57-22.92-20-7.43-10.46-12.94-22.07-19.24-33.21-1.61-2.84-.17-3.68,2-4.82,10.33-5.45,20.35-11.36,27.61-20.89,10.3-13.52,5.47-31.68-9.76-36.34-8.29-2.53-15.87-.41-21.24,6.06a36.47,36.47,0,0,1-13.75,10.27A111.4,111.4,0,0,1,307.24,1132.76Z"/><path class="cls-9" d="M237.16,849.67c9.35-21.81,18-43.88,21.83-67.45,3-18.77,2.1-37.74,2.16-56.65,0-11.22,6.21-20.65,15.53-23.86,16.62-5.74,31.68,6.13,32.63,24.56.89,17-.23,34.17,3.84,50.92,1.44,5.93,2.19,12.06,5,17.61-8.81,4.26-17.6,8.57-25.65,14.23-14,9.86-25.18,22.17-32.67,37.63-1.18,2.43-2.17,2.88-4.83,2.37C249.09,847.89,243.11,849.19,237.16,849.67Z"/><path class="cls-6" d="M402.12,1222.69c2.63-1.4,4-3.8,5.19-6.39,1.74-3.76,3.34-4,6-.8,3,3.67,5.88,7.47,8.81,11.22A45.47,45.47,0,0,1,402.12,1222.69Z"/><path class="cls-3" d="M909.28,504.73c.17,3.15-1.37,5.23-2.42,7.45q-23,48.48-45.93,97c-4.19,8.86-8.51,17.68-12.29,26.73-1.87,4.48-4.78,5.28-9,4.8-15.28-1.71-30.57-3.3-45.86-4.95-18.08-2-36.16-4-54.25-5.87-4.23-.44-8.62.43-12.93-1.82.76-1.61,1.49-3.26,2.3-4.87,11.79-23.28,23.93-46.4,35.27-69.9,8.46-17.55,17.4-34.85,25.83-52.4,1.49-3.11,2.94-4.55,6.87-3.53,5.1,1.32,10.53.69,15.83,1.21,12.53,1.25,25.15,1.44,37.73,2.24C870.06,502,889.69,503.41,909.28,504.73Z"/><path class="cls-3" d="M981.72,366c-3.69,7.2-7.08,14-10.64,20.71-7,13.06-14.17,26-21,39.12q-16.39,31.72-32.29,63.69c-1.67,3.35-3.62,4.55-7.29,4.32-20.16-1.32-40.35-2.08-60.49-3.93-6.09-.56-12.24-.4-18.37-1-10.21-1-20.48-1.51-30.73-2.06-3.22-.17-2.63-1.64-1.63-3.5,4.74-8.78,9.44-17.58,14.25-26.31,8.17-14.85,16.42-29.65,24.63-44.47,8.46-15.26,17-30.49,25.34-45.79a5,5,0,0,1,5.15-3c28.44,1.2,56.9.58,85.33,1.3C963,365.26,972.17,365.19,981.72,366Z"/><path class="cls-3" d="M781.89,485.64c-19.2-1.61-38.48-3.32-57.78-4.81-11.39-.88-22.83-1.32-34.23-2.14-5.62-.41-11.21-1.21-16.87-1-3.78.15-4.29-1.65-2.56-4.68,5.61-9.81,11.12-19.66,16.77-29.45q18.16-31.49,36.44-62.93c2.58-4.46,5.18-8.9,7.71-13.39,1.43-2.55,3.32-3.59,6.41-3.58q55,.18,110,0c3.95,0,4.67.9,2.7,4.43q-22.7,40.69-45.22,81.49c-5.7,10.33-11.1,20.83-16.7,31.22C787.12,483.43,786,486.53,781.89,485.64Z"/></g></g></svg>