<svg xmlns="http://www.w3.org/2000/svg" viewBox="0 0 1505.61 1091.85"><defs><style>.cls-1{fill:#a6a6a6;}.cls-2{fill:#532a05;}.cls-3{fill:#faf1d1;}.cls-4{fill:#2c950a;}.cls-5{fill:#fdfdfd;}.cls-6{fill:#fdfcfc;}.cls-7{fill:#fbfafa;}.cls-8{fill:#f6f5f0;}.cls-9{fill:#8d8775;}</style></defs><g id="레이어_2" data-name="레이어 2"><g id="레이어_1-2" data-name="레이어 1"><path d="M755.45,25.7C767.66,9.22,783.87,1.67,803,.18c27.06-2.1,49.14,13.86,58.1,41.53,2.79,8.61,4.42,17.45,3.87,26.52-.19,3.18.63,4.27,3.87,4.76,37.33,5.67,74.49,12.33,111.57,19.44,22.69,4.35,45.64,7.23,68.19,12.43,48.63,11.24,96.68,24.55,143.26,42.49,35.54,13.68,69.07,31.27,98.17,56.49,15.51,13.44,27.9,29,35.81,48,.65,1.56,1.16,3,3.1,3.52,10.08,2.78,18.76,8.44,27.61,13.72,27.59,16.44,55.28,32.73,81.45,51.41,4.2,3,8.2,6.28,12.19,9.55,4.77,3.93,7.11,9.2,9.49,14.89,3.18,7.61,4.19,16,10.25,22.74,5.9,6.55,7.57,15.8,10.52,24.08,19.38,54.28,27.9,110.22,24.38,167.79-4.23,69.15-24.76,133.46-59.1,193.42-37.28,65.08-87,119.24-145.94,165.28-81.47,63.67-173.14,107-272.06,135.56a967.09,967.09,0,0,1-188.1,34.43,999.92,999.92,0,0,1-176.71-.55c-107.88-10-211.67-35.88-310.09-81.75-88.55-41.28-167.37-96-231.95-170-48.71-55.79-85-118.59-105-190.25C-8.37,558.57-4.69,472.49,25.82,387.48a24.86,24.86,0,0,0,1.72-11.13,21.11,21.11,0,0,1,7.54-18.77c5.65-4.75,12.2-8.23,19.63-9.26a10.24,10.24,0,0,0,7.12-3.81C86,315.18,114.61,291,146.74,270.78c7.62-4.78,15.53-9,23.49-13.23,1.83-1,3.28-2,3.94-4.13,5.74-18.85,17.45-33.68,31.06-47.54,30.2-30.77,66.76-51.62,105.68-68.79A1352.66,1352.66,0,0,1,472.33,78,379.13,379.13,0,0,1,527.81,65.8a8.4,8.4,0,0,0,2.91-.62c13.75-7.61,28.88-5.58,43.54-5.83,20.81-.36,41.64.13,62.46.47,3.94.07,5.84-.83,7.64-4.84C655.47,30.19,674,13.65,700.48,6.55a35.07,35.07,0,0,1,8.89-1.13c6.81,0,13.61.27,20.44.2,9.11-.1,16.23,4.24,20.72,12.49C751.87,20.57,753.57,22.83,755.45,25.7Z"/><path class="cls-1" d="M62.48,429.44c1.47,0,2,1,2.61,1.67,38,40.53,82.52,72.43,130.77,99.41,66.75,37.33,137.75,64.14,211.3,84.51A1298.68,1298.68,0,0,0,551,646a1453.11,1453.11,0,0,0,261.38,17.57,1384.56,1384.56,0,0,0,164.21-13.38c68.37-9.77,135.5-24.72,200.77-47.41,67.4-23.43,131.25-53.78,187.38-98.63,28.69-22.92,54-49.05,73.67-80.28a25.68,25.68,0,0,1,1.61-2c3.06,7.43,4.61,14.87,6.48,22.21a367,367,0,0,1,8.38,136.83c-7.12,57.74-27.18,111-57.61,160.4-41.34,67.13-96.74,120.56-161.56,164.65-66.92,45.52-139.92,78-217.4,100.81a915.78,915.78,0,0,1-156.46,31.28,961.29,961.29,0,0,1-188.1,2.59c-105.4-8.86-206.7-33.93-302.66-79-77-36.16-146.36-83.3-204.36-146.14-37.15-40.24-67.35-85-88.55-135.71C53.17,620.18,43.39,558.21,50,493.75A368.24,368.24,0,0,1,61.32,433C61.67,431.79,62.11,430.58,62.48,429.44Z"/><path class="cls-2" d="M774.35,433c-22.58.83-44.56-4.32-66.62-9.2-27.07-6-53.53-14.36-80.61-20.29-19.21-4.2-38.66-6.49-58.35-5.42-23.68,1.29-47.21,4-70.67,7.62-19,2.9-38,6.64-57.25,6.73-11.45.05-23-.93-33.53-6-10.08-4.86-15.6-14.21-21.08-23.35-6.89-11.5-10.64-24.35-15.08-36.87-9.76-27.56-28.45-45.73-56-55.45-19.67-6.94-39.94-11-60.34-14.84-10.26-1.93-20.36-4.7-30.54-7.05-3.62-.84-4.45-2.79-2.9-6.14a66.66,66.66,0,0,1,11.8-17.18c25.48-27.7,56.88-46.68,90.8-62,44.44-20.14,90.1-37.08,136.51-51.92,24.51-7.82,48.77-16.57,74-22,5-1.07,3.82.64,3.07,3.75-6,25.31-.07,47.68,19.55,64.59,17.75,15.32,39.23,19.5,62.26,13.85a41.28,41.28,0,0,0,8.06-2.54c3.11-1.5,4.21-.45,4.62,2.55,2.69,19.61,12.76,34.87,28.64,46.08,23.66,16.71,49.3,14.28,71.39-3.28a76.15,76.15,0,0,0,23.35-31.15c1-2.44,2.32-1.71,3.86-.81,10.25,5.95,21.35,7.81,33.09,7.53,17.28-.42,32-7.08,44.91-18,13.63-11.51,22.66-26,26.08-43.71a59.47,59.47,0,0,0-.61-24.74c-.72-3.1-.49-3.67,2.93-3.11,36,5.9,71.78,12.8,107.7,18.94,37.48,6.41,74.8,13.25,111.4,23.5,46.93,13.15,93.78,26.68,136.64,50.74,18.9,10.62,36.73,22.83,50.7,39.79,6.32,7.68,11.13,16.43,12.49,26.28,1.16,8.41-2.57,16.25-5.95,23.86-5.67,12.77-15.48,22-26.64,29.75-23.19,16.19-46.93,31.56-73.15,42.49-14.49,6-29.91,8.68-45.53,10.05-34.65,3-69.44,1.58-104.12,3.18-27.32,1.27-54.63,2.76-81.82,6.5-31,4.27-61.08,12.39-91,21.06-4,1.16-7.91,2.41-12.17,2.36a19.36,19.36,0,0,0-10.07,2.52c-9.21,5.51-19.52,7.28-29.75,9.35C794.55,432.94,784.58,433.18,774.35,433Z"/><path class="cls-3" d="M598.6,447c20.36,2.3,38.92,8.21,57.73,13a3.89,3.89,0,0,1,2.12,1.15c8.7,12.23,20.07,22.17,29.08,34.18,14.83,19.75,27.11,41.1,40.2,62q18.15,28.94,36.33,57.88c-1,1.56-2.43.87-3.6.84-16.65-.44-33.3-1.06-50-1.39-3.69-.07-5.52-1.59-7.15-4.76-22.55-44.05-48.64-86-76.42-126.88-7.47-11-16.43-21-24.7-31.39Z"/><path class="cls-3" d="M1347,317.35c7,3.67,12.37,8.08,18,12,15,10.46,31,19.44,45.8,30.21,3.78,2.75,4.5,4.84,2.6,9.31-16,37.74-42.06,67.51-73,93.55A404.78,404.78,0,0,1,1307,487.53C1325.12,431.51,1342.18,376.31,1347,317.35Z"/><path class="cls-3" d="M347.13,411.11c5.1,7,9.8,14.24,15.86,20.44,2.18,2.23.46,3-1,4.05-8.38,6-16.93,11.79-25.12,18a483.11,483.11,0,0,0-64.15,58.4c-1.32,1.46-2.21,3.09-4.85,1.83-17.09-8.19-34-16.6-51.54-26.61,32.22-29.61,67.05-54.8,101.85-80,2.53,6.81,7.85,6.91,13.79,5.89C337,412.26,342.18,412.64,347.13,411.11Z"/><path class="cls-3" d="M313.16,343c5.9,4.18,5.9,4.17.39,8.21-25.91,19-52.2,37.47-77.27,57.57-19.77,15.86-38.78,32.59-54.24,52.88-2,2.62-3.25,2.7-5.85.91-9.74-6.69-19.27-13.68-28.72-20.77-2.72-2-2.31-3.11-.1-5.18a417.41,417.41,0,0,1,32.15-26.91C210.18,386.25,241,363,272.94,341.26c2.49-1.7,5.29-3.42,6.49-6.1,2.26-5.05,5.62-4.63,9.68-3,5.66,2.32,11.79,3.44,17.07,6.71C306.78,344.18,306.78,344.18,313.16,343Z"/><path class="cls-3" d="M1159.38,503.08c-7.76,16.95-17.38,32.91-26.1,49.35-2.48,4.68-5.46,9.18-6.3,14.57-.28,1.84-1.55,2.41-3,2.84-19.15,5.52-38.31,11-57.8,15.16-1.07.29-1.36-.18-1.15-1.15,10.1-11.58,17.82-24.84,26.32-37.53,23.25-34.71,43.25-71.34,63.2-108,3-5.56,6.55-8.68,13-9.62,9.51-1.37,18.66-4.59,27.59-7.81,1.23.8.51,1.55.21,2.23q-13.69,31.51-27.43,63a27.25,27.25,0,0,1-1.73,2.94c-8.44,2.67-16.19,7.38-23.65,8.81C1147.35,498.81,1153.64,500,1159.38,503.08Z"/><path class="cls-3" d="M1191.07,546.84c6.76-13.63,13.39-26.41,19.51-39.43,17.71-37.63,31.87-76.67,45.24-116,.64-1.89,1-3.81,2.89-5A262.3,262.3,0,0,0,1292,362.63c.45,3.51-.78,6.1-1.37,8.72-9.59,42.53-23.18,83.87-37,125.16-2.57,7.69-6,15.21-6.2,23.53a2.8,2.8,0,0,1-1.64,2.79C1228.11,531.47,1210.14,539.52,1191.07,546.84Z"/><path class="cls-3" d="M105,363.85c10.15-10.35,21.43-19.4,32.87-28.23,14.48-11.18,29.17-22.08,45.22-31,2.71-1.5,4.52-1.41,7.08.38,8.84,6.21,19,9.24,29.36,11.95.78.2,1.54.44,3.35,1-7.57,5.44-14.48,10.34-21.33,15.33-31,22.59-60.79,46.53-86.59,75.07-2,2.16-3,2.83-5.32.33-5.92-6.5-12.43-12.47-17.69-19.58C93.64,379.27,99.7,371.75,105,363.85Z"/><path class="cls-3" d="M462.11,459.34c-16,11.13-32,22-46.74,34.37-19.74,16.61-39,33.81-55.13,54.1-1.64,2.05-2.86,2-5,1.25-13.85-5.13-27.75-10.15-41.91-15.31,1.51-2.86,3.91-4.4,6-6.12,29.6-24,60.06-46.85,91.89-67.86,1.38-.91,2.68-2,4.54-1.65C431.16,460.8,446.6,460.63,462.11,459.34Z"/><path class="cls-3" d="M813.84,478.17c8.12-2.15,15.87-4,23.49-6.32,2.77-.83,4.13,0,5.74,2,8.21,10.69,15.91,21.74,23.29,33,20.94,32,42.67,63.52,62.08,96.52.75,1.27,1.52,2.54,2.69,4.5l-26.52,2.76a2.49,2.49,0,0,1-2.71-1.59c-9.83-17.57-21.67-33.88-32.29-51-16.87-27.14-34.37-53.86-55-78.41A9.63,9.63,0,0,1,813.84,478.17Z"/><path class="cls-3" d="M979.9,596.18c-23.24-38.83-47.29-77.15-73.44-114.11-5.86-8.27-12.34-16.1-19-24.69l19.61-5.3c1.4-.38,2.15.47,2.9,1.41,35.77,44.79,70.37,90.38,97,141.45a3.1,3.1,0,0,1,.15,1,3.59,3.59,0,0,1-3.7-.71c-4.47-4.41-9.36-3.39-14.59-1.73C985.89,594.42,983,595.5,979.9,596.18Z"/><path class="cls-3" d="M731.9,477.78c8.36.86,16,1.67,23.57,2.4,2.52.24,3.62,2.21,4.95,3.85,11.34,14,21.11,29.06,31.62,43.63,19.38,26.87,36.49,55.23,54.62,82.92,2.51,3.83,1.06,4.2-2.48,4.23-5.66.06-11.34.19-17,.74-3.64.35-5.88-.92-7.88-3.82-13.91-20.13-26.67-41-39.91-61.54-13.68-21.25-25.53-43.67-40.9-63.84C736.53,483.73,734.49,481.13,731.9,477.78Z"/><path class="cls-3" d="M650,610.39c-11.57-1.21-21.82-2.31-32.07-3.31-1.84-.18-2.66-.84-2.61-2.77.15-5.38-2.34-9.92-4.71-14.52-20.82-40.42-45-78.81-70-116.77-2.29-3.49-2.2-5.19,1.54-7,3.52-1.75,6.59-6.42,10-5.68s5,5.81,7.35,9c31.52,42.59,58.88,87.87,86.17,133.19C647,604.72,648.18,607.07,650,610.39Z"/><path class="cls-3" d="M1104,435.84c-24,36.28-44.07,74.28-69.43,109-1.65-.14-1.82-1.72-2.46-2.75-3.25-5.23-6.41-10.51-9.61-15.77-2.06-3.38-5.76-6.76-5.75-10.13,0-3.1,4-6.19,6.24-9.28,13.39-18.46,25.56-37.75,38-56.81,6.42-9.79,13.63-16.69,26.59-14.41C1092.74,436.59,1098.12,435.84,1104,435.84Z"/><path class="cls-3" d="M561.5,599.47c-11.5-2-22-3.78-32.44-5.53a3.67,3.67,0,0,1-2.83-2.41c-14.2-28-31-54.36-52.22-77.61-2.46-2.7-1.57-3.56.77-5.06,7.84-5.05,15.71-10.06,23.36-15.38,2.89-2,3.76-.83,5.1,1.61,10.78,19.7,21.49,39.44,32.59,58.95C544.21,568.78,553,583.26,561.5,599.47Z"/><path class="cls-4" d="M702.68,104.06c-12.48,0-19.26-7.77-17.44-19.9,2.12-14.07,9.24-25.14,21.33-32.79,5.29-3.35,6.5-3.16,10.26,1.94,5.38,7.31,11.58,14.06,12.91,23.78,1.68,12.26-3.53,21.31-15.36,24.81C710.41,103.07,706.42,104.4,702.68,104.06Z"/><path class="cls-4" d="M607.8,106.9c3.15-.62,5.83.87,8.45,3.75,4.23,4.66,9,8.73,11.68,14.73a8.66,8.66,0,0,1-1,9.32c-6.68,9.16-24.68,14-34.84,9.31a15.46,15.46,0,0,1-8.84-16.75C585.11,116.35,596.13,107,607.8,106.9Z"/><path class="cls-4" d="M779,147.26a37.4,37.4,0,0,1,3.24-16.45c4.44-9.6,15.78-12.82,26.07-7.59,7.58,3.87,10.23,13.86,5.93,22.6-4.12,8.36-10.64,13.93-19.71,16.19-10.43,2.6-15-1-15.53-11.76C779,149.25,779,148.25,779,147.26Z"/><path class="cls-3" d="M466.16,580.94c-21.48-5.3-41.77-10.27-62.6-16.6,7.52-6.33,14.59-12.29,21.69-18.23,1.91-1.61,3.9-3.12,5.85-4.68,5.39-4.3,5.54-4.43,10.2,1C451.14,553.79,458.33,566.92,466.16,580.94Z"/><path class="cls-3" d="M958.76,442.27c19-2.55,37.33-3.68,56-4.54-.36,2.73-2.35,4.13-3.67,5.88-7.33,9.69-14.75,19.31-22.07,29-1.38,1.83-2.17,3-4.28.45C976.43,462.92,967.84,453,958.76,442.27Z"/><path class="cls-4" d="M678.93,181.19c0-6.6,2.38-12,7.15-16,6.89-5.78,12-5.5,20.07.41,7.18,5.26,8.81,10.44,5.75,18.56a31.36,31.36,0,0,1-10.72,14.07c-5.15,3.9-9.38,3.79-14.46-.28A20,20,0,0,1,678.93,181.19Z"/><path class="cls-4" d="M790.92,63.6A15.43,15.43,0,0,1,809,48a5.3,5.3,0,0,1,3.87,2.8,57,57,0,0,1,3,6.24c5,12.06-5.29,15.51-13.55,14.28-2-.29-3.87-1-5.83-1.18C792.23,69.6,790.41,67.27,790.92,63.6Z"/><path class="cls-5" d="M347.13,411.11c-.69,2.94-3.54,2.29-5.27,2.56a116.49,116.49,0,0,1-15.63,1.22c-6.39.12-7.51-1.12-8.08-7.66,5.05-3.79,10.08-7.6,15.15-11.36,1.33-1,2.74-1.85,4.25-2.86Z"/><path class="cls-5" d="M1159.38,503.08c-6.74-.14-12.6-4.13-20.82-4.43,9.52-3.8,17.74-7.11,26-10.32.39-.15,1.09.49,1.65.77A73.51,73.51,0,0,1,1159.38,503.08Z"/><path class="cls-6" d="M979.9,596.18c1.29-2.64,4.11-2.3,6.26-3.3,7.71-3.59,14.65-2.55,21,3-2.34,1.81-2.63,1.88-9.79,2.9a79,79,0,0,0-10.21,1.64C983,601.63,980.48,600.73,979.9,596.18Z"/><path class="cls-7" d="M105,363.85c1.31,2.81-1.29,4.25-2.46,5.84-4,5.37-7.64,10.79-8.51,17.62-.15,1.21-1.06,1.56-2.08,1.76-6.28-6.34-6.32-6.38-.13-12.53C96.19,372.25,100.15,367.57,105,363.85Z"/><path class="cls-8" d="M313.16,343c-1.38,2.9-4.93,2.77-6.42,2.24-3.12-1.1-1.84-4-.56-6.35A16,16,0,0,1,313.16,343Z"/><path class="cls-9" d="M1065,583.85c.38.38.76.77,1.15,1.15-1,.86-2.26,1.69-3.21.38C1062.6,584.93,1064,584,1065,583.85Z"/></g></g></svg>