<svg xmlns="http://www.w3.org/2000/svg" viewBox="0 0 1392.3 948.27"><defs><style>.cls-1{fill:#fef4d4;}.cls-2{fill:#e57015;}.cls-3{fill:#fcdbc2;}.cls-4{fill:#fbfbfa;}.cls-5{fill:#f6f6f4;}</style></defs><g id="레이어_2" data-name="레이어 2"><g id="레이어_1-2" data-name="레이어 1"><path d="M412.14,769.93c-5.19,4.24-9.82,7.69-14.07,11.56-24.13,22-46.13,45.78-62,74.56-12,21.68-19,45.28-25.46,69.05-3.71,13.69-11.1,21.48-22.58,23-6.26.82-11.77-1.26-17.12-4.25-34-19-65-42.32-94.42-67.67-15.92-13.7-32.54-26.48-48.95-39.57C99.27,814.06,71.36,791,45,766.31c-14-13.1-25-29-36.18-44.53a46.8,46.8,0,0,1-4-7.44c-8.4-18-5.84-32.08,8.71-45.58,26.87-24.93,54.43-49.08,82-73.2,45.17-39.45,89.94-79.32,134-120,80-74,157.73-150.39,236.58-225.6C529.5,189.43,599.75,138.45,679.36,101c71.32-33.52,146-57,222.5-75.34A1010.19,1010.19,0,0,1,1021.58,4.19c16-1.86,32.16-3.23,48.28-4.05,20.16-1,39.59,3.56,58.67,9.55,30.91,9.71,61.77,19.49,91.41,32.87a422.24,422.24,0,0,1,103.56,66c34.52,29.94,57,67.42,66.26,112.32,4.92,23.89,1.87,47.79-2.31,71.49a310.42,310.42,0,0,1-38.17,104.36c-12,20.32-26.69,38.63-43.17,55.47-2.28,2.32-2.41,3.72-.83,6.6,11.93,21.76,23.06,43.86,25.69,69.12,2.16,20.63-1.75,39.76-14,56.79a17.64,17.64,0,0,0-3.46,10.58c-.47,26.54-11.74,47.72-32.63,63.85a13.94,13.94,0,0,0-5.1,7.06c-8,24.91-23.55,43.31-47.49,54.29a19.5,19.5,0,0,0-8,7.22c-19.72,28.85-46.45,47.69-80.46,56a24.07,24.07,0,0,0-9.24,4.64c-20.92,16.23-44.61,24.71-71.14,25-1.7,0-3.22,0-4.53,1.46-14.32,15.64-33.3,21.43-53.3,24.66-31.81,5.13-63.79,3.36-95.74,1.61a22.57,22.57,0,0,0-8.83.77c-30.89,10.56-61.87,11.92-92.82.27a9.5,9.5,0,0,0-7.47.07c-24.71,9.43-50,13.87-76.23,7.52-3.38-.82-7-1.56-9.87-3.38-5.66-3.64-10.22-2.63-15.73.69-30.32,18.26-60.65,14.73-90.65-1a10.79,10.79,0,0,0-9.71-.71c-22.18,8.19-44.91,12.35-68.59,8.32-20.14-3.42-38.52-10.42-52.24-26.5a5.65,5.65,0,0,0-4.81-2C433.2,825.56,413.24,799.64,412.14,769.93Z"/><path class="cls-1" d="M1136.54,734.91c-3.64,2.14-7.82,2.64-11.8,3.52a47.29,47.29,0,0,0-21.51,10.85c-9.49,8.38-20.77,12.83-32.92,15.51a32.83,32.83,0,0,1-13.35.36c-13.74-2.61-24.85,1.35-33.14,12.89-2.2,3.05-4.55,6.14-8.25,7.67-15.76,4.07-32,4.87-48,6.94-8,1-16.12.51-24.08,2a355.34,355.34,0,0,1-37.91-1.38c-8.83-.71-17,1.19-25.37,3.94-21.44,7-43.15,8.6-64-2-10.77-5.46-20.82-5.62-31.38.09-12.25,6.61-25.64,9.05-39.42,9.63-8.17.35-15.9-1.19-22.76-5.9-13.41-9.2-26.7-8.76-40,.25-2.89,2-6.12,3.4-9,5.35-14.51,9.8-29.23,8-44,.89a81.6,81.6,0,0,1-8.63-5c-10.27-6.59-21.1-7.52-32.51-3.48-9.86,3.49-19.67,7.19-30,9.13a71.71,71.71,0,0,1-37.88-3,23.39,23.39,0,0,1-12.75-10.55c-6.14-10.45-15.65-15.52-27.82-15.45-4.5,0-9,.27-13.49.14-6.32-.19-8.83-2.34-9.43-8.62-.5-5.2.32-10.31,3.59-14.67,3.65-4.87,5.69-10.24,4.68-16.34-.53-3.22,1.64-4,3.6-5.14,23.91-14.48,48.61-27.47,73.55-40.09,76.51-38.69,157-66.09,240.26-85.84,31.87-7.56,63.54-16,95.78-21.93,33.53-6.13,67.19-11.6,100.75-17.59,34.54-6.15,69-12.79,103.55-18.82,24.74-4.31,49.75-7.19,74.36-12.1,38-7.58,72.49-23.89,104.22-46,5.14-3.59,5.11-3.69,7.92,2.11,5.72,11.83,11.6,23.6,13.7,36.78,1.76,11.08.86,21.54-6.61,30.69a45.76,45.76,0,0,0-10.56,32.47c.7,12.91-4.64,23-15.28,30.11-9.86,6.58-16.38,15.22-19.34,26.84-3.43,13.49-11.39,23.4-24.49,29-10.23,4.36-18.08,11.53-24.37,20.75-6.95,10.2-14.58,19.9-25.67,26.11a7.73,7.73,0,0,0-7.85,1.61A121.85,121.85,0,0,1,1136.54,734.91Z"/><path class="cls-2" d="M1100,496.94c-25.65,4.57-51.36,8.81-76.93,13.77-47.12,9.15-94.62,16.08-141.79,24.91-7.33,1.37-14.69,2.61-22,3.91a5,5,0,0,1-1-3.76c1.24-18.92,2.06-37.86,4.2-56.72,1.66-14.71,2.74-29.48,3.79-44.25,1.39-19.57,2.37-39.17,3.73-58.74.13-1.84.12-3.67.14-5.5.37-32.29,1.31-64.57,5.25-96.64,2.74-22.31,6.45-44.46,14.18-65.79,8.36-23.08,21.88-42.87,36.92-61.94,17-21.63,38.85-37.75,60.68-53.91,7.76-5.75,15.42-11.63,22.88-17.78,7-5.79,11.06-12.8,9.84-22.19,15.72-2.51,31.38-5.61,47.18-7.31,9.87-1.06,19.84,1.06,29.61,3.16C1119,53,1140,61.44,1161.13,70c14,5.68,28,11.28,41.81,17.36-12.77,20.17-21.12,42.59-32.48,63.48-18.08,33.21-30.66,68.63-41.54,104.69-5.31,17.58-7.17,35.87-10.07,53.94-3.12,19.39-5.85,38.83-7.59,58.39-.9,10.09-1.64,20.21-2.33,30.32q-2.16,31.59-4.63,63.14C1103.34,473.28,1099.9,484.89,1100,496.94Z"/><path class="cls-2" d="M634.71,179.2C674.84,154,717.84,134.72,762,117.77c23.73-9.12,47.75-17.38,72.16-24.5a24.06,24.06,0,0,1,2.42-.47c.61,3.61-2,5.89-3.7,8.39-12,17.33-20.7,36.11-24.79,56.84-4.4,22.24-6.66,44.74-8.22,67.35-3.46,50.06-1.81,100.17-2.37,150.26-.27,24-.12,48-1.67,71.86-1.59,24.38-1.62,48.91-5.91,73.07-2.11,11.94-4.23,23.87-4.45,36q-26.5,6.81-53,13.62C683.12,583,635.2,599.7,588.16,619.05a22.77,22.77,0,0,1-2.35.7c-2.52-2.26-2.19-5.48-2.54-8.34-2.93-24.13-6.65-48.16-9.55-72.29-3.07-25.61-7.35-51.1-9.36-76.82a518.36,518.36,0,0,1-.38-76.82c1.56-22.07,3.32-44.14,6.23-66.07,1.83-13.85,5.39-27.44,7.52-41.27,1.82-11.77,8.26-21.35,15.38-30.45q17.07-21.84,35.48-42.6C635.47,197.35,637.37,188.94,634.71,179.2Z"/><path class="cls-2" d="M331.77,445.3c25.72-24.59,51.52-49.1,77.13-73.8q42.93-41.4,85.59-83.07c1.9-1.84,3.92-3.55,5.89-5.32,1.51,2.1.38,4.21-.19,6.2-5.72,20-7.45,40.53-9.26,61.11-1.34,15.31-1.2,30.63-.68,45.91.76,22.59,2.4,45.16,5.18,67.64,2.27,18.32,4.09,36.68,4.77,55.17.7,19,1.9,37.88,1.88,56.85,0,12.66-1.5,25.23-2.5,37.83q-.82,10.44-1.48,20.9c-.44,7.24.15,14.32,4.06,20.75a3.86,3.86,0,0,1,.56,3.34c-13.64,7.55-27.41,14.89-40.92,22.67-38.35,22.09-76,45.26-108.3,75.95-1.95-2.13-2.08-4.86-2.28-7.48-1.5-19.77-4.94-39.26-8.18-58.79-6.7-40.37-15.61-80.36-21.36-120.9-2.43-17.13-4.12-34.35-3.57-51.69a129.82,129.82,0,0,1,6.35-34.75q1.65-5.24,3.47-10.42C331.17,464.3,334.71,455.24,331.77,445.3Z"/><path class="cls-2" d="M306.37,813c-15.69,23.18-26.47,48.66-34.67,75.59-19-12.29-37-25-53.52-39.42-23.88-20.81-49.13-39.87-73.61-59.89-21.66-17.71-42.81-36-63.84-54.49-11.07-9.71-18.84-22.39-28.26-33.6-2.33-2.78.13-3.82,1.59-5.14,13-11.69,26-23.43,39.1-35q61.71-54.28,123.52-108.46c5.62-4.94,11.11-10,16.66-15,2.38,2.17,1.89,5.26,2.21,7.93,2.64,22.44,8.79,44,15.72,65.41,16,49.56,31.2,99.37,44,149.88C299.64,778,302,795.71,306.37,813Z"/><path class="cls-3" d="M785.42,556.61c-2.73-9-.2-17.87,1.41-26.63a404.31,404.31,0,0,0,5.54-46.52c4-61.56,3.69-123.2,3.58-184.84-.07-41.1,1.76-82.1,7.42-122.9,4.06-29.27,13.74-56.11,31.35-80,.68-.92,1.21-2,1.81-3,20-6.59,40.48-11.81,60.91-17A1090.57,1090.57,0,0,1,1007,54c4.28-.63,8.58-1.14,12.87-1.71,2.4.89,1.75,3,1.68,4.68-.33,8.36-4.95,14.29-11.24,19.13C997.49,86,984.76,95.9,971.76,105.47,939.82,129,914.64,158.28,897,193.82c-9.53,19.22-14.22,40-17.56,61.1a631.46,631.46,0,0,0-7.15,85c-.85,38.28-2.79,76.51-6.14,114.63-2.48,28.33-5.13,56.64-6.94,85l-52.09,12.11Q796.3,554.15,785.42,556.61Z"/><path class="cls-2" d="M1259.67,119.63c28.32,19.57,54.2,41.28,70.34,72.85,14.22,27.79,16.9,56.54,11.51,86.84-6.23,35-17.08,68.25-36.43,98.11C1275.9,422.49,1236.61,456,1187,477.05a19,19,0,0,1-2.38.66c-1.75-1.52-1.46-3.62-1.52-5.57-.67-22,1-43.87,3.56-65.72,1.75-14.85,2.7-29.8,3.53-44.75,1.21-21.59,3.56-43.09,6.28-64.54a433.27,433.27,0,0,1,17-77.95A436.51,436.51,0,0,1,1234,167.71c6.84-14.62,14.32-29,21.61-43.35C1256.53,122.48,1257.21,120.26,1259.67,119.63Z"/><path class="cls-3" d="M502.72,658.81c-7.6-9.09-6.89-19.89-5.72-30.5,5-45.38,4.09-90.76-.29-136.07-4.18-43.23-9.69-86.37-8-129.93,1.06-26.78,3.58-53.42,11.65-79.21,19-18.9,39.55-36.08,60.81-52.42,23.74-18.25,47.92-35.87,73.52-51.48,4.32,5.53,3.72,15.46-1.81,22.6-4.78,6.19-10,12-15,18.07-10.13,12.35-21,24.08-29.91,37.44a62.56,62.56,0,0,0-9.66,25.9c-1.86,12.15-5.07,24.11-6.68,36.28-2.22,16.81-3.53,33.74-5.13,50.62-2.89,30.24-2.56,60.55-.7,90.8,1.06,17.39,4,34.68,6.18,52,3.42,26.72,7,53.42,10.46,80.13,1.16,8.9,2.22,17.81,3.33,26.72-16.92,7.57-34.08,14.58-50.6,23C524.46,648.28,513.56,653.48,502.72,658.81Z"/><path class="cls-3" d="M1259.67,119.63c-14.43,28.7-29.48,57.09-40.46,87.4-11.15,30.81-17.7,62.61-21.92,95-4,30.56-5.07,61.35-8,92-2.68,27.84-6,55.62-4.7,83.67-17,8.37-35.37,12.14-54,14.88-10.19,1.5-20.39,2.9-30.59,4.35-2.85-2-1.65-4.95-1.19-7.32,5-25.9,6-52.18,7.76-78.39,2.49-37.51,6.84-74.77,12.21-112,6.92-48,23.32-92.78,43.87-136.18,10.59-22.4,22.18-44.34,33-66.63,1.68-3.46,3.07-7.46,7.25-9,18.35,8.75,36.47,17.94,53.29,29.49C1257.45,117.69,1258.53,118.7,1259.67,119.63Z"/><path class="cls-3" d="M306.37,813c-3.7-5.05-4-11.19-5.13-17-10.52-53.74-26.59-106-42.9-158.11-7.63-24.4-16.48-48.46-21.21-73.71-1.65-8.82-3-17.68-3.79-26.62,9.49-9.09,18.89-18.29,28.5-27.26q34.89-32.58,69.93-65c3,4.25,3.11,9,2.14,13.81-1.35,6.71-3.88,13.06-6.27,19.43-9,24-9.3,48.75-6.61,73.8C325.7,596,335.63,638.76,343.08,682c4.31,25,8.54,50.1,10.42,75.48C340,771.9,326.12,786.1,314.4,802.16,311.76,805.78,309.05,809.37,306.37,813Z"/><path class="cls-4" d="M943.45,794.65c5.9-2.5,12.28-2.1,18.43-2.91,16.54-2.19,33.29-2.84,49.61-6.63,1.5-.35,2.91-.9,4.08.6-7.66,4.78-16.4,5.89-25,7.16A226.87,226.87,0,0,1,943.45,794.65Z"/><path class="cls-5" d="M1136.54,734.91c4.12-5.06,10-7.81,15.12-11.66,1.91-1.45,3.7.07,5,1.74A57.86,57.86,0,0,1,1136.54,734.91Z"/></g></g></svg>