<svg xmlns="http://www.w3.org/2000/svg" viewBox="0 0 1303.85 1221.02"><defs><style>.cls-1{fill:#fefefe;}.cls-2{fill:#fdfdfd;}.cls-3{fill:#f5ca44;}.cls-4{fill:#be900f;}.cls-5{fill:#fed146;}.cls-6{fill:#c29107;}.cls-7{fill:#ddb12d;}.cls-8{fill:#f5ca43;}.cls-9{fill:#f4c943;}.cls-10{fill:#f4c942;}.cls-11{fill:#f2c740;}</style></defs><g id="레이어_2" data-name="레이어 2"><g id="레이어_1-2" data-name="레이어 1"><path d="M114.32,674.81l-1.11-1c-6.8-5.2-13.16-10.82-17.65-18.26l.06.08c-6.09-7.44-10.83-15.59-13.08-25l.06.1c-3.39-6.8-3.72-14.31-4.68-21.61-1.7-12.91-2-26-4.07-38.86-1-6.19-4.18-10.7-9-14.84-12.06-10.35-24.56-20.3-34.38-33a4.3,4.3,0,0,1-.88-1.76l0,0a7.17,7.17,0,0,1-3-4.06l.05.06a96.65,96.65,0,0,1-16.15-29.94l0,.1c-2.74-5.19-4.11-10.82-5.1-16.53-2.78-16-1.86-31.72,4.3-46.92.18-.47.4-.93.62-1.37.79-1.45,1.27-3,2-4.54a10.47,10.47,0,0,1,.6-1.21c1.32-2.32,2.38-4.78,3.59-7.15a8.9,8.9,0,0,1,.71-1.19c3.79-6.2,7.85-12.25,10.68-19a45.25,45.25,0,0,0,5.71-15.85c.66-4.8-.67-9.52-.91-14.29-1.11-22.09,4.81-42.3,15-61.53,6.44-12.11,11.73-24.59,13.65-38.32a30.31,30.31,0,0,0-.19-11.31c-3.43-14.85-7.88-29.54-6.47-45.15A33.87,33.87,0,0,1,57,191.9a55.54,55.54,0,0,1,16.15-21.2c10.52-8.66,23-14.42,33.39-23.32l-.23-.23.22.25c5.86-5.67,7.91-13.05,8.11-20.73.16-6.09-2.1-12.07-3-18.15-1.49-10.64-2-21.23,2.73-31.36,3.8-8,9.75-14.45,16.56-19.75C147.5,44.56,165.47,34,185.23,27c12.32-4.36,24.93-4.06,37.62-.43,7.49,2.15,15,4.23,22.48,6.47,7.88,2.36,15.64.62,23-3,10.94-5.31,21.45-11.53,32.81-15.91a147.94,147.94,0,0,1,33.15-8.95c8.2-1.12,16.59-.79,24.89-.46,10.74.42,21.34,1,32.17-.73,18.2-2.86,36.5-2.65,54.07,4.32a131.92,131.92,0,0,1,27.38,14.31A12.58,12.58,0,0,0,485,24.33c27.38-9.27,53.09-5.65,77,10.55,1.79,1.21,3.66,2.31,5.43,3.55,9.62,7.62,19.49,14.93,28.17,23.68,3.11,3.13,7.34,2.94,11.3,2.51a343.32,343.32,0,0,1,52-1.68c7.2.31,13.88,3.15,20.58,5.6a10.52,10.52,0,0,1,1.35.66,39.38,39.38,0,0,0,3.75,2c.42.19.82.41,1.22.64a66.18,66.18,0,0,0,5.88,3.42,8,8,0,0,1,1.16.77c11.66,8.14,20.77,18.94,30.27,29.3,3.29,3.58,6.79,6.73,11.26,8.7.42.19.82.41,1.22.63,2.51,1.48,4.83,3.4,8,3.52a9.7,9.7,0,0,1,1.27.58c12,5.79,23.47,12.31,32.86,22a97.21,97.21,0,0,1,14.15,19.11,8.59,8.59,0,0,1,.73,1.15c.6,1.18,1.13,2.41,1.81,3.56a11.44,11.44,0,0,1,.63,1.2c1.76,5,4.39,9.57,6.26,14.48a10,10,0,0,1,.53,1.27,77.74,77.74,0,0,0,4.37,11.33,12.45,12.45,0,0,1,.5,1.19,22.94,22.94,0,0,0,1.59,3.41,11.79,11.79,0,0,1,.59,1.11c.45,1,.91,1.92,1.44,2.84a12.74,12.74,0,0,1,.62,1.15,37.07,37.07,0,0,0,4.19,6.68,12,12,0,0,1,.77,1.1A137.7,137.7,0,0,0,826,223.06a11.17,11.17,0,0,1,.83,1.09c2.24,3.43,4.91,6.54,7.24,9.91a9.53,9.53,0,0,1,.72,1.14A35.77,35.77,0,0,0,838,241a9,9,0,0,1,.69,1.11c.58,1.17,1.13,2.36,1.74,3.52a9.17,9.17,0,0,1,.55,1.24c1.21,3.76,3.46,7.08,4.68,10.85a11.54,11.54,0,0,1,.53,1.38c6.17,18.28,10.7,37,16,55.54a284.43,284.43,0,0,0,12,34.85,12.76,12.76,0,0,1,.54,1.33A49.33,49.33,0,0,0,879.15,362a7.71,7.71,0,0,1,.52,1.22,17.54,17.54,0,0,0,1.73,4.21,12.17,12.17,0,0,1,.62,1.19c3.36,8.82,8.15,16.94,12.24,25.41a12,12,0,0,1,.64,1.23c3,8.28,7.58,15.81,11.31,23.74a11.17,11.17,0,0,1,.57,1.27c.61,2.21,2.2,3.61,4,4.9,4.94,3.61,9.67,7.52,14.85,10.79a10.21,10.21,0,0,1,1.14.81c8.3,7.42,18,13,26.56,20.07,3.56,3,7.33,5.69,10.56,9a9.07,9.07,0,0,1,.85,1.11,105.21,105.21,0,0,1,11.07,15.69,10.11,10.11,0,0,1,.7,1.13c.77,1.35.69,2.92,1.12,4.36l-.05-.08c5.15,7.29,6.56,15.71,7.58,24.3,1.75,14.85.89,30,5,44.56.13.49.28,1,.46,1.47a33.58,33.58,0,0,0,2.88,8.12,12,12,0,0,1,.6,1.38,266.91,266.91,0,0,1,9.18,25.83c2.64,8.76,3.09,17.57-.15,26.33a8.48,8.48,0,0,1-.75,1.27c-7,5.59-2.8,11.93-1.07,18,.53,1.86,1.31,3.71,2,5.55a11.79,11.79,0,0,1,.46,1.3,101.31,101.31,0,0,0,5.45,14.7c.23.4.43.81.62,1.23,2.1,5,3.7,10.28,6.34,15.08a7.11,7.11,0,0,1,.57,1.22,17,17,0,0,0,1.48,3.64c.23.39.42.78.61,1.18,1.41,3.74,2.79,7.48,5.22,10.72a10.75,10.75,0,0,1,.73,1.16c7.68,17,21.48,27.94,36.65,37.59a11.47,11.47,0,0,1,1.13.8c8.74,6.28,16.9,13.27,25,20.29a11.4,11.4,0,0,1,1.13.84c15.9,13,28.42,29.28,42.37,44.18,5.11,5.46,11.11,10,17,14.61.9.71,1.73,1.68,2.86,2,12,3,17.94,12.25,23.13,22.23,1.44,2.75,3.58,4.76,5.64,6.9a10.24,10.24,0,0,1,.94,1c7,8.38,14,16.81,22.52,23.8,10.13,8.32,20,17,30.13,25.24a9,9,0,0,1,1.11.81c2,1.78,3.71,3.93,6.08,5.33a9.73,9.73,0,0,1,1.1.81c8,7.63,16.82,14.33,23.43,23.31,1.76,2.39,3.38,4.87,5.07,7.31a24.29,24.29,0,0,1,1.28,2.42c.49,2.74,2.22,4.87,3.59,7.17a9.29,9.29,0,0,1,.55,1.25c.78,2.62,2,5.08,3,7.63a10.38,10.38,0,0,1,.52,1.41c3.91,11.64,5.48,23.74,7,35.83,1,8.35,2.45,16.64,3.77,24.94.29,1.84,1.82,3.14,2.17,4.95.17.48.32,1,.48,1.45a19.05,19.05,0,0,0,2.14,5.5,8.78,8.78,0,0,1,.58,1.5c4.05,11.89,5.8,23.86,4.05,36.56a202.86,202.86,0,0,1-4.45,23.78c-1.18,3.87-2.07,7.85-3.6,11.58-3.56,8.68-8.53,16.39-15.89,22.49-2.38,2-3.84,5-5.93,7.36-11.18,12.57-23.93,23.06-39.54,29.8-16.92,7.31-33.32,16.2-50.8,21.7a96.38,96.38,0,0,0-38.11,22.2c-23.14,21.63-50.28,23-79.27,14.46-30.81-9-57-24.71-78-49.45-14.44-17-28.82-34-40.72-53-2.55-4.08-5.59-7.87-8.51-11.7s-5.91-6.91-11.44-6.65c-3.65.17-7.22-1.8-10-4.15-18.08-15.37-39.66-25.64-58.32-40.16-6.56-5.11-13.49-9.75-20.34-14.47-14.47-10-29.88-17.76-47-22.46-27.13-7.45-50-22-69-42.91-4.22-4.66-8.54-9.31-14-12.7-13.37-9.48-28.9-11.82-44.63-13.38-16-1.58-32-2.07-48-3.94-28.95-3.39-55.51-12.53-78.37-31.09a157.19,157.19,0,0,1-14.06-12.63l.07,0c-9.82-.17-19.49-1.19-28.9-4.32-4.71-1.57-9.39-3.23-14-5-7.47-2.92-15.1-4.93-23.16-5-8.49,0-17,.33-25.47-.08-22.3-1.06-44.2-4.29-64.81-13.54a4,4,0,0,1-1.62-1.11l.09,0c-1.51-.38-3.07-.66-4.14-2l.08.05c-1.42-.56-3.07-.68-4.06-2.08l.09,0a61.35,61.35,0,0,1-14-8.1l.09.07a30.7,30.7,0,0,1-9.07-6.07l.08.07c-3.68-1.52-6.31-4.39-9.1-7l.07.07c-6.72-4.87-12.56-10.74-18.45-16.56a22.68,22.68,0,0,0-13.86-6.94c-14.13-1.63-28.29-3.37-41.84-8.08-2-.7-4.24-.91-5.92-2.42l.09.05c-1.74-.59-3.81-.31-5.11-2l.08,0c-4.21-1.64-8.51-3.09-12-6.12l.08.06c-4.77-2.42-9.38-5.07-13-9.15l.08.07c-7.42-5.11-13.27-12-19.26-18.49a200.13,200.13,0,0,1-22.58-29.35,25.4,25.4,0,0,1-3.22-6.12l.06.09c-5.61-8.55-9.31-18.09-14-27.11l.06.08c-2.62-2.63-4.2-6-6.05-9.09l.06.06a232.07,232.07,0,0,0-24.09-22.08l.07.07C119.42,679.24,117.05,676.76,114.32,674.81Z"/><path class="cls-1" d="M566.84,39.26c-9.71-6.09-19.47-12-30.57-15.43-16.33-5-32.56-5.13-48.41,1.09C481,27.61,476,26.71,470,22.61c-16.88-11.6-35.72-20-56.26-18.95C389.82,4.87,365.92,5.26,342,6c-19.63.64-38.09,7.23-55.51,16.38-4.7,2.47-9.49,4.79-14.13,7.38-10,5.58-20.32,6.76-31.24,3.13-5.52-1.82-11.16-3.27-16.72-5-16.33-5-32.28-3.95-47.58,3.58-14.18,7-28.22,14.26-41,23.66a69.37,69.37,0,0,0-17.4,17.74c-7.88,12-7.86,25.12-4.84,38.49a73.37,73.37,0,0,1,1.15,22.32c-.49,6-2.51,10.86-8.18,13.66,2-4.09.25-9.83,5.57-12.44,1.09-.54.76-1.31.08-2s-1.3-2.19-.77-2.69c6.6-6.24-2.62-10.71-1.9-16.7.57-4.82-3.78-10.05.42-15.2.6-.74.55-2.34.27-3.39-4.15-15.71,3.46-23.37,11.94-33.49,5.43-6.47,12.35-10.88,19-15.77A70.44,70.44,0,0,1,153.24,39c6.89-3.24,13.1-7.83,20.15-10.81,4.83-2,9.32-4.91,14.75-5.48,2.33-.24,4.44-1,6.55.82,1.3,1.12,2.47.78,3.65-.85,2.53-3.47,9.45-3.64,11.75-.25,1.46,2.17,2.66,2.31,4.21.56,2.51-2.85,4.72-2.05,6.51.57,2.23,3.28,5.13,3.62,8.62,2.77,4.38-1.05,8.19-1,11.33,3.4,1.85,2.56,5.07,4.28,8.67,2.05a4.2,4.2,0,0,1,1.89-.51c6.92-.41,8.39-.82,14.87-4,12.05-5.93,23.9-12.26,36.42-17.18,1.24-.49,2.81-1.63,3.7-1.24,5.12,2.23,8.19-1.34,12-3.48a14.39,14.39,0,0,1,9.58-1.88,9.05,9.05,0,0,0,6.27-.91c2.81-1.77,5.18-2,7.36.86a2.71,2.71,0,0,0,2.75.79c6.64-1,13.83,2.44,20.05-2.67,1.15-.94,3.56-.75,5.12.7,4.34,4,7.9,3.05,13.41,1.08,3.41-1.22,7.5-4.1,11.86-2,.3.14.66.56.84.48,7.72-3.28,15.24,2.77,22.93.51.62-.18,1.44.14,2-.14,10.14-5.21,18.85.67,27.67,3.94,6.54,2.42,13.18,5,18.91,9.25.92.68,2.32.8,3.07,1.59,6.07,6.4,12.63,5.63,19.84,2.08,3.05-1.5,6.66-1.88,10-2.66a3.11,3.11,0,0,1,2.4.28c5.42,5.2,12.06,1.58,18,2.61a1.47,1.47,0,0,0,1-.09c8.32-5.47,15.09.15,22.17,3.17,1.66.71,3.13,1.7,5,2,3.11.49,6.22,1.22,7.67,4.64a2.36,2.36,0,0,0,1.43,1.17c10.22,2.59,17.64,9.29,24.41,16.81,2.29,2.54,5.37,3.7,8,5.62,3.36,2.48,5.62,6,9,8.35,1,.72.95,2.06.94,3.24-2.36.43-4-.62-5.63-2.26A171,171,0,0,0,566.84,39.26Z"/><path class="cls-1" d="M106.56,147.38C102.7,153,97,156.49,91.37,160c-4.36,2.74-8.86,5.29-13,8.34-21.32,15.75-27.48,33.8-20.59,59.42,2.46,9.13,5.33,18.15,4.94,27.83-.43,10.67-3.62,20.55-7.91,30.13-3.12,7-6.49,13.83-9.92,20.65A105.82,105.82,0,0,0,34,363.94c.79,9.31.59,18.26-5.35,26.12a148.67,148.67,0,0,0-11,19.17l.06-.09c-2.37,2.16-3.27,5.08-4.15,8l.06-.09c-1.94,1.13-1.41,3.32-2.16,5v0c-4.11,7.4-5.56,15.55-6.54,23.81-.25,2.14,0,4.33-1.52,6.15-4.31-.92-3.8-4.6-2.3-6.51,1.7-2.19,1.36-4,1.38-6.19,0-4.88,2-9.53,3.33-14,2.79-9.45,7.39-18.22,13-26.65,4.35-6.57,9.16-13.42,10.64-21.64.14-.8.24-1.9.78-2.3,3.25-2.4,4.78-4.36-.08-6.91-1.44-.75-1-3.27.2-5,2.93-4.2,3-13.41.13-17.39-1.56-2.2-1.65-4.26.55-6.13.74-.64,2.15-1.57,2-2-1.62-5,1.77-9.48,1.43-14.18-.45-6.3,3-11.19,5.29-16.36,2.64-5.86,5.83-11.5,8.07-17.55,2-5.35,6.91-9.15,7.44-15.31a60.12,60.12,0,0,1,3-13.28c.86-2.66,4.67-4,3.18-7.65-.24-.57.19-1.73-.12-1.92-5.33-3.19-3.13-9.4-5.54-13.91a23,23,0,0,1-1.95-18.41c1.68-5.41,2-12.06-.72-17.94-1.71-3.69-.26-7.58,1.07-10.51,2.79-6.17,5.46-12.87,12.47-16a5.06,5.06,0,0,0,3.11-3.65c.19-.93.74-2.35,1.41-2.53,4.59-1.27,6.67-5.94,10.58-7.79,7-3.34,13.14-8,19-12.91C102.93,145.52,104.63,146.23,106.56,147.38Z"/><path class="cls-1" d="M862.89,316c2.07,1.05,4.73,1.85,4.91,4.49.36,5.4,3.55,10,4.1,15.25.31,3.09,3.2,4.88,3.81,7.92,2.51,12.42,8.95,23.2,14.51,34.36,5.73,11.52,9.3,24,15.31,35.4,1.67,3.18,4.23,5.43,6.49,8,6.83,7.86,16.05,12.77,24.29,18.78,6.71,4.91,14,9.2,20.29,14.66a134.06,134.06,0,0,1,18,18.78c1.67,2.13,1.13,4.77,1.18,7.24l-.65.21c-4.42-4.23-6.57-10.33-11.65-14l.07.07c-3.06-5.3-8.29-8.34-13-11.83-8.25-6.19-16.35-12.62-25.08-18.16l.07.07c-4-4.41-9.24-7.39-14-10.87a24.72,24.72,0,0,1-6-6.34l0,.11c-3.12-8.78-7.66-16.88-12.1-25l.06.08c-1.77-6.43-5.37-12.05-8.27-18-1.5-3.07-2.33-6.53-4.64-9.2l0,.08c-.8-1.62-.29-3.83-2.2-5l.06.09a56.35,56.35,0,0,0-5-12.12l.06.09c-3.41-11-7.74-21.77-10.85-32.91C862.58,317.51,862.26,316.77,862.89,316Z"/><path class="cls-1" d="M1027.79,698.79c3,1.23,4.81,3.3,6.57,6.22,3.84,6.38,9.64,11.27,15.8,15.36,10,6.66,20,13.62,28.8,21.64,6.84,6.23,13.68,12.81,20.79,18.5,8.71,7,14.51,16,21.75,24,5.7,6.24,13.18,10.65,17.69,18.22,1.45,2.43,5.55,3.83,8.37,5.82,2.34,1.66,3.47,3.43,3.16,6.2-4.22-.26-6.45-3.81-9.27-6.07A153.69,153.69,0,0,1,1118.19,785c-9-11.17-19-21.52-30.72-30l.08.07a128.33,128.33,0,0,0-26-21.12l.08.07c-6.53-5.32-13.68-9.84-20-15.41-6.11-5.37-11.41-11.42-14.24-19.25Z"/><path class="cls-1" d="M1270.29,934.78c-.8-.28-.82-.94-.79-1.62-1.2-3.91-3.74-7-6.34-10-6.88-7.83-14-15.39-22.79-21.23l.06.07c-2.22-2.18-4-4.9-7-6.11l.08.08c-8-8-16.88-14.88-25.64-21.94-9.37-7.55-17.29-16.51-25.36-25.34a1.61,1.61,0,0,1-.2-1.43l.42-.57c3.61.26,6.54,1.37,7.08,5.55.16,1.3,1.1,1.91,2.14,2.55a41.39,41.39,0,0,1,12.23,12c1.93,2.76,5.7,4.46,8.62,6.64,10.89,8.15,21,17.16,31.22,26.06,3.63,3.16,6.89,6.8,11.09,9.65,7.94,5.38,13.45,13.64,18.34,22,1.14,1.94,2.13,4-.76,5.43C1271.58,936.4,1271.28,935.15,1270.29,934.78Z"/><path class="cls-1" d="M805.92,191.09c1.72-.16,2.41.7,3.31,2.21a155.78,155.78,0,0,0,15.54,22.43c8.44,9.85,15.94,20.58,20.41,32.89,1.73,4.77,4.34,9,6.26,13.63,1.3,3.12-1.11,5.82-.55,8.79-3.18-2.15-2.77-6.08-4.42-9-.68-1.22-.53-2.87-1.73-3.91l0,.09a32.39,32.39,0,0,0-5.16-12l.06.1c-.34-1.54-.42-3.21-2.09-4.07l.07.09a16.13,16.13,0,0,0-4-7.1l.07.09c-1.82-4.32-4.84-7.78-8-11.15l.07.08a123.15,123.15,0,0,0-11.09-14.05l.07.08a36.48,36.48,0,0,0-5-8.1l0,.09c-.43-1.49-.62-3.1-2-4.11l0,.09c-.49-1.45-.52-3.1-1.86-4.17h0A2.42,2.42,0,0,1,805.92,191.09Z"/><path class="cls-2" d="M519.21,897.48c6.57,5.31,13,10.79,19.72,15.9,20.12,15.28,43.12,23,68,26.34,18,2.38,36.05,3.61,54.14,4.78,10.48.67,20.68,3.27,30.71,6.31a26.89,26.89,0,0,1,12.55,7.71,5.31,5.31,0,0,1-3.74-1.14c-12.51-8.53-27-10.39-41.44-11.61-24-2-48.16-2.77-71.74-8.14a130.41,130.41,0,0,1-57.47-29.56C526.11,904.75,521.75,902.05,519.21,897.48Z"/><path class="cls-1" d="M656,62.16c.12-1.43,1.08-2.38,2.3-1.91,3.8,1.48,8-1.36,12.06,2.31,2.23,2,7.3,1.42,10.92,3.41,6.05,3.32,12.8,5.75,17.75,10.47,4.53,4.31,10.66,7.19,13.75,12.45,2.51,4.28,6.24,6.73,9.45,10,2,2.08,1.81,4.86,2.73,7.28-4.25-1.25-6.23-5-9-8-7.42-8-14.5-16.41-24.31-21.75l.08.08a15.83,15.83,0,0,0-6.93-4.24l.08,0c-1-1.34-2.63-1.51-4.06-2.05l.07,0c-6.27-3.89-13.39-5.16-20.44-6.59C658.9,63.37,657.19,63.62,656,62.16Z"/><path class="cls-2" d="M361.31,868.45c15.79,6.3,32,11,49,12.67a340.42,340.42,0,0,0,40.38,1.66,67.73,67.73,0,0,1,26.75,5c13,5.19,26.34,9.23,40.57,9.1.42,0,.85.41,1.27.63-15.55,1.79-29.64-3.5-43.75-8.86-6.82-2.58-13.81-4.77-21.16-4.92-9-.2-18,.31-27-.14-13.37-.67-26.8-1.46-39.8-4.94-8.11-2.17-16.23-4.44-23.93-7.93C362.52,870.22,361.57,869.75,361.31,868.45Z"/><path class="cls-1" d="M742,117.13c3.52-2.46,6.92-.67,9.72,1,11.3,6.77,23.4,12.48,31.22,24,1.83,2.68,5.12,4.42,7,7.53a13.36,13.36,0,0,1,2.07,8.44l-.69.19c-5.51-6.56-9.82-14.08-16.37-19.81-9.31-8.13-19.44-14.89-31.09-19.23l.09,0C743.35,118.47,742.22,118.18,742,117.13Z"/><path class="cls-2" d="M1087.47,755c5.1,1.23,8,5.55,11.58,8.71,11.84,10.38,21,23.34,31.9,34.59a121.72,121.72,0,0,0,19.77,16.41h1c3.89-.66,6.75,1,9,4a2.06,2.06,0,0,0,2,1c4,3.82,8.07,7.58,10,13l1,1a78.67,78.67,0,0,0,5,8c.92,1.23,2.54,2.48.71,4.23-3.31-2.61-5.24-6.11-7.3-9.78-4.81-8.54-10.22-16.77-20.68-19.62a16.71,16.71,0,0,1-5.5-3.3c-9.32-7.27-18.21-15-25.57-24.34C1110.57,776.45,1099.11,765.65,1087.47,755Z"/><path class="cls-2" d="M29.6,520.63a230.32,230.32,0,0,0,34.53,33c7.37,5.82,10.54,13.17,11.29,22.29,1.51,18.36,2.52,36.81,7.18,54.77-4.31-3.41-3.34-8.63-4.15-13.08-3-16.56-2.34-33.58-6-50.09-1-4.45-3.52-7.69-6.9-10.57-11.74-10-23.63-19.81-33.68-31.58C30.76,524.06,29.15,522.78,29.6,520.63Z"/><path class="cls-2" d="M656,62.16c7.55,1.75,15.4,2.4,22.5,5.94,1.07.54,2,1,2.43,2.18-20.27-9-41.52-7.45-62.77-5.88-1.33.1-2.67.13-4,.35-10.3,1.69-19.15.36-26.77-8.3-5.85-6.62-13.65-11.52-20.58-17.19,6.22,1.56,10.33,6.37,14.82,10.29,4.81,4.2,10.71,7.21,14.38,12.77.67,1,2.63,1.19,4,1.75h8c1.86-1.25,3.74-2.29,6-.91L624,63c1.86-1.22,3.75-2.26,6-.88Z"/><path class="cls-2" d="M844.74,258.12c3.65,3.54,3.62,8.84,6.15,12.92v1c.74,1.29,1.79,2.44,2.18,3.9,3.42,12.66,7.47,25.15,9.82,38.07v2c3.42,10.46,6.82,20.92,10.27,31.37a6.85,6.85,0,0,1,.5,3.86c-6.53-14.68-11.09-30.05-15.27-45.5C854.07,289.8,849.66,273.89,844.74,258.12Z"/><path class="cls-1" d="M862.89,314c-4.25-9.82-6.26-20.31-8.88-30.6-1-3.82-3-7.34-3.12-11.37,3.19,1.21,4.78,3.21,5.27,6.9,1.25,9.28,5.08,17.95,7.19,27.05C864,308.68,864.72,311.44,862.89,314Z"/><path class="cls-2" d="M241.33,809.55a235.64,235.64,0,0,0,50.14,10.13c4,.4,7.23,2.45,10,5.06,6.7,6.2,13.26,12.53,19.88,18.81-4.74-1.22-7.29-5.41-10.92-8.14a30.68,30.68,0,0,1-5.29-5.27c-6-7.48-14.13-9.84-23.22-10.45a147.59,147.59,0,0,1-37.72-7.8C242.93,811.44,241.72,811.06,241.33,809.55Z"/><path class="cls-1" d="M992.81,562.87c4.63,1,5.5,5.78,6.34,8.69,2.59,9.05,7.67,17.36,8.37,27,.15,1.93,1.57,4.44-1.72,5.33-2.63-5.85-3.34-12.28-5.7-18.23-2.46-6.22-4.13-12.77-7.57-18.6l.06.1c-.17-1.22-.69-2.42-.27-3.68Z"/><path class="cls-1" d="M1283.64,969.64c3.24,1.77,6,8.4,4.41,11.7-.87,1.81-1.34,2.89.61,4,.38.22.86,1,.75,1.19-3,4,2.06,7.49.68,11.55-.86,2.51.64,5.15,1.49,7.62s1,4.81-.94,6.89c-3.08-2.31-2.63-6-3.16-9.1-1.75-10.28-2.5-20.71-4.27-31A3.53,3.53,0,0,1,1283.64,969.64Z"/><path class="cls-2" d="M166.49,738.53a253.37,253.37,0,0,0,33.34,42.53c3.82,3.89,7.81,7.63,11.72,11.43-4.5-.35-6.45-4.34-9.16-6.93a218,218,0,0,1-27.71-32.2C171.48,748.83,167,744.69,166.49,738.53Z"/><path class="cls-1" d="M791.93,158.11c5.7.22,6.28,5.55,7.07,8.89,1.43,5.95,5.25,10.59,7.14,16.21.87,2.59,1.33,4.62-.22,6.88-2.48-.79-2.55-3.24-3.45-5.09-.61-1.25-.42-2.88-1.79-3.78l.06.1c-1.41-5.78-4.07-11-7-16.13l0,.09c-.51-1.45-.5-3.18-2.16-4l.06.09C791.4,160.26,791,159.13,791.93,158.11Z"/><path class="cls-2" d="M989.51,559.07c-2.83-7-3-14.52-3.36-21.89-.86-16.74-2.29-33.33-8.6-49.1l2.27.83c4.2,7.8,6.89,16,6,25,0,1,0,2,0,3,1.33,1.83,2.37,3.72,1,6l.09,9c1.25,1.85,2.3,3.74.91,6q0,3,0,6C990.4,548.72,992.69,553.59,989.51,559.07Z"/><path class="cls-2" d="M1283.64,969.64c2.61,14.28,2.29,29,7,43v1c1.2,1.91,3.22,3.71.87,6.12-3.94-7.5-4.92-15.75-5.86-24-1.75-15.18-3.71-30.3-8.17-45,2.37-.74,2.68,1,3.19,2.59,1.46,4.65,3,9.28,3,14.25Z"/><path class="cls-2" d="M3.38,451.94c1.39-9.27,1.9-18.71,5.93-27.42.52-1.11.95-2.09,2.13-2.54-2.37,8.23-5.08,16.35-6.17,24.94-1.77,13.82,1.34,26.9,5.28,39.92-4.24-4.75-5-10.87-6-16.69C3.6,464.17,3.73,458,3.38,451.94Z"/><path class="cls-1" d="M1283.64,967.64c-1.8-3.34-2.12-7.09-3-10.68-.57-2.25-.22-5.05-3.12-6.16l0,0c-.67-2.81-1-5.76-3.17-8l.07.07c-.16-1.11-.61-2.24.25-3.27,3.37.76,7.93,8.16,7.47,12.73-.16,1.57-.29,2.78.74,4.08C1285.65,960,1286.26,963.71,1283.64,967.64Z"/><path class="cls-1" d="M1291.51,1019.73c.57-2.16-.55-4.08-.87-6.12,3.67,1.07,4.78,3.95,5.77,7.31,1.44,4.87,3.7,9.5,5.07,14.38.45,1.6,1.45,4.5-1.85,5.29-2.24-3.18-2.34-7.1-3.67-10.59-.68-1.79-.87-3.93-2.58-5.25l.06.09c-.53-1.77-.44-3.77-2-5.16Z"/><path class="cls-2" d="M691.7,76.41c5.32.42,8.1,4.77,11.69,7.75,7.93,6.57,13.65,15.36,21.58,22l1,1a55.88,55.88,0,0,1,7,4.64c1.1.83,2.73,1.51,1.94,3.46-5.34-1.49-9.16-5.19-12.69-9.13C712.7,95.5,703.22,84.92,691.7,76.41Z"/><path class="cls-1" d="M1001.81,638.83c3.72,1.3,5.67,3.76,5,7.85-.56,3.38,2.43,5.21,3.59,7.81a24.55,24.55,0,0,1,2.41,12.32c-3.6.22-1.86-4-4.14-4.93l0,.08c-2-5.34-3.26-11-6.17-16l.06.1C1003,643.59,1000.39,641.42,1001.81,638.83Z"/><path class="cls-2" d="M1293.38,1024.75c3.86,2.68,3.19,7.5,5.17,11.09.75,1.37.74,3.16,1.08,4.75l0,5a18.94,18.94,0,0,1,0,16c0,.67,0,1.33,0,2,.6,6.26.06,12.34-3,18-.41,1.76-.66,3.57-1.94,5,.94-6.41,1.68-12.84,2.85-19.2A77.4,77.4,0,0,0,1293.38,1024.75Z"/><path class="cls-2" d="M992.53,567c1.86.29,2,1.84,2.54,3.23,4.25,11,8.64,21.92,10.73,33.6v10c.63,3.52.11,6.32-4.22,6.75,4.07-8.78,3.49-17.65.42-26.53S995.69,576,992.53,567Z"/><path class="cls-1" d="M1001.58,620.59c2.88-1.33,3.06-4.35,4.22-6.75,2.79.5,2.52,2.91,1.66,4.17-3.88,5.7-5.74,11.77-4.85,18.65,0,.35-.52.77-.8,1.17-3.82-3.51-4.91-9.15-2.72-13.08.79-1.42,2.19-2.47,2.5-4.17Z"/><path class="cls-1" d="M985.81,513.9c-1.21-8.52-4-16.67-6-25,3.23.42,4.3,2.89,4.89,5.52,1.11,5,1.75,10,3.68,14.81C989.35,511.61,988.81,513.53,985.81,513.9Z"/><path class="cls-1" d="M1015.84,678.8l-.27-.17.08-.32c-.22-.85-.53-1.71.15-2.5.66.07,1.72-.08,1.91.26,4,7.26,9.47,13.93,10.08,22.72-2.93.41-2.3-3.17-4.28-3.83l.06.09a107.81,107.81,0,0,0-5.91-12.19l0,.08C1017.15,681.53,1017.15,679.87,1015.84,678.8Z"/><path class="cls-1" d="M989.51,559.07c1.08-5.25-1.4-10.09-1.68-15.19,4-.42,3.51,3.37,3.84,5.16.84,4.51,5.07,8.92,1.14,13.83-2.64.06-1.34-3.29-3.3-3.81Z"/><path class="cls-1" d="M1299.64,1061.58l0-16c2.63-.14,4.32,1,3.9,3.72C1302.9,1053.58,1306.28,1059.22,1299.64,1061.58Z"/><path class="cls-1" d="M1172.71,832.71c-3.28-4.37-7.65-7.9-10-13a2.49,2.49,0,0,1,3.18.17,95.69,95.69,0,0,1,7.37,8.37A3.25,3.25,0,0,1,1172.71,832.71Z"/><path class="cls-2" d="M10.51,486.74a244.52,244.52,0,0,0,16.15,29.94,2.2,2.2,0,0,1-2.48-1.2c-4.55-8-9.81-15.67-13.22-24.33A9.11,9.11,0,0,1,10.51,486.74Z"/><path class="cls-1" d="M1296.63,1081.57l3-18c.32.09.8.07.93.27C1303.59,1068.45,1301.36,1078.43,1296.63,1081.57Z"/><path class="cls-2" d="M122.53,680.48a87.49,87.49,0,0,1,24.09,22.08c-1.86-.17-2.74-1.73-3.87-2.86-5.61-5.56-11-11.31-17.65-15.75C123.91,683.16,122.68,682.16,122.53,680.48Z"/><path class="cls-1" d="M1179.45,845.92c.47-2-1.11-2.86-2.1-4.09-1.92-2.38-4.13-4.65-3.64-8.12,5.71,2.46,7.07,7.92,9,13-1.31.69-2.1-.81-3.25-.79Z"/><path class="cls-2" d="M152.55,711.51c5.32,8.7,9.26,18.11,14,27.11-3.28-1.18-3.69-4.56-4.86-7.06C158.58,724.91,154.24,718.8,152.55,711.51Z"/><path class="cls-1" d="M734.88,115.23c-2.15-3.6-7.11-4.11-8.91-8.1,5.65.52,10.14,2.92,13,8-1.35,1.06-2.74.58-4.12.08Z"/><path class="cls-2" d="M1001.59,620.58c0,.49.2,1.16,0,1.43-5,5.37-2.79,10.6.26,15.82v1c-.18,2.46,1.64,4.7.78,7.24-2.51-5.33-3.87-11.05-5.66-16.63C995.49,625,999.84,623.43,1001.59,620.58Z"/><path class="cls-2" d="M82.54,630.59c3.26,8.92,7.93,17.11,13.08,25-5.93-4.22-8.22-10.87-11.13-17C83.34,636.15,81.6,633.63,82.54,630.59Z"/><path class="cls-2" d="M95.56,655.55l17.65,18.26C105.57,669.42,99.07,663.93,95.56,655.55Z"/><path class="cls-1" d="M1160.71,818.72l-9-4c.75-3.06,3.32-2.48,4.62-1.39C1158,814.76,1162.8,814.18,1160.71,818.72Z"/><path class="cls-2" d="M1015.8,675.81l-.15,2.5a79.83,79.83,0,0,1-7-16.43c2.72.52,1.6,4.26,4.14,4.93a14.9,14.9,0,0,1,3,8Z"/><path class="cls-2" d="M211.47,792.42l13,9.15C218.94,800.22,214.31,797.59,211.47,792.42Z"/><path class="cls-2" d="M339.33,856.45l14,8.1A23.05,23.05,0,0,1,339.33,856.45Z"/><path class="cls-1" d="M1015.8,674.81c-1.42-2.51-3.44-4.79-3-8C1017.42,668.12,1018.19,670.87,1015.8,674.81Z"/><path class="cls-1" d="M986.81,522.89c-.32-2-1.36-3.88-1-6,2,0,3.75.3,3.91,2.76C989.87,521.68,988.82,522.75,986.81,522.89Z"/><path class="cls-1" d="M614,63.16c-2,.3-3.88,1.41-6,.91,0-2,.36-3.7,2.8-3.84C612.84,60.12,613.89,61.17,614,63.16Z"/><path class="cls-1" d="M987.81,537.89c-.3-2-1.41-3.88-.91-6,2,0,3.7.35,3.84,2.79C990.85,536.69,989.8,537.74,987.81,537.89Z"/><path class="cls-1" d="M630,62.16c-2,.29-3.87,1.43-6,.88,0-2,.38-3.68,2.8-3.81C628.84,59.13,629.88,60.18,630,62.16Z"/><path class="cls-2" d="M800.68,181.22c3.47,1.94,2.58,6.45,5.24,8.87v4A50.12,50.12,0,0,1,800.68,181.22Z"/><path class="cls-2" d="M224.38,801.51l12,6.12C231.63,807.07,227.27,805.74,224.38,801.51Z"/><path class="cls-2" d="M321.33,843.48a52.94,52.94,0,0,1,9.1,7C325.83,850.2,323.53,846.9,321.33,843.48Z"/><path class="cls-2" d="M146.56,702.5a25.13,25.13,0,0,1,6.05,9.09C148.71,709.81,147.62,706.17,146.56,702.5Z"/><path class="cls-2" d="M330.35,850.45a43.82,43.82,0,0,1,9.07,6.07A11.91,11.91,0,0,1,330.35,850.45Z"/><path class="cls-2" d="M734.84,115.21l4.12-.08a3,3,0,0,0,3,2,2.9,2.9,0,0,1,1.91,2.17A33,33,0,0,1,734.84,115.21Z"/><path class="cls-2" d="M114.32,674.81c3.34,1.07,5.82,3.38,8.28,5.74C118.78,680.15,116.39,677.71,114.32,674.81Z"/><path class="cls-1" d="M975.82,480.92c4.2.25,3.36,2.52,2,5-1.05-.25-1.32-1.45-2.23-1.87l.06.08C975.25,483,974.89,481.94,975.82,480.92Z"/><path class="cls-2" d="M1274.65,939.65c-.09,1.09-.17,2.18-.25,3.27l-4.11-8.14a2.81,2.81,0,0,1,2.37,1.87C1273.32,937.65,1274,938.65,1274.65,939.65Z"/><path class="cls-2" d="M26.61,516.62a10.09,10.09,0,0,1,3,4.06C26.8,520.7,26.62,518.72,26.61,516.62Z"/><path class="cls-2" d="M236.31,807.59a11.47,11.47,0,0,1,5.11,2C239.4,809.73,237.25,810.2,236.31,807.59Z"/><path class="cls-2" d="M975.59,484.05a2.74,2.74,0,0,1,2.23,1.87c-.07.74-.15,1.49-.22,2.24A7.64,7.64,0,0,1,975.59,484.05Z"/><path class="cls-2" d="M353.28,864.5a7.24,7.24,0,0,1,4.06,2.08C355.52,866.79,353.88,866.65,353.28,864.5Z"/><path class="cls-2" d="M357.26,866.53a7.37,7.37,0,0,1,4.14,2C359.55,868.83,357.94,868.66,357.26,866.53Z"/><path class="cls-3" d="M551.13,88.09c11.3,10.14,24.71,16,39.34,19.41,9.49,2.2,19.17,1.87,28.83,1.94,10.47.07,21-.26,31.39,1.44a35.67,35.67,0,0,1,20.57,10.34c5.69,5.84,11.23,11.84,16.71,17.87a82.09,82.09,0,0,0,28.69,20.38c1.83.79,3.59,1.75,5.45,2.45,16.62,6.29,27.57,17.76,33.29,34.72a170.72,170.72,0,0,0,33.32,58.08C799,266.49,803,281.4,806.53,296.07c11.42,47.68,29.19,92.86,52,136.14a21.15,21.15,0,0,1,2,4.54c1.89,7.61,6.91,12.67,13.11,17,18.66,12.93,35,28.69,52.2,43.37,9.17,7.81,11,18.57,11.88,29.71,1.15,15.25,1.19,30.64,5.89,45.42,1.16,3.64,2.48,7.23,3.9,10.77,2.28,5.66,4.63,10.9.93,17.27-2.41,4.16-.94,9.41.08,14.19,5.27,24.71,9.94,49.59,19.19,73.23,7.12,18.17,15.46,35.75,27.22,51.47,9,12,20.7,21.15,32.89,29.65A292.83,292.83,0,0,1,1085.4,821c14.32,17.11,31.44,31.11,50.3,43a14.89,14.89,0,0,1,4.42,4c19.83,28.71,45.38,51.84,72.67,73,15.39,11.94,22,27.43,23.81,45.83,2,19.75,4.83,39.28,13.11,57.61,3,6.53,1.25,13.09-.65,19.49-4.64,15.64-13.76,28.73-24.23,40.9a36.1,36.1,0,0,1-14,9.45q-21.93,9-43.35,19.14a70.63,70.63,0,0,1-12.78,4.13,73.34,73.34,0,0,0-32.26,17.18c-5,4.63-10.31,9-15.46,13.43-5.71,5-12.52,6.33-19.64,5-25.11-4.71-47.5-14.39-64.91-34.2q-22.12-25.17-42.3-51.85c-12.34-16.27-27.6-28.84-45-39.63q-36.46-22.58-71.18-48c-19.3-14.12-40.38-24.86-63.76-31.06a90.34,90.34,0,0,1-43.62-25.95,228.48,228.48,0,0,0-24.73-23.24c-16-12.74-35.06-17-54.45-20.61-15.45-2.86-31.22-2-46.76-3.92-15.2-1.84-30.41-3.58-45.17-7.93a74.64,74.64,0,0,1-18.4-8.31c16.38-12.33,32.51-24.34,37-45.69,2.73-6.38,5.2-12.62,5.37-19.92S607,798.51,607,791.22a5.26,5.26,0,0,0-2.51-4.18c-5.53-3.26-11-6.91-17.56-7.57-3.13-.31-5.15-1.05-7-3.65-5.21-7.33-11.67-7.28-17-.1a75.94,75.94,0,0,0-9.5,16.91c-1.49,3.72-1.2,7.53-1.11,11.32a17.2,17.2,0,0,1-3.71,11.1,122,122,0,0,1-22.57,22.44c-1.44,1.13-2.93,2.41-4.72,2.73-5.31,1-10.35,2.28-14.12,6.55-.54.61-1.56.46-2.38.2-9.8-2.62-19-7-28.9-9.37-13.31-3.16-26.82-2-40.26-2.51-15.51-.57-31-1.57-45.76-6.71C372.26,822.22,357,811.92,343.54,799c-7.7-7.37-15.28-14.82-24.78-20-10.87-5.92-22.88-6.63-34.73-8.19a116.47,116.47,0,0,1-27.53-6.65c-12.74-5-21.61-14.69-30.36-24.55a160.4,160.4,0,0,1-26.67-41.34c-10.06-22.54-26.31-39.8-45.85-54.31-2.14-1.59-4.23-3.24-6.46-4.7-14.35-9.4-20.88-22.77-22-39.79-.94-14.06-1.71-28.21-4.68-42.12a63.73,63.73,0,0,0-16.87-31.68c-6.5-6.73-13.84-12.5-21-18.5a98.87,98.87,0,0,1-26.28-34.72c-5.83-12.65-4.72-24.82,1.5-36.9,5-9.75,11.11-18.91,16-28.79,5.84-11.92,9.17-24.39,7.8-37.61-2-19.24,2.11-36.78,11.57-53.62a140.8,140.8,0,0,0,15.4-43c3.3-17.44,1.68-34.4-3.25-51.29-4.27-14.66-5.76-12.86,8-22.51,12-8.4,21.44-19,30.88-30.1,15.33-18.12,15.89-38.82,14.2-60.16-.61-7.65.86-12.41,7.34-16.44,10.19-6.33,20.59-12.21,31.32-17.54,4.54-2.25,9.25-2.21,14.07-.81q11.73,3.38,23.52,6.56c18.86,5.08,36.94,2.54,54.36-5.79,6.45-3.09,12.8-6.39,19.14-9.69,16-8.31,32.79-12.69,50.91-11.52a220.93,220.93,0,0,0,47.3-1.86c14.37-2.17,26.75,3.68,38.36,11.32,8.53,5.62,17.24,10.71,27.46,12.57,5.89.46,11.75.76,17.52,2.46,2.76.81,4.21,1.83,4.79,4.72,2,9.93,7,11.93,15.39,6.3,1-.66,1.95-1.42,3.16-1.22,3.92.63,7.56-.58,11.19-1.7A35.29,35.29,0,0,1,551.13,88.09Z"/><path class="cls-4" d="M504.91,847a4.17,4.17,0,0,0,3.16-2.14,7.5,7.5,0,0,1,5.88-4.2c13.68-1.81,20.83-12.7,29.64-21.22a24.3,24.3,0,0,0,7.59-21.62c-.64-5.14,2.85-9.44,4.93-13.87a59.68,59.68,0,0,1,6.83-10.39c5-6.58,13.57-6.17,17.82,1,1.58,2.65,2.84,3.34,6.25,3.67,7.11.69,13.58,4.32,19.36,8.71a4.6,4.6,0,0,1,1.65,3c.42,7.81,2.94,15.27,2.56,23.32-.34,7.44-1.57,13.95-6.53,19.56-.22-5-.45-10-2.3-14.7-3.53-9-10-14.57-19.75-15.16-9.56-.57-17.6,3.53-20.92,12.38-6.09,16.26-19.75,23.52-33.55,30.9C520.25,850.08,512.56,849.94,504.91,847Z"/><path class="cls-4" d="M551.13,88.09c-1.64-.12-3.44.15-4.89-.43-8.85-3.56-17.32-1.9-26.08.74-4.73,1.43-9.5,1.78-14.25,4.25-6.33,3.29-12.25-1.57-12.69-9.25-.19-3.13-1.08-3.7-4.18-4.4-5.61-1.25-11.15-2.88-16.86-3.75,10.29.84,20.06-1.18,29.58-5,10.71-4.34,20.84-2.28,30.42,3.49A109.54,109.54,0,0,1,551.13,88.09Z"/><path class="cls-2" d="M1179.45,845.92c1.23-.33,2.21.33,3.25.79a4,4,0,0,0,1.17,2.65,292.38,292.38,0,0,0,35.76,33.44c5,3.94,10.64,7.33,13.85,13.18C1214.41,880.44,1194.66,865.63,1179.45,845.92Z"/><path class="cls-2" d="M791.93,158.11l-.24,3.26c-10.86-19.85-28-32.6-47.9-42.11,6,.58,10.77,4,15.66,7,12.47,7.5,23.06,17,30.46,29.79A12.06,12.06,0,0,0,791.93,158.11Z"/><path class="cls-2" d="M1023.51,695c2.4.19,2.21,3.28,4.28,3.83,3.7,9.72,11,16.45,18.71,23,5,4.18,11.15,6.89,15.12,12.29C1045.61,724.23,1031.23,712.85,1023.51,695Z"/><path class="cls-2" d="M925.56,437.21c4.08,0,6.42,3.26,9.14,5.4,8.56,6.72,17.88,12.45,25.94,19.81,1.43,1.3,3.38,2.32,3,4.78-10.38-10-22.45-17.88-34-26.45C928.19,439.68,926.91,438.4,925.56,437.21Z"/><path class="cls-2" d="M1240.37,902c3.79-.06,5.73,3.16,8,5.18a141.3,141.3,0,0,1,18.43,19.29c1.47,1.93,2.85,4.07,2.72,6.74C1262,920.69,1250.92,911.57,1240.37,902Z"/><path class="cls-2" d="M1061.54,734c5.39.57,8.37,5,12.21,7.91,5.08,3.85,10.59,7.37,13.8,13.21Z"/><path class="cls-2" d="M880.72,368.06c4.86,5.48,6.94,12.49,10.16,18.86,1.29,2.55,3.51,5,2.75,8.31A204,204,0,0,1,880.72,368.06Z"/><path class="cls-2" d="M893.57,395.15c3.49,1.72,3.9,5.53,5.24,8.48,2.46,5.43,6.89,10.09,6.86,16.55Z"/><path class="cls-2" d="M905.63,420.07c5.08,5.54,11.72,9.08,17.49,13.74,1.11.9,2.39,1.8,2.51,3.47q-8.86-6.27-17.73-12.55A5.09,5.09,0,0,1,905.63,420.07Z"/><path class="cls-2" d="M17.62,409.23c2-7.35,6-13.56,11-19.17C25.66,396.85,21.68,403.06,17.62,409.23Z"/><path class="cls-2" d="M975.82,480.92c-.06,1.07-.12,2.14-.17,3.21l-12.13-17c4.21,1.84,6.12,5.78,8.61,9.24C973.26,477.94,973.83,480,975.82,480.92Z"/><path class="cls-2" d="M814.69,210.2a35.38,35.38,0,0,1,11.09,14.05A72,72,0,0,1,814.69,210.2Z"/><path class="cls-2" d="M793.75,165.19a26.12,26.12,0,0,1,7,16.12Z"/><path class="cls-2" d="M1002.53,646c4.16,4.52,5.21,10.24,6.17,16A74.93,74.93,0,0,1,1002.53,646Z"/><path class="cls-2" d="M1017.66,682.86c3.05,3.54,5.38,7.43,5.91,12.19A45,45,0,0,1,1017.66,682.86Z"/><path class="cls-2" d="M825.71,224.17c4,2.73,7,6.21,8,11.15Z"/><path class="cls-2" d="M873.6,351.15a17.6,17.6,0,0,1,5,12.11A42.85,42.85,0,0,1,873.6,351.15Z"/><path class="cls-2" d="M839.62,246.21c3.72,3.14,5.18,7.25,5.16,12Z"/><path class="cls-2" d="M989.51,559.06c2.48.07,1.82,2.86,3.3,3.81-.07,1.42-.15,2.83-.22,4.25A25.16,25.16,0,0,1,989.51,559.06Z"/><path class="cls-2" d="M1233.4,895.91c3.8.37,5.49,3.15,7,6.11A31.07,31.07,0,0,1,1233.4,895.91Z"/><path class="cls-2" d="M809.72,202.18a11,11,0,0,1,5,8.1A21.45,21.45,0,0,1,809.72,202.18Z"/><path class="cls-2" d="M1274.33,942.85c3.57,1.66,3.14,4.91,3.17,8Q1275.93,946.84,1274.33,942.85Z"/><path class="cls-2" d="M833.62,235.23c2.63,1.64,4.5,3.71,4,7.1Z"/><path class="cls-2" d="M13.53,417.15c.07-3.35.85-6.34,4.15-8A31.43,31.43,0,0,1,13.53,417.15Z"/><path class="cls-2" d="M684.85,72.25c3.26-.14,5.44,1.48,6.93,4.24Z"/><path class="cls-2" d="M878.56,363.18c2.94.67,2.23,3,2.2,5A10.43,10.43,0,0,1,878.56,363.18Z"/><path class="cls-2" d="M1291.49,1019.68c2.65,1,2.17,3.11,2,5.16A10.21,10.21,0,0,1,1291.49,1019.68Z"/><path class="cls-2" d="M11.43,422c0-2-.53-4.17,2.16-5A11.1,11.1,0,0,1,11.43,422Z"/><path class="cls-2" d="M1015.84,678.8c2.71.44,1.78,2.52,1.86,4.14A7.31,7.31,0,0,1,1015.84,678.8Z"/><path class="cls-2" d="M805.93,194.08c2.75.44,1.82,2.52,1.86,4.17A7,7,0,0,1,805.93,194.08Z"/><path class="cls-2" d="M807.74,198.16c2.14.65,2.29,2.28,2,4.11A6.86,6.86,0,0,1,807.74,198.16Z"/><path class="cls-2" d="M791.63,161.28c2.32.46,2.37,2.16,2.16,4A8.14,8.14,0,0,1,791.63,161.28Z"/><path class="cls-2" d="M680.87,70.24c1.79-.19,3.39,0,4.06,2.05A7.69,7.69,0,0,1,680.87,70.24Z"/><path class="cls-2" d="M837.59,242.24c2.38.49,2.41,2.19,2.09,4.07Z"/><path class="cls-5" d="M372.67,199.83c4-4.4,8.72-6.52,13.93-3.87,7.93,4,6.15,12,6.72,19.36a32.35,32.35,0,0,1,5.37-2.13c7.75-1.55,12.91,2.1,13.32,10,.29,5.59.76,11.25-.63,16.86-1.11,4.52,2.78,9.65,7.13,10,6.62.47,10,3.46,11.5,10.13,1.82,8.18,4.86,10.72,13.1,10.85,7.14.11,10.75,5.05,13.11,10.58a164.33,164.33,0,0,1,6.61,20.31,11.72,11.72,0,0,0,3.11,5.46c2.54,2.54,4.26,5.51,4.18,9.26a7.72,7.72,0,0,0,.88,3.81c1.65,3.27,2.06,6.58-.53,9.7a9.86,9.86,0,0,1-10.7,3.56c-6.08-1.52-10.71-5.34-14.27-10.25-1.65-2.28-2.35-1.86-4.06-.33-7.72,6.92-16.11,4.38-18.55-5.62-.81-3.29-1.32-6.37-5.53-7.13-1.18-.22-2.26-1.91-3.06-3.13-1.92-2.95-4.51-3.59-7.76-2.9-8.17,1.73-10.85.5-14.31-6.73-.66-1.37-1.07-2.19-2.86-1.83-5.86,1.15-10.51-.59-13.18-6.23-.58-1.2-1.22-1.4-2.31-.86-5.83,2.9-9-.78-11.75-5a6.41,6.41,0,0,0-4.17-3c-5.78-1.55-9.27-6.27-8.54-12.26.36-3,.05-3.95-3-4.67-5.3-1.26-7.62-5.58-6.63-11,2.2-12.06,4.32-24.13,3.41-36.49a10.21,10.21,0,0,0-.05-2.48c-3.23-9.21,1.18-15.28,7.75-21.14,8.35-7.45,17.16-5.67,21,4.87C372.12,198.18,372.32,198.79,372.67,199.83Z"/><path class="cls-6" d="M435.33,139.41c-7.49-1.07-14.9.42-22.23,1.13-9.73.93-19.44,2.16-29.21,2.55-4.08.17-8,1.68-12.31.2-5.31-1.84-8.74-5.93-7.78-10.47,1.06-5,4.94-7,11.13-6,6.65,1.11,13.26-.46,19.8-1.23,15.8-1.87,31.54-4.22,47.49-4.58,4.3-.1,8.61-.87,12.9-.8,7.55.14,11.23,4.23,10.81,11.74a4.37,4.37,0,0,0,1.09,3.49c3.81,4.64,8.57,7.92,13.26,11.55,7.46,5.79,15.8,7.72,23.93,11a22.1,22.1,0,0,1,4.09,1.81c3.08,2,5.69,3.19,9.86,1.56,5.13-2,9.51,1.08,10.8,7.35,1.2,5.84,3.33,10.25,9.3,12.09a.68.68,0,0,1,.39.3c5.44,8.94,15.09,15.42,14.6,27.81-.39,9.71,3.84,18.36,9.44,26.18a22.19,22.19,0,0,1,3.88,8c1.81,8.27,4.41,16.33,6.42,24.51,2.36,9.63,3.38,19.57,5.14,29.34,1.32,7.34,3.22,14.58,3,22.13-.14,6-3.22,10.38-7.95,10.85-4.47.45-8.84-3.07-9.88-8.64-2.12-11.23-4.6-22.38-6.37-33.69-2.14-13.6-6.11-26.84-10.2-40a9.46,9.46,0,0,0-3.48-4.77c-5.63-4.19-7-10.2-7.22-16.72,0-1.33,0-2.68-.19-4-.66-4.88-2.33-8.29-8.37-8.35a24.19,24.19,0,0,1-11-2.92c-4.85-2.58-7.68-6.47-7.43-12a15.43,15.43,0,0,0-3.45-11A13.73,13.73,0,0,1,503,182c-1-5.46-4.88-7.6-9.61-8.82-3.05-.78-6.18-1.25-9.22-2.06-3.88-1-7.54-2.48-9.91-6.13-1.9-2.92-5-3.76-8.26-3.8-3.85,0-7.47-1.22-9.93-3.94s-4.57-3.21-8.16-2.41C438.27,157,433.37,150.8,435.33,139.41Z"/><path class="cls-5" d="M215.25,461c-.25-4.45.11-8.87-.7-13.38-.71-4,1.59-7.48,5.63-9,2.16-.8,2.87-2.09,3.5-4.18,1.36-4.57,2.52-9.29,6.32-12.77s7.94-3.95,11.82-.52a6.81,6.81,0,0,0,5.44,1.83c2.06-.17,4.51-.1,5.6,1.48,5.49,7.9,15.09,14,11.54,26.05-.5,1.67-.87,3.75,2.22,4.54,6.58,1.66,8.8,7.2,5.45,13.06-1.13,2-2.05,4.4-4.23,5.43-4.68,2.2-2.71,4.34-.09,6.39,5.22,4.07,10.53,7.91,14.71,13.25,6.87,8.78,8.64,19.27,10.56,29.63,1.12,6,4.11,11.16,6.06,16.76A3.8,3.8,0,0,0,302,541.9c11.84,3.35,17.83,11.87,18.9,23.53a21.66,21.66,0,0,1-5.7,17c-3.66,4-8,4.84-13,3.49-4.13,1.14-5.51-2.17-7-4.7-2-3.29-2.63-7.13-3.19-10.91a10.67,10.67,0,0,0-2.94-8.17,27.72,27.72,0,0,1-6-9c-1.6-3.81-4.27-5.24-8.31-4.3a12.7,12.7,0,0,1-5.42.08,10.71,10.71,0,0,1-7-5.74,14.61,14.61,0,0,1-1.22-6.82c.63-8.16-3.8-12.33-12.05-16.36a29.31,29.31,0,0,0-2.82-1c-.93-.39-2-.84-2.38-1.69-3-7-9.11-12-11.77-19.17-2.65-5.18-5.71-10-10.6-13.44a12.62,12.62,0,0,1-5.26-9.26c-.26-2-.1-4-.94-5.88C214.45,466.66,213,463.78,215.25,461Z"/><path class="cls-4" d="M433.11,615.51c.74-5.69-.64-12.26-1.09-18.88-.32-4.65,1.89-8,5.93-9.37,4.37-1.52,8.31-.19,11.6,3.55,5.75,6.51,8.43,14.19,9.4,22.58.28,2.48,1.06,3.58,3.65,3.41,5.42-.35,10.29,1.8,14.41,4.8,5.14,3.75,10.74,4.76,16.76,5.28s11.15,2.33,13.34,8.62c.91,2.63,2.48,2.37,4.2,1.14,2.3-1.64,4.48-3.43,6.66-5.23,5.45-4.48,12.85-3.65,16.27,2.4a23.43,23.43,0,0,0,5.13,5.82c7.5,6.84,11.77,15.49,13.58,25.34.48,2.62,1.42,4,4.13,3.75,5.66-.61,9.7,2.5,11.68,6.95,3.45,7.78,10.19,10,17.23,12.08,4,1.19,8.09,1.9,12,3.22,5.14,1.74,7.88,6,7,10.72s-4.47,6.3-8.94,7.22c-5.3,1.08-10.14,1.45-14.55-2.34a3.63,3.63,0,0,0-3.34-.57c-8.64,2.43-14.12-2.14-18.2-8.74-3-4.91-5.87-8.55-12.56-8.84-5.81-.26-8.93-5.38-10.41-10.8-1-3.6-2.68-5.09-6.62-4.9-5.21.25-8.6-3.08-10.94-7.41-1.18-2.18-2-4.33-5-1.9a2.83,2.83,0,0,1-2.39.36c-9.91-3.78-21.88-.49-30.43-8.87-1.44-1.42-3.43-1.49-5.12-1.66-8.18-.84-15.76-4-23.59-6.08-13.16-3.55-19.92-13.6-19.8-28.16C433.12,618.17,433.11,617.34,433.11,615.51Z"/><path class="cls-4" d="M215.25,461c-.27,3.08.61,6,1.08,9a32.2,32.2,0,0,0,3,14.4c2.67,5.92,5.37,9.72,11.4,11.35a4.32,4.32,0,0,1,2.52,2.27c3.67,7.07,8.4,13.46,13,19.95,3.73,4,7.1,8.21,7.29,14,.07,2.18.78,3.78,2.86,4.71a16.73,16.73,0,0,1,6.93,6.12,11.7,11.7,0,0,0,6,5.11,19.11,19.11,0,0,1,11.72,7.7c3.59,5.25,8.84,9,12.26,14.3,1.28,6.29,1.53,13.16,9,16,3.55,1.32,5.32,4,4.79,7.63-.68,4.62-2.62,8.75-7.65,10.1-4,1.07-7.37-.56-9.51-3.89-2.5-3.91-4.61-8.08-6.72-12.22-1.07-2.08-1.93-3.17-4.83-2.82-7,.86-11.51-3.13-10.9-10.1.49-5.58-2-8.3-6.41-10.33-.75-.35-1.48-.76-2.22-1.14-2.64-1.37-5.38-3.93-7.91-3.74-2.12.16-4,3.52-6,5.48-2.94,2.93-6.3,3.28-10.05,1.81a9.53,9.53,0,0,1-6.44-9.7,87.27,87.27,0,0,0-2.08-21.74c-.76-3.26-1.23-6.43-4.69-8.22-1.77-.92-2.64-2.86-3.43-4.74-1.57-3.77-3.69-4.32-6.65-1.13C207.89,525,203.79,528,198,526c-6.46-2.17-8.54-8.14-4.8-14.39,1.86-3.1,4-5.94,5.36-9.43,2.12-5.34,3.3-9.67-.82-15-3.32-4.28-1.83-9.94.44-14.75,1.27-2.7,1.22-4.29-1.57-6.12-3.65-2.4-4.31-6.18-2.38-10.14,1.75-3.58,6.12-4.9,10.33-3.62C209.22,454,212.49,457.1,215.25,461Z"/><path class="cls-4" d="M237.16,310.05c.67,6.17,5.5,9,11.08,6.4a9.75,9.75,0,0,1,14,8.31c.9,12.47-10.89,20.41-23.19,15.57a18.86,18.86,0,0,1-4.45-2.21c-4.76-3.56-9.65-3.61-15.29-2.08-9.66,2.61-19.3-7.25-16.41-16.86,1.27-4.23.28-5.6-3.61-6-8.87-.81-13.08-6.58-14.82-14.48-.89-4.09-1.8-7.77-4.66-11.18-3.69-4.4-3.3-9.93-1.75-15.2,1.38-4.67,1.6-8.53-2.16-12.75s-4.63-10.11-3-16a54.21,54.21,0,0,1,15.15-25.84c4.3-4,10.77-5.14,15.15-2.72s5.64,6.29,5,11c-.39,3.08-2.55,5-4.69,6.82a23.69,23.69,0,0,0-5.19,6c-4,6.86-3.93,7.67.9,14.08,1.94,2.58,3.63,5.44,3.22,8.71-.94,7.39,2.11,13.28,6.38,18.82,4.11,7.45,11.09,12.5,16.14,19.2,2.22,2.94,7.33,2,9.66,5.49C235.82,306.61,237.35,307.88,237.16,310.05Z"/><path class="cls-4" d="M660.92,765.6c.26-8.82,3.23-15.87,12.32-19,2.82-1,5.57-2.14,8.38-3.15,3.55-1.28,7.22-2.12,9.28-6,1.08-2,3.42-3,5.71-3.76,13.79-4.36,22.94-13.63,29.71-26.28,4.52-8.47,9.72-16.88,18.6-22,4.58-2.62,9.07-2.44,13.14.3a27.79,27.79,0,0,0,9,4c5,1.25,8.07,5,7.66,9.07a8.35,8.35,0,0,1-8.92,7.72c-6.56-.55-10.71.42-14.52,6.91-3.92,6.71-10.55,11.84-16.08,17.59-1.57,1.64-2.19,2.45-.15,4.66,4.94,5.35,3.68,12.08-3.22,14.44-15.24,5.19-29.62,12.63-45.21,16.81a17,17,0,0,1-4.88.74c-3.16-.13-5.52.23-7.27,3.62-1.53,2.95-4.78,3.82-8.24,2.63C662.1,772.58,660.89,770.74,660.92,765.6Z"/><path class="cls-4" d="M1057.08,1096.63c-4.41-.1-8.1-1.54-10.54-5.46a6.26,6.26,0,0,0-3.4-2.72c-5.27-1.88-7.83-5.93-8.3-11.34-.34-4-2.29-4.52-6.17-4.92-7.78-.8-15.4-2.19-23.36-2.3-6.22-.09-9.29-8-6.63-13.94a40,40,0,0,1,3.72-6.47c3.26-4.7,3.93-9.36,2-15-1.62-4.83-1.21-10.21.08-15.26,1.39-5.44,4.83-8.17,9-7.48,4.44.74,7.64,5.16,7.32,10.4-.22,3.59-1.09,7,.08,10.76,1.38,4.5,4.2,6.95,8.15,8.59,1.71.7,4.2,1.1,4.6,2.69,2.15,8.75,10.81,9.89,16.39,14.57a9.45,9.45,0,0,1,3.77,7.79c-.2,3.37,1.81,4.8,3.89,6.87,2.34,2.33,3.88,2.79,7.07,1.56,4-1.53,7.52.5,9.67,4.19,1.89,3.25.66,8.94-2.78,11.73C1067.45,1094.27,1062.72,1096.69,1057.08,1096.63Z"/><path class="cls-4" d="M824.06,574.88c-5.65.62-8.62-3.64-11.73-7.18-5-5.74-9.65-11.83-14.42-17.8-1.89-2.38-4-5.29-3.56-8,.69-4.52-2-5.33-4.92-6.79-5.66-2.83-9.43-6.84-9.68-13.87-.15-4-1.78-7.9-6.48-9.65-8.11-3-9.38-10.91-10.76-17.86-1-5.36,5.47-9.2,10.76-7.08,5.55,2.22,11.1,4.44,16.56,6.88,2.71,1.2,5.45,2.59,6.72,5.61.82,1.94,2.66,2.29,4.38,2.94,7.51,2.86,9.69,6.64,7.59,14.18a4.5,4.5,0,0,0,1.52,5.2c4.12,3.82,7.71,7.92,6.93,14.16-.27,2.16,1.7,2.66,2.87,3.71,2.45,2.22,4.66,4.93,3.55,8.19-1.94,5.73,1.59,8.45,5.39,10.69,4.24,2.49,6.12,5.94,4.87,10.36S829,575.32,824.06,574.88Z"/><path class="cls-4" d="M429,432c.9,1,1.75,2,2.69,2.93,4.45,4.42,4.61,9.95.37,14.48-4,4.28-9.47,4.22-14.07-.06-3.61-3.37-7.81-5.47-12.89-5.31a8.53,8.53,0,0,1-5.66-1.58c-4.81-3.77-9.43-3.62-14.4-.12-6.47,4.57-13.87,1.51-15.7-6.25-.4-1.73.08-3.73-1.58-5.08-4.49-3.67-4.34-8.26-2.49-13.12,4.06-10.7,6.43-22,12-32.19,1.88-3.46,4.3-6.28,8.13-7.67,6.91-2.51,11.44-.23,13.75,7,.95,2.55-.36,4.5-1.69,6.45-4.16,2.23-5.56,5.66-5.06,10.33a19.36,19.36,0,0,1-1.84,10.1c3.94.36,8.12,1.59,12.43,1.36,3,2.22,7.25,2.12,9.65,5.37,1.4,6,5.64,8.64,11.32,9.58C425.91,429.07,427.92,429.94,429,432Z"/><path class="cls-4" d="M1093.75,938.66c0-1,0-2,0-3,0-3.31-1.08-4.59-4.59-3.27-7.3,2.76-10.93.84-12.56-6.87-.88-4.15-3.62-6.12-7-7.73-2.4-1.14-5-2-7.22-3.34-3-1.81-4.84-4.52-4.6-8.26a7.75,7.75,0,0,1,5.31-7.19c7-2.61,14.38-3.68,21.46-6,3.34-1.12,6.75,1.3,8.92,4.3,1.15,1.59,1.41,4.14,2.84,5.14,5.62,4,8.53,9.46,11.75,15.35,2.26,4.13,5,7.64,4.64,12.5-.22,3.12.34,5.14,3.73,6.4,4.37,1.61,6.62,5.43,7.29,10,.54,3.68,1.9,6.11,5.78,7.59,5.3,2,7.32,6.74,5.77,11.16s-6.48,6.55-11.9,5.39c-8.76-1.87-15.73-5.63-16.59-15.72-.23-2.62-2.26-2.59-3.84-3.16C1095.22,949.1,1093.56,946.8,1093.75,938.66Z"/><path class="cls-5" d="M208.14,281.07c-4.38-4.93-7.87-10.21-6.94-17.29a12.93,12.93,0,0,0-4.66-12c-3.23-2.77-2.94-5.58-1.55-9.26,2.64-7,8.85-11,13.2-16.47,2.71-1.53,5.34-3.79,8.71-2.55s5.66,3.34,5.39,7.43c-.59,9,.26,18-1.49,26.92a2.83,2.83,0,0,0,.51,2.75c4.94,5.4,7.89,12.69,14.72,16.25,5.5,2.85,8.48,7.72,11.45,12.7,1.77,3,2.65,6.4,4.51,9.41A6.87,6.87,0,0,1,250.6,308c-2.77,2.55-5.79,5.22-10.16,3.11a25.73,25.73,0,0,0-3.28-1.09l-2.9-4.06c-2.47-4-5.25-7.22-10-9-4-1.44-6.41-5.63-9.36-8.7C212.59,286,210.34,283.52,208.14,281.07Z"/><path class="cls-6" d="M734.27,291c6.9-.29,10.49,1.55,11.59,6.62.37,1.71,1.48,2.44,2.56,3.44,3.57,3.29,6.8,6.81,7.71,11.86.24,1.32,1.25,2.23,2.07,3.28,5,6.49,7.54,14.4,11.38,21.57,1.29,2.4,1.28,5.06,4.13,7,3.6,2.44,4.15,6.73,2.81,10.81-1.25,3.8-4.64,5.29-8.26,5.26-7.08-.07-14.21-.51-16.93-9-.58-1.82-2.24-2.28-3.84-2.8-4.5-1.49-6.88-4.65-6.54-9.36.39-5.33-1.56-8.56-6.66-10.69-3.84-1.61-7-4.68-6.34-9.68.31-2.58-.8-3.81-3.33-4.61A33.61,33.61,0,0,1,717,311c-3.85-2.39-4.77-10-.92-12C722.49,295.6,729,292.29,734.27,291Z"/><path class="cls-4" d="M837.27,876.13a60.48,60.48,0,0,0,5.19,12.55c1.06,1.89,2.23,3.6,2.63,5.8.76,4.26,1,8.45,5.18,11.64,2.83,2.15,2.6,6.57.42,9.66a8.85,8.85,0,0,1-10.14,3.52A16.31,16.31,0,0,1,829,908.53c-.91-2.68-1.62-5.27-4.31-6.95-1.15-.71-2.47-2.47-2.37-3.65.5-5.85-3.84-10.6-3.42-16.36.11-1.39-.11-2.73-1.44-3.48-2.82-1.59-3.92-4.11-4.85-7.14-1.2-3.91-5-4.53-8.48-4.39-2.77.11-5.5,1.1-8.27,1.62-4.06.76-8.59-1.56-9.6-5.26-1.14-4.19.18-7.92,4.33-9.45a111.75,111.75,0,0,1,19-5.63c6.65-1.18,17.6,5.9,20.18,12.1a4.81,4.81,0,0,0,2,2.71C836.29,865.16,837.28,869.38,837.27,876.13Z"/><path class="cls-5" d="M429,432c-1.95-.41-3.37-1.77-4.95-2.85-2.55-2.29-4.91-4.81-8.42-5.77-2.13-.58-2.59-2.77-3.62-4.39-2.35-2.74-7-1.38-8.88-5-3.56-2.24-6.1-5.54-8.49-8.84-2.91-4-1.83-9.2,2.43-14.4l2-5.79c1.12-2.9,2.09-5.87,3.41-8.67,1.9-4,6.4-6.09,9.75-4.73a8.35,8.35,0,0,1,5,10.47,7.94,7.94,0,0,0,.17,5.1c2.7,8.29,7.79,14.41,14.74,19.47,5.48,4,7,10.48,7.81,16.66S437.17,431.83,429,432Z"/><path class="cls-7" d="M108.32,509.59c1.77,0,2.73.41,3.51,2C110.11,512.05,109.21,511.47,108.32,509.59Z"/><path class="cls-8" d="M263.27,542.77c-3.23-1.9-5.79-4.87-9.52-6a1.87,1.87,0,0,1-1.47-2.23c1.24-6.76-4.13-11.07-6.09-16.64,12.12,3.11,15.57,7.35,16.08,19.51A38.27,38.27,0,0,0,263.27,542.77Z"/><path class="cls-9" d="M293.21,569.88c-9.27-5.94-13.53-17.35-24-22,8.76-2.45,14.53.31,17.29,9.33.91,2.93,4.77,4.09,5.76,7.32A13.11,13.11,0,0,1,293.21,569.88Z"/><path class="cls-10" d="M233.22,498c-1.87-.66-3.8-1.19-5.59-2-4.15-1.91-8.86-3.38-8.4-9.48.07-.91-.23-2.35-.86-2.74-6.24-3.83-3.06-9-2-13.78,1.56,1.5.74,3.43.92,5.17.37,3.43,1.47,6.91,4.54,8.36,5.48,2.58,6.92,8.36,10.75,12.17C233,496.15,233,497.18,233.22,498Z"/><path class="cls-10" d="M208.14,281.07c6,2.19,8.4,8.27,13,12,1.5,1.22,2.62,3.27,4.57,3.54,5.6.76,7.48,4.63,8.55,9.36-2.08-1.63-4.19-3.18-7-3.52-1-.11-2.37-.33-2.74-1C220.18,293.78,211.79,289.32,208.14,281.07Z"/><path class="cls-9" d="M397.08,390.77c-.67,2-1.21,4.13-2.06,6.09-1.71,3.91-.66,7.08,2.34,9.79a30.52,30.52,0,0,1,5.78,7.36c-3.15-.26-6.13.56-9.54-.41-4-1.12-4-2.89-3.19-5.61a15.81,15.81,0,0,0,.7-7.81C389.87,394.78,392.6,392.32,397.08,390.77Z"/><path class="cls-11" d="M412,419c1.52,1.17,2.37,3.28,4.49,3.58,4,.56,6.24,3,7.55,6.58C416.49,428.49,413.52,426,412,419Z"/></g></g></svg>