<svg xmlns="http://www.w3.org/2000/svg" viewBox="0 0 1426.88 1677.69"><defs><style>.cls-1{fill:#fdfdfd;}.cls-2{fill:#fee98a;}.cls-3{fill:#be7f30;}.cls-4{fill:#c82d0b;}.cls-5{fill:#7d4b0d;}.cls-6{fill:#b0371d;}.cls-7{fill:#de5031;}.cls-8{fill:#00aa3f;}.cls-9{fill:#0a672c;}.cls-10{fill:#fef1b6;}.cls-11{fill:#fdf0b6;}.cls-12{fill:#fdf0b4;}.cls-13{fill:#fcf0b5;}.cls-14{fill:#fdf0b5;}.cls-15{fill:#fcefb4;}.cls-16{fill:#f5f3ec;}.cls-17{fill:#f3e7d4;}.cls-18{fill:#f7e389;}.cls-19{fill:#e2e0d4;}.cls-20{fill:#ddd8c3;}.cls-21{fill:#fef1b5;}.cls-22{fill:#fef1b4;}.cls-23{fill:#feeea5;}.cls-24{fill:#fef0af;}.cls-25{fill:#f6e8aa;}.cls-26{fill:#f66c4e;}.cls-27{fill:#f56c4e;}.cls-28{fill:#ea5c3e;}.cls-29{fill:#fef0b1;}.cls-30{fill:#f5e185;}</style></defs><g id="레이어_2" data-name="레이어 2"><g id="레이어_1-2" data-name="레이어 1"><path d="M451.58,1583.3c-15.23-5.86-31.06-9.79-46.78-14.06-27.52-7.47-53.85-18.46-81-27-21.45-6.71-42.76-13.8-63.8-21.74a231.91,231.91,0,0,1-56.56-30.41c-18.76-13.88-38.88-25.74-58.31-38.62a242.67,242.67,0,0,1-61-57c-14.35-19.18-30.06-37.28-43.3-57.35-18.51-28-28.91-59-35.55-91.57-3-14.85-6.19-29.72-5-45a131.66,131.66,0,0,1,13.8-48.75c11.28-22.68,23.61-44.79,38.51-65.36,16.87-23.26,38.13-41.63,62.68-56.4,10.25-6.17,20-13.16,31-18.14a53.27,53.27,0,0,1,19.71-5.11c3.87-.16,5.87-1.68,7.84-4.75,24.09-37.58,47.76-75.44,72.63-112.49,33-49.1,68.77-96.15,105.71-142.36,27.35-34.21,53.43-69.43,80.63-103.76,31.65-40,64.21-79.18,95.82-119.15,60.3-76.24,124.26-149.23,192.93-218C756.3,271.4,792.11,237.52,827.27,203,863.88,167,898.37,129.06,933,91.17c19.53-21.39,39.47-42.47,61.35-61.5A285.89,285.89,0,0,1,1028.53,4c9.16-7.22,22.53-.56,29.34,7.49,6.52,7.7,11,16.63,15.57,25.48,10.08,19.35,17,40.05,25.29,60.15,12.91,31.15,22.86,63.37,33.89,95.2,7.33,21.18,14.9,42.27,21.88,63.57,7.76,23.64,14.82,47.5,21.56,71.46q10.59,37.67,21.16,75.35,10.71,38.37,20.62,77c8.82,34.26,17.41,68.58,24.91,103.16,7.1,32.74,13.93,65.53,20.74,98.33,4.69,22.59,9.12,45.23,13.52,67.87q7.11,36.69,14.28,73.38c5.15,26.36,11,52.56,16.58,78.84,8.75,41.54,18.56,82.85,27.28,124.4,5.08,24.18,10.42,48.32,15.11,72.58,5.25,27.19,10.53,54.38,14.85,81.76q5.82,36.9,10.12,74c2.53,21.93,4.34,44,6.68,65.91a541.32,541.32,0,0,0,8.46,56.07,7,7,0,0,0,3.11,4.85,19.61,19.61,0,0,1,8.52,12.52c2.35,10,6.54,19.2,10.23,28.63,7,17.8,10,36.39,12.2,55.25a282.66,282.66,0,0,1,.79,51.7c-.7,10-2.38,20-3.78,30a217.11,217.11,0,0,1-9,37.72c-3.62,11.08-7.45,22.14-14.35,31.66-13.19,18.22-31.89,27-53.64,30.25-16.08,2.37-32.15,4.83-48.27,7-18.11,2.37-36.26,4.35-54.49,5.62-22,1.54-44.07,2.5-66.09,4-15.69,1.08-31.42,1.45-47.15,1.45-19.66,0-39.33.39-59-.09-29-.71-58.12-.85-87.11-3.66-17.4-1.69-34.58-4.32-51.78-7.24-24.06-4.08-48.29-7-72.51-10-27-3.27-53.89-7.7-80.9-11.15-15-1.91-30-3.08-45-5.07-17.92-2.39-35.86-4.61-53.83-6.49-21.79-2.28-43.58-4.72-65.12-8.64-20.64-3.75-41.27-7.74-61.55-13.25-17.76-4.84-35.79-8.56-53.59-13.24-15.11-4-30-8.8-44.89-13.39A2.82,2.82,0,0,1,451.58,1583.3Z"/><path class="cls-1" d="M451.58,1583.3c14.35,3.69,28.19,9,42.6,12.56,42.85,10.44,85.35,22.38,129,29.21,33.58,5.24,67.4,8.54,101.15,12.27,58.77,6.5,117.17,15.69,175.83,23,30.06,3.73,59.7,10.35,90,12.46,40.07,2.8,80.18,2.78,120.31,3,51.83.3,103.48-3.13,155.06-7.52,28.21-2.4,56.25-6.58,84.13-11.58q42.32-7.61,57.71-48c14-36.86,18.69-75.11,17.4-114.25-.88-26.64-5.21-52.66-15.34-77.5-3.13-7.7-6.5-15.28-8.19-23.51a19.4,19.4,0,0,0-8-11.73c-2.57-1.84-3.47-4.14-4.06-7-7-34.34-9.49-69.24-13.1-104-3.88-37.45-8.62-74.77-15.28-111.84-16.26-90.67-36.88-180.43-56.6-270.38-13.37-61-24.55-122.45-36.73-183.69-19.57-98.37-41.29-196.23-68.53-292.8-14.6-51.76-28-103.86-45-154.92-14.94-45-30.59-89.79-46.4-134.51-9.54-27-20.3-53.51-32.06-79.59-4.83-10.72-10.2-21.33-17.88-30.5-4.66-5.58-10.24-9.24-17.57-10.52-4.3-.75-7.77,1.09-11.55,2.13,5.91-5.12,11.81-5.13,19.65-1.22,8.85,4.42,14,12.13,18.72,20.07,13.61,22.93,21.88,48.26,32,72.73,6.47,15.55,12.21,31.36,17.89,47.19,6,16.8,11.34,33.85,17,50.76,6.49,19.26,13.55,38.32,19.72,57.69,3.74,11.76,7.36,23.57,11.17,35.29,6.2,19.05,11.27,38.4,16.87,57.61q10.92,37.42,21,75.08c5.38,20.13,10.81,40.26,16,60.46,3.35,13.15,6.25,26.41,9.81,39.5,9.6,35.33,17.1,71.14,24.44,107,4,19.45,8.64,38.75,12.35,58.26,4.51,23.72,9.54,47.34,13.92,71.08s9.54,47.35,13.91,71.09c4.91,26.71,11.25,53.09,16.83,79.64,9.65,46,20.36,91.76,30,137.76,3.73,17.81,7.74,35.56,11.28,53.41,3.85,19.46,7.66,38.93,11.07,58.47,3.31,19,6.36,38.13,9,57.27,2.12,15.22,3.5,30.55,5.18,45.83,2,18.24,4.32,36.45,5.86,54.73,1.5,17.95,3.94,35.73,7.16,53.43,1.11,6.09,1.92,12.2,7.94,16.19,3.33,2.21,4.92,6.55,5.73,10.31,2.08,9.68,6.22,18.56,9.74,27.68,6.3,16.31,9.57,33.21,11.76,50.51,1.32,10.38,2.52,20.87,2.24,31.14-.29,11,.21,22.13-1.39,33.18-2.3,15.92-3.71,32-8.1,47.52-4.2,14.83-8.67,29.68-17,42.8-8.15,12.8-19.71,21.75-34,27.15-17.21,6.53-35.53,7-53.38,10.15-10.43,1.81-21,2.62-31.4,4.49-7.79,1.39-15.79,1.71-23.7,2.33-17.13,1.33-34.27,2.67-51.42,3.78-7.25.47-14.51.62-21.77,1.11-37.34,2.53-74.76,2.43-112.15,2-23.37-.25-46.77-.61-70.07-2.15-17.12-1.12-34.3-2.19-51.26-5.52-16.35-3.21-32.84-5.81-49.36-8.08-17.68-2.43-35.54-3.61-53.16-6.37-14.35-2.26-28.78-3.86-43.09-6.4-14.46-2.57-29.19-3.66-43.8-5.41-11.48-1.37-23-2.8-34.45-4.16-11.12-1.31-22.24-2.54-33.36-3.84-13.46-1.57-26.88-3.58-40.37-4.68-13.68-1.11-27.1-3.92-40.69-5.64-11.37-1.43-22.46-5.06-33.77-7.21-27.45-5.23-54.28-13-81.41-19.57-14.46-3.47-28.57-8.39-42.84-12.62C453.45,1585.4,452,1585.12,451.58,1583.3Z"/><path class="cls-2" d="M1068.26,154.7c1.9,5.31,3.71,10.66,5.75,15.92.94,2.42.15,3.27-2.18,3.63-26.59,4.1-49,17.67-70.83,32.1-36.13,24-62.7,56.64-81.31,95.47-25.36,52.94-36.43,108.88-32.64,167.67,1.91,29.67,5.55,59,15.65,87.13,10.17,28.34,25.53,53.73,44.36,77.11.73.9,1.37,1.86,2.05,2.8,1.37,3.83,4.56,6.34,7.06,9.29,10.05,11.86,20.67,23.19,32.62,33.2,2,1.87,4.57,2.94,6.57,4.79,3.61,1.4,6.18,4.33,9.32,6.42,23.67,15.82,50.09,25.31,77.09,33.39a328.44,328.44,0,0,0,54.24,11.1c23,2.82,45-2.39,66.81-8.67,5.11-1.47,10.16-3.17,15.18-4.92,2.85-1,4.08-.51,4.63,2.77,1.51,9,3.26,18,5.28,27,.76,3.36,0,4-3.21,3.72a268.53,268.53,0,0,0-49.92.14c-46.85,4.79-91.08,17.68-130.34,44.52-29.43,20.11-47.86,48.6-59.75,81.67-1.17,3.26-2.67,4.45-6.23,4.89-28.57,3.55-54,14.89-77,32-1.3,1-2.31,2.42-4.1,2.64-2.12-.71-2.13-2.75-2.67-4.4a14,14,0,0,0-5-7.52c.81,5.73,1.23,11.09,2.89,16.26C885.05,932.28,877.79,940,872,949c-17.92,27.69-23,58.32-21.1,90.65,1.25,21,6.9,40.85,15.47,59.95-.68,2.78-3,4.34-4.79,6.22s-3.07,4-2.75,6.65c.9,7.4,1.27,14.86,2.85,22.18.73,3.39,2.06,3.72,4.67,1.7,10.1-7.78,9.11-5.36,6.22-16.39-.87-3.32-3.52-6.65-1.1-10.39,5.55,8.23,10.4,16.9,16.19,25,14.84,20.73,33.63,37,55.66,49.61.7.41,1.32,1,2,1.43.16,5.41,2.6,10.19,4.25,15.18.84,2.56,2.83,3.4,5.48,3.16,8.86-.78,17.75-1.32,26.48-3.19a1.75,1.75,0,0,1,.5,0c10.79,2.81,10.34,2.87,11.63,13.84,4.85,41,25.14,71.76,61.36,92,19.49,10.88,40.7,15.85,62.4,19.62,36.31,6.32,72,3.25,106.94-7.63,18.7-5.82,35.85-15,50.13-28.76.86,1.09.52,2.23,0,3.29-4.36,9.83-9.33,19.2-19.6,24.21-3.19,1.55-2.49,2.72-.08,4.37a20.58,20.58,0,0,0,28.4-4.67,32.85,32.85,0,0,0,5.68-14.2,93.18,93.18,0,0,0,.49-28.24,224.33,224.33,0,0,0,33.72-46.11q1,8.37,2.09,16.74c4.56,36.85,6.88,73.95,12.27,110.7,1.4,9.55,3.25,19,5.21,28.5.65,3.16-.1,3.94-3.19,4.34-63.42,8.07-126.85,16-190.75,19.25-48.43,2.44-96.89,1.34-145.34.58-74.5-1.18-148.66-6.78-222.18-19.07-67.9-11.35-135.24-25.64-200.34-48.26-71.23-24.76-137.32-59.74-197.27-105.85-19.27-14.83-40.05-27.65-58.51-43.55-27.36-23.56-51.2-50.44-73.61-78.66-15.46-19.46-28.55-40.52-41.92-61.39-3.52-5.5-3.77-10.45-.35-16.22,11.5-19.35,24.66-37.6,36.51-56.71,1.21-1.95,2.11-2,3.77-.47,27.57,25.46,61.25,38,97.18,45.74,11.51,2.46,23.17,2,34.8.69a3.11,3.11,0,0,1,.13,1.93c-1.38,6-1.19,6.33,4.9,6.47,7.25.16,14.44,1.53,21.72,1.08a7.68,7.68,0,0,1,4.69,1.28c13.63,16,27.83,31.37,44.17,44.63a208,208,0,0,0,89.22,42.35c28.19,6,56.58,8.64,85.25,4,7.67-1.23,15.2-3.36,22.8-5.08,1.82,2.91-.62,5-1.65,7.16-1.23,2.62-1.17,4.21,1.84,5.33,4.15,1.54,7.87,4.14,13,5.46-1.68-8.47-7.47-13.17-13.21-17.92,11.08-4.47,22.35-8.51,32.45-15.09,31.55-20.55,51.42-49,58.79-86.12,2.9-14.63,2.19-29.11,0-43.67,3.26-8.13,2.16-16.87,3.41-25.28.45-3.09.37-6.26,2.41-8.89.1-.13.17-.33.31-.39,35.63-15.16,53.64-44.52,63-80,9.53-36,10.29-72.45-.43-108.39-7.71-25.84-22.1-48.22-39.28-68.85-12-14.47-25.57-27.51-39.52-40.12,1-2.77,3.71-3.73,5.92-5.08,6.23-3.82,12.22-8.06,18.83-11.26a9.83,9.83,0,0,0,5-5.3c2.37-5.86,5.15-11.55,7.53-17.4a20,20,0,0,0-7.75-24.55c-7.51-4.91-17.51-3.33-24.5,3.77-4.05,4.11-6.53,9.2-9,14.27-4.55,9.25-9.14,18.48-13.13,28a4.62,4.62,0,0,1-2,2.71c-12.77-8.08-25.65-15.89-40.24-20.45a163.44,163.44,0,0,0-50.17-7c-2.58,0-4.27-.36-5.28-3.14-8.11-22.29-24.06-38-43.48-50.45-4.07-2.63-4.14-4.19-1.14-7.66,10-11.56,18.77-24.12,29.27-35.26,5.81-4.68,10-10.89,15-16.26s9.66-11.18,14.5-16.76c.77-.89,1.58-1.7,1.58-3,4.46-6,9.14-11.84,14.12-17.28,17-18.53,33.06-37.83,50.21-56.2,33.09-35.44,67.35-69.69,102.31-103.24C840.71,257,878.2,220.8,913.7,182.62c33.8-36.33,67.63-72.64,99.78-110.46,4-4.69,8.5-8.93,12.6-13.52,2-2.18,2.8-1.78,4.22.58,4.88,8,7.47,17,11.08,25.62,8.59,20.37,17,40.83,24,61.8C1064.36,150,1065.64,152.6,1068.26,154.7Z"/><path class="cls-3" d="M166.44,1072.66c32.19,53.95,70.73,102.82,116.67,145.76,19.41,18.16,41.42,32.94,62.85,48.48,24.54,17.8,48.58,36.25,74.81,51.63,69.12,40.54,142.05,71.53,220.18,90.14,39,9.29,78.06,18.52,117.61,25.38,35.92,6.23,72.05,11,108.33,14.68,65,6.59,130.25,7.84,195.52,8.27,38.25.26,76.49-.11,114.67-2.71,28.4-1.94,56.67-5.24,85-8.25,33.11-3.52,66.2-7.18,99.1-12.34,2.63-.41,3.81.52,4.81,3,6.4,15.77,9.2,32.33,10.52,49.13,2.83,36-1,71.1-13.21,105.24-3.58,10-9.82,16.49-20.3,18.3-11.47,2-23,3.54-34.54,5.28-5.31.93-10.49-.88-15.81-.73-10.31.28-20.58,1.26-30.92,1.22-11,0-22-1.37-32.94-1.08-23.46.61-46.92,2.12-70.37,1.76-17.1-.26-34.22-1.24-51.31-2.52-7.45-.55-14.9-1.43-22.42-1.33-17,.23-34-.58-50.9-1.24q-38.65-1.5-77.31-3c-25.45-1-50.66-5-75.76-9.54-35.9-6.48-72-11.54-108.19-16.22-30.22-3.9-60.4-8.21-90.6-12.21-47.48-6.3-93.08-20-139.14-32-32.25-8.43-64.4-17.19-95.79-28.41-35.29-12.62-70.44-25.63-105.27-39.47-16.25-6.46-32.5-13-49.69-16.69a32,32,0,0,1-10.8-5c-29.08-19-55.29-41.76-81.53-64.36-22.76-19.59-42.58-42.13-60.73-66.08-9.66-12.74-20.37-24.66-29.46-37.85-11.59-16.81-22-34.12-26.52-54.44a64.59,64.59,0,0,1,1.24-33.53c6.78-22.19,15.94-43.49,26-64.35a130,130,0,0,1,30.23-40c7-6.37,15.36-9.69,22.83-14.81A2.47,2.47,0,0,1,166.44,1072.66Z"/><path class="cls-4" d="M1148.59,687.94a303.53,303.53,0,0,1-106-30.53c-19.4-10-33.61-26-48.09-41.67-18.83-20.32-34-43.15-44.46-68.9-8.68-21.33-12.43-43.78-14.34-66.57-1.73-20.6-2.66-41.3-.12-61.85,7-56.56,24.61-108.73,65.57-150.47,18.93-19.28,41.15-34.26,64.88-47,6.38-3.43,13.57-4.43,20.37-6.62,2.91-.93,3.06,1.42,3.58,2.92,5.21,14.93,10.53,29.83,15.41,44.86,24.51,75.37,44.79,152,65.14,228.51,15.56,58.56,28.2,117.8,40.78,177.05.85,4,.38,5.85-4.15,7.16-16,4.62-31.65,10.29-48.3,12.2C1155.54,687.37,1152.22,687.61,1148.59,687.94Z"/><path class="cls-2" d="M657.34,821.64c-4.46,8-11.43,13.35-19,17.87-5.71,3.39-11.81,6.11-17.68,9.25a10.8,10.8,0,0,1-6.79.86c-10.22-1.26-18.5,2.17-24,10.86s-4.66,17.75.59,26.41c10.88,18,18.77,37.05,22.53,57.77,2.53,14,1.48,27.73-1.13,41.64-3.45,18.36-21.85,24-34.21,20.68-28.48-7.62-52.65-21.94-70-46.43-1.63-2.29-3.24-4.59-4.86-6.89,3-21.76,6.95-43.38,9.73-65.18a456.6,456.6,0,0,0,3.32-77.58c-13.36,28-26.22,55.45-32,85.53-1.4,7.34-2.71,14.77-1.2,22.32.35,1.78.45,3.68-1.17,5.09-7.66-11.83-15-23.86-21.59-36.3A64.7,64.7,0,0,0,453.25,877c-11.52-14.23-31.48-12.77-40.29,3.29-4.11,7.5-9.75,13-16.41,18.26-9.44,7.44-19.54,7-30.2,5.24a2,2,0,0,1,1.17-.85,3.22,3.22,0,0,1,1.94.16c-1.8-1.64-2.77-3.94-4.57-5.61-5.28-4.89-11.47-6.39-18.45-5.15-1.75.31-3.45,1.38-5.31.46-5.7-9-11.35-18-17.13-26.89-1.21-1.87-.35-3.06.64-4.45,11.61-16.26,23.47-32.34,35.93-48,9.11-11.39,19.19-22.05,27.74-33.83,22.37-30.85,46.57-60.29,69.49-90.72,10.81-14.35,22.35-28.16,33.38-42.35,2.37-3.05,4.49-3.23,7.53-1.36a45.74,45.74,0,0,1,8,5.9,101.88,101.88,0,0,1,22.07,32.35c-8.34,7.32-16.93,14.36-25.09,22.06,11.58-.28,22,2.63,30.69,10.66a10.27,10.27,0,0,0,3.23,2.29c1.29,2.84,2.39,5.79,3.89,8.52,7.6,13.92,25.67,17.6,36.68,6.27,10.59-10.89,22.61-9.78,35.4-7.75-4.38,1.51-6,5.12-7.42,9.16-2.06,6-4,12-6.73,17-.51,1.17.7.85,0,.78-.16,0-.19-.19,0-.48a273.9,273.9,0,0,1,16.07-26.31c14.12,1,27.29,5.29,39.79,11.75a11.53,11.53,0,0,1,3.52,2.74c9,10.84,14,23.18,13.75,37.41C663.84,791,661.87,806.76,657.34,821.64Z"/><path class="cls-2" d="M1091.36,1115.41c-21.75-5.92-41.65-15.44-59.14-29.84-14.44-11.87-20.07-27.37-18.7-45.56.85-11.35,7.62-19.32,16.88-25.08,5.39-3.35,11.61-4.82,18-5.18,6.11,5,11,11,15.57,17.36,2.15,3,3.67,3.23,5.84.06,8.22-12,18.62-21.57,32-27.55,2.93-1.3,2.13-3,1.17-5.22-3.39-7.68-9.11-13.83-13.55-20.81-.23-23.48,6.94-43.92,23.83-60.83,17.53-17.55,37.2-31.48,61.09-38.91,2.78,3,3.78,7,6.19,10.2,7.52,10.07,19.68,12,29.31,4.23,5.55-4.48,7.92-10.5,7-18.42-11.27,10.58-22.87,7.75-34.56,1.67a463.68,463.68,0,0,1,61.56-14.29c3.11-.5,5.07.4,5.88,4.18q18.07,84,36.53,167.93c.65,3,.18,4.77-2.59,6.49-6.51,4-8.93,10.91-11.28,17.74-6.08,17.59-12,35.24-18.84,52.58a161.27,161.27,0,0,1-50.68,68.14c-18.61,14.8-40.48,19.33-63.92,17.2-4.79-.43-6.91-2.55-6.93-7.55a122.38,122.38,0,0,1,2.85-27.71c1.48-6.57,1.66-13.29-.88-19.68-3.76-9.44-11.57-13.74-21-15.89-5.32-1.22-10.6-2.56-15.9-3.85,1.71-7,5-13.34,7.42-20,4.92-13.72,7.45-27.88,8.75-42.48-3.13,2.5-4.15,3.84-6.45,8.33-7.35,14.34-11.75,29.6-14.19,45.48C1092.32,1110.55,1092.3,1113.07,1091.36,1115.41Z"/><path class="cls-5" d="M166.44,1072.66c-28.18,12.87-46.46,35.16-58.61,62.82-7.62,17.34-15.18,34.72-21.14,52.75a71.57,71.57,0,0,0-.4,44.46c6.64,22,19.55,40.25,33.11,58.16,10.32,13.63,21.12,26.91,31.85,40.23,5,6.2,10.18,12.28,15.57,18.14a497.24,497.24,0,0,0,53,49.78c16.51,13.4,32.46,27.47,50,39.49,4.8,3.28,9.49,6.71,14.22,10.1,3.94,2.81,8.67,3.24,13.15,4.35,20.73,5.15,40.12,14,60,21.54,40.75,15.37,81.24,31.48,122.87,44.35,27.44,8.48,55.26,15.62,83.07,22.78,18.64,4.8,37,10.51,55.76,15,21.8,5.23,43.9,8.54,66,12s44.27,6.34,66.46,9.17c29.73,3.78,59.47,7.56,89.08,12.37,20.12,3.26,40.16,7,60.3,10,16,2.41,32.14,4.6,48.4,5.54,19.07,1.09,38.18.68,57.23,1.94,18.59,1.22,37.17,1.84,55.79,2.07,14.94.18,29.89,1,44.8,1.94,22.55,1.48,45.11,3.51,67.7,2.64,19.25-.73,38.5-1.14,57.76-1.61,9.09-.23,18.21.7,27.32.73,8.14,0,16.26.38,24.42-.72s16.24-.07,24.21,1.86c-9.16,1.31-18.31,2.75-27.49,3.9-38.6,4.81-77.43,6.22-116.22,8.43-16.65,1-33.29.66-49.93.73-25.58.1-51.16.34-76.73-.29-33.07-.81-66-3.34-98.64-9.4-22.52-4.18-45.31-6.91-68.08-9.58-20-2.34-39.83-5.4-59.72-8.26-20.22-2.92-40.47-5.53-60.8-7.65-18.33-1.91-36.61-4.41-54.92-6.56-16.33-1.91-32.73-3.38-49-5.6-31.8-4.33-63.14-11-94.23-19-25.75-6.64-51.82-12.14-77-20.76-32.28-11-65.79-18-97.74-30.08-35.2-13.26-71.78-22.48-106.63-36.76-13-5.33-25.38-11.69-36.7-20-18.22-13.46-37.37-25.57-56.54-37.58a223.11,223.11,0,0,1-63.34-60c-9.1-12.69-19.52-24.38-28.63-37.11-17.6-24.58-26.59-52.34-33.95-81.34-7.21-28.38-3.13-53.81,11.62-78.41,9.15-15.27,17.45-31,28-45.43,12.88-17.55,29.39-31.14,46.61-44,6.75-5.06,13.32-10.41,21-14.93A94.53,94.53,0,0,0,166.44,1072.66Z"/><path class="cls-6" d="M1309.48,1144.52c2.88,8.84,3,16.87-2.62,25.36-8.72,13.16-15.41,27.66-24.13,40.81-17.94,27-39.41,50.78-71.14,61.64-22.45,7.69-45.83,11-69.77,8.54-16.57-1.72-33.12-3.69-48.84-9.4-26.57-9.66-45.48-26.6-51-55.67a60.49,60.49,0,0,1-.14-19.41c2.48-18.61-6.12-31.57-24.4-35.71-21.72-4.91-43.09-11.07-61-24.75-39.8-30.34-61.45-69.85-57.64-121,2.38-31.92,19.18-54.5,47.27-69.2,11.76-6.16,24-10.86,37.2-12.26,3.93-.41,7.95,0,11.92.06,13.19.33,22.3-5.82,27.39-17.76,3.12-7.33,5.72-14.9,8.44-22.4,12.54-34.49,36.45-57.56,70.23-71.34,28.57-11.65,58.24-18.43,88.7-22.27a63.58,63.58,0,0,1,6.48-.19c-.62,3.37-3.78,3.4-6,4.15-10.12,3.39-20.06,7.23-30.06,10.92-22,8.13-42.18,19.79-61.93,32.24a188.86,188.86,0,0,0-51.68,48.68c-9,12.3-14.27,26.37-16.74,41.32-1.12,6.85-4.42,10.09-11,12.26-29,9.64-50.5,27.74-61.68,56.85-3.43,8.93-4.79,18.25-5.67,27.77-3.15,34.35,12.46,61.41,34.1,85.44,19.81,22,45,36.73,72.46,47.48,8.5,3.33,8.53,3.26,8.54,12.67,0,10-.21,20,1.27,29.91,3.62,24.39,17.61,39.89,40.43,48.14,12.06,4.36,24.44,4.92,36.94,3.12,20.48-3,40.73-7,59.9-15.12,24-10.14,46.11-23.53,63.72-43,14.87-16.42,28.31-34.08,38.16-54.16C1307.8,1147,1308.13,1145.43,1309.48,1144.52Z"/><path class="cls-7" d="M1309.48,1144.52c-2,8.65-7.07,15.82-11.79,22.92-9.47,14.23-19.79,27.88-31.75,40.2-11.48,11.81-25.24,20.48-39.24,28.83-21.74,13-45.8,19.26-70.34,23.87-18.14,3.41-36.2,4.15-53.74-3.75-21.83-9.83-33.62-26.51-36.3-50.22-1.19-10.48-.67-20.93-.81-31.39,0-2.89-.73-4.51-3.71-5.48-23.4-7.63-43.84-20.87-63.06-35.67a121.79,121.79,0,0,1-31.88-37.37c-6-10.74-11.44-21.67-14.67-33.69-3-11.31-2.79-22.67-1.6-34a94.81,94.81,0,0,1,15.18-42.23c8.49-13.08,20.34-22.1,33.24-30.2,7.28-4.58,15.27-7.3,23.38-9.75,3-.91,4.56-2.39,5.27-5.68,2.15-9.87,4.28-19.71,8.45-29.09a105.68,105.68,0,0,1,16.83-26.93c19.22-22,42.33-39.07,68-53.19,23.6-13,48.76-21.91,73.92-31a7.72,7.72,0,0,0,1.58-1.07h0c2.59-1.17,5.46.29,8-.87,9.3-.51,18.58-1.52,27.9,0,3.55.59,5.36,2.1,6,5.86,1.61,9.18,1.76,8.88-7.33,10.18-25.33,3.62-50.92,6.15-75.22,14.82-39.31,14-71,38.32-94.81,72.54-11.5,16.52-16.43,35.52-18.31,55.33-.33,3.43-1.26,4.74-4.85,5.28-42.65,6.46-66.93,38.56-71,66.46-5.5,37.8,6.48,69.5,36.29,94.11,22.9,18.9,49.23,30.85,77.55,38.79,3.65,1,4.57,2.21,4.19,6.07-.94,9.44-1.11,19,.7,28.37,4.72,24.51,19.9,38.88,45.58,41.89,43.89,5.16,81.91-7.17,114.31-37.88,25.46-24.14,43.65-52.63,55.91-85.22.29-.78.58-1.55.94-2.3.13-.27.46-.45,1-1C1305.62,1123,1308,1133.68,1309.48,1144.52Z"/><path class="cls-8" d="M671.49,926.65c-.58,5.81,1,11.08,3.92,16.05,2.16,3.35,2.34,7.07,2.43,10.95.42,17.23-.49,34.23-5.9,50.82-4.86,14.95-11.07,29.08-23.42,39.37-17.06,14.21-36.46,23-59,24.12-11.69.58-22.61-2.42-33.72-5.74-19.59-5.87-37.47-15.63-56.26-23.26-8.94-3.63-15.94-10.24-22.63-17-11.84-12-21.72-25.64-32.58-38.46-6.66-7.87-13.64-15.48-20.49-23.2-3.17-3.57-6.11-4.13-10.42-1.79a87.21,87.21,0,0,1-39.1,11c-9.08.26-18.38-.42-27.12-3.44-20.11-6.95-38.9-16.49-55.79-29.54a45.78,45.78,0,0,1-8.16-8.06c-1.25-1.62-3-3.25-1.72-5.72l13-19.47c4.26,7.76,7.72,14.76,12.14,21.21,8.37,12.2,19.5,20.48,34,23.69,16.8,3.71,33.77,5.47,51,3.67,13-1.36,23.24-8.58,33.59-15.56,5.72-3.85,5.42-3.82,9.1,2.18,14.85,24.14,31.3,47.07,50.31,68.2,24.88,27.65,56.82,42.14,92.4,48.3,26.12,4.52,64.22-9.78,77.31-45.94,9.61-26.56,9.67-53.74,3.71-81.12a176,176,0,0,0-11.42-34.5c-1.48-3.3-.3-4.32,2.34-5.57,13.34-6.32,25.9-14,35.9-24.93,24.25-26.57,38.3-57.6,35.13-94-2.31-26.51-12.23-50.73-33.91-67.82-15.75-12.4-34.95-17.56-54.34-21.34a171.31,171.31,0,0,0-35.74-3.2c-4.52.07-9.09.12-13.36,1.44-3.5,1.08-4.58-.12-5.75-3.12-7.83-20-18.44-38.36-33.33-54.08a79.73,79.73,0,0,0-15.54-13.23c-2.68-1.67-2.91-3-.71-5.38,2.83-3,5.3-6.39,7.93-9.61,2.33-2.56,4.49-1.19,6.59.35a113.37,113.37,0,0,1,19.32,18.72c6.95,8.28,12.84,17.41,18.91,26.35A72.33,72.33,0,0,1,590,659.72c.82,3,2.33,4,5.44,3.34,14.48-3,28.76-1.93,42.93,2.17,8.94,2.58,18.34,3.47,26.93,7.34,29.8,13.41,51.94,34.37,64,65.17,3.69,9.41,5,19.29,5.44,29.31.19,4.66-.17,9.34.08,14,.82,15.33-3.44,29.39-11,42.44-5.66,9.8-11.13,19.71-16.89,29.45-8.88,15-20.11,27.66-35.15,36.81-6.14,3.73-6,3.95-4.7,10.85,1.21,6.33,1.35,12.86,4.58,18.8C672.74,921.33,672.35,924.23,671.49,926.65Z"/><path class="cls-9" d="M671.49,926.65c.3-3.75-.94-6.93-2.53-10.36-3.14-6.81-2.47-14.6-4.38-21.8-.53-2,1.62-2.64,3-3.55,6.89-4.62,14-9,20-14.84a118.73,118.73,0,0,0,21.65-29.65c6.36-12,14.55-23.06,19.41-35.91a70.34,70.34,0,0,0,5-24.73c.07-14.44.46-28.9-3.87-42.95-6.76-21.9-20.53-38.62-37.83-53.18-18.07-15.21-39.87-20.24-62-25.14a83.58,83.58,0,0,0-35,.07c-3.53.71-5,0-6-3.89-2.76-10.9-8.37-20.44-14.92-29.62-8.41-11.8-16.63-23.71-27.78-33.1-3-2.53-5.43-7.2-10.79-5.46,0-.16,0-.36.13-.48,7.71-9.06,7.65-9,17.44-2.52,13.1,8.65,22.58,19.88,26.59,35.4,1.79,6.94,4.23,13.77,9.95,18.62,7.61,6.44,16.85,7.78,26.29,6.88,26.62-2.53,51.29,2.42,73.1,18.47,25.51,18.77,47.85,40.68,65.06,67.47,12.67,19.71,20,40.93,19.85,64.76-.12,17.16-.57,34.2-5.41,50.74-3.61,12.33-8.29,24.4-17.44,33.82-12.15,12.51-27.44,18.36-44.71,19-8,.28-16,.15-23.24,4.26C676,912.87,673.05,919.29,671.49,926.65Z"/><path class="cls-9" d="M281.57,922.71c2.63,7.34,8.76,11.76,14.63,15.83,16.58,11.52,34.19,21.51,53.76,26.84,20.4,5.55,40.41,2.88,59.5-6.26a46.21,46.21,0,0,0,5.8-2.91c3.09-2.07,5.28-1.4,7.71,1.3,11.78,13.07,23.61,26.08,34.49,40,9.83,12.54,20.1,24.74,32.86,34.51a55.61,55.61,0,0,0,14.86,8c13,4.71,24.72,12.31,37.94,16.49,15.46,4.9,30.44,11.27,47.34,10.37,13.52-.72,25.5-5.56,37.48-11,16.4-7.41,29-19,36.43-35.36,7.84-17.19,12.65-35.29,12.12-54.45-.21-7.79.76-15.64-1.08-23.36,7.74,9.78,15.56,19.54,19.83,31.47,7.86,22,5.64,43.21-6.07,63.29-14.87,25.49-38.15,38.76-66.64,42-45.71,5.24-88.73-3.33-127-30-22.2-15.44-39.9-35.52-55.43-57.55-3.06-4.35-6.2-8.66-9.65-12.7-9.19-10.73-20.72-12-33.5-7.91-8.06,2.56-16,5.51-24.54,6.31-10.94,1-21.43-.89-31.85-4-23.87-7.09-46.33-16.59-63.86-35.22-2.32-2.47-3.18-4.16-.79-7.06C278.08,928.76,279.7,925.64,281.57,922.71Z"/><path class="cls-10" d="M481.4,923.84c-3-22.15,3.61-42.7,11-63a401,401,0,0,1,23.69-53.21c.58,2.42,1.3,4,1.31,5.67.09,13.49.86,27-.18,40.45-1.09,14.14-2.45,28.31-4.46,42.41q-3.43,24-7.44,48c-.53,3.13.7,7-2.65,9.45A343.23,343.23,0,0,1,481.4,923.84Z"/><path class="cls-10" d="M716.37,629.83a240.38,240.38,0,0,1,20.2-42.15c4.15-6.92,10.63-11.26,19-10.85,8.88.44,15.24,5.2,18.72,13.47a19.93,19.93,0,0,1,.05,15.08c-2.46,6.52-5.51,12.82-8.32,19.21a6.89,6.89,0,0,1-3.09,3.79c-9.63,4.62-18.2,11-27.41,16.29Z"/><path class="cls-10" d="M1289.39,1274.52c.57.58,1.63,1.14,1.65,1.74.49,14,2,28.32-6.44,40.94-7.78,11.63-22.71,12.49-33.53,3.43-1.18-1-2.41-2.17.24-3.15,13-4.82,18.35-16,23.14-27.72Z"/><path class="cls-10" d="M1089.48,973.59c7.54,6.52,12.12,15.06,16.31,23.87.78,1.62-.36,1.88-1.52,2.36-14.87,6.2-26,16.76-34.92,29.94-.95,1.42-2.09,3.85-4,1.16a170,170,0,0,0-16.57-19.75c-.3-.31-.28-.94-.4-1.42,8.07-.69,16.35.19,24.08-3.16,4.11-1.68,6.29.25,7.69,3.6.33-2.89-1-6.45,1.27-9.5,5.39-6.24,7.23-13.64,7.27-21.7A40.09,40.09,0,0,1,1089.48,973.59Z"/><path class="cls-10" d="M1182.33,871.53a16.71,16.71,0,0,1,6.74,1.36c10.43,5,18.4,3.72,26.78-4.15.56-.53,1.21-1,1.94-1.56,2.63,14.26-4.64,25.14-18.49,27.18a19.1,19.1,0,0,1-15.61-5c-4.65-4.16-8.06-9.19-9.29-15.47A27.09,27.09,0,0,1,1182.33,871.53Z"/><path class="cls-10" d="M1091.36,1115.41c-2.06-5.55.5-10.84,1.51-16a134.12,134.12,0,0,1,13.61-38.9,31.65,31.65,0,0,1,7.76-9.76c.8,10-1.32,19-3.07,28-2.32,12-6.91,23.2-11.55,34.4-.57,1.37-1.1,2.82-2.45,3.69A13.2,13.2,0,0,1,1091.36,1115.41Z"/><path class="cls-10" d="M537.64,718.48c-2,1.48-3-.37-4.11-1.37-9.13-8.62-20.15-11-33.23-10.1,9.77-8.27,17.57-17.74,28.51-23.54C535,694.33,537.17,706.18,537.64,718.48Z"/><path class="cls-10" d="M871.45,1109.58c.34,6,3.06,11.48,4.32,17.29.43,2,.76,3.55-1,4.86-3.33,2.45-6.79,4.74-10,7.36-2.68,2.2-3.34.54-3.84-1.65a134,134,0,0,1-3.33-26.51c-.15-5.75,5.5-7.79,8.77-11.32Z"/><path class="cls-11" d="M981.49,1200.76c-.76,2.93-3.3,1.45-5,2-7.34,2.45-15.14,1.2-22.61,2.76a4.25,4.25,0,0,1-5.23-2.83c-1.73-4.84-3.3-9.75-4.92-14.64-.46-1.4.09-2.24,1.56-2.45A302.55,302.55,0,0,0,981.49,1200.76Z"/><path class="cls-12" d="M412.92,1035.53c-9.81.87-19.54-.73-29.32-1-6.39-.2-6.59-1-3.74-6.62.53-1,1.08-2.07,1.62-3.1,5.79-1.39,11.61-2.65,17.35-4.24,2.19-.61,3.28,0,4.47,1.72C406.42,1026.74,409.7,1031.11,412.92,1035.53Z"/><path class="cls-13" d="M751.39,942.46c-1,9.8-2,19.59-2.85,29.4a5.56,5.56,0,0,1-3,4.77c-2.38-9-4.79-17.92-8.66-26.39-.67-1.46-.74-2.44,1-3C742.43,945.65,746.9,944,751.39,942.46Z"/><path class="cls-14" d="M341.13,892.78c11.91-5.56,22.5-.23,27.28,6.75,1.7,2.49,2.17,4.56-2.06,4.24-5.36.26-10.5-1-15.63-2.26C346,900.36,343.39,896.72,341.13,892.78Z"/><path class="cls-15" d="M657.34,821.64c-.81-4.51,1-8.63,2.18-12.76,2.81-9.71,3.78-20.13,10.51-28.42.81-1,1.2-2.36,2.56-2.87C673.24,794.26,666.24,808.28,657.34,821.64Z"/><path class="cls-12" d="M615.53,725.69c.33,2.24-1.27,3.71-2.27,5.36a242.25,242.25,0,0,1-15.72,23.59c3.41-9.12,6.74-18.27,10.29-27.33,1-2.62,3.82-1.27,5.78-1.79Z"/><path class="cls-16" d="M988.52,679.75c-15.28-11.6-27.34-26.28-39.36-41a1.54,1.54,0,0,1,0-2.21,566.27,566.27,0,0,0,40.42,42C989.85,679.48,989.48,679.85,988.52,679.75Z"/><path class="cls-14" d="M892.58,924.76c-.82-.19-1.78-.41-1.91-1.31-.82-5.61-2.29-11.15-2.21-17.22,6.5,2.89,7.14,8.9,8.92,14.19C895.84,921.94,894.64,923.82,892.58,924.76Z"/><path class="cls-17" d="M636.46,469.83c1.07.52.83,1.27.27,2-9.22,11.63-19.3,22.52-29.35,33.43-.53.57-1.09,1.35-2,.58C615.1,493.29,625.67,481.47,636.46,469.83Z"/><path class="cls-18" d="M1081.45,1000.69v10.24c-3.46-1-4.91-5.54-9-4.33Z"/><path class="cls-19" d="M1068.26,154.7c-5.31-2-5.79-3.38-2.87-8A19.48,19.48,0,0,1,1068.26,154.7Z"/><path class="cls-20" d="M988.53,679.75l1-1.22c2.22,1.46,4.56,2.78,5.83,5.28A16.37,16.37,0,0,1,988.53,679.75Z"/><path class="cls-6" d="M1204.41,798.73c-2.52,1.7-5.34.75-8,.87C1198.93,798.18,1201.69,798.61,1204.41,798.73Z"/><path d="M680.63,533.57c-1-3-2.11-5.93-3.13-8.91-5.29-15.5-5.56-31-.15-46.54,2.63-7.53,5.23-15.06,8-22.54,9.93-27.09,44.4-44.33,73.47-37.37a3.84,3.84,0,0,0,1,.27c20.44-1,30.14,13.84,39.23,28,18,28,17.82,58.28,7,88.66-6.33,17.82-21.36,26.91-38.16,33.5-30.32,11.89-68.76,1-84.56-30.4-.14-.27-.46-.46-.69-.68A3.75,3.75,0,0,1,680.63,533.57Z"/><path d="M757.81,1319.41c-5.16-2.22-10.57-3.89-15.44-6.79-24.14-14.37-37.75-35.88-40.58-63.47-2.11-20.52,6.36-37.63,21.58-51.39,2-1.77,4-3.42,6-5.13,7.31-7.17,15.92-11.69,26.2-12.76,9.56-1.91,19.07-2.93,28.32,1.43a3.82,3.82,0,0,0,2,.2c10.43-1.35,18.41,2.74,24.72,10.84a29.67,29.67,0,0,0,4.41,4c18.46,15.67,23.89,35.89,20.93,59.18a104.54,104.54,0,0,1-12.28,37c.38,1.45-.38,2.59-1.12,3.68-14.09,20.52-36.3,30.59-60.41,25.31C760.53,1321.22,758.82,1321,757.81,1319.41Z"/><path d="M940.3,823.47a142.49,142.49,0,0,1-21.13,7,3.15,3.15,0,0,1-2.51,1.4c-11.48.89-22.8.37-33.63-4.1a4.77,4.77,0,0,1-2.62-2.16c-5.08-2.78-10.41-5.14-14.93-8.86-14.63-12.06-21.61-27.38-20.27-46.47,1.36-19.35,8.67-36.44,19.49-52.16,8-11.6,19.61-18.21,32.81-22.3,9.21-2.85,19-2.71,28.24-5.82,4.46-1.5,9.24.17,13.63,1.91,26.09,10.32,40.55,34.56,37.73,62.5-1.42,14.09-3.51,28-8.73,41.21-2.2,8.82-8.13,15.07-14.81,20.58C949.68,819.4,945.88,823.17,940.3,823.47Z"/><path class="cls-10" d="M757.81,1319.41c15,3.61,29.54,3,43.33-4.77,9.5-5.35,16.36-13.34,22.52-22.06,13,1.58,25.6,4.63,36.48,12,7.48,5.1,12.44,12.28,12.35,22.08-.13,15.23-14.52,26.19-29,20.88-16.58-6.11-33.65-10-50.89-13.33-16.39-3.14-32.88-5.75-49.47-7.72-17.73-2.09-35.4-4.62-53.12-6.76-4.91-.59-9.81-1-14.59-2,8.94-9,19-4.7,28.75-2.75,14.13,2.84,28.25,5.57,42.75,5.61A46.9,46.9,0,0,0,757.81,1319.41Z"/><path class="cls-10" d="M640.36,1313c-9.12-1.48-18.29-2.67-27.33-4.5-19.33-3.91-38.57-8.17-57.2-14.86-17.9-6.42-34.7-15.09-51.27-24.28-10.46-5.81-20.91-11.63-30.66-18.58-4-2.85-8-5.73-11-9.9a22.4,22.4,0,0,1-4.43-15.38c.32-4.75.87-5.27,4.81-2.91a254.21,254.21,0,0,0,28.29,14.67c11.72,5.18,23.59,9.8,36.17,12.44,1.83.38,3.68.81,3.75,3.23.41,14.46,10.14,20,22.19,23.8a605.26,605.26,0,0,0,70.25,18,4.58,4.58,0,0,1,3.4,2.67C630.23,1303.51,634.83,1308.17,640.36,1313Z"/><path class="cls-10" d="M372.64,1177.41c-8.62,4.54-16.08,3.92-23.42-.62-17.38-10.74-33.1-23.78-49.66-35.67-10.77-7.73-21.64-15.37-31-24.9-6.05-6.17-8.1-16-4.76-23,4.35-9.13,12-13.51,21.65-12.64,2.46.22,3.4,1.24,2.93,3.45-2.86,13.44,2.63,24.47,10.55,34.43,12.28,15.43,27.47,27.81,43.2,39.56A274.47,274.47,0,0,0,372.64,1177.41Z"/><path class="cls-10" d="M840.78,734.64c-.94-6.17.31-11.28.93-16.24,2.38-18.9,2.2-37.86,1.51-56.76-.46-12.34-3.21-24.57-4.49-36.9-.85-8.29-1-16.58,4.54-23.87,4.76-6.29,14.24-9.49,22.77-7.13,7.14,2,13.87,10.25,14.44,17.52.24,3-.2,4.1-3.73,3.15-7.7-2.07-15-.84-20.64,5.19-6,6.39-7.94,14.36-4.26,22.14s2.84,15.36,2.4,23c-1.21,20.72-5.69,40.94-10.82,61C842.74,728.42,841.85,731.05,840.78,734.64Z"/><path class="cls-10" d="M940.3,823.47a61.88,61.88,0,0,0,28.08-27.86c9-.31,18,.88,26.88-.73a20.17,20.17,0,0,0,9.84-4.55c2.43-2.14,3.31-1,4.27,1.15,6,13.54.44,30.87-20.59,32.06-10.13.57-20.32.3-30.48,0-4.54-.12-8.88,1.28-13.38,1C943.32,824.54,941.53,825.11,940.3,823.47Z"/><path class="cls-21" d="M641.72,1182c-6.28,4.14-13,4.67-19.21,6.59-5.64,1.74-10.58.55-15.67-2.24q-31.92-17.49-62.18-37.68c-1.39-.93-3.81-1.6-1.79-4,1.64-2,2.3-5.89,6.14-4.21,12.93,5.65,26.78,10,38.34,17.76,8.8,5.88,16.94,10.17,27.44,12.15C623.93,1172.1,632.33,1177.78,641.72,1182Z"/><path class="cls-10" d="M797.35,963.39c1.36-13,2-26.09,3.93-39a29.87,29.87,0,0,0,.16-6c-.22-3.78,1.21-3.88,4-2.16,10.66,6.51,19.25,15.23,26.77,25.06,3.13,4.08,5.89,8.44,9,12.56,1.7,2.3.87,3.33-1.52,3.72a175.3,175.3,0,0,0-38.18,11C793.76,971.67,798.49,965.31,797.35,963.39Z"/><path class="cls-10" d="M880.41,825.6c12.58,4.39,25.41,6.67,38.76,4.86,5.74,4.56,8.3,10.72,8.21,17.82-.13,10,1.8,19.7,2.65,30.22-5.56-5.36-10.94-10.15-17.28-13.82-7.57-4.38-15.77-6.95-24.18-8.7-3.94-.82-4.53-2.88-4-5.94.83-5.19,1-10.63,4.33-15.08,1.45-1.92,1.17-2.84-1.23-3.33-3-.62-5.34-2.54-7.78-4.2C878.66,826.62,879,825.82,880.41,825.6Z"/><path class="cls-10" d="M755.6,1179.87a103.6,103.6,0,0,0-26.2,12.76c-8.59-1.62-14.45-9.42-15-18.56-.67-10.26,7.36-20.11,14.39-20.81,5.59-.55,11.29,1.76,16.74,3.56.83.28,1.55,1.78,1.78,2.84C748.85,1166.9,752.36,1173.33,755.6,1179.87Z"/><path class="cls-10" d="M811.44,438.69c1,8.71,4.25,16.57,11,22.22,9.89,8.26,21.79,6.47,32.95-4.54.34,7.8-3.18,13.58-9,17.46-6.15,4.13-13.16,5.06-20.32,1.73A21.56,21.56,0,0,1,814.72,463c-2.47-6.55-3.46-13.43-4.27-20.34C810.06,441.17,808.79,439.45,811.44,438.69Z"/><path class="cls-22" d="M654.29,1121.51c8.29,3,12,9.81,14.79,17.42.54,1.49.4,3-1.76,2-5.47-2.3-10.89-4.75-16.32-7.15-1.86-.82-1-2.07-.49-3.29,1.23-3,3.55-5.62,3.85-9Z"/><path class="cls-10" d="M840.61,1006.13l-12,21.61c-3.34-4.49-5.07-9.31-7.46-13.75-1-1.91.41-2.17,1.72-2.63A132,132,0,0,1,840.61,1006.13Z"/><path class="cls-21" d="M708,576.79c-5.48,10.13-10.41,19.25-15.35,28.37-.41.75-.89,1.37-1.94,1-2.29-.89-4.54-8.68-2.76-10.34C694.36,589.81,698.89,582,708,576.79Z"/><path class="cls-21" d="M840.44,299.68A262.29,262.29,0,0,1,863,254.61c0,4.18-1.92,6.87-3,9.74-2.08,5.6-4.43,11.08-4.55,17.16,0,1.9-1.24,3-2.45,4.14-5,4.56-8.34,10.23-11.53,16.05C839.61,301.79,839.84,300.83,840.44,299.68Z"/><path class="cls-21" d="M817.48,1160.23c-6.45-7.43-13.05-11.18-21.69-10a1.41,1.41,0,0,1-1-.75,1.19,1.19,0,0,1,.74-1.6c5.12-2.3,10.23-4.61,15.38-6.83,1.68-.72,2.27.21,2.61,1.84C814.59,1148.13,815.88,1153.37,817.48,1160.23Z"/><path class="cls-23" d="M811.44,438.69c-1.45,1.05-.83,2.62-1,4a3.14,3.14,0,0,1-1-2.68,258.37,258.37,0,0,1,3.5-49.88c2.42-13.88,5.86-27.44,9.58-41,.43-1.56.57-3.29,1.91-4.48h0c-.79,8-4,15.37-5.57,23.16-3.7,18-7.42,36-7.43,54.51Q811.45,430.54,811.44,438.69Z"/><path class="cls-24" d="M699.4,1125.73c1,8.79,2.07,17.58,3,26.37.1,1,.59,2.72-1,2.89-1.81.21-1.86-1.5-1.93-2.82C699,1143.42,697.74,1134.7,699.4,1125.73Z"/><path class="cls-23" d="M840.44,299.68a2.12,2.12,0,0,0,1,2l-11,25h0c1-8.1,5.26-15.1,7.87-22.65A40.74,40.74,0,0,1,840.44,299.68Z"/><path class="cls-25" d="M680.63,533.57a7.73,7.73,0,0,1,2,4c-.62,4.28-5.39,4.45-7.53,7.39C676.48,540.89,677.82,536.88,680.63,533.57Z"/><path class="cls-23" d="M824.45,344.68a47.51,47.51,0,0,1,6-18h0a79,79,0,0,1-6,18Z"/><path class="cls-26" d="M1043.58,291.52c-2.21-.51-5.79-.43-6.32-1.66-1-2.24,2.32-3.48,3.67-5.24,5.93-7.72,13.34-13.8,21.36-19.21a14.67,14.67,0,0,1,9.84-2.8c2.06.19,3.6,1.08,4,3.07a3.49,3.49,0,0,1-2.56,4.3c-11,2.62-17,11.61-24.61,18.66C1047.43,290.09,1046.22,292.13,1043.58,291.52Z"/><path class="cls-26" d="M1098.5,649.89c-7.77-1.16-15.56-2.17-23.29-3.55-5.38-1-10.67-2.43-16-3.66-2.8-.65-5.28-1.68-4.69-5.22s3.66-3.14,6-2.77c7.85,1.25,15.6,3.45,23.49,4.12C1091.28,639.43,1094.6,644.49,1098.5,649.89Z"/><path class="cls-26" d="M1034.07,403c.31-10,.7-19.85,3.29-29.41,1.09-4,5.41-4.53,8.42-6.31,1.69-1,1.73.94,1.54,2-1.23,7.16-2.1,14.42-4,21.4C1042,395.61,1036.56,398.2,1034.07,403Z"/><path class="cls-26" d="M1096.42,377.68c0-2.61-.14-4.77,0-6.91.2-2.45,1.61-4.11,4.18-3.95s3.67,1.93,3.81,4.38c.34,5.93.76,11.86,1,17.8.07,1.92,1,4.8-2.63,4.59-2.78-.17-5.17-1.06-5.46-4.53C1097,385.12,1096,381.23,1096.42,377.68Z"/><path class="cls-27" d="M1134.77,510.23c2.87,4.43,5.79,8.81,8.56,13.27,1.36,2.2,2.29,4.78-.17,6.71s-5,.56-7-1.41C1130.73,523.51,1130.37,518.7,1134.77,510.23Z"/><path class="cls-28" d="M991.5,463.87c-2.7-6.4-1.53-11.84-2.89-16.92-.3-1.13-.5-3,1.48-3,1.48,0,1.4,1.57,1.41,2.71C991.51,452,991.5,457.24,991.5,463.87Z"/><path class="cls-21" d="M473.78,809.63c3.62-9.7,8.56-18.69,13.8-27.48,4.06-6.82,8-13.82,13.59-19.55,1.33-1.36,2.37-4.78,5.2-2.82s2.74,6.64.14,9.29c-5.23,5.33-9.5,11.47-14.36,17.11C485.66,793.7,480,801.86,473.78,809.63Z"/><path class="cls-21" d="M598.77,946.31c-5.22,6.43-10.2,10.93-16.9,13.13-1.49.49-3.72,2.66-4.18-.61-.28-2-3.05-5.3,1.8-6.25A101.29,101.29,0,0,0,598.77,946.31Z"/><path class="cls-29" d="M461.66,841.37c1.59-7.79,4.23-14.43,7.12-21.38C472.3,826.93,469.65,834.92,461.66,841.37Z"/><path class="cls-2" d="M762.45,491.66a23,23,0,0,1-14.59,21.82c-5.22,2-9.35,0-10.42-5.44-1.43-7.32-3.32-14.63-.42-22.1,2.67-6.88,6.84-9.27,14.92-8.14,7.62,1.07,10.11,3.87,10.5,11.87C762.48,490.33,762.45,491,762.45,491.66Z"/><path class="cls-30" d="M773.56,1254.53c-4.42-7.5-3.79-13.53,1.77-19.64C779.73,1241.79,779.46,1245.3,773.56,1254.53Z"/><path class="cls-2" d="M928.31,756.62c-.49,3-1.06,6.78-1.7,10.53-2.32,13.63-15.51,17.23-26.09,14-4.86-1.49-5.95-5.55-5.55-9.93.34-3.78,1.39-7.49,2.08-11.24,2.28-12.38,16.37-16.82,28.93-11.73C929.07,749.49,928,753.12,928.31,756.62Z"/></g></g></svg>