<svg xmlns="http://www.w3.org/2000/svg" viewBox="0 0 1514.98 1365.4"><defs><style>.cls-1{fill:#d0d0d0;}.cls-2{fill:#676767;}.cls-3{fill:#bebebe;}.cls-4{fill:#aa612c;}.cls-5{fill:#156109;}.cls-6{fill:#e3200b;}.cls-7{fill:#edbb09;}.cls-8{fill:#471906;}.cls-9{fill:#faf2d4;}.cls-10{fill:#be9609;}.cls-11{fill:#62551b;}</style></defs><g id="레이어_2" data-name="레이어 2"><g id="레이어_1-2" data-name="레이어 1"><path d="M1316.52,871.41c13.63,2.15,27.45,3.39,40.58,8,23.65,8.28,42.46,22.34,49.85,47.19,8.3,27.89,2.38,53.94-14,77.77-.66.95-1.4,1.85-2.09,2.79a5.87,5.87,0,0,0-.26,1c7.74.75,15.4,1.51,23.06,2.24,10.45,1,20.83,2.46,31.17,4.28,28.07,4.93,46.45,21.77,57.53,47.29a255.27,255.27,0,0,1,11.61,34.47c4.36,16-6.23,32.47-21.6,34.55a27.1,27.1,0,0,1-11.35-1.18c-11.52-3.37-23.36-5.06-35.17-7-3.37-.55-3.85.47-3.7,3.56.83,16.88,5,33.22,7.78,49.78a38,38,0,0,1-1,17.77c-4.27,13.92-18.54,20.47-34.6,15.67q-21.24-6.36-42.35-13.2c-3.16-1-4.1-.54-4.77,2.92-3.29,17.12-6.12,34.35-10.79,51.18-3.15,11.39-6.73,22.66-13.25,32.68-10.73,16.49-27.14,23.83-45.46,28.2-30.44,7.27-61.39,11.74-92.16,17.14-62.75,11-126.32,14.59-189.57,21.13-84.63,8.76-169.55,10-254.52,11.21-57,.8-113.91,2.91-170.87,4.31-50.89,1.24-101.52-2.82-152.14-7.41-39-3.53-77.79-8.57-116.82-11.53-37.94-2.89-74.28-12.93-110.13-25.15-18.69-6.38-36.56-14.12-52.26-26.45q-53.46-42-51.95-109.77c.14-6.49,0-13,1.3-19.43.62-3.14.16-4-3.36-3.27-17.92,3.67-35.85,7.23-53.59,11.72-7,1.77-14.12,2.7-21.27,1-16.49-4-26.85-18.67-25.1-35.89,2-19.27,10.14-36.43,19-53.26,14.68-28,37.84-47.82,63.35-65.32,7.18-4.93,7.32-4.8,3.81-12.48-15-32.77-4.18-69.21,32-83.91a165.44,165.44,0,0,1,23.22-7.52c1.93-.47,3.9-.81,5.84-1.2.4-.31,1.11-.48,1.22-.79.19-.58-.47-.18-.74-.3-1.08-.46-2.33,0-3.4-.6-26.44-1.46-52.93-2.3-79.2-6.09-9.7-1.4-17.12-5.93-22.26-14.31-8.15-13.31-3.86-28.72,10.32-35.29,12.07-5.6,25-9.11,37.51-13.48,8.37-2.91,16.77-5.73,26.31-9-8.12-1.82-14.92-3.06-21.56-4.9-17-4.74-28.09-17.72-28.88-35.33-1-22.86,1.07-45.61,5.07-68.13,1.35-7.62,5.72-13.49,13.17-16.41a5.85,5.85,0,0,0,3.49-3.8c4.29-10.41,14.09-15.55,25.07-13.09a114,114,0,0,0,13.68,2.68c1.85.19,3,0,3.44-2.35,1.17-6.88,2.5-13.74,4.13-20.52.64-2.65-.23-3-2.46-3.33-18.83-3.25-37.61-6.79-56-11.87-20.67-5.69-40.21-13.75-57.39-27.07C8.75,619.57.16,605.11,0,585.37c-.11-14.76.83-29.29,3.83-43.67,4.6-22.13,9.51-44.19,14.19-66.3,6.34-29.86,17.85-57.68,32.38-84.43,28.36-52.18,59.37-102.59,97.37-148.42,65.07-78.48,143.51-139.48,237-180.71,44.31-19.54,90.45-33.2,138-42.38,82.63-16,166-21.62,250-18.74A956.27,956.27,0,0,1,921,17.84c43.6,8.42,87.28,16.67,129.86,29.4,78.53,23.46,151.44,58.94,219,105.2,29.75,20.36,54.5,46.39,79.25,72.31,45,47.1,79.21,101.36,106.49,160.22,7.76,16.74,15.6,33.44,23.18,50.26,3.94,8.74,6.39,17.73,4,27.58a32.7,32.7,0,0,1-13,19.48c-7.59,5.43-14.85,11.27-22.08,17.16-16.84,13.73-36.7,22.16-56.29,30.81-21.13,9.32-42.74,17.53-64.14,26.24-1.89.77-3.76,1.62-7,3,5.45,0,9.35,0,13.26,0,17.53-.22,28.18,7,33.39,23.59,11.47,36.64,19.73,73.9,20.65,112.5.41,17-5.62,26-22.07,31.12-12,3.74-24.54,4.47-37,4.83-3.44.1-5.34,0-4.4,4.81,2.18,11.09-3.46,21-14.3,25.85-9.44,4.2-19.72,5.91-29.47,9.25-10.21,3.51-20.53,6.69-30.81,10-1.31,1-2.94,1.15-4.74,1.7-.36.06.55.9.27.3-.11-.23,0-.37.28-.41,1.1-.16,2.25-.68,3.21.38,34.73,2.34,69.46,4.6,104.19,7,21.75,1.52,43.48,3.36,64.65,9.06,12.51,3.37,23.26,8.83,27.91,22.32,4.75,13.83-2.34,28.23-16.61,31.65-13.77,3.3-28,4-42,5.87-23.42,3.1-46.83,6.32-70.13,10.25-1.24,1.06-2.8.75-4.23,1-.66,0,.14.57.18.54A3,3,0,0,1,1316.52,871.41Z"/><path class="cls-1" d="M1316.52,871.41h-5.59c1.92-2,3.81-1.8,5.61-1.81C1316.53,870.2,1316.53,870.8,1316.52,871.41Z"/><path class="cls-2" d="M149.49,913.58H156c-1.22,1.34-2.2,2-3.62,1.69Z"/><path class="cls-3" d="M1248.53,783.42h-3.86l-.24-.77,5.08-1.2C1249.18,782.1,1248.85,782.76,1248.53,783.42Z"/><path class="cls-4" d="M313.89,630.82c-39,.82-77.89-1.53-116.81-3.07-7.15-.28-14.33.22-21.45.13-7.55-.09-15.07-2.18-22.61-3.41q-38-6.16-75.15-16a94.6,94.6,0,0,1-29.76-13.72c-3.34-2.3-4.79-4.88-4.7-9.09.22-10.38,1.25-20.63,4.33-30.53a601.87,601.87,0,0,0,16.42-66.82c5.47-29,17.21-55.51,31.66-81s28.7-51.12,45.06-75.48c42.71-63.6,93.43-119.52,155.78-164.63a579.52,579.52,0,0,1,151.83-79C484.12,76,520.73,67.62,557.89,61.54c34-5.56,68.25-9,102.64-11.28,29.77-1.94,59.54-3.15,89.37-2.5a921.41,921.41,0,0,1,102,7.56C916.29,64,979.86,76.67,1042.26,94.54c56.49,16.19,108.9,42,159.82,71,65.91,37.52,117.13,90.64,160.55,151.89,24.17,34.1,43,71.2,59.8,109.39,3.15,7.17,6.44,14.28,10,21.26,1.41,2.79.91,4.59-1.24,6.5-4,3.57-8.75,6.08-13.31,8.78-27.46,16.28-57.18,27.62-86.4,40.18-50.56,21.73-103.27,35.88-156.73,47.87q-58.64,13.14-117.52,25.09c-22.14,4.54-44,10.75-66.46,13.34-18.68,2.15-37.41,3.88-56.14,5.52q-52.47,4.61-105,8.85c-28,2.27-56.09,4.43-84.16,6.32-46.35,3.13-92.75,5.33-139.16,7.22Q551.16,620,496,622.71c-39.41,2-78.79,4.5-118.2,6.38C356.53,630.1,335.2,630.27,313.89,630.82Z"/><path class="cls-5" d="M796.59,1203.46c-2.88,5.57-9.59,6.48-15.71,2.84-10.53-6.27-18.28-16-28.31-22.7-17.67-11.86-35.79-23-53.71-34.52-5.74-3.68-11.43-7.41-17.16-11.1-16.22-10.46-33.88-7-46,7.91-9.42,11.64-16.45,24.92-26.07,36.36-3,3.56-5.95,7.18-9.21,10.48-4.23,4.28-9.66,3.33-15.53-1.42-16.33-13.23-30.42-28.77-45.39-43.41-6-5.86-12.64-10.77-21.38-11.8-6.45-.76-12.51.84-18.35,3.28-11.35,4.74-22.64,9.63-33.94,14.51-7,3-12.41,8.32-18.57,12.55a174.68,174.68,0,0,1-34.56,18.77c-10.38,4.11-17.3-.65-18.3-11.44-1-11-1-22.16-3.84-33-5.39-20.46-23-27.7-39.86-22.5-5.23,1.61-10.62,2.7-15.88,4.21-31.14,9-63.28,13.66-94.52,22.06-11.66,3.13-22.77,8.32-34.13,12.57a16.87,16.87,0,0,1-8.28,1.4c-3.57-.5-5.17-2.38-3.38-5.89,2.37-4.65,6.09-8.29,9.58-12.06,10.12-11,11.59-23.36,3.93-34.44-5.33-7.71-15.21-11.46-25.15-9.21-39.47,9-79.11,17.08-118.8,25-1.29.26-2.79,1.21-3.74.07s.41-2.43.89-3.6c9.4-22.86,26.52-39.11,45.82-53.53,8.12-6.06,16.29-12.07,24.16-18.44,4.72-3.81,9.42-5.07,15.5-3.77,25.3,5.43,50.95,8.74,76.61,12,18.58,2.35,37.08,5.31,55.66,7.65,9.21,1.16,18.52,1.67,27.79,2.22,24.72,1.47,49.47,2.36,74.22,3.26,13.94.5,27.89,1.24,41.83,1.88q36.82,1.73,73.63,4.08c11.44.75,22.87,1.4,34.33,1.81,24,.88,47.94.71,71.9,1.18,83.77,1.64,167.54.8,251.31.55,24.44-.07,48.88-1.48,73.33-1.9,20.61-.36,41.22-1.14,61.82-2,22.25-.87,44.5-1.82,66.73-3q29.34-1.62,58.63-4c25-2,49.9-4.41,74.83-6.79q30.47-2.91,60.89-6.2c13.19-1.44,26.34-3.21,39.6-4,9.81-.6,19.51,1,29.27,1.41,11.59.53,23.15,1.84,34.73,2.71,18.69,1.41,37.38,2.81,56,4.76,10.9,1.15,21.77,2.24,32.37,5.22,6.41,1.8,9.85,6.71,13.94,12.81-12.26-1.85-23.4-3.26-34.44-5.25-16.93-3-34.42,10.27-29.56,29.91,1.73,7,1.5,14.2,2,21.29.67,9.44,1.34,18.88,2.48,28.27.38,3.18-.59,3.33-3.18,2.54-25.08-7.66-50.75-13.17-75.8-21-13.26-4.16-26.85-7.52-40.35-11-16.37-4.19-31.86-10.47-47.1-17.64-21-9.88-40.25-1.91-48.37,19.78-2,5.46-3,11.22-4,16.93-.37,2,.78,3.54,1.64,5.11,4.41,8.12,6.84,16.73,8.42,25.89,2.65,15.26-8.63,22.5-21.87,18.61-12.93-3.8-25.18-9.52-37.85-14.08a847.48,847.48,0,0,1-78.72-32.71c-8.26-3.95-15.26-10.11-23.81-13.57-12.38-5-31.87-1.34-38.09,17.16-2.53,7.54-1.47,14.78-.67,22.12,1.11,10.24,2.33,20.39.76,30.72-1.7,11.2-8.2,14.81-18.39,10.09-13.14-6.07-26.37-11.94-39.63-17.72a86.57,86.57,0,0,1-12.85-6.61c-9.13-5.93-19.35-9.47-29.27-13.65-14.64-6.15-28.1-14.4-41.46-22.88-8.08-5.12-16.64-9.53-26.69-7.74-11,2-19.91,12.85-22.83,25.73-2.19,9.66.71,18.79,1.46,28.14a21.21,21.21,0,0,1-.42,5.83C796.37,1201.19,797.09,1202.51,796.59,1203.46Z"/><path class="cls-4" d="M154.54,1206.42c14.38,7.67,27.45,2.87,40.64-.77,15.92-4.4,30.71-11.88,46.48-16.71,24.48-7.5,48.41-16.61,72.53-25.16,10.11-3.58,20.35-6.1,31.12-6.55,5.59-.24,9.16,2.23,11.57,7a66.54,66.54,0,0,1,6.75,24.9c.58,6.94,1.5,13.92.15,20.9a7.69,7.69,0,0,0,1,4.82c7,14.58,23.94,22.93,39.68,19.06,15.93-3.91,30.1-11.58,42.85-21.77a171.37,171.37,0,0,1,40.55-24.34c15.62-6.58,26.92-4.33,39.18,7.45,7.23,6.93,13.52,14.7,20.37,21.92,12.51,13.18,28.09,22.23,46.13,25,15.62,2.43,28.72-3.56,38.09-16.78,7.32-10.31,14.32-20.83,23.17-30,9.57-9.93,20.83-10.82,33.11-7.34,7.32,2.07,13.24,6.86,19.57,10.85,14.08,8.88,27.63,18,38.92,30.84,12.3,14,28.26,23.68,45.75,30.33,15.44,5.88,32.27-2.65,38.48-19.35a86.32,86.32,0,0,0,5.18-32.34,57.12,57.12,0,0,1,.19-10c1.28-8.17,7.69-11.41,15.14-7.77s13.72,9.37,20.43,14.28c8.34,6.11,16.14,12.87,23.84,19.75,3.59,3.19,8,4.81,12.26,6.54,26.88,10.82,54.59,19.31,81.69,29.52,15.55,5.86,30.42-1.24,35.56-17.2a92.52,92.52,0,0,0,2.25-50.24,45.24,45.24,0,0,1-.74-15.36c.45-4,2.79-5.73,6.76-5.78a18.17,18.17,0,0,1,10.32,3.27c15.63,10.17,31.51,20,45.36,32.63A13,13,0,0,0,1094,1211c30.57,9,59.94,21.09,89.12,33.73,4.92,2.13,10.08,3.66,15.49,3.15,13.58-1.29,23.84-12.58,24.74-28.16a227.72,227.72,0,0,0-.6-36.92c-.83-7.9-1.3-16,1.64-23.71,2.13-5.6,5.89-8.11,11.94-8.89,21.08-2.74,40.53,3.37,59.9,10.19,6.23,2.2,12.65,3.86,18.16,8,5.76,4.37,8.49,9.67,7,16.71-4.13,19.86-7,40-13,59.43-.54,1.74-1.3,3.43-1.8,5.18-2.21,7.84-7.46,11.93-15.29,14-24.5,6.42-49.51,10.16-74.39,14.54-22.76,4-45.58,7.65-68.53,10.51-22,2.73-44,4.61-66.06,6.68-27.17,2.55-54.33,5.23-81.51,7.61q-33.57,2.94-67.2,5.3c-53.87,3.85-107.86,3.34-161.81,4.38q-77.94,1.48-155.85,4.08a1207.27,1207.27,0,0,1-131.78-3.08c-41.33-3.18-82.49-7.9-123.71-12.08-22-2.24-44.13-3.38-66-7.17A337,337,0,0,1,250,1283.3c-17.41-5.54-35.35-10-51.22-19.44-21.23-12.69-36-30.78-43.63-54.5C155,1208.77,154.9,1208.14,154.54,1206.42Z"/><path class="cls-6" d="M118.43,764c0-7.49,0-15,0-22.47,0-2.74,1-3.27,3.7-2.8,42.87,7.65,86,12.52,129.62,11.39,13.49-.35,27.08.29,40.44-1.19,8-.89,15.94-2.59,24.11-2.34,13.15.4,26.34.16,39.45,1.06,20.72,1.41,41.39,3.5,62.08,5.37,18.87,1.71,37.74,3.54,56.62,5.27,31.6,2.89,63.26.5,94.9.89,28,.35,55.94,1.7,83.95,1.17,32.31-.61,64.65-.25,97-1.29,13-.41,26.1-3,39-5.33,38.6-7,77.13-14.4,115.44-22.85,21.84-4.82,44.11-6.27,66.19-9.27,25.55-3.49,51-7.51,76.47-11.6,56.16-9,111.86-20.66,167.92-30.22,13.28-2.26,26.62-4.22,39.91-6.42,2.33-.38,3.92-.44,5.1,2.22,5.87,13.25,10.92,26.81,15.53,40.54,1.42,4.26.52,6.65-4.12,8.17-29.59,9.69-59.43,18.41-90.2,23.62-23.61,4-47.36,7.41-70.73,12.57-17.18,3.79-34.61,3.41-51.82,5.87-25.51,3.66-51.09,6.86-76.58,10.65-19.27,2.87-38.64,4.51-58,6.34q-40,3.79-80,7.77c-27.67,2.74-55.29,5.9-83,8.29-40.64,3.5-81.3,6.9-122,9.55a1130,1130,0,0,1-121.39,1.26c-41.61-1.78-83.19-4.09-124.8-5.59-29.13-1.06-58.27.46-87.39,1.79-12.8.58-25.59,1.54-38.43,1.17-15.84-.45-31.41-3.26-47.09-5.09-31.11-3.63-61.61-10.73-92.57-15.17-11.45-1.64-9.57.84-9.82-10.83-.09-4.17,0-8.33,0-12.5Z"/><path class="cls-7" d="M1243.5,833.33q-53.1,10.56-106.19,21.12c-23.16,4.62-46.53,8-69.79,12.07-12.79,2.23-25,6.76-37.35,10.87-21.93,7.33-44.74,11.71-66.39,19.89-22.86,8.64-45.74,17.17-69.1,24.45-16.29,5.08-31.15,13.35-45.11,23.21a114.38,114.38,0,0,1-17.31,10.11c-14.14,6.68-27.21,15.42-39.77,24.82a9.26,9.26,0,0,1-6.78,1.86c-13.87-.86-25.87-7.07-38.13-12.58-20.48-9.22-40.81-18.76-61.49-27.52-26.23-11.1-53.62-17.44-81.61-22.21C561.17,912,517.91,904.35,474.6,897c-31.5-5.36-62.73-12.21-94.35-16.84-19.66-2.88-39.53-2.41-59.32-3-38.63-1.1-77.29-1.36-115.75-5.71-9.71-1.1-19.42-2.27-29.34-3.43.39-1.93,1.95-1.94,3-2.35,12.86-5,25.75-10,38.62-15a14.11,14.11,0,0,1,5.81-1.18c50,2.24,100,.46,149.89,2.3,50.44,1.86,100.85,4.55,151.29,6.37,57.51,2.07,114.9-.47,172.22-5.41,32.69-2.81,65.42-5.08,98.06-8.43,34-3.49,67.9-7.09,101.86-10.54,24.84-2.52,49.74-4.56,74.56-7.36,34.07-3.86,68.09-8.12,102.1-12.48,7-.91,13.6.82,20.28,1.78,30.66,4.39,61.44,7.65,92.25,10.67,19.88,1.94,39.82,3.37,59.73,5C1246.08,833.42,1244.05,832.59,1243.5,833.33Z"/><path class="cls-8" d="M865.11,991.14c6.48-3.23,12.9-6.61,19.46-9.66,36.51-17,73.73-32.11,112.15-44.25,28.19-8.91,56.91-15.73,85.65-22.49a26.35,26.35,0,0,1,6-.31c29,0,58-.61,87,.27,25.77.79,51.54-.06,77.28.93,21.2.82,42.49,1,63.54,4,10.44,1.48,21.11,2.29,30.89,7,14.11,6.87,16.93,14.63,15.07,30.58-2.2,19-14.9,28.1-31.52,33.71s-33.34,10.78-51.06,9.35c-21.67-1.75-43.42-1.95-65.08-3.71-8.1-.65-16.27-.64-24.39-.88-20.11-.59-40.25-.87-60.35-1.56-28.06-1-56.06.21-84.06.66-24.79.4-49.61-.32-74.36.9-20.07,1-40-.49-60.07-.51-15.22,0-30.43-1.87-45.65-2.91Z"/><path class="cls-9" d="M1326.27,683.84c-10.85.32-10.79.29-15-9.87-3.56-8.61-7.13-17.21-11-25.69C1296,638.65,1290,630.5,1279.91,626a29.48,29.48,0,0,0-18-2.3c-34.48,6.57-69.34,10.94-103.78,17.79q-85.17,16.93-171.06,29.74c-46.3,6.95-92.89,11-139.59,14.29-111.11,7.8-222.43,7.45-333.67,10.25q-133.15,3.35-266.32,6.51c-21.34.51-42.63-.84-63.92-2-4.24-.24-4.82-1.78-3.59-5.3,1.59-4.55,3-9.14,4.5-13.73.6-1.88,1.52-2.48,3.68-2.16,82.82,12.26,166.15,14.53,249.7,12.88,41.3-.81,82.63-.4,123.89-3.38,47.34-3.42,94.8-5.11,142-10.2,50.65-5.45,101.39-10.2,151.87-17.1q73.92-10.1,147.26-23.94c14.89-2.83,30.11-3.34,45.2-4.7,47.27-4.26,94.49-8.94,141.61-14.77,43.16-5.33,86.54-8.27,130-10,2-.07,4-.87,5.09,2.35A300.73,300.73,0,0,1,1338.56,677c.45,4.83-.46,7.24-5.81,6.6A40.31,40.31,0,0,0,1326.27,683.84Z"/><path class="cls-8" d="M763.51,1029.49h-4.76c-54.15,0-108.3.25-162.44-.31-17.09-.17-34.22-.23-51.3-.92-15.93-.65-31.87-1.14-47.78-2-17.06-.92-34.1-2.17-51.17-3-13.1-.66-26.19-1.36-39.29-2q-24.64-1.12-49.28-2c-13.77-.52-27.52-1.44-41.29-1.92-8.94-.31-17.86-1.26-26.78-2a24.6,24.6,0,0,1-4-1.28c12.51-2,23.74-3.95,35-5.55q22.11-3.16,44.31-5.83c8.22-1,16.5-1.58,24.76-2.19,18.35-1.37,36.7-2.76,55.07-3.88,7-.43,14-.05,21-.19a873.75,873.75,0,0,1,96.14,3.19q35.85,3.24,71.62,7.66c25.3,3.15,50.53,6.75,75.68,11,14,2.36,28.16,4.16,42.25,6.23A25.74,25.74,0,0,1,763.51,1029.49Z"/><path class="cls-8" d="M524.51,948.74c-23.25-1.1-46.23-.68-69.16-.07-19.87.54-39.77,1.26-59.58,3.59-13,1.52-26.13,1.83-39.13,3.29-15.63,1.76-31.21,4-46.75,6.33-19.64,3-39.27,6.06-58.81,9.62-16.78,3.06-33.42,6.85-50.13,10.31-8.6,1.78-17.21,3.5-25.79,5.34a5.58,5.58,0,0,1-4.63-1.08c-9-6-17.84-6.25-26.71.47-2.14,1.62-4.69,4.85-7.27,3.34-3-1.74-3.63-5.8-3.87-9.33-.42-6.08,2.68-10.15,9.67-12.88a150.2,150.2,0,0,1,31.74-8.18c24.85-3.88,49.8-7.23,74.64-11.18,22.24-3.55,44.61-6.07,67-8.72,18.09-2.13,36.31-3.19,54.4-5.31,11.88-1.39,23.81-1.82,35.7-2.62,14.13-.95,28,2.45,41.94,4.42,20.15,2.84,40.24,6.19,60.34,9.43C513.58,946.4,519,947.65,524.51,948.74Z"/><path class="cls-10" d="M1243.5,833.33l2-1.87h3.39A5.75,5.75,0,0,1,1243.5,833.33Z"/><path class="cls-11" d="M796.59,1203.46c-.46-1.25-1.89-2.79.94-3C797.64,1201.59,797.76,1202.72,796.59,1203.46Z"/><path d="M698.28,138.27c9.83,0,18.25,6.27,20.3,15.9a47.68,47.68,0,0,0,6.84,16.4c3.44,5.29,6.35,10.93,6.2,17.61a19.91,19.91,0,0,1-25.89,18.5,32.23,32.23,0,0,1-15.66-11.1c-8.77-11.06-13.58-23.58-12.63-37.89A20.59,20.59,0,0,1,698.28,138.27Z"/><path d="M946.72,209.64c0,15.48-15.33,25.5-29.88,19.56a31.5,31.5,0,0,1-8-4.95A204.37,204.37,0,0,1,888.58,205c-7.54-8.1-7.5-19.74-.35-28.11a20.53,20.53,0,0,1,27.12-3.62,183.65,183.65,0,0,1,25.23,21A21.07,21.07,0,0,1,946.72,209.64Z"/><path d="M300.37,283.93c0-5.13.86-10.28,3.91-14.24C313,258.41,324,250,338.07,246.45a19.52,19.52,0,0,1,21.73,9.47,20.61,20.61,0,0,1-2.14,24.15,40.06,40.06,0,0,1-4.13,4.31c-6.15,5.48-13.18,9.75-18.89,16s-14.18,6.91-22.17,3.13C304.31,299.64,300.51,292.86,300.37,283.93Z"/><path d="M579.6,292.65c.69-7.53,1.46-16.82,6.83-24.95,6.11-9.24,16.63-12.77,26.09-8.74,10.08,4.3,15,14.44,12,25.49-1.5,5.48-1.15,10.87-.77,16.35.85,12.42-4.6,21.27-14.57,23.59-10.67,2.48-22.29-3.77-26.7-14.39C580.3,304.71,579.51,300.5,579.6,292.65Z"/><path d="M414.38,397.68c-14.93,0-24.73-14.69-18.93-28.84a98.57,98.57,0,0,1,14.94-24.71c7.66-9.43,19.15-11.16,28.51-4.84s11.94,17.75,6.26,28.28c-4.72,8.75-8.65,18.09-16.66,24.66C424.35,395.63,419.79,397.68,414.38,397.68Z"/><path d="M177.83,379.55c-15.8.06-25.79-13-21.43-26.15a57.94,57.94,0,0,1,23.08-30.47c8.56-5.74,19.27-4.18,26.41,3.25a20.71,20.71,0,0,1,1.77,26.6C203.87,358,200,363.29,196,368.32,190.76,374.73,184.34,379.22,177.83,379.55Z"/><path d="M1123.33,259.53a20.67,20.67,0,0,1,13.08-19.47c8.43-3.28,16.35-1.82,22.49,4.67,4.67,5,9.58,9.7,14,14.85,7.56,8.76,9.22,19.22,4.53,27.13-5.48,9.22-16.06,12.53-27,7.39-12.19-5.71-20.79-15.25-26-27.71A17.43,17.43,0,0,1,1123.33,259.53Z"/><path d="M818.54,364.65c-7.39-.33-14.3-5.53-19.24-13.3-5.74-9-8.79-18.83-4.45-29.38,3.36-8.17,9.83-12.47,18.67-12.67,9.05-.2,15.88,3.85,19.48,12.16,2,4.57,4.15,9,6.14,13.6C845.36,349.38,835.89,364.6,818.54,364.65Z"/><path d="M467.32,196.7c-.08-11.56,10.67-21.93,22.76-22a18.42,18.42,0,0,1,18.32,18.51c.16,12.34-9.92,23.25-21.42,23.19A19.78,19.78,0,0,1,467.32,196.7Z"/></g></g></svg>